<svg xmlns="http://www.w3.org/2000/svg" viewBox="0 0 354.27 401.14"><defs><style>.cls-1{isolation:isolate;}.cls-2,.cls-30{fill:#e4f9ed;}.cls-3,.cls-5{fill:#ccf0f7;}.cls-3,.cls-40,.cls-44,.cls-50,.cls-51,.cls-53,.cls-54{opacity:0.4;}.cls-14,.cls-15,.cls-3,.cls-38,.cls-40,.cls-42,.cls-44,.cls-46,.cls-50,.cls-51,.cls-53,.cls-54,.cls-8{mix-blend-mode:multiply;}.cls-4{fill:#b7e2c8;}.cls-6{fill:#77bdc4;}.cls-12,.cls-13,.cls-18,.cls-29,.cls-31,.cls-55,.cls-7{fill:none;}.cls-30,.cls-7{stroke:#b7e2c8;}.cls-13,.cls-17,.cls-18,.cls-19,.cls-29,.cls-31,.cls-7{stroke-linecap:round;stroke-linejoin:round;}.cls-7{stroke-width:0.75px;}.cls-11,.cls-14,.cls-15,.cls-40,.cls-8{fill:#dcefff;}.cls-48,.cls-8{opacity:0.6;}.cls-9{fill:#162e66;}.cls-10{fill:#369;}.cls-12{stroke:#fff;}.cls-12,.cls-16,.cls-21,.cls-30,.cls-55{stroke-miterlimit:10;}.cls-13,.cls-16{stroke:#369;}.cls-15{opacity:0.9;}.cls-16,.cls-17,.cls-19,.cls-37,.cls-39{fill:#fff;}.cls-17,.cls-18{stroke:#f66;}.cls-17,.cls-18,.cls-29{stroke-width:0.94px;}.cls-19{stroke:#f1ba68;stroke-width:0.94px;}.cls-20,.cls-26,.cls-32{fill:#b2b2b2;}.cls-21{fill:#ddd;}.cls-21,.cls-29{stroke:#b2b2b2;}.cls-22,.cls-26,.cls-32,.cls-33{font-size:9.89px;font-weight:700;}.cls-22,.cls-33,.cls-41{fill:#f66;}.cls-22,.cls-32,.cls-33{font-family:D-DINExp-Bold, D DINExp-Bold;}.cls-23{letter-spacing:0.02em;}.cls-24{letter-spacing:0.02em;}.cls-25{letter-spacing:0.02em;}.cls-26{font-family:Ebrima-Bold, Ebrima;}.cls-27{letter-spacing:-0.09em;}.cls-28{letter-spacing:0.01em;}.cls-31{stroke:#099;stroke-width:3px;}.cls-33{letter-spacing:-0.11em;}.cls-34{letter-spacing:0em;}.cls-35,.cls-38{fill:#f1ba68;}.cls-36{fill:#d7892e;}.cls-37,.cls-42{opacity:0.5;}.cls-37,.cls-48{mix-blend-mode:overlay;}.cls-38{opacity:0.7;}.cls-43,.cls-44{fill:#1b2d3f;}.cls-45,.cls-53{fill:#b27264;}.cls-46{opacity:0.2;}.cls-47{fill:#7f4b42;}.cls-49,.cls-54{fill:#00a1f1;}.cls-50{fill:#00719e;}.cls-51{fill:#099ad3;}.cls-52{fill:#00668e;}.cls-55{stroke:#02729e;}.cls-56{fill:#058cc1;}</style></defs><title>d-i-2</title><g class="cls-1"><g id="Capa_2" data-name="Capa 2"><g id="OBJECTS"><path class="cls-2" d="M303.18,212.19c13.06-17.42-19.61-24.44-10.23-30.09s35.43-10,34.46-20.3-19.64-12.43-8.93-22.1,29.78-10.44,31.56-22.62-17.32-5.61-9.21-17.38,17.71-18.28,11.4-26.9C342.86,67.65,337.64,78,327,87.58s-6.59-10.22-18.43-6.88-10.15,22.35-18.35,34.22-12.74-6.37-23.07-6-11.28,26.77-15.67,36.8-15.58-21.46-31.15-6.24,1.47,81.84,1.47,81.84S290.11,229.6,303.18,212.19Z"/><path class="cls-3" d="M292.07,201.14c9.49-12.64-14.24-17.74-7.43-21.85s30.74-13,30-20.44-14.26-9-6.49-16S337,127,338.3,118.18s-12.58-4.08-6.69-12.62S344.48,92.29,339.89,86c-6.8-3.73-10.59,3.79-18.3,10.74s-4.78-7.42-13.38-5-14.56,24.42-20.52,33-9.25-4.62-16.75-4.35-13.2,25.14-16.39,32.43-11.31-15.58-22.62-4.54S233,207.77,233,207.77,282.58,213.79,292.07,201.14Z"/><path class="cls-4" d="M352.23,72.8c-5.71,6-11.35,12-17,18s-11.29,12-16.89,18.06Q301.52,126.93,285,145.3c-5.54,6.1-11,12.29-16.44,18.46s-10.82,12.44-16.11,18.75-10.54,12.66-15.71,19.08l-7.61,9.74-7.28,10c9.18-13.71,19.52-26.59,30-39.31s21.39-25.1,32.4-37.38,22.21-24.37,33.55-36.33q8.52-9,17.1-17.87T352.23,72.8Z"/><path class="cls-4" d="M309.82,80.43c-.66,3.38-1.28,6.77-1.81,10.17s-1,6.8-1.41,10.22-.66,6.84-.74,10.26a40.91,40.91,0,0,0,.77,10.15l-.45-.37c3.66.2,7.35.28,11,.22s7.36-.26,11-.53,7.33-.71,11-1.28,7.25-1.33,10.84-2.19a101.74,101.74,0,0,1-10.75,2.69c-3.64.66-7.31,1.21-11,1.56s-7.38.57-11.08.67-7.4.07-11.11-.16a.47.47,0,0,1-.44-.38,41.42,41.42,0,0,1-.71-10.4,96.17,96.17,0,0,1,.9-10.33c.47-3.42,1-6.83,1.68-10.22S308.94,83.76,309.82,80.43Z"/><path class="cls-4" d="M265.44,109.26c.66,8.31,1.45,16.6,2.51,24.86.53,4.13,1.14,8.24,1.88,12.33a71.73,71.73,0,0,0,3,12l-.27-.28A88.87,88.87,0,0,0,285.87,162a115.17,115.17,0,0,0,13.71,2.1,110.52,110.52,0,0,0,13.86.49c2.32,0,4.63-.18,6.94-.33,1.16-.05,2.31-.21,3.46-.34l3.46-.38a112.49,112.49,0,0,1-13.84,1.56,110.06,110.06,0,0,1-13.95-.21,105.88,105.88,0,0,1-13.83-2,85.23,85.23,0,0,1-13.46-3.85.48.48,0,0,1-.26-.28,72.33,72.33,0,0,1-3-12.21q-1.08-6.18-1.73-12.4c-.45-4.15-.84-8.3-1.13-12.46S265.56,113.43,265.44,109.26Z"/><path class="cls-4" d="M224.85,136.25c.26,5.72.59,11.44,1.05,17.14s1,11.41,1.66,17.08,1.52,11.34,2.68,16.93c.58,2.79,1.22,5.57,2,8.29a41.68,41.68,0,0,0,3.14,7.87l-.32-.24c5.81,1.36,11.72,2.43,17.65,3.29s11.89,1.45,17.87,1.79a145.27,145.27,0,0,0,17.95-.13,87.76,87.76,0,0,0,17.67-3.13,83.92,83.92,0,0,1-17.63,3.63,146.6,146.6,0,0,1-18,.41c-6-.23-12-.86-18-1.66s-11.88-1.85-17.76-3.24a.51.51,0,0,1-.31-.24,42.92,42.92,0,0,1-3.18-8.08c-.82-2.76-1.46-5.57-2-8.38-1.13-5.64-1.93-11.32-2.53-17s-1.06-11.42-1.4-17.14S224.89,142,224.85,136.25Z"/><path class="cls-5" d="M117.26,74.12c1.17-18.46-3.8-41.77-13.34-32.51s-10.87,13.83-13-5.7c-2.29-21.43-14.65-24.49-15.47-16.7C74.21,31.3,67.22,21.87,58,11.3,53.14,5.76,46.7-2,42,.5s-.91,12.89,1.12,19.6c4.06,13.44,7.39,24.13-3.47,18.66-7-3.52-11.11,8.53,5.67,22.05,15.3,12.31,10.74,11-2.21,14s4,19.8,20.12,28.8-25.12,5.9-8.53,22c8.47,8.24,38.34,13.7,58.56,2.39,19.38-10.84,29.36-38.06,27.12-49.16C135.81,56.18,116.08,92.58,117.26,74.12Z"/><path class="cls-3" d="M113,81.73c.18-15.31-1.82-37.23-8.91-29.9S88.8,57.15,87.72,40.67c-1.3-19.86-10.51-20-10.84-13.6-.52,10-5.06,9.2-12.69,0-4-4.8-9.34-11.56-12.88-9.63s-.2,10.7,1.64,16.36c3.71,11.34,1.71,15.69-7,10.71-5.61-3.21-10.6,4.8,10.3,19.23,13.58,9.39,5.94,15.16-4.05,17.16S59,96,72,104.11s-22.37,7.71-8.78,21.79c6.94,7.18,33.48,9.12,48.82.51,14.7-8.25,26.35-32.63,24.15-41.95C131.68,65.41,112.79,97,113,81.73Z"/><path class="cls-6" d="M43.07.11Q47.12,8.28,51.3,16.4t8.37,16.21C65.32,43.39,71,54.14,76.9,64.78S88.75,86,94.94,96.49c1.54,2.63,3.14,5.21,4.71,7.82l2.36,3.9,2.43,3.86c1.64,2.56,3.19,5.18,4.89,7.7l5,7.62c-7-10-13.54-20.22-19.86-30.63s-12.28-21-18.19-31.65S64.75,43.68,59.21,32.85,48.26,11.11,43.07.11Z"/><path class="cls-6" d="M39.55,79.51a91,91,0,0,0,12,5.78,86.61,86.61,0,0,0,12.65,4c2.16.49,4.34.88,6.53,1.19a60.66,60.66,0,0,0,6.6.48,48.55,48.55,0,0,0,6.6-.43,40.42,40.42,0,0,0,6.42-1.5l-.13.08A57.36,57.36,0,0,0,98,78.31a93.35,93.35,0,0,0,5.7-12.15c.74-2.11,1.55-4.2,2.15-6.36.32-1.08.68-2.14,1-3.23l.81-3.27c.29-1.08.52-2.18.73-3.28l.65-3.3c.38-2.21.66-4.44,1-6.67-.28,2.23-.51,4.47-.83,6.69l-.58,3.33c-.18,1.11-.38,2.22-.65,3.31l-.76,3.29c-.25,1.09-.6,2.16-.9,3.25-.57,2.18-1.36,4.29-2.07,6.43a87.27,87.27,0,0,1-5.66,12.27,56.89,56.89,0,0,1-7.85,11,.24.24,0,0,1-.12.07h0A41.87,41.87,0,0,1,84,91.23a50,50,0,0,1-6.7.4,62,62,0,0,1-6.67-.51q-3.31-.48-6.57-1.28A86.19,86.19,0,0,1,51.41,85.6,90.23,90.23,0,0,1,39.55,79.51Z"/><path class="cls-6" d="M50.85,119.91c4.72,1.29,9.51,2.32,14.32,3.16a139.42,139.42,0,0,0,14.53,1.87,88,88,0,0,0,14.61,0,38.7,38.7,0,0,0,14-3.71c4.33-2.19,7.83-5.73,10.83-9.52a74.37,74.37,0,0,0,7.6-12.46,121.13,121.13,0,0,0,5.63-13.52,140,140,0,0,0,4.21-14.05,129.65,129.65,0,0,1-9.37,27.8A70.55,70.55,0,0,1,119.61,112c-3,3.85-6.56,7.47-11,9.75a39.52,39.52,0,0,1-14.24,3.72,82.13,82.13,0,0,1-14.71-.05A147.71,147.71,0,0,1,50.85,119.91Z"/><path class="cls-6" d="M33.81,41.14q4.66,2.55,9.43,4.93t9.58,4.61c3.23,1.47,6.49,2.86,9.8,4.1a46.72,46.72,0,0,0,10.16,2.79l-.31.15a47.06,47.06,0,0,0,4.74-9.85,53.54,53.54,0,0,0,2.61-10.66,51.6,51.6,0,0,0,.47-11,48.22,48.22,0,0,0-.56-5.48,24.84,24.84,0,0,0-.5-2.71l-.58-2.7L79.31,18a25.52,25.52,0,0,1,.59,2.7,50.6,50.6,0,0,1,.73,5.49,51.78,51.78,0,0,1-.28,11.06A51.19,51.19,0,0,1,77.8,48.07a46.43,46.43,0,0,1-4.78,10,.34.34,0,0,1-.31.14h0a47.88,47.88,0,0,1-10.3-2.89q-5-1.9-9.79-4.21C46.19,48.11,39.93,44.74,33.81,41.14Z"/><circle class="cls-5" cx="98.02" cy="15.35" r="7.35"/><path class="cls-5" d="M91.44,6.09a4.29,4.29,0,1,1-4.29-4.28A4.28,4.28,0,0,1,91.44,6.09Z"/><path class="cls-5" d="M98.88,3.42a2.34,2.34,0,1,1-2.33-2.33A2.33,2.33,0,0,1,98.88,3.42Z"/><circle class="cls-2" cx="46.2" cy="108.17" r="6.67"/><path class="cls-2" d="M44.34,121.24a5.2,5.2,0,1,1-5.2-5.2A5.2,5.2,0,0,1,44.34,121.24Z"/><circle class="cls-2" cx="32.79" cy="111.17" r="4.02"/><path class="cls-5" d="M282.5,232.18a5.86,5.86,0,1,1-5.86-5.86A5.86,5.86,0,0,1,282.5,232.18Z"/><path class="cls-5" d="M302.28,230.2a6.92,6.92,0,1,1-6.92-6.92A6.92,6.92,0,0,1,302.28,230.2Z"/><circle class="cls-5" cx="287.03" cy="241.52" r="4.69"/><path class="cls-2" d="M289.89,92.1a5.45,5.45,0,1,1-5.45-5.45A5.45,5.45,0,0,1,289.89,92.1Z"/><path class="cls-2" d="M278,81.18A7.18,7.18,0,1,1,270.78,74,7.18,7.18,0,0,1,278,81.18Z"/><circle class="cls-2" cx="288.53" cy="72.24" r="8.93" transform="translate(33.42 225.18) rotate(-45)"/><circle class="cls-7" cx="10.88" cy="113.88" r="10.5" transform="translate(-42.75 12.83) rotate(-22.5)"/><polyline class="cls-7" points="14.12 109.19 10.88 113.88 15.57 113.88"/><line class="cls-7" x1="10.88" y1="104.34" x2="10.88" y2="105.15"/><line class="cls-7" x1="10.88" y1="122.61" x2="10.88" y2="123.41"/><line class="cls-7" x1="20.41" y1="113.88" x2="19.6" y2="113.88"/><line class="cls-7" x1="2.15" y1="113.88" x2="1.34" y2="113.88"/><path class="cls-7" d="M341.37,226.35a8.08,8.08,0,0,0-8.08,8.08c0,7.27,8.08,12.88,8.08,12.88s8.09-4.93,8.09-12.88A8.09,8.09,0,0,0,341.37,226.35Zm0,9.59a3.29,3.29,0,1,1,3.29-3.29A3.28,3.28,0,0,1,341.37,235.94Z"/><polyline class="cls-7" points="16.95 90.57 20.69 95.53 29.12 81.5"/><line class="cls-7" x1="310.62" y1="235.85" x2="324.44" y2="221.12"/><line class="cls-7" x1="311.41" y1="221.12" x2="325.23" y2="235.85"/><path class="cls-7" d="M17.75,134.27H21v1.41a1.18,1.18,0,0,0,2.36,0v-1.41H41.09v1.41a1.19,1.19,0,0,0,2.37,0v-1.41h3.25a1.36,1.36,0,0,1,1.35,1.35v23.81a1.35,1.35,0,0,1-1.35,1.35h-29a1.35,1.35,0,0,1-1.35-1.35V135.62A1.36,1.36,0,0,1,17.75,134.27Z"/><rect class="cls-7" x="40.32" y="143.24" width="4.55" height="3.68"/><rect class="cls-7" x="40.32" y="148.76" width="4.55" height="3.68"/><rect class="cls-7" x="40.32" y="154.28" width="4.55" height="3.68"/><rect class="cls-7" x="33.41" y="143.24" width="4.55" height="3.68"/><rect class="cls-7" x="33.41" y="148.76" width="4.55" height="3.68"/><rect class="cls-7" x="33.41" y="154.28" width="4.55" height="3.68"/><rect class="cls-7" x="26.49" y="143.24" width="4.55" height="3.68"/><rect class="cls-7" x="26.49" y="148.76" width="4.55" height="3.68"/><rect class="cls-7" x="26.49" y="154.28" width="4.55" height="3.68"/><rect class="cls-7" x="19.58" y="143.24" width="4.55" height="3.68"/><rect class="cls-7" x="19.58" y="148.76" width="4.55" height="3.68"/><rect class="cls-7" x="19.58" y="154.28" width="4.55" height="3.68"/><rect class="cls-7" x="21" y="131.01" width="2.36" height="5.85" rx="1.18"/><path class="cls-7" d="M42.28,131h0a1.18,1.18,0,0,1,1.18,1.19v3.48a1.18,1.18,0,0,1-1.18,1.18h0a1.19,1.19,0,0,1-1.19-1.18V132.2A1.19,1.19,0,0,1,42.28,131Z"/><line class="cls-7" x1="16.4" y1="140.57" x2="48.06" y2="140.57"/><path class="cls-7" d="M307,266.87H327a3.72,3.72,0,0,0,3.71-3.72v-12a3.71,3.71,0,0,0-3.71-3.71H296.37l6.94,5.78v9.95A3.72,3.72,0,0,0,307,266.87Z"/><path class="cls-7" d="M311.85,257.91A1.87,1.87,0,1,1,310,256,1.87,1.87,0,0,1,311.85,257.91Z"/><path class="cls-7" d="M318.6,257.91a1.88,1.88,0,1,1-1.87-1.87A1.87,1.87,0,0,1,318.6,257.91Z"/><path class="cls-7" d="M325.35,257.91a1.88,1.88,0,1,1-1.88-1.87A1.88,1.88,0,0,1,325.35,257.91Z"/><ellipse class="cls-8" cx="193.03" cy="374.24" rx="102.32" ry="12.98"/><ellipse class="cls-8" cx="82.46" cy="393.7" rx="58.71" ry="7.45"/><path class="cls-9" d="M260.33,320V44c0-9-7.87-16.9-17.58-16.9H125.62A17.59,17.59,0,0,0,108,44.66v276a17.59,17.59,0,0,0,17.59,17.58H242.75C252.46,338.26,260.33,330.39,260.33,320Z"/><rect class="cls-10" x="16.4" y="103.28" width="311.18" height="158.78" rx="17.95" transform="translate(354.66 10.68) rotate(90)"/><path class="cls-11" d="M108.91,32.68H235.07c6.45,0,11.68,6.34,11.68,14.16v270.6c0,7.82-5.23,14.16-11.68,14.16H109.76c-6.45,0-11.68-6.34-11.68-14.16l-.86-270.6C97.22,39,102.45,32.68,108.91,32.68Z"/><rect class="cls-12" x="109.8" y="67.21" width="124.4" height="42.6" rx="5.85"/><rect class="cls-12" x="109.8" y="116.63" width="56.89" height="42.6" rx="5.85"/><rect class="cls-12" x="177.31" y="116.63" width="56.89" height="42.6" rx="5.85"/><rect class="cls-12" x="109.8" y="167.23" width="56.89" height="25.04" rx="5.85"/><rect class="cls-12" x="109.8" y="200.26" width="56.89" height="101.21" rx="5.85"/><rect class="cls-12" x="177.31" y="167.23" width="56.89" height="71.89" rx="5.85"/><rect class="cls-12" x="177.31" y="247.11" width="56.89" height="54.37" rx="5.85"/><path class="cls-9" d="M98.06,314.23l0,3.21c0,7.82,5.23,14.16,11.68,14.16H235.07c6.45,0,11.68-6.34,11.68-14.16v-3.21Z"/><line class="cls-13" x1="158.52" y1="321.18" x2="186.29" y2="321.18"/><path class="cls-9" d="M246.75,46.84c0-7.82-5.23-14.16-11.68-14.16H108.91c-6.46,0-11.69,6.34-11.69,14.16l0,7.17H246.75Z"/><path class="cls-14" d="M235.07,32.68H108.91c-6.46,0-11.69,6.34-11.69,14.16l.86,270.6c0,7.82,5.23,14.16,11.68,14.16H235.07c6.45,0,11.68-6.34,11.68-14.16V46.84C246.75,39,241.52,32.68,235.07,32.68Zm-123.36,5H232.27c6.17,0,11.17,7,11.17,14.53V54H100.54V52.2C100.54,44.72,105.54,37.67,111.71,37.67ZM101.35,310.94l-.8-253.65H243.44V310.94Zm130.92,14.67H112.53c-5.57,0-10.17-4.93-11-11.38H243.28C242.43,320.68,237.83,325.61,232.27,325.61Z"/><path class="cls-15" d="M246.75,103.22H171a9.51,9.51,0,0,0-9.51,9.51v34.66A9.51,9.51,0,0,0,171,156.9h75.74Z"/><path class="cls-15" d="M167.09,136.54s1.74-4.2,2.79-6.76-1.4-4.19-3.26,0c-1,2.3-5.47,10.34-9.29,17.14l-1.3,2.31c-.6-.17-1.22-.34-1.89-.5h0l-4.7,7.58-17.25-1.54c-4-5.44-8.15-11.18-10.38-14.4-2.77-4-6.22-6.79-9.65-7.55a14,14,0,0,0-3.85-1.16l2.24-6.56H106v-1.21c3.9,0,6.47-.81,8.05-1.9a5.54,5.54,0,0,0,.82-.67l0,0a3.81,3.81,0,0,0,1.22-2.64v-1.9h0v-6.57s2.19.27,2.33-.83-2.06-3.57-2.06-5.38V97h0V95.47c2.53.4,7.06-.63,6.1-6.54-.84-5.18-13.17-15.17-25.19-12.26l.77,240.77c0,7.82,5.23,14.16,11.68,14.16h11.32l-4.16-95.67h0l-.16-3.7.17,0c.7-.15,1.32-.31,1.86-.47l.43-.14a10.19,10.19,0,0,0,1.54-.65c2.34-1.29,1.39-2.86-.12-4.66,0,0-2.75-20.55-2.67-35.94,0-1,0-2,.06-3,0-.75.06-1.51.11-2.28,0-.14,0-.27,0-.4,0-.75.11-1.5.17-2.26,0-.16,0-.31,0-.46.06-.78.13-1.56.21-2.36a1.36,1.36,0,0,0,0-.2c.08-.76.16-1.53.25-2.3,0-.16,0-.31.05-.47.08-.77.17-1.55.27-2.32,0-.24,0-.47.08-.7.08-.7.17-1.4.26-2.09l.41.53.35.45.63.8.39.5.59.76.42.53.57.72.53.67.79,1,.57.71.44.55.54.67.41.51c.18.21.35.43.52.64l.41.5.52.63.38.46.55.66.31.38.77.91.13.15.71.83.27.31.47.55.28.32.42.47a3.65,3.65,0,0,1,.27.3c.14.15.26.29.39.42l.24.26.38.4.19.2q.25.27.48.48l0,0a13,13,0,0,0,8.9,4.05c.26,0,.52,0,.78-.05a9.13,9.13,0,0,0,1-.15l.29-.06a9.81,9.81,0,0,0,2.63-1.08c.27-.16.54-.33.8-.51a12.37,12.37,0,0,0,1.41-1.16c.2-.19.39-.39.59-.6a19.34,19.34,0,0,0,2.79-3.94c1.23-2.21,2.56-4.77,3.89-7.42.19-.38.38-.76.58-1.14,2-4,4-8.13,5.56-11.49.42-.9.82-1.73,1.17-2.5l.51-1.08.26-.57.33-.71.08-.18v0h0l1.07-2.32h0a7.37,7.37,0,0,0-1.25-2.68l1.09-1.85.89-.49h0a16.09,16.09,0,0,0,1.67-1c.58-.47,2.33-4.89,2.1-7.57S167.09,136.54,167.09,136.54Z"/><path class="cls-10" d="M175.94,32.45a4,4,0,1,1-3.95-4A4,4,0,0,1,175.94,32.45Z"/><path class="cls-9" d="M174.16,32.45A2.17,2.17,0,1,1,172,30.28,2.17,2.17,0,0,1,174.16,32.45Z"/><rect class="cls-15" x="101.42" y="203.46" width="120.59" height="53.68" rx="9.51"/><rect class="cls-16" x="95.42" y="197.46" width="120.59" height="53.68" rx="9.51"/><circle class="cls-17" cx="146.32" cy="210.8" r="9.02" transform="translate(-106.2 165.2) rotate(-45)"/><polyline class="cls-17" points="146.32 205.86 146.32 210.8 141.53 210.8"/><line class="cls-18" x1="146.32" y1="202.61" x2="146.32" y2="203.3"/><line class="cls-18" x1="146.32" y1="218.29" x2="146.32" y2="218.99"/><line class="cls-18" x1="154.51" y1="210.8" x2="153.81" y2="210.8"/><line class="cls-18" x1="138.82" y1="210.8" x2="138.13" y2="210.8"/><path class="cls-19" d="M146.28,228.48a6.94,6.94,0,0,0-6.94,7c0,6.24,6.94,11.06,6.94,11.06s6.94-4.24,6.94-11.06A7,7,0,0,0,146.28,228.48Zm0,8.24a2.83,2.83,0,1,1,2.82-2.82A2.83,2.83,0,0,1,146.28,236.72Z"/><rect class="cls-20" x="159.05" y="230.9" width="43.29" height="2.55"/><rect class="cls-20" x="159.05" y="236.21" width="34.63" height="2.55"/><rect class="cls-20" x="159.05" y="241.52" width="27.67" height="2.55"/><circle class="cls-21" cx="112.6" cy="225.31" r="11.54"/><text class="cls-22" transform="translate(159.75 214.14)"><tspan class="cls-23">A</tspan><tspan class="cls-24" x="6.29" y="0">.</tspan><tspan class="cls-25" x="8.56" y="0">M</tspan><tspan x="16.67" y="0">.</tspan></text><text class="cls-26" transform="translate(185.94 214.14)"><tspan class="cls-27">P</tspan><tspan class="cls-28" x="5.19" y="0">.M</tspan><tspan x="17.58" y="0">.</tspan></text><line class="cls-29" x1="182.44" y1="205.68" x2="182.44" y2="215.91"/><line class="cls-13" x1="129.18" y1="197.78" x2="129.18" y2="251.14"/><line class="cls-13" x1="129.18" y1="224.17" x2="215.72" y2="224.17"/><rect class="cls-16" x="154.5" y="95.06" width="120.59" height="53.68" rx="9.51"/><circle class="cls-17" cx="205.4" cy="108.4" r="9.02" transform="translate(-16.49 176.99) rotate(-45)"/><polyline class="cls-17" points="208.19 104.37 205.4 108.4 209.43 108.4"/><line class="cls-18" x1="205.4" y1="100.21" x2="205.4" y2="100.9"/><line class="cls-18" x1="205.4" y1="115.9" x2="205.4" y2="116.59"/><line class="cls-18" x1="213.59" y1="108.4" x2="212.9" y2="108.4"/><line class="cls-18" x1="197.9" y1="108.4" x2="197.21" y2="108.4"/><path class="cls-19" d="M205.36,126.09a6.94,6.94,0,0,0-6.94,6.94c0,6.24,6.94,11.06,6.94,11.06s6.95-4.23,6.95-11.06A6.94,6.94,0,0,0,205.36,126.09Zm0,8.23a2.82,2.82,0,1,1,2.83-2.82A2.82,2.82,0,0,1,205.36,134.32Z"/><rect class="cls-20" x="218.13" y="128.5" width="43.29" height="2.55"/><rect class="cls-20" x="218.13" y="133.81" width="34.63" height="2.55"/><rect class="cls-20" x="218.13" y="139.12" width="27.67" height="2.55"/><circle class="cls-30" cx="171.69" cy="122.91" r="11.54" transform="translate(22.86 272.7) rotate(-80.78)"/><polyline class="cls-31" points="166.42 120.28 170.79 126.08 180.66 109.67"/><text class="cls-32" transform="translate(218.84 111.75)"><tspan class="cls-23">A</tspan><tspan class="cls-24" x="6.29" y="0">.</tspan><tspan class="cls-25" x="8.56" y="0">M</tspan><tspan x="16.67" y="0">.</tspan></text><text class="cls-33" transform="translate(245.02 111.75)">P<tspan class="cls-24" x="4.17" y="0">.</tspan><tspan class="cls-25" x="6.44" y="0">M</tspan><tspan class="cls-34" x="14.55" y="0">.</tspan></text><line class="cls-29" x1="241.53" y1="103.28" x2="241.53" y2="113.51"/><line class="cls-13" x1="188.26" y1="95.38" x2="188.26" y2="148.74"/><line class="cls-13" x1="188.26" y1="121.77" x2="274.8" y2="121.77"/><circle class="cls-35" cx="228.97" cy="289.35" r="59.15"/><path class="cls-36" d="M236.21,230.2a59.15,59.15,0,1,1,0,118.3h-8.12V230.21Z"/><circle class="cls-35" cx="228.97" cy="289.35" r="59.15"/><path class="cls-37" d="M229,232.5a59.13,59.13,0,0,1,59.12,58c0-.38,0-.76,0-1.15a59.15,59.15,0,1,0-118.29,0c0,.39,0,.77,0,1.15A59.15,59.15,0,0,1,229,232.5Z"/><circle class="cls-38" cx="228.97" cy="289.35" r="54.04"/><circle class="cls-39" cx="228.97" cy="289.35" r="51.56"/><path class="cls-40" d="M273.57,263.48a47.49,47.49,0,1,1-89.19,0,51.56,51.56,0,1,0,89.19,0Z"/><polygon class="cls-41" points="247.38 280.03 229.01 288 211.74 258.64 228.53 291.09 247.38 280.03"/><circle class="cls-35" cx="228.97" cy="289.35" r="2.3"/><circle class="cls-10" cx="228.97" cy="242.36" r="2.01"/><circle class="cls-10" cx="228.97" cy="336.34" r="2.01"/><circle class="cls-10" cx="275.96" cy="289.35" r="2.01"/><circle class="cls-10" cx="181.98" cy="289.35" r="2.01"/><path class="cls-6" d="M251.61,248.16a.95.95,0,1,1-.4-1.28A1,1,0,0,1,251.61,248.16Z"/><path class="cls-6" d="M208,331.42a.95.95,0,1,1-.4-1.28A1,1,0,0,1,208,331.42Z"/><path class="cls-6" d="M270.17,312a.95.95,0,1,1,1.27-.4A.93.93,0,0,1,270.17,312Z"/><path class="cls-6" d="M186.9,268.39a.94.94,0,1,1,1.28-.4A.93.93,0,0,1,186.9,268.39Z"/><path class="cls-6" d="M269.91,266.26a.95.95,0,1,1-1-1.63.93.93,0,0,1,1.29.33A1,1,0,0,1,269.91,266.26Z"/><path class="cls-6" d="M189,314.07a1,1,0,0,1-1.3-.33,1,1,0,0,1,.34-1.3.93.93,0,0,1,1.29.33A1,1,0,0,1,189,314.07Z"/><path class="cls-6" d="M252.06,330.29a1,1,0,0,1,.34-1.3.93.93,0,0,1,1.29.33.95.95,0,1,1-1.63,1Z"/><path class="cls-6" d="M204.25,249.38a1,1,0,0,1,.34-1.3.93.93,0,0,1,1.29.33.95.95,0,1,1-1.63,1Z"/><path class="cls-35" d="M97.22,378V393.7H132s-4.08-7-6.81-6.9-7-.08-9.22-2.13A38.64,38.64,0,0,1,111,378Z"/><g class="cls-42"><path class="cls-35" d="M118.3,386a6.67,6.67,0,0,1-2.38-1.34A38.64,38.64,0,0,1,111,378H97.22v10.89C102.21,389.32,110.84,389.34,118.3,386Z"/></g><path class="cls-35" d="M66.52,378V393.7H31.78s4.09-7,6.81-6.9,7-.08,9.22-2.13A38.64,38.64,0,0,0,52.72,378Z"/><g class="cls-42"><path class="cls-35" d="M47.81,384.67a7.58,7.58,0,0,1-3.35,1.64,46.75,46.75,0,0,0,22.06,1.38V378H52.72A38.64,38.64,0,0,1,47.81,384.67Z"/></g><path class="cls-43" d="M62.68,213.26,44.74,382.14a38.41,38.41,0,0,0,25,.77L84.5,245,93.36,385a59.11,59.11,0,0,0,25.17-2.06l-7.3-167.7Z"/><path class="cls-44" d="M111.92,230.93l-.69-15.72-48.55-2-1.91,18C66.72,233.14,86.34,238,111.92,230.93Z"/><path class="cls-10" d="M74.75,242.84a32.11,32.11,0,0,0,5.64,1,51.46,51.46,0,0,0,5.69.24c1,0,1.9,0,2.85-.11s1.9-.15,2.86-.22,1.89-.23,2.85-.32,1.9-.29,2.87-.38c-.92.31-1.85.58-2.78.86s-1.88.46-2.84.61a37.48,37.48,0,0,1-5.8.56,32.31,32.31,0,0,1-5.81-.47A19,19,0,0,1,74.75,242.84Z"/><path class="cls-45" d="M85.71,83.32H111.4V99c0,1.81,2.2,4.29,2.06,5.38s-2.34.83-2.34.83v8.47c0,2.23-2.59,5.25-10.13,5.25v3H85.71Z"/><g class="cls-46"><path class="cls-45" d="M101,118.89c7.54,0,10.14-3,10.14-5.25v-1.9a8.08,8.08,0,0,1-5.06,4.89c-5.48,1.91-14.63.31-14.63.31,9.79-3.69,9.28-12.74,9.28-12.74l-15,.27V121.9H101Z"/><path class="cls-45" d="M109.16,91.53a5.85,5.85,0,0,1,2.24.45V83.32h-13c-1.36,5.07,7.24,11.23,8.38,17C106.75,100.27,107.27,91.72,109.16,91.53Z"/></g><path class="cls-43" d="M103.31,100.27c.21.09,3.44,0,3.44,0V92.4a2.36,2.36,0,0,1,3.5-2.27c1.83,1,8.38.79,7.25-6.2S94.26,61.12,80.27,80.26c0,0-8.21-.18-10,11.44s5.16,23.42,11.28,25.52,17.21-3.17,19.13-13Z"/><path class="cls-45" d="M104.29,102.74c-1,1.08-3.27,2.3-5,.84-3-2.5-1.72-6.81,1.07-7.39A4.1,4.1,0,0,1,103.92,98"/><path class="cls-47" d="M98.61,98.72a1.85,1.85,0,0,1,.57-1,2.27,2.27,0,0,1,1.08-.55,2.61,2.61,0,0,1,1.24,0,1.53,1.53,0,0,1,1,1,.37.37,0,0,1-.24.47.32.32,0,0,1-.17,0h0a3.27,3.27,0,0,0-1.08,0,2.44,2.44,0,0,0-1,.38,2.23,2.23,0,0,0-.7.84,4.2,4.2,0,0,0-.38,1.15,3.2,3.2,0,0,1,0-1.27,2.35,2.35,0,0,1,.67-1.17,2.67,2.67,0,0,1,1.22-.64,3.64,3.64,0,0,1,1.36-.07l-.43.47a.85.85,0,0,0-.53-.45,2.06,2.06,0,0,0-.91-.12A2.33,2.33,0,0,0,98.61,98.72Z"/><g class="cls-48"><path class="cls-39" d="M83.83,81.51a14.43,14.43,0,0,1,6.36-6,18.46,18.46,0,0,1,8.66-1.71,19.3,19.3,0,0,1,8.51,2.38A19.53,19.53,0,0,1,113.92,82a20.84,20.84,0,0,0-3.17-3,21.53,21.53,0,0,0-3.66-2.32,19.71,19.71,0,0,0-8.26-2.15,18.74,18.74,0,0,0-8.4,1.5,15.71,15.71,0,0,0-3.66,2.26A14,14,0,0,0,83.83,81.51Z"/><path class="cls-39" d="M90.6,82.92a17,17,0,0,1,5.67-3.29,14.3,14.3,0,0,1,6.59-.71l.83.12.8.23a9.3,9.3,0,0,1,1.59.54l1.51.71c.48.29.93.62,1.38.94l.68.48.6.57,1.2,1.14c.71.83,1.37,1.72,2,2.59-.79-.77-1.49-1.6-2.28-2.33l-1.24-1-.62-.52-.69-.42a13.18,13.18,0,0,0-5.88-2.26,14.52,14.52,0,0,0-6.31.5,19.28,19.28,0,0,0-3,1.16A18,18,0,0,0,90.6,82.92Z"/><path class="cls-39" d="M97.17,88.15a10.39,10.39,0,0,1,3.43-2.37,9.66,9.66,0,0,1,4.15-.83,9.11,9.11,0,0,1,4.1,1,12.64,12.64,0,0,1,1.79,1.1c.54.45,1,.93,1.53,1.42-.6-.36-1.14-.78-1.74-1.11a12.76,12.76,0,0,0-1.82-.89,10.42,10.42,0,0,0-3.88-.82,11.2,11.2,0,0,0-3.92.61,14,14,0,0,0-1.87.8A13.21,13.21,0,0,0,97.17,88.15Z"/><path class="cls-39" d="M80.58,82.6a12.49,12.49,0,0,0-3.93,3,12.92,12.92,0,0,0-2.53,4.17,18.2,18.2,0,0,0-.62,9.66,26.08,26.08,0,0,0,3.25,9.25,23.1,23.1,0,0,0,2.86,4A20.49,20.49,0,0,0,83.26,116a21.13,21.13,0,0,1-7-7.09,25.66,25.66,0,0,1-3.49-9.43,18.34,18.34,0,0,1,.83-10A12.44,12.44,0,0,1,80.58,82.6Z"/><path class="cls-39" d="M83.26,85.83a15.07,15.07,0,0,0-2,3.49,15.83,15.83,0,0,0-1.14,3.84,16.92,16.92,0,0,0,.54,7.9,22.28,22.28,0,0,0,3.63,7.09,26.45,26.45,0,0,0,2.65,3,26,26,0,0,0,3,2.68,23.54,23.54,0,0,1-6.15-5.37,21.53,21.53,0,0,1-3.9-7.24c-.18-.67-.33-1.35-.47-2a18,18,0,0,1-.23-2.07,14.7,14.7,0,0,1,.32-4.13A14.88,14.88,0,0,1,83.26,85.83Z"/><path class="cls-39" d="M88.17,88.15a14.77,14.77,0,0,0-.62,3,18.27,18.27,0,0,0-.1,3,23.56,23.56,0,0,0,1,6,18.35,18.35,0,0,0,3,5.26,24.43,24.43,0,0,0,2,2.29,26.51,26.51,0,0,0,2.27,2.09,20.44,20.44,0,0,1-4.74-4,15.91,15.91,0,0,1-3.22-5.38,19.9,19.9,0,0,1-.89-6.21A14.45,14.45,0,0,1,88.17,88.15Z"/></g><path class="cls-49" d="M65,132.64s-19.07,34.85-18.75,39.91,18.45,32.77,18.45,32.77A133.7,133.7,0,0,0,70,165.47C69.39,144.43,65,132.64,65,132.64Z"/><path class="cls-50" d="M58.15,187.12c-1.2,1.08-3.74-.46-6.33-2.64,5.43,9.5,12.84,20.84,12.84,20.84A133.7,133.7,0,0,0,70,165.47c0-1.09-.08-2.14-.14-3.18-2.63-6.39-4.65-10.56-4.65-10.56S61.05,184.5,58.15,187.12Z"/><path class="cls-49" d="M115.64,221.27s-3.13-23.39-2.61-38.94,5.87-37.67,2.2-46.24a15.66,15.66,0,0,0-11.92-9.43l2.24-6.56H79.05l1.55,6c-4.72-.4-15.31,2.32-17.41,10.15-2.49,9.31,1.14,20.39.45,38.91-.51,13.48-3,36.8-4.07,45.84-.17,1.49-3.89.85-2.7,3.73,1.28,3.06,19.41,5.66,42.19,4C119.39,227.3,118.53,224.72,115.64,221.27Z"/><path class="cls-51" d="M99.06,228.75c20.33-1.45,19.47-4,16.58-7.48,0,0-3.13-23.39-2.61-38.94.22-6.57,1.3-14.3,2.2-21.69l-14.89-12.76c2.93,4.15,8.82,16.1,9.73,19.71,1.45,5.76-.16,22-.14,29.2C110,212,113.47,221,96.07,221c-12.73,0-28.16-1.92-27.12-7.47s22.2-6.4,21.71-8.91-21.3-.71-21.62-2.33,10-2.58,11.78-4.84-11.78-.16-13.4-9.61c-.85-5-2.42-13.17-3.71-19.73,0,2.25,0,4.6-.07,7.05-.51,13.48-3,36.8-4.07,45.84-.17,1.49-3.89.85-2.7,3.73C58.15,227.78,76.28,230.38,99.06,228.75Z"/><path class="cls-52" d="M60.32,222.46a61.3,61.3,0,0,0,6.6.94c1.1.13,2.21.21,3.31.31l3.32.2q6.65.33,13.31.15c4.44,0,8.87-.31,13.31-.56l6.64-.49c2.22-.18,4.43-.4,6.66-.55-2.2.37-4.4.69-6.6,1l-6.64.77c-4.44.41-8.89.69-13.35.79s-8.93,0-13.38-.39A68.23,68.23,0,0,1,60.32,222.46Z"/><path class="cls-52" d="M59.57,221c.42-5.36.9-10.72,1.36-16.07s1-10.71,1.35-16.07.82-10.71,1-16.07q.15-4,.07-8.05c0-2.69-.12-5.37-.19-8.06.3,2.67.51,5.36.69,8s.22,5.39.21,8.08c-.06,5.4-.43,10.77-.82,16.14s-1,10.72-1.58,16.06S60.4,215.67,59.57,221Z"/><path class="cls-52" d="M82.63,126.57a87.78,87.78,0,0,1,18.71.24,75.29,75.29,0,0,1-9.36.38A77.13,77.13,0,0,1,82.63,126.57Z"/><path class="cls-45" d="M146.47,152.28s13.29-23.3,15.15-27.5,4.31-2.56,3.26,0-2.79,6.76-2.79,6.76,3.72,5,4,7.69-1.52,7.1-2.1,7.57a26.43,26.43,0,0,1-2.56,1.52l-5.6,9.52Z"/><path class="cls-53" d="M162.28,147.83a14.44,14.44,0,0,0-9.9-6c-3.16,5.64-5.91,10.46-5.91,10.46l9.32,5.56,5.6-9.52Z"/><path class="cls-49" d="M99.05,130.48c-3.52,3.71-3.86,9.19,1.29,16.88s23.11,31.18,28.53,36.42,13.63,6.64,19.22-3.5,13.46-27.43,13.46-27.43-1.05-6.49-12.41-9.12l-12.06,19.43s-15.2-20.45-20.27-27.79S104.44,124.81,99.05,130.48Z"/><path class="cls-54" d="M103.25,151.51c7.11,9.86,21,27.77,25.62,32.27,5.42,5.24,13.63,6.64,19.22-3.5s13.46-27.43,13.46-27.43-1.05-6.49-12.41-9.12a21,21,0,0,1,10.24,8s-13.14,29.68-20.67,30.41C132.34,182.75,110,158.86,103.25,151.51Z"/><path class="cls-55" d="M100.34,147.36c5.15,7.69,23.11,31.18,28.53,36.42s13.63,6.64,19.22-3.5,13.46-27.43,13.46-27.43"/><path class="cls-56" d="M137.08,163.16c1.15,1.75,4,4.89,3.06,10.74"/><path class="cls-56" d="M144.25,168.05s-2-4.28-6.25-4.89"/><path class="cls-56" d="M160.48,155.17s-2-3.52-7.4-5.78l-1.67,2.82a26.53,26.53,0,0,1,7.7,5.9Z"/><circle class="cls-49" cx="153.8" cy="151.73" r="0.76"/></g></g></g></svg>