<svg xmlns="http://www.w3.org/2000/svg" viewBox="0 0 3114.41 3050.67"><defs><style>.cls-1{fill:#f2f2f3;}.cls-2{fill:#e7ebee;}.cls-3{fill:#dcdfe2;}.cls-4{fill:#fff;}.cls-5{fill:#aedbc7;}.cls-6{fill:#de795b;}.cls-7{fill:#c1dbdb;}.cls-8{fill:#00a1f1;}.cls-9{fill:#0798d1;}.cls-10{fill:#fbb697;}.cls-11{fill:#0a3c5f;}.cls-12{fill:#0097d3;}.cls-13{fill:#d2d4d6;}.cls-14{fill:#1c1c1c;}.cls-15,.cls-16{fill:#f77a74;}.cls-15{opacity:0.68;}</style></defs><title>d-i-4</title><g id="Capa_2" data-name="Capa 2"><g id="Layer_1" data-name="Layer 1"><path class="cls-1" d="M2755.87,938.71l-440.72-1V679c97.46.15,166,.28,168.3.28,124.93,0,226.21-114.4,226.21-255.47s-101.28-255.47-226.21-255.47l-857.79-1.44h-1.36A202.75,202.75,0,0,0,1559.52,178a214.44,214.44,0,0,0-57.36,30.31c-35.46,26.14-64.25,63.51-81.77,107.07s-33.06,76.11-69.28,103.65c-30,22.8-64.8,35.64-100.22,42.43-72,13.8-145.41,4.49-218,4.36l-375.28-.63c-124.92,0-226.2,114.39-226.2,255.47s101.28,255.47,226.2,255.47l140.06.24a355.16,355.16,0,0,1,5.27,67.88c-119.52,9-214.58,155.07-214.58,334,0,167.51,83.31,306.26,192,330.63v184.41l-410.83-.7c-187.68,0-339.85,171.86-339.85,383.81S181.91,2660.2,369.59,2660.2c0,0,1276.52,2.15,1288.74,2.15,187.68,0,339.85-171.85,339.85-383.81a438,438,0,0,0-2.65-48.09c133.8.24,236.89.41,239.7.41,124.93,0,226.21-114.4,226.21-255.47,0-91.42-42.54-171.62-106.48-216.77V1606.68c202.7.46,397,.88,400.91.88,124.93,0,226.21-149.74,226.21-334.42S2880.8,938.71,2755.87,938.71Z"/><path class="cls-2" d="M2520.63,2273.34v-91.12h-60.28a189.52,189.52,0,0,0-22.08-53.24l42.65-42.65-64.43-64.43-42.64,42.64a190,190,0,0,0-53.25-22.06v-60.29h-91.11v60.29a190,190,0,0,0-53.25,22.06l-42.64-42.64-64.43,64.43,42.64,42.64a191.07,191.07,0,0,0-13,25.61,187.77,187.77,0,0,0-9.07,27.64h-60.29v91.12h60.29a187.77,187.77,0,0,0,9.07,27.64,191,191,0,0,0,13,25.6l-42.64,42.64,64.43,64.43,42.65-42.65a189.22,189.22,0,0,0,53.24,22.08v60.29h91.11v-60.29a189.41,189.41,0,0,0,53.24-22.08l42.65,42.65,64.43-64.43-42.65-42.64a189.76,189.76,0,0,0,22.08-53.24Zm-245.58,66.91a112.47,112.47,0,1,1,112.47-112.47A112.48,112.48,0,0,1,2275.05,2340.25Z"/><circle class="cls-3" cx="2815.96" cy="2039.68" r="298.45" transform="translate(-617.49 2588.59) rotate(-45)"/><path class="cls-4" d="M2958.69,1824.2a11.5,11.5,0,1,1-4-15.78A11.5,11.5,0,0,1,2958.69,1824.2Z"/><path class="cls-4" d="M2693,2267a11.5,11.5,0,1,1-3.94-15.78A11.49,11.49,0,0,1,2693,2267Z"/><path class="cls-4" d="M3043.83,1917.7a11.5,11.5,0,1,1,4-15.76A11.49,11.49,0,0,1,3043.83,1917.7Z"/><circle class="cls-4" cx="2593.98" cy="2171.54" r="11.5" transform="translate(-738.37 1588.66) rotate(-30.01)"/><path class="cls-4" d="M2673.24,1824.2a11.5,11.5,0,1,0,4-15.78A11.5,11.5,0,0,0,2673.24,1824.2Z"/><path class="cls-4" d="M2939,2267a11.5,11.5,0,1,0,3.95-15.78A11.51,11.51,0,0,0,2939,2267Z"/><path class="cls-4" d="M2588.1,1917.7a11.5,11.5,0,1,0-4-15.76A11.49,11.49,0,0,0,2588.1,1917.7Z"/><path class="cls-4" d="M3032.08,2181.42a11.5,11.5,0,1,0-4-15.76A11.49,11.49,0,0,0,3032.08,2181.42Z"/><circle class="cls-4" cx="2815.96" cy="1781.48" r="11.5" transform="translate(-434.92 2512.97) rotate(-45)"/><path class="cls-4" d="M2827.46,2297.87a11.5,11.5,0,1,1-11.5-11.5A11.49,11.49,0,0,1,2827.46,2297.87Z"/><path class="cls-4" d="M2557.77,2028.18a11.5,11.5,0,1,1-11.5,11.5A11.5,11.5,0,0,1,2557.77,2028.18Z"/><circle class="cls-4" cx="3074.16" cy="2039.68" r="11.5"/><path class="cls-4" d="M2926,2111.74a6.2,6.2,0,0,1-3.22-.9l-113.09-67.59V1845.6a6.3,6.3,0,1,1,12.59,0v190.5l107,63.93a6.3,6.3,0,0,1-3.24,11.71Z"/><path class="cls-3" d="M1440,575.73V490.49h-56.4A177.31,177.31,0,0,0,1363,440.68l39.9-39.9-60.28-60.28-39.89,39.89a177.59,177.59,0,0,0-49.82-20.64v-56.4h-85.24v56.4a177.59,177.59,0,0,0-49.82,20.64l-39.89-39.89-60.28,60.28,39.9,39.89a177.6,177.6,0,0,0-20.65,49.82h-56.4v85.24h56.4a177.6,177.6,0,0,0,20.65,49.82l-39.9,39.89,60.28,60.28,39.9-39.9a177.43,177.43,0,0,0,49.81,20.65v56.4h85.24v-56.4a177,177,0,0,0,25.86-8.49,178.83,178.83,0,0,0,24-12.16l39.9,39.9,60.28-60.28-39.9-39.9a177.55,177.55,0,0,0,20.65-49.81Zm-229.76,62.6a105.22,105.22,0,1,1,105.22-105.22A105.22,105.22,0,0,1,1210.25,638.33Z"/><path class="cls-2" d="M33,1886V1809.1H0V1595.34H368.36V1809.1H146Zm-22.26-87.64h33v67.38l99-67.38H357.64V1606.06H10.72Z"/><path class="cls-2" d="M2695.4,806.78V729.87h-33V516.11h368.35V729.87H2808.42Zm-22.26-87.63h33v67.37l99-67.37h214.94V526.82H2673.14Z"/><path class="cls-5" d="M795.15,144.79a50.76,50.76,0,1,1,21.82-5A50.62,50.62,0,0,1,795.15,144.79Zm-.1-92.26a41.52,41.52,0,1,0,18,79h0a41.52,41.52,0,0,0-18-79Z"/><path class="cls-5" d="M2543.78,354.26a50.82,50.82,0,1,1,21.82-5A50.56,50.56,0,0,1,2543.78,354.26Zm-.1-92.26a41.52,41.52,0,1,0,37.54,23.62A41.28,41.28,0,0,0,2543.68,262Z"/><path class="cls-5" d="M291.2,1075.27a50.82,50.82,0,1,1,21.82-5A50.66,50.66,0,0,1,291.2,1075.27ZM291.14,983a41.54,41.54,0,1,0,17.92,79h0a41.55,41.55,0,0,0-17.92-79Z"/><path class="cls-5" d="M2894.46,1139a50.71,50.71,0,1,1,21.78-5A50.76,50.76,0,0,1,2894.46,1139Zm17.82-13.24,2,4.15-2-4.15a41.52,41.52,0,1,0-55.37-19.57A41.58,41.58,0,0,0,2912.28,1125.75Z"/><path class="cls-5" d="M1745.36,2439.87a50.9,50.9,0,0,1-16.94-2.92,50.74,50.74,0,1,1,38.76-2.06h0A50.54,50.54,0,0,1,1745.36,2439.87Zm-.1-92.26a41.53,41.53,0,1,0,18,79h0a41.52,41.52,0,0,0-18-79Z"/><path class="cls-5" d="M1449.09,2320.38H1252a4.59,4.59,0,0,1,0-9.18h197.13a4.59,4.59,0,1,1,0,9.18Z"/><path class="cls-5" d="M663.48,426.61H466.35a4.59,4.59,0,1,1,0-9.18H663.48a4.59,4.59,0,1,1,0,9.18Z"/><path class="cls-5" d="M565.38,488.13H368.26a4.6,4.6,0,0,1,0-9.19H565.38a4.6,4.6,0,1,1,0,9.19Z"/><path class="cls-5" d="M2214.78,70.7H2017.66a4.59,4.59,0,0,1,0-9.18h197.12a4.59,4.59,0,1,1,0,9.18Z"/><path class="cls-5" d="M2116.69,9.19H1919.57a4.6,4.6,0,1,1,0-9.19h197.12a4.6,4.6,0,0,1,0,9.19Z"/><path class="cls-5" d="M420.61,2075.86H223.49a4.59,4.59,0,1,1,0-9.18H420.61a4.59,4.59,0,0,1,0,9.18Z"/><path class="cls-5" d="M322.52,2014.35H125.39a4.6,4.6,0,0,1,0-9.19H322.52a4.6,4.6,0,0,1,0,9.19Z"/><path class="cls-5" d="M2944.9,1507.36H2747.77a4.59,4.59,0,0,1,0-9.18H2944.9a4.59,4.59,0,0,1,0,9.18Z"/><path class="cls-5" d="M2846.81,1568.88H2649.68a4.59,4.59,0,1,1,0-9.18h197.13a4.59,4.59,0,1,1,0,9.18Z"/><path class="cls-6" d="M1277.38,946.65a.77.77,0,0,1-.75-.6.76.76,0,0,1,.58-.91c.4-.09,39.94-8.5,72.24-4.39a.76.76,0,0,1,.66.86.75.75,0,0,1-.85.66c-32-4.07-71.33,4.28-71.72,4.36Z"/><path class="cls-6" d="M1296.39,967.9a.76.76,0,0,1-.3-1.47c20.41-8.5,64.78-8.6,65.22-8.6a.77.77,0,1,1,0,1.53c-.44,0-44.5.1-64.63,8.48A.72.72,0,0,1,1296.39,967.9Z"/><rect class="cls-7" x="1167.59" y="489.64" width="1544.3" height="1757.22" rx="98.72"/><rect class="cls-4" x="1325.01" y="774.76" width="176.21" height="176.21"/><path class="cls-8" d="M1405.41,933.37l-48.8-62.81a7.65,7.65,0,1,1,12.09-9.39l34.72,44.68,63.38-111.66a7.66,7.66,0,0,1,13.32,7.55Z"/><rect class="cls-9" x="1645.88" y="361.45" width="587.73" height="193.05"/><rect class="cls-4" x="1329.95" y="1123.02" width="176.21" height="176.21"/><rect class="cls-4" x="1325.01" y="1474.71" width="176.21" height="176.21"/><rect class="cls-4" x="1325.01" y="1824.68" width="176.21" height="176.21"/><rect class="cls-8" x="1580.68" y="851.83" width="939.79" height="13.49"/><rect class="cls-8" x="1580.76" y="926.48" width="502.94" height="13.49"/><rect class="cls-8" x="1580.68" y="1143.07" width="939.79" height="13.49"/><rect class="cls-8" x="1580.76" y="1285.02" width="939.79" height="13.49"/><rect class="cls-8" x="1580.76" y="1217.71" width="502.94" height="13.49"/><rect class="cls-8" x="1580.76" y="1644.78" width="939.79" height="13.49"/><rect class="cls-8" x="1580.76" y="1977.63" width="939.79" height="13.49"/><rect class="cls-8" x="1580.76" y="1577.48" width="502.94" height="13.49"/><rect class="cls-8" x="1450.88" y="446.81" width="977.73" height="108.91"/><path class="cls-8" d="M1405.41,1285.71l-48.8-62.81a7.66,7.66,0,0,1,12.09-9.4l34.72,44.69,63.38-111.66a7.66,7.66,0,0,1,13.32,7.55Z"/><path class="cls-10" d="M777.65,927.83s4.08-47.52,10.86-62.45c.24-.52,15.6-1.66,16.92-2,16.18-3.78,29-11.46,38.23-25.61,10.68-16.35,16.8-38.45,16.8-57.94v-4.51h11.41s10.31-2.28,6.24-11.78-20.36-38-20.36-47.52,2.71-39.36-8.15-58.37c0,0-48.87,1.36-51.58,1.36S673.13,731,673.13,733.7s4.07,142.54,4.07,142.54l65.46,39.68Z"/><path class="cls-11" d="M1052,997.79l331.24-96.39,33.94,1.36-19,23.08L1068.3,1030.37s-19,2.71-24.43-10.86S1052,997.79,1052,997.79Z"/><path class="cls-10" d="M1072.23,1111.09q23.44-24.13,46.85-48.28,11.72-12.06,23.45-24.11c6.83-7,14.43-13.31,19.59-21.74,8.37-13.66,11.78-30.62,17.56-45.45,8.87-22.77,10.08-48.1,36.35-57.87,8.14-3,16.88-4.11,25.56-4.41,16.15-.55,32.27,1.54,48.22,4.15,16.55,2.71,32.79,8.31,47,17.31A97.46,97.46,0,0,1,1356,946.5c8.86,9.56,6,19.88-9.16,30-17,11.41-23,15.51-39.74,27.07-9.31,6.41-17.41,14.49-24.74,23.06-13.86,16.19-25.28,34.51-35.13,53.37-3,5.83-6.56,11.89-8.65,18.16-1.36,4.08-72,131.68-71.27,132.36s-57.74,0-57.74,0-40.68-97.06-42-98.42S1072.23,1111.09,1072.23,1111.09Z"/><path class="cls-12" d="M427.83,1121.92c-2.64,1.5-87.38,150-86.95,237s89.39,282.18,122.82,323.95c0,0,128.82-137.18,121.76-142.25s-59-221.23-63.39-226.44-39.66-188.25-43.73-188S427.83,1121.92,427.83,1121.92Z"/><rect class="cls-10" x="764.88" y="2760.78" width="155.83" height="140.93"/><path class="cls-11" d="M764.43,2873.68v157.8s259.89-14.17,261.39-13.43,79.09-56,79.83-58.2,20.15-39.54,20.15-39.54-90.27-49.38-191-78c0,0-61.94-24.18-91,28.05H764.43Z"/><path class="cls-13" d="M764.43,3050.67v-45H985.2s16-110,140.6-85.4c0,0,60.42,52.55,17.9,130.36Z"/><polygon class="cls-10" points="292.23 2753.68 144 2717.51 115.11 2823.17 104.67 2879.55 253.97 2902.09 292.23 2753.68"/><path d="M843.84,1492.73c-2.72,4.07-317.22,52.45-320.72,55.78-12.79,12.16-49.87,71.25-58,84.73-40.63,67.15-62.86,164.66-47.19,243L72.24,2775.6H358.86l288.47-683.5,63.13,683.5,281-4.07q-18.47-241.83-37-483.67c-13.09-171.32-16.24-343.64-41.31-513.86-13.69-93-42-170.36-65.18-261.75C847.63,1508.62,843.84,1492.73,843.84,1492.73Z"/><path class="cls-14" d="M649.45,2164.09,621.26,1903.6c-34.65-27.22-50.67-58.76-51.34-60.11-35.83-68.91-5.52-144.51-4.21-147.7l8.49,3.49c-.3.74-30,74.92,3.9,140,.19.37,16.34,32.07,50.31,58.2l1.56,1.2,28.61,264.38Z"/><path class="cls-8" d="M447.78,1189.83c0,2.71,20.36,251.14,76,359.74l320.37-54.3,9.5-51.59s16.29,36.66,95,46.16,188.7-173.76,218.56-259.29c0,0-84.17-63.8-95-119.46l-94.34,86.2S938.52,1076.47,914.08,1033s-62.44-84.16-110-101.81-96.39-19-97.75-17.65-198.19,51.59-234.85,164.26Z"/><path class="cls-11" d="M952.21,1491.41c-31.34,0-65.58-13-91.46-35-35-29.84-53.46-71.1-68-107.43-6.92-17.28-11.2-35.32-15.33-52.77-3.16-13.31-6.42-27.07-10.82-40.24a3.06,3.06,0,1,1,5.81-1.94c4.48,13.44,7.78,27.33,11,40.76,4.09,17.24,8.32,35.06,15.07,51.92,14.26,35.65,32.33,76.1,66.28,105,27.33,23.29,64.3,36,96.49,33.16,23.91-2.11,44.33-12.67,59-30.54a3.07,3.07,0,0,1,4.73,3.9c-15.79,19.16-37.66,30.49-63.25,32.74C958.6,1491.28,955.42,1491.41,952.21,1491.41Z"/><path class="cls-11" d="M844.2,712c.63,2.16-5.57,5.87-13.84,8.28s-15.5,2.63-16.13.47,5.57-5.87,13.84-8.28S843.57,709.87,844.2,712Z"/><path class="cls-11" d="M839.36,734.38c0,3.62-1.8,6.56-4,6.56s-4-2.94-4-6.56,1.81-6.56,4-6.56S839.36,730.76,839.36,734.38Z"/><path class="cls-11" d="M860.46,649.89c-3.73-12.46-8.31-24.37-16.49-34.68-20.88-26.33-55.48-34.8-89.85-34.17a53.77,53.77,0,0,0,1.13-10.91,52.95,52.95,0,0,0-70-50.14c-11.45.81-27.19,5.11-37.49,21-8.4,13-10.44,30.07-5.6,47a59,59,0,0,0,9.54,19.46c-3.57,1.41-8.43,3.42-10.74,4.58a115.68,115.68,0,0,0-16.67,10.5c-43.68,29.44-56,82.45-61.84,125.3l-.44,3.12q-.87,6.23-1.79,12.39c-.87,5.72-1.7,10.67-2.56,15.19-1,6.13-2.07,11.14-3.21,15.75-3.92,15.75-9.92,28.52-18.47,39-9.72,7.84-21.37,13.17-30.77,21.39A68.41,68.41,0,0,0,494,867.46c-5.77,5.18-9.54,12.66-12.86,20-9.12,20-12.29,42.07-15.37,63.42l-.35,2.37a230.56,230.56,0,0,1-19.95,66.26c-2.82,2.69-5.56,5.42-8.12,8.33-18.12,20.56-25.5,48.84-25.75,76.24-.17,18.91,2.77,37.68,6.62,56.14,1.77,8.56,3.75,17.09,5.68,25.62,1,4.47,1.8,13.93,6.26,16.58,0,0,50.81,30.14,119.75,33.41s119.18-17.12,119.18-17.12,21-4.76,19.67-38.69c-.92-23-4-45.94-2.54-69s8.91-44.32,20.16-64.38c8.7-15.51,19.8-29.56,28.54-45.06,9.55-17,14.18-35.1,12.34-54.56-2-20.92-9.39-41-9.86-62.13-.48-21.94,9.26-40.74,15-61.32,3.14-11.28,4.21-24.19,4.25-35.9-12.92,7.75-27.6-5.74-30-7.62-9.36-7.34-10.11-20-7.69-31.16,2.51-11.63,11.68-18.8,23.35-20,13.12-1.38,22.73,5.06,33,11.92a10.94,10.94,0,0,0,4.74,2.07c11.5,1.24,8.35-12.66,6.48-19.51l0-.16c-3.1-11.24-8.58-22.14.68-32.51,12.22-13.65,42.09-20.44,42.09-20.44l27.14-4.07S864.53,663.46,860.46,649.89ZM466.15,996.68a78,78,0,0,1-11.94,14.41,235.45,235.45,0,0,0,15.72-57.2l.36-2.38c2.22-15.44,4.51-31.27,9.07-46.29C474.33,935,482.52,970,466.15,996.68ZM623.36,630c-18.39,20.38-33.2,46.14-41,72.44a154.65,154.65,0,0,0-4.22,18.06c-3.31,33-6.74,69.38-26.67,96.6A121.38,121.38,0,0,0,559,795.37c1.16-4.73,2.2-9.85,3.26-16.06.85-4.54,1.7-9.54,2.57-15.31.63-4.12,1.22-8.27,1.81-12.44l.46-3.12c5.69-41.87,17.65-93.56,59.75-122.07C625.62,627.55,624.47,628.75,623.36,630Zm26-59.86A52.75,52.75,0,0,0,660.83,603c-1.63.78-3.27,1.59-4.88,2.44a54.38,54.38,0,0,1-9.34-18.76c-4.48-15.62-2.65-31.37,5-43.2a40.2,40.2,0,0,1,18.85-15.7A52.93,52.93,0,0,0,649.37,570.13Z"/><circle class="cls-15" cx="799.91" cy="778.4" r="15.63"/><path class="cls-16" d="M745.39,777.85c-6.79,0-10.31-2.3-10.45-2.39-7.58-5.41-8.16-14.61-8.16-17.3a1.53,1.53,0,0,1,3.06,0c0,2.33.49,10.25,6.83,14.78h0s3,1.85,8.72,1.85a1.53,1.53,0,1,1,0,3.06Z"/><path class="cls-6" d="M1074.21,1109.06s36.81,72.5,103.44,101.54l-10.39,20s-47.58-33.82-70.71-70.45-24.32-49-24.32-49Z"/><polygon class="cls-6" points="764.88 2780.04 921.37 2792.68 920.71 2772.56 764.88 2774.82 764.88 2780.04"/><path class="cls-6" d="M128.45,2775.6l-1.54,7.37,153.26,18.39,6.12-24.65Z"/><path class="cls-6" d="M788.51,865.38s-15.78-3.32-26-11.86c0,0,8.87,13.22,23.23,20.28Z"/><path class="cls-11" d="M932.05,1258.05a3,3,0,0,1-1.47-.38,3.05,3.05,0,0,1-1.22-4.15c24.34-44.44,136.13-140.68,140.88-144.75a3.06,3.06,0,0,1,4,4.65c-1.15,1-115.7,99.58-139.5,143A3,3,0,0,1,932.05,1258.05Z"/><path class="cls-6" d="M1332.27,928.61l-.15,0c-42.73-8.46-76.3-2-76.63-2a.76.76,0,0,1-.3-1.5c.34-.07,34.2-6.54,77.23,2a.77.77,0,0,1-.15,1.52Z"/><path class="cls-11" d="M89.37,2946.48l26-126.64c-.16.78,3.74,3.86,4.22,4.3a95.75,95.75,0,0,0,13.31,10.16c24.74,15.88,55.12,22.83,84.33,21.8,18.52-.65,36.17-5.42,54-10l30.19-7.85s106.38,9.2,156.9,67.38l9.34,40.53S333.92,2996.36,332,2996.77s-171.36-.68-174.59-1.25-64.91-34.07-64.91-34.07Z"/><path class="cls-11" d="M423.52,2881.49S409.42,2859,297,2831.81c0,0-27-5.84-45.33,21.71,0,0,4.11,42.47,5.9,42.47S411,2896,411,2894.18,423.52,2881.49,423.52,2881.49Z"/><path class="cls-13" d="M82,2989.23c-.67,4,15,14.4,17.46,16.1,18.39,13,40.31,20.58,62.31,24.71,16,3,33.2,6,49.49,4.3,16-1.66,31.62-5.69,47-10.27,35.5-10.59,68.77-21.66,105.79-24.92,21.23-1.86,42.45-3.9,63.7-5.59,8.83-.7,17.81-.3,26.62-1.28a11.93,11.93,0,0,0,7.12-2.91c2.22-2.17,2.95-5.41,3.58-8.46,3.44-16.63,7.6-33.22,5-50.31-2.31-15.33-9.37-29.75-20.94-40.19-9.6-8.66-21.43-14.51-33.65-18.51,0,0,21.43,53.58,1.53,85.73-34.56,4.45-63.12,6.54-97.49,12.33-17.16,2.9-34.24,6.33-51.1,10.66s-32.76,9.55-50.14,10.81c-24.32,1.75-50.38-3.12-73.12-11.81a143.62,143.62,0,0,1-28.94-14.86,124.94,124.94,0,0,1-14-10.9c-1.84-1.66-12.51-10.21-12.08-12.59C90.13,2941.27,82,2989.21,82,2989.23Z"/></g></g></svg>