<svg xmlns="http://www.w3.org/2000/svg" viewBox="0 0 701.86 676.47"><defs><style>.cls-1,.cls-2,.cls-4,.cls-5{fill:#fa5a59;}.cls-1{opacity:0.25;}.cls-2,.cls-3{opacity:0.5;}.cls-4{opacity:0.35;}.cls-6{fill:#fff;}.cls-7{fill:#7da0b6;}.cls-8{fill:#fa7e7c;}.cls-9{fill:#8a4632;}.cls-10{fill:#16162b;}.cls-11{fill:#343256;}.cls-12{fill:#6d1526;}.cls-13{fill:#00a1f1;}.cls-14{fill:#ffa49c;}.cls-15{fill:#dc6478;}.cls-16,.cls-18{fill:#027dad;}.cls-17{fill:#7a392a;}.cls-18{opacity:0.7;}.cls-19{fill:#1e1e35;}.cls-20{fill:#272744;}.cls-21{opacity:0.6;}</style></defs><title>d-i-3</title><g id="Capa_2" data-name="Capa 2"><g id="_ëîé_2" data-name="—ëîé_2"><path class="cls-1" d="M154.49,372.52l10.91-11.8c2.09-2.26,2.29-5.54.46-7.48l-10.18-11.77a73.14,73.14,0,0,0,9.07-24.6l15.38-2.35c2.66-.29,4.63-2.91,4.51-6L184,292.47c-.12-3.07-2.29-5.53-5-5.61l-15.52-1.13a73.24,73.24,0,0,0-11-23.81l9.22-12.53c1.67-2.08,1.21-5.33-1-7.42L148.9,231.06c-2.26-2.09-5.53-2.29-7.48-.46l-11.77,10.18a73.06,73.06,0,0,0-24.6-9.07l-2.34-15.38c-.3-2.66-2.92-4.63-6-4.51l-16.06.64c-3.08.12-5.54,2.29-5.62,5l-1.12,15.52a73.14,73.14,0,0,0-23.81,11L37.57,234.7c-2.08-1.67-5.33-1.21-7.42,1.05L19.24,247.56c-2.08,2.26-2.28,5.53-.46,7.48L29,266.8a73.17,73.17,0,0,0-9.06,24.61L4.51,293.75c-2.65.3-4.63,2.92-4.5,6L.64,315.8c.12,3.08,2.3,5.54,5,5.62l15.53,1.12a72.91,72.91,0,0,0,11,23.81l-9.21,12.54c-1.67,2.08-1.21,5.33,1.05,7.42l11.8,10.91c2.26,2.08,5.54,2.28,7.48.46L55,367.5a73.12,73.12,0,0,0,24.6,9.06L81.94,392c.29,2.65,2.91,4.63,6,4.5l16.06-.63c3.07-.12,5.53-2.3,5.61-5l1.13-15.53a73,73,0,0,0,23.81-11l12.53,9.21C149.15,375.24,152.4,374.78,154.49,372.52ZM75,322.88a25.51,25.51,0,1,1,36.05-1.43A25.52,25.52,0,0,1,75,322.88Z"/><path class="cls-2" d="M258.51,423.14l6.9-7.47a3.49,3.49,0,0,0,.29-4.73l-6.44-7.45A46.4,46.4,0,0,0,265,387.92l9.74-1.48a3.52,3.52,0,0,0,2.85-3.8l-.4-10.16a3.52,3.52,0,0,0-3.15-3.56l-9.82-.71a46.34,46.34,0,0,0-7-15.07l5.84-7.93a3.51,3.51,0,0,0-.67-4.7l-7.47-6.9a3.51,3.51,0,0,0-4.74-.29l-7.44,6.44A46.4,46.4,0,0,0,227.22,334l-1.49-9.73a3.51,3.51,0,0,0-3.79-2.86l-10.16.4a3.51,3.51,0,0,0-3.56,3.15l-.71,9.82a46.25,46.25,0,0,0-15.07,6.95l-7.93-5.83a3.5,3.5,0,0,0-4.7.66l-6.9,7.47a3.51,3.51,0,0,0-.29,4.74l6.44,7.44a46.26,46.26,0,0,0-5.74,15.57l-9.74,1.49a3.5,3.5,0,0,0-2.85,3.79l.4,10.16a3.51,3.51,0,0,0,3.14,3.56l9.83.71a46.25,46.25,0,0,0,7,15.07l-5.84,7.93a3.51,3.51,0,0,0,.67,4.7l7.47,6.9a3.5,3.5,0,0,0,4.73.3l7.45-6.45a46,46,0,0,0,15.57,5.74l1.49,9.74a3.49,3.49,0,0,0,3.79,2.85l10.16-.4a3.5,3.5,0,0,0,3.56-3.14l.71-9.83A46.43,46.43,0,0,0,245.88,418l7.93,5.83A3.5,3.5,0,0,0,258.51,423.14ZM208.2,391.72a16.15,16.15,0,1,1,22.82-.9A16.15,16.15,0,0,1,208.2,391.72Z"/><g class="cls-3"><path class="cls-4" d="M332.4,112.17,320.47,118a4.56,4.56,0,0,0-2.61,5.61l4.29,12.11a60.06,60.06,0,0,0-14.37,16.18L295.24,149a4.57,4.57,0,0,0-5.26,3.25l-4.35,12.54a4.57,4.57,0,0,0,2.13,5.81l11.59,5.53a60.31,60.31,0,0,0,1.28,21.61l-10.86,6.86a4.57,4.57,0,0,0-1.42,6l5.79,11.94a4.57,4.57,0,0,0,5.61,2.6l12.11-4.28A60.23,60.23,0,0,0,328,235.29l-2.83,12.53a4.59,4.59,0,0,0,3.25,5.27L341,257.43a4.57,4.57,0,0,0,5.81-2.13l5.54-11.59a60.49,60.49,0,0,0,21.6-1.27l6.86,10.85a4.57,4.57,0,0,0,6,1.43l11.94-5.79a4.58,4.58,0,0,0,2.6-5.62l-4.28-12.1A60.42,60.42,0,0,0,411.46,215L424,217.85a4.57,4.57,0,0,0,5.27-3.25l4.34-12.54a4.58,4.58,0,0,0-2.12-5.81l-11.6-5.53a60.31,60.31,0,0,0-1.27-21.61l10.85-6.86a4.56,4.56,0,0,0,1.43-6L425.1,144.3a4.57,4.57,0,0,0-5.62-2.61L407.38,146a60.42,60.42,0,0,0-16.19-14.37L394,119.07a4.57,4.57,0,0,0-3.25-5.26l-12.53-4.35a4.58,4.58,0,0,0-5.82,2.13l-5.53,11.59a60.25,60.25,0,0,0-21.6,1.28l-6.86-10.86A4.59,4.59,0,0,0,332.4,112.17Zm46.17,62.08a21.06,21.06,0,1,1-28.15-9.75A21.06,21.06,0,0,1,378.57,174.25Z"/><path class="cls-5" d="M236.4,231.8l-7.56,6.48a3.45,3.45,0,0,0-.82,4.58l5.42,8a45.33,45.33,0,0,0-7.34,14.5l-9.64.34a3.42,3.42,0,0,0-3.2,3.36L212.5,279a3.42,3.42,0,0,0,2.65,3.81l9.47,1.81a45.42,45.42,0,0,0,5,15.44l-6.57,7.06a3.43,3.43,0,0,0,.12,4.64l6.48,7.56a3.43,3.43,0,0,0,4.58.82l8-5.42A45.41,45.41,0,0,0,256.74,322l.34,9.64a3.44,3.44,0,0,0,3.37,3.2l9.93.76A3.44,3.44,0,0,0,274.2,333l1.8-9.48a45.19,45.19,0,0,0,15.45-5.05L298.5,325a3.45,3.45,0,0,0,4.65-.12l7.56-6.48a3.45,3.45,0,0,0,.82-4.58l-5.42-8a45.33,45.33,0,0,0,7.34-14.5l9.64-.34a3.42,3.42,0,0,0,3.2-3.36l.76-9.94a3.42,3.42,0,0,0-2.65-3.81l-9.47-1.8a45.41,45.41,0,0,0-5.05-15.45l6.57-7.05a3.44,3.44,0,0,0-.12-4.65l-6.48-7.56a3.43,3.43,0,0,0-4.58-.82l-8,5.42a45.41,45.41,0,0,0-14.49-7.35l-.34-9.64a3.44,3.44,0,0,0-3.37-3.2l-9.93-.76a3.44,3.44,0,0,0-3.82,2.65l-1.8,9.48a45.19,45.19,0,0,0-15.45,5l-7-6.58A3.45,3.45,0,0,0,236.4,231.8Zm45.38,36.27a15.81,15.81,0,1,1-22.3-1.71A15.81,15.81,0,0,1,281.78,268.07Z"/></g><path class="cls-5" d="M143.17,331.87,96.6,251.41a4.07,4.07,0,0,0-7,0L43.15,332a4.08,4.08,0,0,0,3.53,6.11l93-.11A4.07,4.07,0,0,0,143.17,331.87Z"/><path class="cls-6" d="M133.73,328.16l-39.2-67.72a1.68,1.68,0,0,0-2.9,0l-39,67.81A1.68,1.68,0,0,0,54,330.76l78.25-.09A1.68,1.68,0,0,0,133.73,328.16Z"/><path class="cls-5" d="M91,310.15h4.29a1.48,1.48,0,0,0,1.48-1.46l1-28.69a1.49,1.49,0,0,0-1.49-1.53H89.94A1.49,1.49,0,0,0,88.45,280l1,28.69A1.49,1.49,0,0,0,91,310.15Z"/><path class="cls-5" d="M93.14,314.67a4.2,4.2,0,1,0,4.21,4.19A4.2,4.2,0,0,0,93.14,314.67Z"/><path class="cls-5" d="M240.63,166.41l7-.3a2.43,2.43,0,0,0,2.33-2.48l-.31-46.93a2.44,2.44,0,0,0-2.54-2.39l-10.32.44a2.43,2.43,0,0,0-2.33,2.59l3.64,46.79A2.45,2.45,0,0,0,240.63,166.41Z"/><path class="cls-5" d="M244.44,173.63a6.87,6.87,0,1,0,7.15,6.58A6.87,6.87,0,0,0,244.44,173.63Z"/><ellipse class="cls-7" cx="565.65" cy="670.21" rx="136.21" ry="6.27"/><path class="cls-8" d="M453.8,204.53l3.29,2.12c1.83,1.11,3.69,2.2,5.56,3.3a222.17,222.17,0,0,0,24.09,12.16c.94.41,1.88.81,2.82,1.23l2.83,1.11c1.89.75,3.75,1.48,5.62,2.2h0a14.83,14.83,0,0,0,14.75-2.31l1-.79h0a204.72,204.72,0,0,0,19.17-16.24,176.1,176.1,0,0,0,15.71-17.24c2-2.46,3.85-4.95,5.6-7.43a107.87,107.87,0,0,1-23-30.07l-.34.47c-3.49,4.51-7,9.4-11,14.43s-8.08,10.37-12.63,15.73c-2.78,3.29-5.67,6.65-8.69,10h0c-7.91-2.7-15.5-5.77-22.79-8.9L470.43,182l-5.16-2.45-2.52-1.18Q457.92,191.3,453.8,204.53Z"/><path class="cls-9" d="M626.36,58.49,615.11,79.8c-2.61,5-5.58,10.25-10.68,12.56a13.07,13.07,0,0,1-14.29-2.61,50.28,50.28,0,0,0,18.15-17.83c2.07-3.5,3.76-7.3,6.54-10.26A11.71,11.71,0,0,1,626.36,58.49Z"/><path class="cls-10" d="M514.83,622.49c-1.4,9.33-4.81,19.81-16.81,25.21-6.3,2.83-17.24,5.66-23.76,7.94a36,36,0,0,0-12.23,7,4.2,4.2,0,0,0,2.42,7.27,268.49,268.49,0,0,0,58-.45,4.19,4.19,0,0,0,3.64-3.54l5.71-38.06C525.07,627.91,521.16,620.17,514.83,622.49Z"/><path class="cls-10" d="M645.75,670.1l-.2.07a62.06,62.06,0,0,1-40.59,0l-.25-.09a4.14,4.14,0,0,1-2.79-4.26c1.2-12.55,14.39-18.36,12-35,4-.13,7.71-.28,11.36-.38,3.65.1,7-9.19,11-9.06-1.49,7.33,0,19.34,3.05,26.26,2.1,4.69,8.15,10,9.18,17.9A4.23,4.23,0,0,1,645.75,670.1Z"/><path class="cls-11" d="M499.41,633.41c2.14,9.59,31.07,17.58,36.78,14.92l9-46.63,40.61-238.45,17.63,233.93,3.15,35.75a50.76,50.76,0,0,0,17.33,2.94,52.6,52.6,0,0,0,11.29-1.2c.82-.18,1.63-.38,2.42-.59a44.44,44.44,0,0,0,5.93-2.08c-.09-7.27-.24-19.61-.42-35.37-.78-70-2.09-207.51-1.06-266.68.47-27.49.8-46,.81-46.13-21.69-6.81-35.68-10.61-61.38-10.61-20.08,0-24,2.32-41.85,6.59,0,.28-1.18,10.69-3.06,27.42-6.11,54.15-24.22,212.65-33.08,290.09Z"/><path class="cls-10" d="M632.09,350.88q.36,27.89.74,55.78c.68,51.13,1.35,150.43,2,201.55l.36,26.46c.82-.18,1.63-.38,2.42-.59q-.58-43.68-1.17-87.38c-.64-48.78-1.29-145.72-1.94-194.51,0-1,0-2,0-3.06,0-1.32,0-2.64-.06-3.95q-.23-17.46-.46-34.88a1.22,1.22,0,0,0-2.44,0q.26,18.65.5,37.33a28.58,28.58,0,0,1-12.42-25.56c.08-1.74-2.63-1.74-2.72,0A31.2,31.2,0,0,0,632.09,350.88Z"/><path class="cls-12" d="M572.53,107.79s12.76-8.69,35-4.35v11.21l-29.56,3.5-6.49-3.87Z"/><path class="cls-13" d="M650.93,178.26c-1.35,10.08-2.54,23.65-3.55,38.36-1.49,22.22-3.3,68.52-3.92,88,0,.5,0,1,0,1.5,0,.88-.06,1.77-.09,2.64-.14,4.41-.24,8.46-.33,12.08a415.63,415.63,0,0,1-79.53,3.75c-1.74-.08-3.46-.18-5.2-.28-5.36-.34-10.71-.76-16.06-1.31H542c-3.21-.33-6.42-.68-9.62-1.08,2-9.62,4.32-34.61,6-48.46.3-2.44.58-4.53.83-6.14.6-3.73,1.16-7.41,1.68-11.07.27-1.88.53-3.78.78-5.64,1.27-9.45,2.3-18.61,3.14-27.35.08-.84.16-1.68.23-2.52.9-9.75,1.56-19,2-27.56-25.9-5.83-24-29.8-24-29.8l18.93-29.13h0a30.19,30.19,0,0,1,12.2-10.83c3.79-1.83,8.28-4,11.1-5.27l5.09-2.32c7.68-3.51,15.41-7,22.3-10.51l17.86,7.18a2,2,0,0,1,.31.12c3.33,1.33,6.67,2.66,10,4,8.75,3.5,17.86,7.27,23.89,14.51C655.26,143.64,653.15,162.05,650.93,178.26Z"/><path class="cls-14" d="M607.71,72.76c0,1.7,1,3.12.44,5.29-.69,2.61-2.32,20.79-2.59,23.48,0,.15.79,6,.79,6.18-.57,6.23-6.83,8.22-4.93,14.36-11.58,1.07-18-2-29.17-5.93,1-2,2.17-4,3.1-6a18.11,18.11,0,0,0,.83-2.11c.54-1.67,1-3.37,1.39-5.08.35-1.46.57-6.58.8-8.07.18-1.14.34-2.28.46-3.44a65.24,65.24,0,0,0,.34-7.91,17.65,17.65,0,0,1,2.06-2.26C587.58,75.15,597.71,72.4,607.71,72.76Z"/><path class="cls-15" d="M603.09,79.13s-8.37,24.78-27.74,31a19,19,0,0,0,.83-2.12c.54-1.67,1-3.36,1.39-5.08.35-1.45.57-6.58.8-8.06.18-1.15.33-2.29.46-3.44a63.51,63.51,0,0,0,.34-7.92,19.16,19.16,0,0,1,2.06-2.25Z"/><path class="cls-6" d="M577.93,118.15l-9.14,12.46s-5.27-3.87-3.45-12.51l7.19-10.31S571.44,117.93,577.93,118.15Z"/><path class="cls-6" d="M607.49,103.44s-9.51,12.64-29.56,14.71l6.86,14.13a47.37,47.37,0,0,0,28.26-18.86Z"/><path class="cls-16" d="M545.58,200.24a172.51,172.51,0,0,1,2.53-26.45c.26-1.47,2.51-.85,2.25.62a167,167,0,0,0-2.44,25.83,1.17,1.17,0,0,1-2.34,0Z"/><path class="cls-9" d="M584.79,31.58a28.38,28.38,0,0,0-3.24,23.33c2.1-5.33,4.19-10.45,6.3-15.78,1-2.48,1.91-5.43.45-7.65a2.47,2.47,0,0,0-2-1.22C585.5,30.28,584.53,30.8,584.79,31.58Z"/><path class="cls-14" d="M587.55,29.59a52.81,52.81,0,0,1-12.44,30.89C571,65.35,565.65,70,564.79,76.31c-1.13,8.36,6.81,16,15.2,16.81s16.53-3.47,22.83-9.07A58,58,0,0,0,622,43.28,64.11,64.11,0,0,0,587.55,29.59Z"/><path class="cls-9" d="M629.14,59.16c-4.62,4.56-10.16,9-16.18,11.44a24.19,24.19,0,0,1,5.67-24.84s-44.8.75-36.29-19.75c1.72-4.15,2.29-10.3,9.21-16.39A42.23,42.23,0,0,1,604,14c5.46,2.89,14.89,8.71,18.93,16.25,4.8,2.78,9.57,6.09,11.43,11.22C636.54,47.58,633.76,54.6,629.14,59.16Z"/><path class="cls-14" d="M612.93,68.69a3.47,3.47,0,0,1,3.53-2.85,4.5,4.5,0,0,1,3.8,2.79,6.51,6.51,0,0,1-.07,4.85,12,12,0,0,1-2.84,4A11.27,11.27,0,0,1,611,81c-2.44.29-5.17-.84-6.16-3.1C608.31,75.37,612.44,73,612.93,68.69Z"/><path class="cls-15" d="M582.76,65.81c0,.22-.61.33-1.41.06a5,5,0,0,1-2.7-2.12.15.15,0,0,0,0-.08,5.08,5.08,0,0,1-.72-2.25,3.5,3.5,0,0,1,.42-2.18c.14-.22.26-.29.39-.24a.33.33,0,0,1,.15.11,14,14,0,0,1,.43,1.63,7.77,7.77,0,0,0,.72,1.8,1.19,1.19,0,0,0,.12.22,8.18,8.18,0,0,0,1.86,2.1C582.48,65.29,582.83,65.58,582.76,65.81Z"/><path class="cls-17" d="M605.08,51.25a12.15,12.15,0,0,0-5.89-4.57,1.22,1.22,0,0,0-.85,2.28,10,10,0,0,1,4.88,3.85C604.1,54.11,606,52.53,605.08,51.25Z"/><path class="cls-17" d="M589.17,42.59a7,7,0,0,0-5-1,1.22,1.22,0,0,0,.44,2.39,4.37,4.37,0,0,1,3.19.61C589.09,45.41,590.49,43.43,589.17,42.59Z"/><path class="cls-18" d="M645.22,253.21a111.48,111.48,0,0,1-13.84,18.17c-1.06,1.14.65,2.86,1.72,1.72a114.62,114.62,0,0,0,14.22-18.67C648.14,253.1,646,251.87,645.22,253.21Z"/><path class="cls-10" d="M585.78,343a1.22,1.22,0,0,0-2.43,0,252.37,252.37,0,0,0,1.51,30.73c.16,1.54,2.6,1.55,2.43,0A252.37,252.37,0,0,1,585.78,343Z"/><path class="cls-10" d="M585.31,353.77a39,39,0,0,1-11.06-12.37,1.22,1.22,0,0,0-2.1,1.22,41.74,41.74,0,0,0,11.94,13.25C585.36,356.78,586.57,354.68,585.31,353.77Z"/><path class="cls-19" d="M501.68,216.12,484,131a4.79,4.79,0,0,0-4.69-3.87h-63.1a4.78,4.78,0,0,0-4.7,5.69l17.65,85.11a4.8,4.8,0,0,0,4.7,3.87H497A4.78,4.78,0,0,0,501.68,216.12Z"/><path class="cls-20" d="M497.21,216.12,479.56,131a4.77,4.77,0,0,0-4.69-3.87h-63.1a4.78,4.78,0,0,0-4.69,5.69l17.65,85.11a4.78,4.78,0,0,0,4.69,3.87h63.1A4.78,4.78,0,0,0,497.21,216.12Z"/><path class="cls-18" d="M624.09,198.18s-30.44,49.18-85.7,75.3v-.06c.3-2.44.58-4.53.83-6.14.6-3.73,1.16-7.41,1.68-11.07.27-1.88.53-3.78.78-5.64,1.27-9.45,2.3-18.61,3.14-27.35.08-.84.16-1.68.23-2.52C562.11,212.94,607.26,193.62,624.09,198.18Z"/><path class="cls-14" d="M622.12,198c-2,2.9-4.13,5.82-6.47,8.71a178.46,178.46,0,0,1-15.71,17.23,203.74,203.74,0,0,1-19.17,16.25h0L576.08,244a6.52,6.52,0,0,1-6.5,1l-4.52-1.76-5.62-2.2L556.6,240l-2.8-1.23a219.83,219.83,0,0,1-24.11-12.16l-5.54-3.3c-1.8-1.16-3.57-2.3-5.33-3.45l-2.61-1.71c-.85-.58-1.69-1.19-2.5-1.77l-5-3.52c-1.57-1.23-3.14-2.41-4.67-3.61l-2.28-1.77-2.19-1.83c-1.43-1.22-2.86-2.41-4.26-3.59s-2.68-2.43-4-3.63-2.59-2.34-3.8-3.55l-.84-.84c-6.19-1.25-14.24-5.83-18.88-10.25a34.06,34.06,0,0,1-5.95-7.55l-.19-.34c-.21-.35-.4-.72-.59-1.09a1.76,1.76,0,0,1,1.57-2.67l-1.39-1.77c-2.64-4.75,1.32-3.54,1.32-3.54-4.05-5,2-3.84,2-3.84-3.68-3.43-3.32-5.38-1.58-5.85a6.22,6.22,0,0,1,3.81.23l8.15,3.77,16.22,5.94-1.53-8.56a5.08,5.08,0,0,1,1.71.1c6,1.41,7.89,13.73,8.37,18.14,0,.17,0,.34.05.5l0,.4c0,.24,0,.42,0,.53a1.16,1.16,0,0,1,0,.13l.5.31c1.3.85,2.71,1.64,4.08,2.5s2.76,1.71,4.22,2.55l4.4,2.51,2.25,1.29c.76.4,1.53.83,2.32,1.24l4.7,2.54,4.9,2.46,2.46,1.27,2.56,1.19c1.69.8,3.41,1.63,5.14,2.44l5.3,2.34c7.18,3.07,14.65,6.12,22.42,8.77.14,0,.26.08.39.14q4.51-5.06,8.7-10c4.55-5.36,8.67-10.69,12.62-15.74.52-.65,1-1.32,1.53-2,1.42-1.83,2.78-3.62,4.11-5.38A107.27,107.27,0,0,0,622.12,198Z"/><g class="cls-21"><path class="cls-15" d="M560,207.93a40.43,40.43,0,0,1,13.77,6.45c1.2.87,0,2.9-1.18,2a38.7,38.7,0,0,0-13.21-6.21,1.17,1.17,0,0,1,.62-2.25Z"/></g><path class="cls-11" d="M594.51,55.67a1,1,0,0,1,1.14.78,3.24,3.24,0,0,1-1,2.78,1,1,0,0,1-1.59-.74A2.62,2.62,0,0,1,594.51,55.67Z"/><path class="cls-11" d="M583.25,49.54a1,1,0,0,1,1.13.79,3.22,3.22,0,0,1-1,2.78A1,1,0,0,1,582,53a.94.94,0,0,1-.22-.61A2.64,2.64,0,0,1,583.25,49.54Z"/><path class="cls-15" d="M579.79,73.6a25.53,25.53,0,0,0-6.25-1.72.54.54,0,0,0-.12,1.07,25.32,25.32,0,0,1,6,1.65A.54.54,0,0,0,579.79,73.6Z"/><path class="cls-14" d="M423.09,180c.34.88.16,2.41-1.78,5,0,0,0,0,0,0-1.16,2.42-2.7,4-5,2.2-3.16-2.41-5.4-8.42-6.4-12.49a16.12,16.12,0,0,1-.53-5.78,7.26,7.26,0,0,1,2.42-4.9c1.78-1.37,4.08-1.15,6.19-.88a17.29,17.29,0,0,1,2.92.56,3.31,3.31,0,0,1,.5.15c.1.05.21.08.29.13a1,1,0,0,1,.16.06c1.06.53,2.3,1.71-.42,4,0,0,5.23.35.55,4.68,0,0,4.89,1.18-.2,6.07a2,2,0,0,1,1.35,1.2Z"/><path class="cls-6" d="M459.44,176.1l-1.17-4.41a1.82,1.82,0,0,0-1.75-1.35H440.27a1.81,1.81,0,0,0-1.75,2.27l1.17,4.42a1.8,1.8,0,0,0,1.74,1.34h16.26A1.81,1.81,0,0,0,459.44,176.1Z"/><path class="cls-5" d="M449.16,0H302.79a6,6,0,0,0-6,6V65.72a6,6,0,0,0,6,6H431.65a2.24,2.24,0,0,1,1.58.66L451.3,90.42a2.24,2.24,0,0,0,3.83-1.59V6A6,6,0,0,0,449.16,0Z"/><path class="cls-6" d="M331.74,32.68h-3a.7.7,0,0,0-.71.72l.48,9.56a.7.7,0,0,0,.7.69h2A.7.7,0,0,0,332,43l.48-9.56A.7.7,0,0,0,331.74,32.68Z"/><path class="cls-6" d="M330.25,45.77a2,2,0,1,0,2,2A2,2,0,0,0,330.25,45.77Z"/><path class="cls-6" d="M352.27,53.53,331.81,18.08a1.8,1.8,0,0,0-3.11,0L308.24,53.53a1.79,1.79,0,0,0,1.55,2.69h40.93A1.79,1.79,0,0,0,352.27,53.53Zm-7.57-2H315.8a.62.62,0,0,1-.53-.93l14.45-25a.62.62,0,0,1,1.07,0l14.45,25A.62.62,0,0,1,344.7,51.51Z"/><rect class="cls-6" x="357.89" y="18.91" width="42.97" height="6.58" rx="2.5"/><rect class="cls-6" x="407.91" y="18.91" width="20.75" height="6.58" rx="2.5"/><rect class="cls-6" x="357.89" y="32.31" width="30.02" height="6.58" rx="2.5"/><rect class="cls-6" x="394.95" y="32.31" width="33.7" height="6.58" rx="2.5"/><rect class="cls-6" x="357.89" y="45.71" width="36.15" height="6.58" rx="2.5"/><rect class="cls-6" x="401.08" y="45.71" width="27.58" height="6.58" rx="2.5"/><path class="cls-18" d="M617.64,146c-5.12,6.54-10.78,12.6-16.5,18.61q-4.08,4.29-8.09,8.65c-2,2.17-4.57,4.19-6,6.8-.63,1.17,1.15,2.21,1.79,1,1.54-2.86,4.66-5.31,6.84-7.69,2.68-2.93,5.44-5.79,8.17-8.67,5.29-5.57,10.49-11.22,15.23-17.28C619.91,146.39,618.46,144.91,617.64,146Z"/><path class="cls-18" d="M603.61,160.88a18.68,18.68,0,0,1-4.9-9.3c-.27-1.3-2.26-.75-2,.55a20.51,20.51,0,0,0,5.43,10.21C603.08,163.29,604.55,161.83,603.61,160.88Z"/><path class="cls-18" d="M648.45,173.71c-2.67,4.72-5,9.63-7.87,14.26-2.52,4.08-5.24,10.06-9.34,12.77a1,1,0,0,0,.25,1.89l.37.13a.91.91,0,0,0,1.24-.86c3.16-2.5,5.26-6.55,7.35-9.87,3.56-5.6,6.53-11.5,9.79-17.28A1,1,0,0,0,648.45,173.71Z"/></g></g></svg>