<svg xmlns="http://www.w3.org/2000/svg" viewBox="0 0 1786.78 1233.35"><defs><style>.cls-1{fill:#254751;opacity:0.2;}.cls-2{fill:#f9b200;}.cls-3{fill:#ffb3c2;}.cls-4{fill:#ff6c81;}.cls-5{fill:#fafaff;}.cls-6{fill:#f0f5ff;}.cls-7{fill:#ade8f7;}.cls-8{fill:#8ee0ed;}.cls-9{fill:#eaf0f9;}.cls-10{fill:#ffc71f;}.cls-11{fill:#e2405f;}.cls-12{fill:#ffb808;}.cls-13{fill:#f9d2df;}.cls-14{fill:#ed3e54;}.cls-15{fill:#d6344c;}.cls-16{fill:#eb8e6c;}.cls-17{fill:#191960;}.cls-18{fill:#0f2251;}.cls-19{fill:#fff;}.cls-20{fill:#121251;}.cls-21{fill:#e9f1f2;}.cls-22{fill:#061e59;}.cls-23{fill:#562745;}.cls-24{fill:#9494ed;}.cls-25{fill:#f8f8ff;}.cls-26{fill:#8181e2;}.cls-27{fill:#97bfff;}.cls-28{fill:#c36252;}.cls-29{fill:#044ca3;}.cls-30{fill:#dd7858;}.cls-31{fill:#60334e;}.cls-32{fill:#0c57c4;}.cls-33{fill:#176acc;}.cls-34{fill:#161237;}.cls-35{fill:#23173d;}.cls-36{fill:#fefdfb;}.cls-37{fill:#145ac1;}.cls-38{fill:#49302a;}.cls-39{fill:#dd8064;}.cls-40{fill:#1c2546;}.cls-41{fill:#3845b8;}.cls-42{fill:#2b3da5;}.cls-43{fill:#b8d5ff;}.cls-44{fill:#52a5e8;}.cls-45{fill:#60b9ef;}.cls-46{fill:#92c6ff;}</style></defs><title>dental-01</title><g id="Capa_2" data-name="Capa 2"><g id="Ñëîé_1" data-name="Ñëîé 1"><ellipse class="cls-1" cx="893.39" cy="1163.02" rx="893.39" ry="70.33"/><path class="cls-2" d="M707.6,527.69c-9.46-3.66-22.05-1.81-29.77,4.47-11.88,9.64-11.43,29-10.42,56.57a271.54,271.54,0,0,0,3,31.26c6.84,48.54-17,62.26-14.88,104.21,2.44,47.65,35.94,82.8,52.1,99.75,20.56,21.56,31.24,32.76,40.2,29.77,18.67-6.22,1-64.43-10.42-226.28C734.24,582.9,732,537.15,707.6,527.69Z"/><path class="cls-2" d="M1282.62,527.69c9.46-3.66,22-1.81,29.77,4.47,11.88,9.64,11.42,29,10.42,56.57a270.7,270.7,0,0,1-3,31.26c-6.83,48.54,17,62.26,14.89,104.21-2.44,47.65-36,82.8-52.1,99.75-20.56,21.56-31.24,32.76-40.2,29.77-18.68-6.22-1-64.43,10.42-226.28C1256,582.9,1258.18,537.15,1282.62,527.69Z"/><path class="cls-3" d="M1648,1162.15H366.76c23.39-57.79,84.05-202.1,118.11-313.59,39.15-128.19,56.9-215.47,95.27-218.33,14.46-1.08,39,25.73,87.33,79.39,35.72,39.63,53.58,59.44,71.45,83.36C819.25,900.56,842.57,1002.62,854,999.4c10.71-3-27.45-87,7.93-170.69,3.35-7.9,42.53-97,119.09-103.21,62.94-5.12,109.73,49.13,115.12,55.57,76.41,91.28,26.77,238.74,43.66,242.15,14.29,2.88,12.87-35,82.66-160.16,29.15-52.27,126-252,183.31-240.77,31.15,6.11,46,51.5,55.57,79.39C1491.91,790.76,1592.38,982.55,1648,1162.15Z"/><path class="cls-4" d="M599.49,757.26c31-2.11,103.24,223.33,184.18,300.44,74.51,71,132,12.7,132.89-78.15C917.24,911.83,947.87,795.8,985,793c40.48-3.07,81.91,61.22,92.79,170.69,6.42,64.59-8.69,89.41,10.42,111.15,17.66,20.09,46.85,19.88,51.6,19.85,40.05-.28,67.73-33.48,83.37-51.61C1325.41,924.54,1350.52,688.9,1396.53,736c17.55,18,15.51,108.18,173,426.15H1648c-55.57-179.6-156-371.39-186.57-460.47-9.56-27.89-24.42-73.28-55.57-79.39-57.33-11.25-154.16,188.5-183.31,240.77-69.79,125.16-68.37,163-82.66,160.16-16.89-3.41,32.75-150.87-43.66-242.15-5.39-6.44-52.18-60.69-115.12-55.57C904.5,731.72,865.32,820.81,862,828.71c-35.38,83.66,2.78,167.68-7.93,170.69-11.47,3.22-34.79-98.84-115.12-206.42-17.87-23.92-35.73-43.73-71.45-83.36-48.38-53.66-72.87-80.47-87.33-79.39-38.37,2.86-56.12,90.14-95.27,218.33-34.06,111.49-94.72,255.8-118.11,313.59h89.69C569.36,958.77,558.31,760.06,599.49,757.26Z"/><path class="cls-5" d="M946.64,286a113.65,113.65,0,0,0,94.51,0,452.1,452.1,0,0,1,67-24.49c29.12-8,71.81-19.62,121-2.24,11.82,4.18,69.61,26.15,96.34,87.38,26.94,61.72,3.31,119.77-4.48,138.91-9.12,22.4-16.33,28-26.89,47.05-32.94,59.29-26.36,118.79-24.64,165.8.56,15.4,7.76,268.94-91.87,338.32-7.24,5-42.14,29.44-58.25,17.92-7.48-5.34-8.23-16.1-9-29.12-2.81-49.77-4.21-74.66-4.48-87.38-.26-11.8-2.31-67.28-33.61-118.75-17.16-28.23-33.6-39.58-42.57-44.81l-.44-.26a70.87,70.87,0,0,0-70.82,0l-.44.26c-9,5.23-25.4,16.58-42.57,44.81-31.3,51.47-33.35,107-33.61,118.75-.27,12.72-1.67,37.61-4.48,87.38-.73,13-1.48,23.78-9,29.12-16.11,11.52-51-12.87-58.25-17.92-99.62-69.38-92.43-322.92-91.86-338.32,1.72-47,8.29-106.51-24.65-165.8-10.56-19-17.77-24.65-26.89-47.05-7.79-19.14-31.42-77.19-4.48-138.91,26.73-61.23,84.52-83.2,96.35-87.38,49.17-17.38,91.86-5.72,121,2.24A452.65,452.65,0,0,1,946.64,286Z"/><path class="cls-6" d="M752.69,573.62c-12.58-38.85-33.3-55.73-53.91-84.21-17.37-24-35.8-57.91-47.2-105.75-7.22,46.77,9,86.66,15.19,101.89,9.12,22.4,16.33,28,26.89,47.05C726.6,591.89,720,651.39,718.31,698.4c-.57,15.4-7.77,268.94,91.86,338.32,4.08,2.85,17,11.84,30.3,17.08-59.72-83-75.45-147.42-78.81-190.74C751.05,726.31,766,614.61,752.69,573.62Z"/><path class="cls-6" d="M1285.38,489.41c-20.61,28.48-41.33,45.36-53.91,84.21-13.28,41,1.64,152.69-9,289.44-3.38,43.62-19.31,108.64-80.06,192.46,15-4.69,30.59-15.61,35.17-18.8,99.63-69.38,92.43-322.92,91.87-338.32-1.73-47-8.3-106.51,24.64-165.8,10.56-19,17.77-24.65,26.89-47.05,6.59-16.18,24.5-60.21,13.57-110.74C1323.44,427.37,1303.8,463.94,1285.38,489.41Z"/><path class="cls-7" d="M1206.28,725.28C1212.81,658,1230,608.45,1245,574.92c18.9-42.18,37.76-66.44,34.24-105.7-.53-5.89-5.18-50.05-41.68-80.39-40.08-33.3-108-43.85-135.48-14.89-53.56,56.42-136.93,56.42-216.36,0-32.56-23.12-95.4-18.41-135.47,14.89-36.51,30.34-41.16,74.5-41.69,80.39-3.52,39.26,15.34,63.52,34.24,105.7,15,33.53,32.18,83.11,38.71,150.36Z"/><path class="cls-8" d="M1279.23,469.22c-.53-5.89-5.18-50.05-41.68-80.39-39.71-33-106.73-43.65-134.7-15.67,37.32-21.39,129.61,1.65,108.77,103-1,4.68-8.1-6.83-20.84-16.87-20.9-16.48-51.58-25.62-80.38-20.84-7.86,1.3-38.94,7.51-58.55,31.75-7.69,9.51-10.69,18.16-22.83,25.81a60.77,60.77,0,0,1-32.75,8.93c-22.44-.61-29.34-14.79-58.55-30.77-8.68-4.74-32.46-17.47-63.51-20.84-14.08-1.52-40.79-4.07-69.47,9.93-8.64,4.21-34.44,16.81-46.64,43.66-9.71,21.39-4.67,38.32-2,69.47.89,10.28,1.54,22.42,1.52,36.24,10.19,29.82,19.46,67.19,23.87,112.65h424.78C1212.81,658,1230,608.45,1245,574.92,1263.89,532.74,1282.75,508.48,1279.23,469.22Z"/><path class="cls-9" d="M1092.53,338.87c-3-1.28-8.77-3.55-19.22-7.66l-29.91-11.8c-16.67-6.6-27.68-11-34.42-13.34-7-2.46-12.45-4.4-14.54.61-1,2.48-3.2,7.66,22.17,23.83,25.67,16.35,52.83,21.26,67.92,21.26,5.3,0,9.11-.61,10.84-1.54a5.65,5.65,0,0,0,3-4.1C1099.1,341.67,1095.45,340.12,1092.53,338.87Z"/><path class="cls-10" d="M993.89,522c4.73-.39,17.72-1.35,25.8-4,24.51-7.94,34.59-23.34,47.64-33.75,27-21.53,67.54-22.28,95.27-13.89,6,1.82,47.16,14.27,61.53,49.62,12.24,30.14-6.53,48.55-13.9,103.21-4,29.34,1.19,26,6,115.12,3.64,68.09,5.36,102.92,0,140.92-7,49.69-20.16,82.57-33.74,107.17-12.68,23-38.71,62.23-51.61,57.56-5.76-2.08-6.84-12.2-7.94-23.81-6-62.75-6.65-93.39-9.92-117.11-4.66-33.71-15.09-57.49-23.82-77.4-13.77-31.39-24.49-55-49.62-69.47a93.44,93.44,0,0,0-91.3,0c-25.13,14.5-35.85,38.08-49.62,69.47-8.73,19.91-19.16,43.69-23.82,77.4-3.27,23.72-4,54.36-9.92,117.11-1.1,11.61-2.17,21.73-7.94,23.81-12.9,4.67-38.93-34.6-51.6-57.56C791.75,961.86,778.6,929,771.6,879.29c-5.36-38-3.65-72.83,0-140.92,4.77-89.09,9.9-85.78,5.95-115.12-7.37-54.66-26.14-73.07-13.89-103.21,14.36-35.35,55.51-47.8,61.52-49.62,27.74-8.39,68.27-7.64,95.27,13.89,13,10.41,23.13,25.81,47.64,33.75C976.17,520.67,989.16,521.63,993.89,522Z"/><path class="cls-11" d="M852.82,1163h14.83c-14.57-89.14-6.72-272.35,14.7-353.73,19.25-73.18,66.55-102.39,111.54-97,45-5.37,92.29,23.84,111.55,97,21.41,81.38,29.26,264.59,14.69,353.73H1135c9.09-85.82,5.06-258.57,16.35-326.11,48.85-292.31-61.73-253.09-124.84-225.93a81.75,81.75,0,0,1-65.16,0c-63.11-27.16-173.69-66.38-124.84,225.93C847.76,904.41,843.73,1077.16,852.82,1163Z"/><path class="cls-12" d="M1210.23,623.25c7.37-54.66,26.14-73.07,13.9-103.21-12.39-30.49-44.71-43.94-57.22-48.23a96.67,96.67,0,0,1,14.94,24.2c4.32,10.13,7.63,22.82,5,100.23-1.34,39-2.22,36.85-2,52.6.53,36.46,5.38,57.93,9.92,89.31,4.29,29.67,10.1,69.76,8.93,103.21-3,86.84-54.18,162.8-67.48,158.78-7-2.13.79-25.34-3-75.42-3.19-42.4-7.93-105.47-50.61-151.84-10.44-11.34-41.06-44.61-85.35-44.65,0,0-40.31-.05-75.42,33.74-21.33,20.53-32.65,52.3-34.58,91.37,3.71-10.2,7.69-19.26,11.36-27.64,13.77-31.39,24.49-55,49.62-69.47a93.44,93.44,0,0,1,91.3,0c25.13,14.5,35.85,38.08,49.62,69.47,8.73,19.91,19.16,43.69,23.82,77.4,3.27,23.72,4,54.36,9.92,117.11,1.1,11.61,2.18,21.73,7.94,23.81,12.9,4.67,38.93-34.6,51.61-57.56,13.58-24.6,26.73-57.48,33.74-107.17,5.36-38,3.64-72.83,0-140.92C1211.42,649.28,1206.28,652.59,1210.23,623.25Z"/><path class="cls-13" d="M605.27,814.56c-5.79.19-4,16.26-19.85,37.72-8.66,11.74-14.08,13.56-13.89,19.84.42,13.62,26.66,29.52,39.69,21.84,7.83-4.62,8.49-16.32,9.11-27.52C621.73,841.45,612.83,814.32,605.27,814.56Z"/><path class="cls-13" d="M1007.8,1068.58c-1-5.71-16.66-1.69-40.14-14.32-12.86-6.91-15.42-12-21.61-10.94-13.42,2.34-25.45,30.57-16,42.39,5.68,7.09,17.35,6.08,28.53,5.12C983.52,1088.67,1009.11,1076,1007.8,1068.58Z"/><path class="cls-13" d="M645,880.06c-8.47,1.7-15.32,26.14-6,45.65,10,20.76,35.26,29.74,41.68,23.82C691.53,939.54,659.6,877.12,645,880.06Z"/><path class="cls-13" d="M1161.52,1139.15c1.57,8.84,39.59,20.92,72,15.74,34.42-5.51,52.14-28.9,43.57-36.6C1262.58,1105.3,1158.8,1123.88,1161.52,1139.15Z"/><path class="cls-13" d="M1423.7,1075.32c-8.47,1.7-15.31,26.13-6,45.65,10,20.75,35.25,29.74,41.68,23.82C1470.26,1134.8,1438.34,1072.38,1423.7,1075.32Z"/><path class="cls-13" d="M977.72,973.27c-8.47,1.7-15.31,26.13-6,45.65,10,20.75,35.26,29.74,41.69,23.82C1024.28,1032.75,992.35,970.33,977.72,973.27Z"/><path class="cls-13" d="M1362.77,944.6c-8.47,1.7-15.32,26.13-6,45.65,10,20.75,35.26,29.74,41.68,23.81C1409.33,1004.08,1377.4,941.66,1362.77,944.6Z"/><path class="cls-13" d="M1314.28,1126.53c-2.1,8.38,17,25,38.68,25,23-.09,42-19.09,39.4-27.43C1388,1110,1317.9,1112.05,1314.28,1126.53Z"/><path class="cls-13" d="M573.51,903.88c-7.22,5.94,2.34,19.35-2,47.63-3.59,23.48-13.06,33.17-9.93,35.73,7,5.71,65.63-32.75,57.56-61.53C614.06,907.5,583,896.05,573.51,903.88Z"/><path class="cls-13" d="M1328.77,874.93c-6.46,5.94,2.09,19.34-1.78,47.63-3.21,23.48-11.68,33.16-8.87,35.73,6.24,5.71,58.68-32.76,51.47-61.53C1365,878.55,1337.28,867.09,1328.77,874.93Z"/><path class="cls-13" d="M1359.57,773.85c-7.23,5.94,2.33,19.35-2,47.63-3.59,23.48-13.06,33.17-9.92,35.73,7,5.71,65.62-32.75,57.56-61.53C1400.11,777.47,1369.09,766,1359.57,773.85Z"/><path class="cls-13" d="M585.42,1009.07c-1.34-4.1,27.22-9.46,39.7-35.72,6-12.75,4-21.33,9.92-23.82,11.22-4.72,38.45,17.68,35.73,33.74C666.47,1008.69,587.62,1015.79,585.42,1009.07Z"/><path class="cls-13" d="M1185.43,1102.51c-1.35-4.1,27.22-9.46,39.69-35.73,6.06-12.75,4-21.32,9.93-23.82,11.22-4.72,38.44,17.68,35.72,33.75C1266.47,1102.12,1187.63,1109.22,1185.43,1102.51Z"/><path class="cls-13" d="M995.36,1104.79c-2.2-3.71,24.53-15.11,31-43.45,3.16-13.76-.71-21.69,4.54-25.4,9.94-7,41.36,9,42.17,25.22C1074.4,1086.91,999,1110.87,995.36,1104.79Z"/><path class="cls-13" d="M547.71,1009.07C515.85,1013,502.59,1069,514,1078.54c13,10.86,73.39-25.56,69.47-49.62C581.42,1016.58,562.46,1007.26,547.71,1009.07Z"/><path class="cls-13" d="M1302.13,973.24c-31.86,3.91-45.12,59.94-33.74,69.47,13,10.85,73.4-25.56,69.47-49.62C1335.85,980.75,1316.88,971.43,1302.13,973.24Z"/><path class="cls-13" d="M690.62,967.39c-10.81,2.76-15.74,25.33-11.91,41.68,8.25,35.26,58.69,47.65,67.48,37.71C757.91,1033.53,712,961.93,690.62,967.39Z"/><path class="cls-13" d="M1425,946.61c-10.81,2.76-15.74,25.33-11.91,41.68,8.26,35.25,58.69,47.65,67.48,37.71C1492.32,1012.74,1446.39,941.15,1425,946.61Z"/><path class="cls-13" d="M1389.7,850.79c-10.8,2.76-15.74,25.33-11.91,41.68,8.26,35.26,58.7,47.65,67.48,37.71C1457,916.93,1411.06,845.33,1389.7,850.79Z"/><path class="cls-13" d="M1008.72,925.89c-10.8,2.76-15.74,25.34-11.91,41.68,8.26,35.26,58.69,47.65,67.48,37.72C1076,992,1030.08,920.43,1008.72,925.89Z"/><path class="cls-13" d="M1470.23,1042.66c-10.81,2.76-15.74,25.33-11.91,41.68,8.26,35.25,58.69,47.65,67.48,37.71C1537.52,1108.79,1491.59,1037.2,1470.23,1042.66Z"/><path class="cls-13" d="M611.22,1030.91c1.23-7.5,31.18-13.87,55.58-2,18,8.77,33.58,27.76,29.77,33.74C689.35,1074,609.11,1043.78,611.22,1030.91Z"/><path class="cls-13" d="M1327.32,1029.49c1.23-7.5,31.18-13.87,55.58-2,18,8.77,33.58,27.76,29.77,33.74C1405.45,1072.58,1325.21,1042.36,1327.32,1029.49Z"/><path class="cls-13" d="M553.67,1096.4c-4.18-11.07,18.5-36.81,47.63-39.69,30.53-3,58,20.06,55.57,31.76C652.87,1108.1,560.81,1115.34,553.67,1096.4Z"/><path class="cls-13" d="M702.52,1092.43c-3.68-9.23,5.3-21.93,13.9-27.78,29.38-20,86.36,18.23,83.36,31.75C796.38,1111.72,711.65,1115.32,702.52,1092.43Z"/><path class="cls-13" d="M1286.6,1090.52c-3.68-9.24,5.29-21.94,13.89-27.79,29.38-20,86.36,18.23,83.36,31.76C1380.46,1109.8,1295.72,1113.4,1286.6,1090.52Z"/><path class="cls-13" d="M482.21,1146c-6-10.64,10.12-39.8,37.71-45.65,28.4-6,55.07,15.61,53.59,27.79C571.11,1147.93,492,1163.52,482.21,1146Z"/><path class="cls-13" d="M609.24,1130.15c-2.22-10.67,34.15-38,69.47-27.79,16.71,4.83,36.21,18.93,33.74,27.79C707.46,1148,612.57,1146.13,609.24,1130.15Z"/><path class="cls-13" d="M750.16,1130.15c-1-9.84,41.49-33.46,67.48-15.88,7,4.74,16.76,15.14,13.9,21.83C824.85,1151.7,751.49,1142.61,750.16,1130.15Z"/><polygon class="cls-13" points="959 855.44 982.82 804.82 1014.08 824.18 959 855.44"/><path class="cls-13" d="M1051.3,864.68c2.87-6.33-40.19-26.8-40.19-26.8s-19.47,56.84-14.89,58.06c2.88.77,4.91-18.07,20.84-26.8S1049.18,869.36,1051.3,864.68Z"/><path class="cls-13" d="M938.16,947.74c-9-4.66-5.11-43.87,17.86-64,7.62-6.68,26.8-10.42,26.8-10.42S982,902.43,972.4,918C963.35,932.59,945.61,951.6,938.16,947.74Z"/><path class="cls-13" d="M917.84,1142.45c-2.3-9.88,30.06-32.37,60.3-28,10,1.46,25.32,13.63,25.32,13.63s-22.68,18.29-40.75,21.05C945.72,1151.77,919.74,1150.62,917.84,1142.45Z"/><path class="cls-13" d="M1054.08,939.25c-9.47,4.2-42.72-32.84-34.24-49.13,3.42-6.56,13.57-9.65,20.84-7.44C1060.49,888.69,1063.18,935.23,1054.08,939.25Z"/><path class="cls-13" d="M1060.49,1133.32c3.28,6.38-36.39,21-51.72,13.41-6.17-3.06-8.29-9.67-5.44-13.75C1011.09,1121.87,1057.35,1127.21,1060.49,1133.32Z"/><path class="cls-13" d="M1051.45,1108c.76-10.33,49.09-22.23,59.46-7.08,4.18,6.11,2.13,16.51-3.24,21.89C1093,1137.45,1050.72,1117.92,1051.45,1108Z"/><path class="cls-13" d="M927.74,990.73l55.08-61s-44,120.5-58.06,116.12C917.78,1043.65,927.74,990.73,927.74,990.73Z"/><path class="cls-13" d="M938.71,1114.1c4.23-5.15-21.08-44.23-40.19-40.2-23,4.85-24.06,69.19-20.85,70,2.25.55,4.9-30.36,23.82-37.22C918.29,1100.57,935.58,1117.91,938.71,1114.1Z"/><path class="cls-14" d="M1328.21,712.52c17.89-25.78,30.8-44,50.61-52.1,5.9-2.43,14.53-5.84,23.82-3,8,2.44,12.95,8.42,25.31,31.26,11,20.3,18.12,36,29.78,56.57,10.46,18.45,13.68,21.59,17.86,23.82a30.06,30.06,0,0,0,14.13,3.36c-11.93-27.59-21.76-51.57-28.34-70.77-9.56-27.89-24.43-73.28-55.57-79.39-30.71-6-72.73,48.47-109.63,108.41,2.84,2.44,6.1,4.17,9.7,4.15C1313.9,734.81,1318.81,726.06,1328.21,712.52Z"/><path class="cls-14" d="M502,813.76C511.6,809.9,514.43,798,518.33,784c15.21-54.54,29.14-77.86,37.22-89.32C569,675.58,577,674.12,579.37,673.81c7.8-1,15.85,2.79,41.69,28.29,31.39,31,37.41,43.08,52.1,44.66,5.35.58,12.85-.13,22.43-5.83-8.06-9.06-17.27-19.27-28.12-31.31-48.38-53.66-72.87-80.47-87.33-79.39C545.22,632.83,527.39,705.34,495,815A17.56,17.56,0,0,0,502,813.76Z"/><path class="cls-15" d="M882.35,809.25c19.25-73.18,66.55-102.39,111.54-97,45-5.37,92.29,23.84,111.55,97,21.41,81.38,29.26,264.59,14.69,353.73H1135c9.09-85.82,5.06-258.57,16.35-326.11,33.45-200.12-7.84-244.85-57.46-244.45a72.85,72.85,0,0,1,16.55,11.76c12.31,11.68,18.13,25.59,22.82,43.66,14.81,57,10.93,127.18-3,129-9.09,1.21-9.21-28.55-37.72-56.56-22.13-21.75-60.32-41.42-104.2-35.73C936.1,691.34,907.4,730,901,739.14c-23.36,33.49-24.62,68.75-22.93,88.55C879.43,821.09,880.85,814.93,882.35,809.25Z"/><path class="cls-16" d="M1169.4,337.58c0,2.07-1.12,2.43-1.58,6.31-.53,4.5.72,6.27-.52,7.75-1.52,1.81-5.06,1.14-7.62.65-3.38-.63-9-1.71-12.35-7-.62-1-3.5-5.56-1.71-11a12.11,12.11,0,0,1,8.41-8C1161.8,324.46,1169.36,332.25,1169.4,337.58Z"/><path class="cls-16" d="M1260.7,349.6c.84,1.73.07,2.36.39,5.72.93,9.5,8,13.1,6.51,16.16-1.66,3.51-12.31,1.69-17.54.19-3.76-1.08-11.11-3.19-13-8.67a43,43,0,0,1-.59-6.11c-.38-5.55-.56-8.35-.19-9.06C1239.16,342.16,1257.27,342.55,1260.7,349.6Z"/><path class="cls-17" d="M1261.64,351.67c0-12.25-.87-33.86-1.18-60.59-.38-33.12-3-57.68-5.61-62.37a15.49,15.49,0,0,0-7.1-6.21c-6.34-2.94-15.31-2.31-19.5,2.66-2.26,2.68-2.49,5.85-2.66,8.87-1.33,22.82-2,34.38-1.48,42,.59,8.95.91,13.52,2.07,18,1.67,6.55,3.37,8.94,5.32,17.44a124.9,124.9,0,0,1,2.07,12.41c1.4,10.59,2.1,15.88,1.47,20.4s-1.61,6.33-.29,8c1.48,1.86,4.29,1.38,12.41.89C1259.2,352.41,1261.64,353.63,1261.64,351.67Z"/><path class="cls-17" d="M1207.56,209.79c-19.18-2.84-28.8-4.27-30.45-4.13-15.54,1.26-30.58,9.42-29.85,13.3.86,4.56,22.25-3.72,50.25,6.5,13.57,5,21.33,11.57,34.87,10,3.68-.41,24.35-2.11,22.47-6.8C1252.29,222.37,1241.15,214.79,1207.56,209.79Z"/><path class="cls-18" d="M1264.77,356.24c1.89,1,1.69,3.83,2.24,7.22.29,1.82,2.34,6.07,6.43,14.58,4.53,9.42,5.44,10.57,6.57,11.7,1.83,1.82,2.61,1.95,6.18,5.38s3.22,3.7,5.65,5.65a9.77,9.77,0,0,1,2.75,2.76,9,9,0,0,1,1.19,4.47c0,1.57.1,3.15-.92,4.46s-2.23,1.52-4.08,2a18.91,18.91,0,0,1-5.38.53c-5.71-.27-8.56-.4-12.09-1.58a27.61,27.61,0,0,1-10.11-5.65c-2.89-2.59-2.72-3.67-7.89-10.24a67.82,67.82,0,0,0-5.78-6.83c-2.86-2.86-6.16-5.1-12.74-9.59a34.18,34.18,0,0,1-8.28-7.1c-2.27-2.83-2.54-4.32-2.49-5.39.08-1.8,1.09-2.22,2.76-5.78,1.2-2.55.84-2.69,2.1-5.51,1.46-3.27,2.72-6.1,4.2-6.05s2.44,2.52,3.29,4.47.55,2.22,1.31,3.94a11.8,11.8,0,0,0,3.94,5.13c.81.56,3,2.09,5.52,1.7,1.22-.18,1.11-.6,2.89-1.18,3.18-1,4.58-.07,5.52-1.18.71-.85,0-1.51.65-3.81a6.21,6.21,0,0,1,1.71-3.15A4.73,4.73,0,0,1,1264.77,356.24Z"/><path class="cls-19" d="M1226,368.58c.08-1.8,1.09-2.22,2.76-5.78.32-.67.52-1.18.68-1.61a16.65,16.65,0,0,0,1.16,2.93,19.48,19.48,0,0,0,3.41,4.6c5.23,5.62,8.2,6.71,13.14,11.29,3.38,3.14,2,2.68,7.49,8.28a79.34,79.34,0,0,0,10.38,9.46c3.34,2.47,6.18,4.57,10.64,6.17a33.78,33.78,0,0,0,11,2,16.8,16.8,0,0,0,4.86-.39,15,15,0,0,0,3.39-1.28,9.53,9.53,0,0,1,.82,3.78c0,1.57.1,3.15-.92,4.46s-2.23,1.52-4.08,2a18.91,18.91,0,0,1-5.38.53c-5.71-.27-8.56-.4-12.09-1.58a27.61,27.61,0,0,1-10.11-5.65c-2.89-2.59-2.72-3.67-7.89-10.24a67.82,67.82,0,0,0-5.78-6.83c-2.86-2.86-6.16-5.1-12.74-9.59a34.18,34.18,0,0,1-8.28-7.1C1226.24,371.14,1226,369.65,1226,368.58Z"/><path class="cls-20" d="M1229.4,228c.75,1.09,2.84,4.35,4,12.43,1.69,11.43-.45,18.69-1.34,26.55s.62,16.87,3.69,34.62c2.65,15.32,4.64,19.44,7.06,36,.94,6.45,1.53,11.89,1.89,15.73-6.28.42-8.66.62-10-1s-.32-3.55.29-8-.07-9.81-1.47-20.4a124.9,124.9,0,0,0-2.07-12.41c-2-8.5-3.65-10.89-5.32-17.44-1.16-4.51-1.48-9.08-2.07-18-.5-7.42.12-18.63,1.38-40.41-9.67-.92-16.88-6.08-28-10.13-28-10.22-49.39-1.94-50.25-6.5-.28-1.48,1.74-3.59,5.22-5.7,27.24.91,47,2.35,56.42,4C1217.87,218.82,1225.17,221.89,1229.4,228Z"/><path class="cls-17" d="M1103.22,218.66c-1.58,2.41-1.79,5-2.07,8.57-.34,4.3-1,12.29,4.14,18.33,4,4.69,9.49,5.95,14.48,7.09,5.44,1.24,23.6,1.85,55,1.48,12.44-.15,9.68-.35,15.07-.3,18.62.2,23.34,2.34,30.15-1.18.73-.38,10.44-5.56,10.64-13.89.14-5.82-4.44-10.15-6.21-11.82-5.83-5.51-13-6.67-15.66-7.1-26.31-4.23-40.35-6.37-83.65-7.38C1118.77,212.31,1107.57,212,1103.22,218.66Z"/><path class="cls-17" d="M1222,227.23c5.37,1.23,8.81,10.36,8.87,17.44a28,28,0,0,1-1.48,8.28c-1.59,5.31-3.67,9.35-12.42,22.76-7.72,11.85-9.75,14.28-11.52,16.25-3.85,4.27-3.61,3.11-9.46,9.17a137.55,137.55,0,0,0-14.48,17.43,70.18,70.18,0,0,0-4.73,7.39c-4.3,8.15-4.3,8.15-7.69,14.49-1.42,2.65-5.58.57-7.68,0-4.25-1.16-9.26-4.55-10-9.17-.61-3.52-1.06-5.08,16.25-42.26,7.19-15.43,10.9-23.07,12.42-25.42,17.14-26.6,6.49-5.95,26.3-25.12C1215.34,229.78,1218.28,226.38,1222,227.23Z"/><path class="cls-18" d="M1169.92,348.88c.77,2.1-1.08,3.44-4.07,9.2-3.71,7.13-2.07,7.37-5.91,14.71-1.62,3.09-3,5-3.55,8.54a29.07,29.07,0,0,0-.26,5.91c.09,3.32.53,5.25.39,9.33a11.8,11.8,0,0,1-.39,3.15,8.26,8.26,0,0,1-3.15,4.73,7.07,7.07,0,0,1-2.5,1.05c-.76.15-3.62.55-8.14-3.15-7.44-6.09-10.3-15.8-10.78-17.48a45.25,45.25,0,0,1-1.31-16.81c.35-3.13.71-3.18,1.44-8.41a99.33,99.33,0,0,0,1.19-13.79c0-4.17.56-8.32.65-12.48a6,6,0,0,1,1.19-3.94c1.32-1.55,3.56-2,5.12-2.24,1.74-.31,1.91,0,3.68-.39a30.14,30.14,0,0,0,3.81-1.31c1.13-.37,5.11-1.68,5.78-.66.52.8-1.52,2.19-3.29,6.17a17.24,17.24,0,0,0-1.44,5c-.17,1.52-.56,5,1.31,6.43.83.65,1.72.61,3,.66a60.84,60.84,0,0,1,8.41,1.18C1163.32,344.71,1168.79,345.77,1169.92,348.88Z"/><path class="cls-19" d="M1130.25,368.06c.35-3.13.71-3.18,1.44-8.41a99.33,99.33,0,0,0,1.19-13.79c0-4.17.56-8.32.65-12.48a6,6,0,0,1,1.19-3.94c1.32-1.55,3.56-2,5.12-2.24a22.75,22.75,0,0,1,2.69-.22,8.52,8.52,0,0,0-1,1.93,9.65,9.65,0,0,0-.53,3c-.37,7.84-.46,12.28-.92,16.42,0,0,0,0-.65,4.47-1.4,9.48-1.54,10.5-1.71,12.09-.49,4.64-.74,7-.53,9.19a30.5,30.5,0,0,0,4.47,12.88c1.36,2.18,3.18,4,6.83,7.75,2.63,2.68,3.84,3.59,5.52,3.94a7.34,7.34,0,0,0,2.32.1c-.06.33-.13.63-.22,1a8.26,8.26,0,0,1-3.15,4.73,7.07,7.07,0,0,1-2.5,1.05c-.76.15-3.62.55-8.14-3.15-7.44-6.09-10.3-15.8-10.78-17.48A45.25,45.25,0,0,1,1130.25,368.06Z"/><path class="cls-20" d="M1101.15,227.23c.28-3.55.49-6.16,2.07-8.57,3.69-5.61,12.29-6.27,18.68-6.26a44.43,44.43,0,0,0,2.31,12.92c1.22,3.62,2.91,8.4,7.39,12.1,5.75,4.74,12.77,5,16.47,5,38.31.73,50.54-.56,52.76,4,1.75,3.61-4,8.1-13.44,21.51-4.83,6.89-9.16,15-17.81,31.26-6.39,12-12,24-16.94,35.12a8.33,8.33,0,0,1-1.24-3.11c-.61-3.52-1.06-5.08,16.25-42.26,7.19-15.43,10.9-23.07,12.42-25.42,2.85-4.42,4.93-7.54,6.51-9.75-1.84,0-3.06.19-11.83.29-31.38.37-49.54-.24-55-1.48-5-1.14-10.51-2.4-14.48-7.09C1100.18,239.52,1100.81,231.53,1101.15,227.23Z"/><path class="cls-16" d="M1184.24,178.16c4,2.55,2.85,4.51,9.66,13.21,4.59,5.87,7,8.9,11.43,11.43,3.79,2.14,6.39,2.39,6.5,3.94.16,2.23-5,5-9.85,5.32a16.32,16.32,0,0,1-7.88-1.58c-5-2.24-8.39-5.68-17.94-19.31-7.42-10.59-8-12.28-7.29-13.6C1170.58,174.58,1178.72,174.65,1184.24,178.16Z"/><path class="cls-21" d="M1176.56,139.15c2.14.61.29,5.53,3.55,20.1,0,0,3.41,15.28,9.46,23.27,0,0,.19.25.39.57s1.39,2.27,1,3.35-1.88.62-3.94,1.58a10.88,10.88,0,0,0-4.73,4.92c-1.58,2.94-1,4.77-2,5.13-1.87.69-5.85-5.72-6.7-7.1-7.14-11.63-10.72-17.45-11.23-23.45C1161.09,152.55,1172.67,138,1176.56,139.15Z"/><path class="cls-22" d="M1192.85,217h58.74a3.54,3.54,0,0,0,3.08-1.81l31.17-51.41c.67-1.2-1.74-4-3.11-4h-62.81a3.52,3.52,0,0,0-3.11,1.86L1187.61,215C1186.34,217.35,1190.18,217,1192.85,217Z"/><path class="cls-23" d="M1157.34.84c23.77,6.83,27,22.24,24.41,31.46-4.12,14.74-3.55,23.06-3.89,26.37-.85,8.37-5.74,14.91-7.71,17.29-2.29,2.77-4.35,5.26-8.08,6.84-4.72,2-12.13,2.56-15-1-1-1.15-2.44-4,4.35-20.52,8-19.4,13.56-29.72,13.56-29.72,3.39-6.26,5.35-9.25,4.23-12.81-.51-1.61-1.44-2.68-11.2-11.44-3.91-3.52-8.61-6-8.13-6.91S1155.86.42,1157.34.84Z"/><path class="cls-24" d="M1129.93,98.72c11.35,16.3,9.89,13.23,14.27,20,6,9.23,8,13.85,9.86,13.39,1.53-.37,1.58-3.78,2.35-13,1.58-18.81,2.72-20.48,2.5-31,0-1.81-.1-3.49-.19-5l-3.48-1c-4.47-1.26-2.22-.7-7.09-2.07-12.74-3.57-22.39-6.52-26.47-6.52a76.1,76.1,0,0,0-9,.09c1.38,2,3.18,4.67,5.29,7.75C1124.25,90.48,1127.36,95,1129.93,98.72Z"/><path class="cls-25" d="M1179.48,115.8c-1.78-5.07-6.59-9.22-6.72-12.87-.09-2.37,1.65-10.7-4.13-15.56-2.32-2-6.22-3.24-9.91-4.29.09,1.56.16,3.24.19,5,.22,10.56-.92,12.23-2.5,31-.77,9.17-.82,12.58-2.35,13-1.88.46-3.9-4.16-9.86-13.39-4.38-6.78-2.92-3.71-14.27-20-2.57-3.68-5.68-8.24-11.92-17.36-2.11-3.08-3.91-5.73-5.29-7.75a27.68,27.68,0,0,0-10.39,3.18c-1.4.74-8.41,4.47-8,8.57.34,3.24,5.21,4.34,8.57,7.09,7.23,5.93,6.08,18.34,4.73,31-3.89,36.7-6.23,53.66-6.79,66.8-.67,15.61,1.54,17.48-.6,24.83-.46,1.6-2,6.32,0,8,1,.8,2.32.54,4.14.29,6.24-.85,5,.26,10.94-.59,8.09-1.16,13.71-3.72,23.05-5.62,5.29-1.07,8-1.16,27.49-4.43,4.28-.72,7.4-1.29,9.16-3.84,2.53-3.65-.1-7.9-2.07-16-2.55-10.47.23-10.1-.29-35.18-.06-2.81-.2-7.64,2.66-12.11,1.25-2,1.88-2,3.25-4.14a23.23,23.23,0,0,0,3.25-11.82A36.18,36.18,0,0,0,1179.48,115.8Z"/><path class="cls-21" d="M1100.86,190.29c.56-13.14,2.9-30.1,6.79-66.8.46-4.3.89-8.57,1-12.57q1.14,2,2.12,4.21c2.85,6.42,3.28,19.15,4,44.36.74,24.61.17,34.58,5,48.89a92.28,92.28,0,0,0,5.19,12.27c-3.1.87-16.84,4.67-24.77,2.45-2.47-.7-.46-6.38,0-8C1102.4,207.77,1100.19,205.9,1100.86,190.29Z"/><path class="cls-26" d="M1150.61,96.12a37.18,37.18,0,0,1-20-5.65,41.89,41.89,0,0,1-15.56-17c2.52-.09,5.18-.57,7.05-.57,4.08,0,13.28,3.6,26,7.17,4.87,1.37,2.62.81,7.09,2.07C1156.1,82.35,1162.86,96.13,1150.61,96.12Z"/><path class="cls-27" d="M1151.66,206.62c-.13-5.6-.26-11.63-.39-18.05-.25-11.65-.27-13.5-.2-16.52.09-3.91.25-10.46,1.18-18.91.13-1.13.25-2.17.37-3.17a84.12,84.12,0,0,0,.81-11.06c0-2.72-.13-5.46-.39-8.15l1.75-.17c.27,2.74.4,5.54.4,8.32a85.27,85.27,0,0,1-.81,11.27c-.12,1-.25,2-.37,3.15-.93,8.38-1.08,14.88-1.17,18.76-.07,3,0,4.83.19,16.44.14,6.42.27,12.45.4,18.05Z"/><path class="cls-5" d="M1107.79,166.34c1.5-4.17.43-4.34,1.57-15,1.48-13.79,3.53-15.82,4.34-28.18a74.7,74.7,0,0,0-.2-14.38c-.64-5.18-1.42-11-5.32-16.75-.29-.42-9.06-14.29-13.1-9.43-1.9,2.28-2.93,5.1-4.24,9.43a118.7,118.7,0,0,0-4.14,19.11c-1,8.49-1.6,15-1.77,16.75-1.8,19.05-1.92,22.1-2,25a99.54,99.54,0,0,0,1.57,19.71c1.19,6.58,4.52,11.4,6.63,12.34C1096,187.17,1103.92,177,1107.79,166.34Z"/><path class="cls-16" d="M1113.3,173c2.94.73,3,2.57,9.07,8.67,7.82,7.81,8.54,5.54,15.37,12.61,3.18,3.3,5.41,6.27,9.65,7.1a22.19,22.19,0,0,0,5.13,0c4.33-.27,7.56-.76,11.62-1.38,9.62-1.48,11-1.77,13.4-1,.46.15,2.15,1,5.52,2.76s4.93,2.65,5.72,4.34c.54,1.15.78,2.71.19,3.15-.76.56-2.66-1-3-.59s1.68,1.94,1.18,2.76c-.79,1.28-3.06.78-3.06.78a5.39,5.39,0,0,1-1.87,2c-1.25.55-2.57-.22-5.12-1.57-1.94-1-7-3.73-7.29-3.35s4.11,3.2,3.55,4.53c-.29.67-1.76.77-2.76.59-2.1-.37-2.4-2-4.54-2.95a8.78,8.78,0,0,0-5.12-.4c-2.58.34-3.39,1.21-5.91,2.17a18.75,18.75,0,0,1-10.45,1.18,19.16,19.16,0,0,1-6.69-2.95,21.34,21.34,0,0,1-1.78-1.38c-4.46-3.85-13.4-7.1-13.4-7.1-8.44-3.07-26.19-9.52-26.8-17.34C1095.47,179.31,1106.21,171.28,1113.3,173Z"/><path class="cls-28" d="M1185.52,208.22h0a.68.68,0,0,0-.15-.95c-.82-.59-1.68-1.16-2.55-1.7-1.34-.83-2.43-1.41-4.07-2.28-.94-.5-1.9-1-2.87-1.48a.66.66,0,0,0-.9.3h0a.68.68,0,0,0,.3.9c1,.48,1.91,1,2.83,1.46,1.63.87,2.7,1.44,4,2.25.84.52,1.67,1.07,2.47,1.64A.66.66,0,0,0,1185.52,208.22Z"/><path class="cls-28" d="M1183.45,211.66h0a.66.66,0,0,0-.18-.93l-2.6-1.7c-2.18-1.41-4.41-2.82-6.64-4.19a.68.68,0,0,0-.92.22h0a.67.67,0,0,0,.22.92c2.22,1.37,4.43,2.77,6.61,4.18l2.59,1.69A.65.65,0,0,0,1183.45,211.66Z"/><path class="cls-28" d="M1169.46,208.71h0a.68.68,0,0,0-.29-.91c-.79-.39-1.59-.76-2.4-1.09s-1.57-.62-2.37-.89a.66.66,0,0,0-.85.43h0a.67.67,0,0,0,.43.84c.76.26,1.53.55,2.27.86s1.55.67,2.31,1.05A.67.67,0,0,0,1169.46,208.71Z"/><path class="cls-29" d="M1138.39,215h60.67a2,2,0,0,1,2,2h0a2,2,0,0,1-2,2h-60.67a2,2,0,0,1-2-2h0A2,2,0,0,1,1138.39,215Z"/><path class="cls-16" d="M1154.68,69.59c-.29,1.6-1.15,1.27-2.62,4.2-.41.81-2.33,7.26.64,12.81,1.1,2.07,5.51,8.9-10.9,4.52a42.73,42.73,0,0,1-15-7.6c-2.94-2.31-6.26-8.08-5.33-9.73.7-1.25,3.51-1.15,6.58-2.12,7-2.21,5.09-13.34,10.89-15.48S1155.78,63.64,1154.68,69.59Z"/><path class="cls-30" d="M1137.16,57.36a4.69,4.69,0,0,1,1.76-1.17c5.86-2.17,16.86,7.45,15.76,13.4-.29,1.6-1.15,1.27-2.62,4.2a9.47,9.47,0,0,0-.58,2,23.3,23.3,0,0,1-3.75-2.12C1141.79,69.5,1138.72,63.22,1137.16,57.36Z"/><path class="cls-16" d="M1164.74,12.27a22.38,22.38,0,0,1,9.23,8.39c1.88,3.24,2.61,3.69,3.41,9.74.67,5.07-.15,9.17-.61,10.13-1,2-2.26,2.35-2.8,4.75-.6,2.69.72,3-.5,6.54-1.51,4.34-2,3.63-4.25,8.57-4.88,10.83-10.09,11.17-10.56,11.36-2.89,1.17-6.4-.46-9-2.68-6-5.07-9-7.61-10.63-9.52-5.46-6.45-12-14.16-12.59-25.18-.17-2.91-.87-15.29,7.83-22.38C1146.07,2.35,1163.85,11.78,1164.74,12.27Z"/><path class="cls-31" d="M1165.58,22.9c-3.85,1.73-10.82,6.62-13.6,14.12-1.47,3.94-2.67,9.38-3.74,18.12-.68,5.54-8.59,16.64-28.77,18.34-18.43,1.54-22,8.44-23.28,7.34s3.87-7.9,10.07-19c4-7.21,8.49-15.23,12-25.74,3.49-10.36,3.27-11.09,5.6-17.63A26,26,0,0,1,1138,3.06c3.64-1.86,12.12-3.95,16.09-2.54,19.4,6.87,23.52,17.6,23.52,22C1177.63,27.46,1172,20,1165.58,22.9Z"/><path class="cls-5" d="M1104.6,155.2c2.32,1.35,5.46,10.49,9.46,14.35,2.18,2.11,4.41,3,4.33,4.73-.05,1.25-1.27,2.1-2.17,2.76a68.65,68.65,0,0,0-8.27,7.68c-4.94,5.29-4.73,10.86-7.29,10.84-.41,0-.81-.14-2.37-1.57-2.53-2.32-14.18-13.73-14.18-23.84S1099.56,152.26,1104.6,155.2Z"/><path class="cls-32" d="M1194.16,219.07h58.74a3.54,3.54,0,0,0,3.08-1.8l29.63-52.79a1.79,1.79,0,0,0-1.57-2.67h-62.81a3.54,3.54,0,0,0-3.11,1.85l-27.06,50.21A3.52,3.52,0,0,0,1194.16,219.07Z"/><path class="cls-27" d="M1094.31,163.5a.67.67,0,0,0,.92.07,12.06,12.06,0,0,1,7.37-2.77,11.09,11.09,0,0,1,3.85.62.67.67,0,0,0,.84-.38h0a.68.68,0,0,0-.42-.89,12.57,12.57,0,0,0-4.29-.7,13.42,13.42,0,0,0-8.2,3.08.67.67,0,0,0-.07,1Z"/><polygon class="cls-33" points="1265.65 161.81 1274.93 183.51 1269.84 192.57 1256.69 161.81 1265.65 161.81"/><path class="cls-29" d="M1191.06,213.87l27.06-50.21a3.54,3.54,0,0,1,3.11-1.85H1223a49.49,49.49,0,0,0-2.56,17.58c.17,4.7.63,17.19,9.41,26.89,7.6,8.4,18,10.87,25.89,11.35a3.52,3.52,0,0,1-2.84,1.44h-58.74A3.52,3.52,0,0,1,1191.06,213.87Z"/><path class="cls-34" d="M1162.37,37.28a22.79,22.79,0,0,0-3.11-1.06,23.54,23.54,0,0,0-5.15-.75.76.76,0,0,0-.79.77h0a.75.75,0,0,0,.73.76,21.81,21.81,0,0,1,7.74,1.69.76.76,0,0,0,1-.38A.77.77,0,0,0,1162.37,37.28Z"/><path class="cls-28" d="M1165.33,42.69a.53.53,0,0,0-.64.39,48,48,0,0,0-.51,5.76c0,.92,0,1.7,0,2.39,0,1.92,0,2.88-.63,3.39s-2.49.45-4.8-.45a.57.57,0,0,0-.72.22h0a.48.48,0,0,0,.31.66q.67.27,1.29.45c2.15.66,3.73.61,4.7-.14s1-2,1-4.08c0-.68,0-1.46,0-2.36a46.31,46.31,0,0,1,.5-5.66A.53.53,0,0,0,1165.33,42.69Z"/><path class="cls-35" d="M1157.72,40.39c-.75-.17-1.57.65-1.83,1.82s.15,2.26.9,2.43,1.57-.66,1.83-1.83S1158.47,40.55,1157.72,40.39Z"/><path class="cls-35" d="M1171,43.35c-.76-.17-1.57.65-1.83,1.82s.15,2.26.9,2.42,1.57-.65,1.82-1.82S1171.74,43.51,1171,43.35Z"/><path class="cls-34" d="M1176,39.77a26,26,0,0,0-3.47-.7,22,22,0,0,0-2.65-.22.77.77,0,0,0,0,1.53,23.62,23.62,0,0,1,2.49.2,25.06,25.06,0,0,1,3.3.67.76.76,0,0,0,.92-.51A.77.77,0,0,0,1176,39.77Z"/><path class="cls-27" d="M1126.25,101.08l-4.56,5.88s32.19,32.22,33.5,30.53c5.34-6.9,11.52-37.59,11.52-37.59a28,28,0,0,1-3.53-1.92c0-.25,4.56-1.76,4.56-1.76s-2.67-6.48-4.32-11.63c-1.51-.57-3.12-1.06-4.7-1.51.09,1.56.16,3.24.19,5,.22,10.56-.92,12.23-2.5,31-.77,9.17-.82,12.58-2.35,13-1.88.46-3.9-4.16-9.86-13.39-4.38-6.78-2.92-3.71-14.27-20-2.57-3.68-5.68-8.24-11.92-17.36-2.11-3.08-3.67-5-5-7-2.81.65-3.56.69-5.46,1.28,1.15,7,10.8,28.37,10.8,28.37Z"/><path class="cls-36" d="M1163,60.26l-1,0a15.26,15.26,0,0,1-4.44-.84l-1.92-.67c-.44-.15-.74.3-.54.8a7.94,7.94,0,0,0,4.8,4,3.33,3.33,0,0,0,3.72-2.23A.77.77,0,0,0,1163,60.26Z"/><path class="cls-19" d="M1119.46,101.12s7.91-2.6,8.64-1.57-4.12,7.07-4.12,7.07l31.19,28.73,9.81-35.6s-5.76-1.86-5.69-2.35,5.89-1,5.89-1,.23-4.47-3.87-12.56c-2.07-.66-4.19-1.22-6.07-1.75l-.15,0c2,24.11-1.62,47.5-1.62,47.5a398.37,398.37,0,0,0-26.8-40.68c-5.49-7.29-7.56-11.5-11.76-14.89-1,.06-5.22.37-6.79,1.46C1109.47,77.25,1119.46,101.12,1119.46,101.12Z"/><path class="cls-21" d="M365.5,671.86c2.09,5.9-.13,10.69-18.11,45.77-5,9.81-7.73,15-11.72,22.32-13.45,24.59-17.09,27.9-19.17,29.58-8,6.51-23.3,13.69-31.95,7.26-9.33-6.94-6.63-26.52-3.19-37.4,5.73-18.12,15.5-18.27,34.08-43,17.45-23.2,19.31-37,30.35-37.95C353.75,657.79,362.75,664.11,365.5,671.86Z"/><path class="cls-21" d="M251.45,686.63c-11.2.26-30.09,23.39-29.36,38.15.46,9.24,15,20.38,39.28,35C304,785.47,300.08,769.94,308.7,770c5.22,0,5.15-6,15.13-12.41C336.18,749.65,256.27,686.52,251.45,686.63Z"/><path class="cls-37" d="M291.31,1157.39c-1.85-.56-3.05,3.42-7.62,5.3-2.18.9-4.1.9-7.61.61-7.18-.58-10.84-1.5-15.83-2.24a138.08,138.08,0,0,0-19-1.22c-6.86-.12-5.84.26-9.61,0-5.38-.37-10-3.3-10.68-1.79-.18.42.2,2.57.46,4.44.28,2.08,0,2.63.4,3.26.68,1,2.36.88,3.81.81,3.13-.14,6.28.14,9.41,0,2.31-.1,4.15-.06,7.82,0,4.64.09,6.17.41,13.42,1,11.51,1,9.42.34,14.83,1,3.7.47,7.42,1.12,12.22.61a15.43,15.43,0,0,0,6.62-2.24,6.57,6.57,0,0,0,2.8-2.65C294,1161.74,293,1157.9,291.31,1157.39Z"/><path class="cls-37" d="M134.63,1160.7c-2.49-.73-3.93,1.55-8.15,2.85-2.26.7-4.09.67-7.75.61-6.1-.09-7.51-1.14-16.91-2.65-7.63-1.22-8.79-.86-11-2.44-4.6-3.28-4.57-8.31-6.32-8.16-2.18.2-1.63,12.84-1.63,12.84a26.31,26.31,0,0,0,3.67,3.06,27.36,27.36,0,0,0,8.15,3.47,123.1,123.1,0,0,0,15.49,3,109.94,109.94,0,0,0,18.76,0,13.08,13.08,0,0,0,6.93-2.44,6.28,6.28,0,0,0,2.44-3.26,5.59,5.59,0,0,0,0-2.86A5.87,5.87,0,0,0,134.63,1160.7Z"/><path class="cls-16" d="M252.24,1140.27c-2.75-3-3.81-5.84-5.5-10.39-4.9-13.21,1.32-20.89-3.06-25.08-4.91-4.68-19.3-1.34-23.24,6.43-2.6,5.13,1.53,7.94,1.84,19.56a136.28,136.28,0,0,1-1.22,22.93s4-.38,11.92-.91c11.68-.78,16.67,3.2,22.32-.62.79-.53,3.34-2.25,3.36-4.58C258.69,1145,255.41,1143.69,252.24,1140.27Z"/><path class="cls-16" d="M110.68,1111.53c-3.41-6.2-16.76-8-21.4-3.06-2.87,3.08,1.22,9.11,0,20s-3.67,15.73-3.67,15.73,6,5.62,11,7.64c7,2.8,18.63,5.07,21.09.92.77-1.29,1.8-3.17-3-11.32C106.1,1127.12,113,1115.81,110.68,1111.53Z"/><path class="cls-16" d="M225.33,661.37c-.79-6.41-.2-13.45-1.57-19-3.28-13.23-22.28-20-27.89-15.35-3.38,2.79,2.4,17.58-.63,29.48-3.71,14.55-13.35,9.78-16.6,11.79-4.56,2.83,6.2,8.79,11.66,12.36,7.68,5,23.37,23.8,31,20.29,13.06-6,14.39-18.65,12.31-20.78A34.46,34.46,0,0,1,225.33,661.37Z"/><path class="cls-28" d="M205.88,656.34c-5.47-3.3-8.62-10.05-9.82-11.08a27,27,0,0,0,.09,2.83c1.17,4.17,8.44,21.74,31.45,21.34-1.28-2-2-5.41-2.27-8.06C216.72,661.33,210.48,659.12,205.88,656.34Z"/><path class="cls-16" d="M232.67,599.23c-7.83-4.9-16.51-2.57-18.79-1.87-9.88,3.07-14.7,11.45-16.61,14.77-6.72,11.68-4.64,23.31-4,26.38,1.87,9.65,16.58,30.24,30.7,25.2,4.77-1.71,7.74-4.51,10.48-9.12,3.65-6.14,3.17-11.91,4.74-17.59a62.46,62.46,0,0,0,2.61-15.38C241.78,619.3,243.24,605.84,232.67,599.23Z"/><path class="cls-38" d="M225,628.32a34.33,34.33,0,0,0-4.75-1.37,35.07,35.07,0,0,0-7.79-.76,1.16,1.16,0,0,0-1.15,1.21h0a1.15,1.15,0,0,0,1.16,1.09,32.46,32.46,0,0,1,7.3.71,31.94,31.94,0,0,1,4.46,1.29,1.15,1.15,0,0,0,.77-2.17Z"/><path class="cls-28" d="M229.77,632.1a.54.54,0,0,0-.63.45,56.68,56.68,0,0,0-.22,6.26c0,1,.07,1.84.11,2.59.1,2.08.16,3.12-.47,3.69s-2.49.61-4.87-.25a.56.56,0,0,0-.72.27h0a.55.55,0,0,0,.36.7c.46.17.9.31,1.32.43,2.2.61,3.8.48,4.74-.38s.9-2.16.78-4.46c0-.74-.08-1.58-.1-2.56a54.79,54.79,0,0,1,.21-6.15A.56.56,0,0,0,229.77,632.1Z"/><path class="cls-38" d="M219.77,630.13c-.89-.15-1.8.85-2,2.23s.29,2.63,1.18,2.78,1.79-.85,2-2.23S220.66,630.28,219.77,630.13Z"/><path class="cls-38" d="M234.52,632.72c-.89-.15-1.79.85-2,2.23s.29,2.63,1.18,2.78,1.8-.85,2-2.23S235.41,632.87,234.52,632.72Z"/><path class="cls-38" d="M239.63,630.3a27.42,27.42,0,0,0-4.33-.65,24.11,24.11,0,0,0-3.29,0,1.16,1.16,0,0,0-1,1.24,1,1,0,0,0,.94,1,24.53,24.53,0,0,1,3.09,0,25.88,25.88,0,0,1,4.1.63,1,1,0,0,0,1.15-.88h0A1.1,1.1,0,0,0,239.63,630.3Z"/><path class="cls-28" d="M230,651.89l-1.46-.11a34.89,34.89,0,0,1-6.25-1.06l-2.66-.7c-.6-.16-1.13.18-.92.6.61,1.24,3.39,3.14,6.2,3.64a6.62,6.62,0,0,0,5.77-1.48C231.05,652.45,230.66,651.94,230,651.89Z"/><path class="cls-39" d="M212.15,635.62c-2.26-.68-4.45-.1-4.88,1.32s1.06,3.12,3.32,3.81,4.45.09,4.88-1.32S214.41,636.31,212.15,635.62Z"/><path class="cls-40" d="M233.33,593.49c-22.84-14.86-39.14,2.7-39.14,2.7s-16.65,5.95-11.35,30c0,0,7.63,18.73,13.22,19.07,1.73.1-6.25-19.26-2.78-21.44,1.46-.92,6.32.22,7.88,2.37,2.49,3.42.52,6.64,1.15,7,3.46,2,4-1.1,3.81-10.71-.11-6-2.38-8.49-.7-10.28,2-2.11,15.12,3.55,19.14,4.53,8.77,2.14,17.53,3.22,20.29-5.08C246.07,608,246.19,601.86,233.33,593.49Z"/><path class="cls-16" d="M195.22,622.85c-2.47.27-4.08,3.82-4.55,6.14-1.12,5.56,2.69,12,5.41,11.72,3-.36,6.31-9.3,3.63-14.5C199.61,626,197.78,622.58,195.22,622.85Z"/><path class="cls-28" d="M196,635.77l.14.22Z"/><path class="cls-28" d="M197.5,628.66a2.83,2.83,0,0,0-3.31.79c-1.21,1.46-.73,4,.05,5.78.32.73.95,1.89,1.74,2,.08,0,1,.06.16-1.26-.07-.11-.13-.19-.18-.28l-.2-.3c-.43-.68-.25-.4,0,0a7.68,7.68,0,0,1-1-2.27,3.42,3.42,0,0,1,.26-2.82,1.72,1.72,0,0,1,2-.47,1.9,1.9,0,0,1,1,1.48.57.57,0,0,0,.54.53.65.65,0,0,0,.6-.76A3.13,3.13,0,0,0,197.5,628.66Z"/><path class="cls-28" d="M196,635.71l0,.06-.25-.38v0Z"/><path class="cls-28" d="M197.12,623.3a3.73,3.73,0,0,0-2.89-.22,4.71,4.71,0,0,0-2.29,2.2,10.76,10.76,0,0,0-1.44,6c.1,4,1.83,7.59,3.42,8.46v.06c.16.77.57,2.82,2.45,3.14h0c1.45.24,2-.78,2.27-1.68a.62.62,0,0,0-.4-.81h0a.58.58,0,0,0-.69.44c-.24.78-.46.87-1,.79h0c-1-.17-1.33-1.16-1.54-2.2-.08-.39-.14-.72-.49-.84-1.11-.38-2.82-3.68-2.92-7.44a9.49,9.49,0,0,1,1.24-5.22,3.55,3.55,0,0,1,1.67-1.67,2.73,2.73,0,0,1,2.1.19,4.58,4.58,0,0,1,2.22,2.58.53.53,0,0,0,.7.33.69.69,0,0,0,.36-.87A5.66,5.66,0,0,0,197.12,623.3Zm-2.93,16.54Z"/><path class="cls-28" d="M197.31,631.78a2.67,2.67,0,0,0-.84,1.88c-.12,1,.14,2,.32,2s0-1.79,1-3c.54-.63,1.15-.77,1.11-1S197.94,631.32,197.31,631.78Z"/><path class="cls-27" d="M231.41,679.21h0C231.45,679.25,231.45,679.24,231.41,679.21Z"/><path class="cls-27" d="M253.51,687.92c-2.27-1.31-19-7.63-22.1-8.71,0,0,0,0,0,0h0c-.14-.11-.94-.41-2.16,2.24-2,4.28-6.49,7-9.91,7.75-9,2-18.79-6.27-23.39-13.86-3.14-5.17-5.44-9.3-6.49-9.22-26.62,2.16-42,10.24-51,17.37-8.73,6.93-11.92,17.73-14.67,25.68-3.23,9.31-7.21,44.76-15.86,93-8,44.57-9.92,70.52-9.92,70.52s5.29,2.57,17.45,1.63c38.15-2.92,42.9-9.66,62.25-9,23.25.84,46.11,9.17,46.11,9.17s.14-57.75,9.4-93.56c2.57-10,6.36-24.62,16.25-40.76C254.52,731.91,255.69,689.18,253.51,687.92Z"/><path class="cls-41" d="M232.37,918.3c-15.63-61.94-12.59-82.8-25.07-86.83-18-5.79-53.75,27.87-56.87,63.6-2.52,28.85,16.59,55.43,22,63,11,15.31,24,32.72,29.58,40.24a13.73,13.73,0,0,1,2.72,8.56c-.15,5.76-.47,16.54-1.11,31.3-1.11,25.62,10.85,80.88,18.69,95,4.07,7.35,24.19,2.84,24.42-3.31,1.42-39,6-120.3,6.88-136.11a13.32,13.32,0,0,0-.74-5.2C250.23,981,242,956.31,232.37,918.3Z"/><path class="cls-17" d="M290.46,1154.33c-1.68-1.44-3.18-1.52-8.56-2.44a71.81,71.81,0,0,1-8.15-1.63,46,46,0,0,1-7.14-2.86c-1.72-.88-2.19-1.28-4.48-2.44-.74-.37-2.88-1.46-4.89-2.24-2.66-1-6.86-2.67-11.62-2-2.46.32-4.17,1.13-6.93,2.44-4.58,2.17-5.87,4-9.17,4.08a8.72,8.72,0,0,1-4.69-1c-3.37-1.9-1.83-5.82-2.62-5.64-.63.14-2.78,2.85-2.27,8.5.59,6.63.89,9.94,1.63,11,2.9,4.19,9.56,1.69,23.64,2a255.67,255.67,0,0,1,27.92,2.45c3.16.47,10.91,1.72,16.31-1.84.93-.61,3.16-2.08,3.26-4.28S291,1154.79,290.46,1154.33Z"/><path class="cls-17" d="M254,1137.21c-.37-.62-2-3.65-4.14-4.56-1.54-.65-3.56.13-5,1.51-.74.69-.92,1.54-1.22,3s-.89,4.41.41,5.51,3.37,0,4.69-.41c8.37-2.57,18.79,7.27,19.15,6.73S258.19,1144.16,254,1137.21Z"/><path class="cls-42" d="M217,1009.83a27,27,0,0,0-5.08-17.66c-14.4-19.83-46.53-50.53-34.33-117.69-3.17,7.1-26.44,12.93-27.11,20.59-2.52,28.85,16.59,55.43,22,63,11,15.31,24,32.72,29.58,40.24a13.73,13.73,0,0,1,2.72,8.56c-.15,5.76-.47,16.54-1.11,31.3-1.11,25.62,10.85,80.88,18.69,95,1.3,2.35,4.23,3.48,7.63,3.74a319.94,319.94,0,0,1-12.22-55.57C214.49,1056,215.89,1025.26,217,1009.83Z"/><path class="cls-41" d="M110.38,840c-8.81,13.9-10,34.4-11,52-.31,5.36-.21,11.11,0,22.62.7,39.25,3.09,47.15,1.22,64.82-1.23,11.66-2.71,12.45-8,34.85C80.56,1066,87.81,1125,89.28,1128.52c3.81,9.29,20.1,7,21,1.83,4.75-27.7,7.46-51.95,23.34-105,.86-2.85,4.85-13.52,12.84-34.85,17.17-45.82,17.48-44,25.08-65.43,18.5-52.23,9.66-43.35,23.84-79.5,5.5-14,8.25-19,5.51-23.84C191.59,805.2,130.09,808.91,110.38,840Z"/><path class="cls-17" d="M135.58,1160.56c-3.2-2.23-12.52-7-15.73-12.33-1-1.74-5.53-9.6-6-9.86-3.19-1.76-6.87-.66-7.94.47s-1.06,3-1,5.71c0,3,.58,3.64,0,4.28-1.5,1.69-6.91-.91-7.54-1.22a23.17,23.17,0,0,1-5.3-3.67c-1.36-1.32-4.57-5.17-4.57-5.17a47.21,47.21,0,0,0-4.16,14.33c-.61,5.51,9.55,10.2,9.55,10.2,5.69,2,12.18,2.91,16.3,3.47,11.69,1.59,17,2.51,23,.41,1.21-.43,4.87-1.71,4.89-3.47A3.84,3.84,0,0,0,135.58,1160.56Z"/><path class="cls-42" d="M110.38,840c-8.81,13.9-10,34.4-11,52-.31,5.36-.21,11.11,0,22.62.7,39.25,3.09,47.15,1.22,64.82-1.23,11.66-2.71,12.45-8,34.85C80.56,1066,87.81,1125,89.28,1128.52a10.19,10.19,0,0,0,7.44,5.88c-8.52-57.23-2.64-96.05,5-121.7,2.82-9.45,7.19-21.46,9.81-40.4,4.51-32.55-1.37-47.77-.58-77.32.37-13.73,3.4-37.64,12.12-65.78.32-1,.64-2,1-3A49,49,0,0,0,110.38,840Z"/><path class="cls-25" d="M239.73,682.36C228.37,699.94,228,716.11,228,716.11s-2.07,10.54-7.57,35c-4.05,18.05-9.1,40.58-12.33,40.25-2.14-.22-2.67-10.32-3.68-29.43-1.13-21.4-.73-35.65-4.55-55.4a65.11,65.11,0,0,0-4.11-13.84c-2.83-6.62-7.45-17.44-18.39-22.29-5.3-2.35-6.64-1.32-8.73-1-22,3.18-37.33,15.6-44.55,35.64-4.9,13.59-9,46.14-13.58,76.17-12.14,80.43-27,180.68-27,180.68s42.8,7.3,80.06,9.09c51.33,2.45,85-7.36,85-7.36s-18.88-57.28-21.85-92.18c-2.71-31.84,3.51-67.85,7.57-86.34,3.56-16.23,10.56-22.64,17.58-41.28,3.27-8.68,8.23-38,3.85-53.47C254.51,686.24,239.73,682.36,239.73,682.36Z"/><path class="cls-27" d="M248.41,686.08c-4.84-2.38-7.28-2.63-7.28-2.63C229.76,701,228,716.11,228,716.11s-2.07,10.54-7.57,35c-4.05,18.05-9.1,40.58-12.33,40.25-2.14-.22-2.67-10.32-3.68-29.43-1.13-21.4-.73-35.65-4.55-55.4a65.11,65.11,0,0,0-4.11-13.84c-2.83-6.62-7.45-17.44-18.39-22.29-5.3-2.35-6.64-1.32-8.73-1a66.65,66.65,0,0,0-11.32,2.64,67.65,67.65,0,0,1,7.93,3.36C181.79,683.7,192.05,702,192.05,702l-8.22,1.52,21.86,104.58L246.8,707.23l-9.09-6.05S238.21,695.5,248.41,686.08Z"/><path class="cls-43" d="M230.62,676.3a14.72,14.72,0,0,1-1.37,5.15c-1.77,4.36-6.49,7-9.91,7.75-9,2-18.79-6.27-23.39-13.86-3.14-5.17-5.48-9.91-6.54-9.82-1.54.13-3,.87-4.45,1,1.37,2.25,3.22,5.16,5.58,8.43,6,8.39,9.17,12.65,14.71,15.58,2.48,1.31,7.84,4.15,14.5,2.82.74-.15,8.71-1.87,12.34-8.66a11.92,11.92,0,0,0,1.48-4.55A6.38,6.38,0,0,0,230.62,676.3Z"/><path class="cls-19" d="M237,681.57c-2.13,4.82-1.95,4.76-4.24,10.95a298,298,0,0,0-9.08,29.21c-8.36,31.95-15,64.63-15.8,64.48-1.25-.22,9-92.15-28.55-118.9a114.43,114.43,0,0,0-15,3.29c16,8.94,31.72,26.25,31.72,26.25l-11,1.08,21.92,100.62,36.24-91.75-8.44-5s2.19-7.25,11.7-16.62C244.8,684.56,239.37,681.37,237,681.57Z"/><path class="cls-21" d="M159.16,689.27c-5-3-13-3.27-18.22-.06-12.32,7.61-17.92,32-25.49,58.49-1.64,10.78-3.28,22.34-5,33.54-12.14,80.43-27,180.68-27,180.68s16.63,2.84,38.19,5.41c1-30.15,3.26-56,5.52-76.39,3.27-29.58,7.51-67.83,19-116.84C157.22,727.17,169.11,695.21,159.16,689.27Z"/><path class="cls-27" d="M127.1,840.45l37,5,.92-6.85-37-5Zm2.5-4.77,33.33,4.47-.43,3.2-33.33-4.48Z"/><path class="cls-27" d="M160.58,854.78c-1,6.47-2.56,16.25-3.12,17.3-1.71,2.41-12.89,3.44-32.4-1.76a.92.92,0,0,0-.47,1.78,122.61,122.61,0,0,0,15.25,3.14c11,1.48,17.45.26,19.14-2.12.64-.91,1.53-6.07,3.42-18.06.76-4.85,1.49-9.44,1.77-10.42l-1.77-.52C162.1,845.16,161.51,848.85,160.58,854.78Z"/><path class="cls-27" d="M198.34,845.81c-6.31,46.09-9.57,90.64-9.2,125.45l1.87,0c-.37-34.72,2.89-79.17,9.18-125.18,1.88-13.71,5.29-34.95,7.6-47.34l-1.83-.34C203.64,810.79,200.22,832.07,198.34,845.81Z"/><path class="cls-40" d="M234.9,652.68v0c0-.07,0-.12,0-.18l-.06-.18a1.42,1.42,0,0,0-.43-.67c-1.34-1.61-4.9-3.36-7.68-3.89-5.81-1.11-10.51-1.42-11.92,4.65-4-2.11-9.58-5.67-9.58-9.84a10.79,10.79,0,0,0-.43-4.62c-.31-.84-1.15-2.69-1.88-2.6-1.36.19-1.69,8.53-5.21,11.3-2.45,1.93,2.89,9.31,8.39,13.08,8.69,6,14.73,6.15,16.3,6.42,4.76.83,7.59-.91,8.49-1.63,3.26-2.62,3.3-4.31,4.06-9.12a8.59,8.59,0,0,0,0-2.68Zm-4.08,1.05a6.16,6.16,0,0,1-5.27,2.37h0c-.48,0-1-.1-1.68-.21a6.31,6.31,0,0,1-3.33-1.75c-4.82-4.79-1.66-5.16,4.29-4S232.26,651.84,230.82,653.73Z"/><path class="cls-44" d="M81.62,1080.83s-36.71,11.66-52.87,16.56a5.75,5.75,0,0,1-7.42-5.53h0a5.76,5.76,0,0,1,4.07-5.47c8.44-2.59,28.6-8.81,46.07-14.68,4.47-20.34,8.89-42.09,8.93-45.31v.09L561,361.46l14.25-48.68s35.79-15.95,51.55-22.53a5.48,5.48,0,0,1,7.59,4.82v.17a5.48,5.48,0,0,1-3.45,5.33c-8.26,3.3-27.73,12.15-45.87,20.72l-13.41,43.45L92,1029.41C90.68,1039.55,81.62,1080.83,81.62,1080.83Z"/><path class="cls-45" d="M508.89,458.11l-15-10.81a7.1,7.1,0,0,0-9.91,1.61L150.83,911.32a7.09,7.09,0,0,0,1.61,9.91l15,10.82a7.1,7.1,0,0,0,9.91-1.61L510.5,468A7.1,7.1,0,0,0,508.89,458.11Z"/><path class="cls-44" d="M167.73,932.25l-7.79-5.61L485.27,475.07a6.74,6.74,0,0,0-1.53-9.42L476,460l8.23-11.42a6.74,6.74,0,0,1,9.41-1.53l15.59,11.23a6.76,6.76,0,0,1,1.53,9.42l-333.56,463A6.74,6.74,0,0,1,167.73,932.25Z"/><path class="cls-46" d="M225.56,863.73,199,844.56a3.85,3.85,0,0,0-5.37.87h0a3.86,3.86,0,0,0,.87,5.36L221.06,870a3.85,3.85,0,0,0,5.37-.87h0A3.86,3.86,0,0,0,225.56,863.73Z"/><path class="cls-46" d="M236.64,848.34,210,829.17a3.85,3.85,0,0,1-.87-5.36h0a3.84,3.84,0,0,1,5.36-.87l26.61,19.17a3.84,3.84,0,0,1,.87,5.36h0A3.84,3.84,0,0,1,236.64,848.34Z"/><path class="cls-46" d="M233.34,852.92l-26.6-19.17a3.85,3.85,0,0,0-5.37.87h0a3.86,3.86,0,0,0,.87,5.36l26.61,19.17a3.85,3.85,0,0,0,5.37-.87h0A3.85,3.85,0,0,0,233.34,852.92Z"/><path class="cls-46" d="M252.21,826.72l-26.6-19.17a3.85,3.85,0,0,1-.88-5.36h0a3.85,3.85,0,0,1,5.37-.87l26.61,19.17a3.86,3.86,0,0,1,.87,5.36h0A3.85,3.85,0,0,1,252.21,826.72Z"/><path class="cls-46" d="M244.43,837.53l-26.61-19.17A3.84,3.84,0,0,1,217,813h0a3.84,3.84,0,0,1,5.36-.87l26.61,19.17a3.85,3.85,0,0,1,.87,5.36h0A3.84,3.84,0,0,1,244.43,837.53Z"/><path class="cls-46" d="M272.28,798.87,245.67,779.7a3.84,3.84,0,0,0-5.36.87h0a3.85,3.85,0,0,0,.87,5.36l26.61,19.17a3.84,3.84,0,0,0,5.36-.87h0A3.84,3.84,0,0,0,272.28,798.87Z"/><path class="cls-46" d="M264.49,809.68l-26.6-19.17a3.85,3.85,0,0,0-5.37.87h0a3.86,3.86,0,0,0,.87,5.36L260,815.91a3.85,3.85,0,0,0,5.37-.87h0A3.85,3.85,0,0,0,264.49,809.68Z"/><path class="cls-46" d="M421.41,591.87l-26.6-19.17a3.85,3.85,0,0,0-5.37.87h0a3.86,3.86,0,0,0,.87,5.36l26.61,19.17a3.85,3.85,0,0,0,5.37-.87h0A3.85,3.85,0,0,0,421.41,591.87Z"/><path class="cls-46" d="M432.5,576.48l-26.61-19.17A3.84,3.84,0,0,1,405,552h0a3.84,3.84,0,0,1,5.36-.87L437,570.25a3.84,3.84,0,0,1,.87,5.36h0A3.84,3.84,0,0,1,432.5,576.48Z"/><path class="cls-46" d="M429.2,581.06l-26.61-19.17a3.84,3.84,0,0,0-5.36.87h0a3.85,3.85,0,0,0,.87,5.36l26.61,19.17a3.84,3.84,0,0,0,5.36-.87h0A3.84,3.84,0,0,0,429.2,581.06Z"/><path class="cls-46" d="M448.07,554.86l-26.61-19.17a3.86,3.86,0,0,1-.87-5.36h0a3.86,3.86,0,0,1,5.37-.87l26.61,19.17a3.86,3.86,0,0,1,.87,5.36h0A3.85,3.85,0,0,1,448.07,554.86Z"/><path class="cls-46" d="M440.28,565.67l-26.6-19.17a3.85,3.85,0,0,1-.88-5.36h0a3.85,3.85,0,0,1,5.37-.87l26.61,19.17a3.85,3.85,0,0,1,.87,5.36h0A3.85,3.85,0,0,1,440.28,565.67Z"/><path class="cls-46" d="M468.14,527l-26.61-19.17a3.85,3.85,0,0,0-5.36.87h0a3.85,3.85,0,0,0,.87,5.37l26.61,19.17a3.85,3.85,0,0,0,5.36-.88h0A3.84,3.84,0,0,0,468.14,527Z"/><path class="cls-46" d="M460.35,537.82l-26.61-19.17a3.85,3.85,0,0,0-5.36.87h0a3.86,3.86,0,0,0,.87,5.37l26.61,19.17a3.86,3.86,0,0,0,5.37-.88h0A3.85,3.85,0,0,0,460.35,537.82Z"/><path class="cls-16" d="M234.94,866.28c0-.8-2.83-1.91-2.83-1.91a41,41,0,0,0,6.59-2.07c2-.8,3.93-1.6,4.27-3.14a9.49,9.49,0,0,0-.06-3.09s3.33-2.36,2.91-3.68a4,4,0,0,0-3.61-2.74,6.49,6.49,0,0,0-1.28-2c-1.35-1.08-3.32.5-6.45,1a12.42,12.42,0,0,1-9.83-2.67c-1-.89-2.62-2.66-2.14-3.67.28-.62,1.31-.72,3.36-.95,7.67-.85,7.4-2.49,7-3.09-1.12-1.84-3.62-1.43-7.42-2.2-5.88-1.21-5.85-3.41-10-3.32a12.62,12.62,0,0,0-6.68,1.59c-1.41.85-2.32,1.89-4.13,2.08a6.7,6.7,0,0,1-3.16-.57c-4.06-1.47-5.59-2.54-6.71-2.88-5.62-1.71-16.37,10.23-14.21,14.33.76,1.45,2.69,1.06,12.09,4.2a11.35,11.35,0,0,1,7.08,6c3.1,5.88,14.08,8.57,18.62,9.69a31,31,0,0,0,9.89,1C231.41,868,234.92,867.16,234.94,866.28Z"/><path class="cls-28" d="M242.46,849.68l-.46-.41-.9.52a25.12,25.12,0,0,1-4.31,2.15,19.49,19.49,0,0,1-5.58,1.09,16.6,16.6,0,0,1-7.7-1.92c-.85-.43-1.4.29-.4.77a17,17,0,0,0,8.12,2,19.92,19.92,0,0,0,5.82-1.12A41.18,41.18,0,0,0,242.46,849.68Z"/><path class="cls-28" d="M242.91,856.07c-.35.09-5.37,1.07-7.19,1.36a26.86,26.86,0,0,1-5.93.39,18.25,18.25,0,0,1-7.47-2.39c-1-.67-1.72-.07-.8.48,3.88,2.33,6.2,2.7,8.24,2.78a28.49,28.49,0,0,0,6.1-.4c1.87-.3,6.79-1.54,7.14-1.63Z"/><path class="cls-28" d="M221.06,861.43c-1.41-.67-2,0-.36.78a24.34,24.34,0,0,0,5.87,1.87,66,66,0,0,0,6.57.74l-.52-.57A36.84,36.84,0,0,1,221.06,861.43Z"/><path class="cls-19" d="M174.94,734.16a50.18,50.18,0,0,0,8.34-16.59c1.27-4.6,1.69-11.3-1.82-20.88-3.33-9.08-19.24-24.63-24.17-24.62-4.26,0-11.4,3.17-13.87,4.52A105.47,105.47,0,0,0,117.31,697c-3.16,3.61-16.49,19.22-27.32,45.35a144.56,144.56,0,0,0-9,40.75c-.3,4.28-.48,10.82,3.65,16.1a20.21,20.21,0,0,0,9.07,6.12c13.52,4.24,31.66-13.62,49.27-31C153.06,764.43,160.35,754.34,174.94,734.16Z"/><path class="cls-19" d="M195.86,830.33c-11.46-16.1-76.36-52.67-82.29-54.45-3.52-1.06-8.73-5.37-15.1-4S82.17,786.15,81.91,788c-2.8,19.16,41,43.9,52.54,48.19,32.75,12.15,45.86,14,52.72,14C192.58,850.14,199.61,835.59,195.86,830.33Z"/><path class="cls-27" d="M132.51,785.79c6.28-6.14,22.73-20.16,36.27-40a6.42,6.42,0,0,0-1.52-.83c-15.4,22.46-36.93,40.42-37.3,40.77l-.9.84,1.6.45c.3.15,57.94,31,66.07,45.38.23.42.76-2-.77-4C186.38,816.1,138,788.67,132.51,785.79Z"/><path class="cls-27" d="M130.9,787.12a.86.86,0,0,0,0-1.23h0a.86.86,0,0,0-1.2,0A31.55,31.55,0,0,1,115,793.49a.86.86,0,0,0-.67,1h0a.87.87,0,0,0,1,.7,33.4,33.4,0,0,0,15.58-8.07Z"/><path class="cls-16" d="M368.24,676.67A16.29,16.29,0,0,0,371,676a7,7,0,0,0,3.33-2.4c1.33-2,.17-3.71,1.36-4.62s2.16.39,3.65-.33c1.67-.8,2.6-3.47,2.17-5.55s-2-3-1.56-3.82c.24-.42.75-.36,1.88-.65,1-.24,3.48-.88,4-2.09s-1.05-2-3-5-1.35-3.66-3.1-6.09c-.29-.4-3.3-4.53-5-3.86-.95.38-1,2.17-1.06,2.42-.18,3.13,2.73,4.15,3.3,8,.15,1,.45,3-.54,3.7s-2.48-.21-9.38-3.32c-2.33-1-4.22-1.87-6.46-1.41-.59.11-2.05.41-2.52,1.47-.64,1.41.93,3.17.49,3.54s-2.19-1.93-4.39-1.72a3.47,3.47,0,0,0-2.83,2.1,3.89,3.89,0,0,0,.66,3.45c1.15,1.54,2.8,1.38,2.94,2.34s-1.7,1.5-1.74,2.82c0,.53.27,1,2.28,2.73,2.67,2.33,3.36,2.52,4.26,3.83.57.84,1.48,2.17,1.09,3.42-.53,1.7-3.71,3.79-3.65,4.57s3.14-.35,5.47-.68C364.81,678.48,365,677.5,368.24,676.67Z"/><path class="cls-28" d="M371.35,661.68c-1.83-1.09-3.75-2.07-5.62-3-2.34-1.23-5-2.68-7.33-3.82l-.14,1.1c2.34,1.14,4.63,2.47,7,3.7,1.86,1,3.68,2.12,5.59,3C372.33,663.36,372.43,662.32,371.35,661.68Z"/><path class="cls-28" d="M365.81,666.52c-.65-.46-1.38-.85-2.1-1.27a47.4,47.4,0,0,0-8.88-3.54l.09.83c2.26,1,6.11,2.44,8.24,3.66.71.41,1.34.7,2,1C366.75,668,367.25,667.53,365.81,666.52Z"/></g></g></svg>