<svg id="svg" version="1.1" xmlns="http://www.w3.org/2000/svg" xmlns:xlink="http://www.w3.org/1999/xlink" width="400" height="400" viewBox="0, 0, 400,400"><g id="svgg"><path id="path0" d="M195.200 50.621 C 191.251 51.225,189.050 51.717,187.476 52.348 C 174.849 57.408,167.224 66.029,163.550 79.400 C 161.174 88.045,164.065 101.620,169.968 109.544 C 191.483 138.424,236.935 123.543,236.990 87.600 C 237.001 80.568,236.346 77.328,233.776 71.710 C 229.569 62.514,219.002 53.577,209.800 51.433 C 204.375 50.170,199.809 49.916,195.200 50.621 M147.000 138.065 C 142.070 139.735,139.605 142.234,138.034 147.160 C 137.429 149.055,137.434 188.568,138.040 190.440 C 139.544 195.094,142.164 197.818,146.577 199.315 C 147.249 199.543,151.130 199.836,155.200 199.965 L 162.600 200.200 162.600 237.600 L 162.600 275.000 154.800 275.201 C 143.957 275.481,140.767 277.124,138.377 283.662 C 137.302 286.603,137.179 325.353,138.236 328.400 C 139.610 332.363,142.421 335.337,145.980 336.593 C 148.583 337.511,251.417 337.511,254.020 336.593 C 257.579 335.337,260.390 332.363,261.764 328.400 C 262.669 325.790,262.702 287.224,261.802 284.257 C 259.714 277.376,256.245 275.483,245.200 275.200 L 237.400 275.000 237.200 210.800 L 237.000 146.600 236.107 144.800 C 234.605 141.773,231.440 138.981,228.600 138.179 C 226.815 137.675,148.476 137.566,147.000 138.065 " stroke="none" fill="#fbfbfb" fill-rule="evenodd"></path><path id="path1" d="M178.286 0.275 C 176.179 0.369,174.867 0.585,175.010 0.816 C 175.210 1.139,171.043 1.448,169.330 1.237 C 169.072 1.205,168.746 1.364,168.607 1.589 C 168.467 1.815,167.463 2.000,166.376 2.000 C 165.289 2.000,164.400 2.180,164.400 2.400 C 164.400 2.620,163.399 2.800,162.176 2.800 C 160.796 2.800,160.047 2.952,160.200 3.200 C 160.352 3.446,159.679 3.600,158.447 3.600 C 157.347 3.600,156.336 3.780,156.200 4.000 C 156.064 4.220,155.243 4.400,154.376 4.400 C 153.509 4.400,152.800 4.580,152.800 4.800 C 152.800 5.020,152.206 5.200,151.480 5.200 C 150.754 5.200,149.976 5.384,149.750 5.610 C 149.525 5.835,148.686 6.044,147.887 6.074 C 147.087 6.104,146.526 6.280,146.640 6.464 C 146.754 6.649,146.207 6.800,145.424 6.800 C 144.641 6.800,144.000 6.980,144.000 7.200 C 144.000 7.420,143.370 7.600,142.600 7.600 C 141.830 7.600,141.200 7.780,141.200 8.000 C 141.200 8.220,140.671 8.400,140.024 8.400 C 139.377 8.400,138.734 8.583,138.596 8.807 C 138.458 9.030,138.196 9.121,138.015 9.009 C 137.833 8.897,137.037 9.076,136.244 9.407 C 135.452 9.738,134.715 10.012,134.606 10.016 C 134.281 10.026,133.114 10.426,131.047 11.235 C 129.972 11.656,128.862 12.000,128.580 12.000 C 128.298 12.000,128.007 12.178,127.933 12.397 C 127.860 12.615,127.305 12.834,126.700 12.884 C 126.095 12.934,125.600 13.115,125.600 13.287 C 125.600 13.459,125.240 13.600,124.800 13.600 C 124.360 13.600,124.000 13.780,124.000 14.000 C 124.000 14.220,123.721 14.400,123.381 14.400 C 123.040 14.400,122.016 14.760,121.106 15.200 C 120.195 15.640,119.214 16.000,118.925 16.000 C 118.636 16.000,118.400 16.180,118.400 16.400 C 118.400 16.620,118.040 16.800,117.600 16.800 C 117.160 16.800,116.800 16.980,116.800 17.200 C 116.800 17.420,116.440 17.600,116.000 17.600 C 115.560 17.600,115.200 17.780,115.200 18.000 C 115.200 18.220,115.065 18.379,114.900 18.353 C 113.909 18.196,112.790 18.460,113.000 18.800 C 113.141 19.028,112.796 19.200,112.200 19.200 C 111.604 19.200,111.259 19.372,111.400 19.600 C 111.536 19.820,111.299 20.000,110.873 20.000 C 110.447 20.000,109.876 20.268,109.604 20.596 C 109.332 20.923,108.950 21.093,108.755 20.972 C 108.560 20.851,108.400 20.943,108.400 21.176 C 108.400 21.409,108.164 21.600,107.875 21.600 C 107.587 21.600,106.964 21.960,106.492 22.400 C 106.020 22.840,105.131 23.203,104.517 23.206 C 103.649 23.211,103.534 23.299,104.000 23.600 C 104.485 23.914,104.428 23.989,103.700 23.994 C 103.205 23.997,102.800 24.180,102.800 24.400 C 102.800 24.620,102.513 24.800,102.162 24.800 C 101.479 24.800,99.161 25.980,98.755 26.534 C 98.621 26.718,98.377 26.827,98.213 26.776 C 97.904 26.680,96.668 27.450,95.799 28.281 C 95.522 28.545,95.188 28.655,95.057 28.524 C 94.926 28.393,94.706 28.580,94.568 28.940 C 94.429 29.301,94.167 29.503,93.985 29.391 C 93.804 29.279,93.372 29.590,93.027 30.082 C 92.662 30.603,92.400 30.748,92.400 30.428 C 92.400 30.042,92.190 30.106,91.700 30.642 C 91.315 31.062,90.505 31.660,89.900 31.970 C 89.295 32.281,88.800 32.685,88.800 32.868 C 88.800 33.050,88.522 33.200,88.182 33.200 C 87.842 33.200,87.110 33.653,86.556 34.208 C 86.002 34.762,85.352 35.094,85.112 34.946 C 84.851 34.785,84.791 34.862,84.962 35.138 C 85.131 35.412,84.993 35.600,84.624 35.600 C 84.281 35.600,84.000 35.738,84.000 35.906 C 84.000 36.074,83.280 36.656,82.400 37.200 C 81.520 37.744,80.800 38.326,80.800 38.494 C 80.800 38.662,80.532 38.800,80.203 38.800 C 79.875 38.800,79.091 39.340,78.460 40.000 C 77.829 40.660,77.185 41.200,77.028 41.200 C 76.871 41.200,76.505 41.425,76.215 41.700 C 74.897 42.948,72.363 44.993,72.216 44.928 C 72.126 44.889,70.921 45.924,69.537 47.228 C 68.153 48.533,66.888 49.600,66.726 49.600 C 66.564 49.600,64.721 51.310,62.631 53.400 C 60.541 55.490,58.943 57.200,59.080 57.200 C 59.216 57.200,58.553 57.875,57.606 58.700 C 54.851 61.100,49.600 66.405,49.600 66.788 C 49.600 66.982,48.542 68.225,47.248 69.551 C 45.954 70.877,44.990 72.057,45.105 72.172 C 45.220 72.287,45.019 72.495,44.657 72.633 C 44.296 72.772,44.000 73.104,44.000 73.371 C 44.000 73.637,43.595 74.236,43.100 74.700 C 41.931 75.797,41.200 76.697,41.200 77.040 C 41.200 77.190,40.660 77.829,40.000 78.460 C 39.340 79.091,38.800 79.793,38.800 80.020 C 38.800 80.247,38.440 80.820,38.000 81.292 C 37.560 81.764,37.200 82.398,37.200 82.699 C 37.200 83.001,37.020 83.136,36.800 83.000 C 36.580 82.864,36.400 82.994,36.400 83.288 C 36.400 83.583,36.040 84.083,35.600 84.400 C 35.160 84.717,34.800 85.257,34.800 85.600 C 34.800 85.943,34.440 86.483,34.000 86.800 C 33.560 87.117,33.200 87.687,33.200 88.066 C 33.200 88.445,32.885 88.990,32.500 89.277 C 32.115 89.565,31.744 90.059,31.675 90.375 C 31.606 90.691,31.205 91.249,30.782 91.615 C 30.360 91.982,30.106 92.372,30.217 92.484 C 30.328 92.595,30.145 92.914,29.810 93.192 C 29.474 93.470,29.200 93.946,29.200 94.249 C 29.200 94.552,28.990 94.800,28.733 94.800 C 28.477 94.800,28.378 94.911,28.514 95.048 C 28.650 95.184,28.545 95.522,28.281 95.799 C 27.450 96.668,26.680 97.904,26.776 98.213 C 26.827 98.377,26.718 98.621,26.534 98.755 C 25.980 99.161,24.800 101.479,24.800 102.162 C 24.800 102.513,24.620 102.800,24.400 102.800 C 24.180 102.800,23.997 103.205,23.994 103.700 C 23.989 104.428,23.914 104.485,23.600 104.000 C 23.285 103.512,23.211 103.564,23.206 104.276 C 23.203 104.758,23.020 105.264,22.800 105.400 C 22.580 105.536,22.400 105.997,22.400 106.424 C 22.400 106.851,22.220 107.200,22.000 107.200 C 21.780 107.200,21.600 107.470,21.600 107.800 C 21.600 108.130,21.409 108.400,21.176 108.400 C 20.943 108.400,20.851 108.560,20.972 108.755 C 21.093 108.950,20.923 109.332,20.596 109.604 C 20.268 109.876,20.000 110.447,20.000 110.873 C 20.000 111.299,19.820 111.536,19.600 111.400 C 19.380 111.264,19.200 111.523,19.200 111.976 C 19.200 112.429,19.020 112.800,18.800 112.800 C 18.580 112.800,18.399 113.115,18.399 113.500 C 18.398 113.885,18.038 114.789,17.599 115.510 C 17.159 116.230,16.800 117.175,16.800 117.610 C 16.800 118.044,16.620 118.400,16.400 118.400 C 16.180 118.400,16.000 118.749,16.000 119.176 C 16.000 119.603,15.820 120.064,15.600 120.200 C 15.380 120.336,15.200 120.887,15.200 121.424 C 15.200 121.961,15.020 122.400,14.800 122.400 C 14.580 122.400,14.400 122.760,14.400 123.200 C 14.400 123.640,14.220 124.000,14.000 124.000 C 13.780 124.000,13.600 124.360,13.600 124.800 C 13.600 125.240,13.459 125.600,13.287 125.600 C 13.115 125.600,12.934 126.095,12.884 126.700 C 12.834 127.305,12.615 127.860,12.397 127.933 C 12.178 128.007,12.000 128.300,12.000 128.584 C 12.000 128.869,11.698 129.799,11.329 130.651 C 10.960 131.503,10.614 132.439,10.560 132.731 C 10.506 133.023,10.331 133.563,10.171 133.931 C 10.011 134.299,9.815 134.960,9.735 135.400 C 9.656 135.840,9.476 136.470,9.335 136.800 C 8.950 137.703,8.750 138.465,8.520 139.900 C 8.406 140.615,8.152 141.200,7.956 141.200 C 7.760 141.200,7.600 141.830,7.600 142.600 C 7.600 143.370,7.420 144.000,7.200 144.000 C 6.980 144.000,6.800 144.540,6.800 145.200 C 6.800 145.860,6.657 146.400,6.482 146.400 C 6.307 146.400,6.119 147.075,6.064 147.900 C 6.010 148.725,5.793 149.460,5.582 149.533 C 5.372 149.607,5.200 150.372,5.200 151.233 C 5.200 152.095,5.020 152.800,4.800 152.800 C 4.580 152.800,4.400 153.484,4.400 154.320 C 4.400 155.156,4.175 156.082,3.900 156.379 C 3.494 156.816,3.512 156.858,4.000 156.600 C 4.488 156.342,4.506 156.384,4.100 156.821 C 3.825 157.118,3.600 157.954,3.600 158.680 C 3.600 159.406,3.420 160.000,3.200 160.000 C 2.980 160.000,2.800 160.900,2.800 162.000 C 2.800 163.100,2.620 164.000,2.400 164.000 C 2.174 164.000,2.000 165.133,2.000 166.600 C 2.000 168.030,1.850 169.200,1.666 169.200 C 1.482 169.200,1.291 170.320,1.241 171.688 C 1.192 173.057,0.938 174.434,0.676 174.750 C -0.011 175.577,-0.011 224.699,0.676 225.123 C 0.952 225.294,1.188 226.549,1.239 228.109 C 1.287 229.589,1.478 230.800,1.663 230.800 C 1.848 230.800,2.000 231.970,2.000 233.400 C 2.000 234.867,2.174 236.000,2.400 236.000 C 2.620 236.000,2.800 236.799,2.800 237.776 C 2.800 238.753,2.980 239.664,3.200 239.800 C 3.420 239.936,3.600 240.836,3.600 241.800 C 3.600 242.764,3.780 243.664,4.000 243.800 C 4.220 243.936,4.400 244.757,4.400 245.624 C 4.400 246.491,4.580 247.200,4.800 247.200 C 5.020 247.200,5.200 247.905,5.200 248.767 C 5.200 249.628,5.372 250.393,5.582 250.467 C 5.793 250.540,6.010 251.275,6.064 252.100 C 6.119 252.925,6.307 253.600,6.482 253.600 C 6.657 253.600,6.800 254.140,6.800 254.800 C 6.800 255.460,6.980 256.000,7.200 256.000 C 7.420 256.000,7.600 256.630,7.600 257.400 C 7.600 258.170,7.780 258.800,8.000 258.800 C 8.220 258.800,8.400 259.254,8.400 259.810 C 8.400 260.365,8.746 261.805,9.170 263.010 C 9.593 264.214,9.874 265.200,9.793 265.200 C 9.713 265.200,9.898 265.682,10.203 266.271 C 10.509 266.861,10.668 267.491,10.556 267.671 C 10.444 267.852,10.504 268.000,10.689 268.000 C 10.874 268.000,11.274 268.855,11.578 269.900 C 11.882 270.945,12.299 271.911,12.505 272.048 C 12.710 272.184,12.906 272.769,12.939 273.347 C 12.973 273.926,13.135 274.400,13.300 274.400 C 13.465 274.400,13.600 274.760,13.600 275.200 C 13.600 275.640,13.780 276.000,14.000 276.000 C 14.220 276.000,14.400 276.360,14.400 276.800 C 14.400 277.240,14.580 277.600,14.800 277.600 C 15.020 277.600,15.200 278.140,15.200 278.800 C 15.200 279.460,15.380 280.000,15.600 280.000 C 15.820 280.000,16.000 280.360,16.000 280.800 C 16.000 281.240,16.180 281.600,16.400 281.600 C 16.620 281.600,16.800 281.960,16.800 282.400 C 16.800 282.840,16.980 283.200,17.200 283.200 C 17.420 283.200,17.600 283.639,17.600 284.176 C 17.600 284.713,17.780 285.264,18.000 285.400 C 18.220 285.536,18.400 286.007,18.400 286.447 C 18.400 286.887,18.580 287.136,18.800 287.000 C 19.020 286.864,19.200 287.087,19.200 287.496 C 19.200 287.905,19.425 288.465,19.700 288.740 C 19.975 289.015,20.224 289.366,20.254 289.520 C 20.455 290.566,20.949 291.600,21.247 291.600 C 21.441 291.600,21.600 291.836,21.600 292.125 C 21.600 292.413,21.960 293.036,22.400 293.508 C 22.840 293.980,23.200 294.700,23.200 295.108 C 23.200 295.516,23.560 296.236,24.000 296.708 C 24.440 297.180,24.800 297.844,24.800 298.183 C 24.800 298.522,24.991 298.800,25.224 298.800 C 25.457 298.800,25.549 298.959,25.429 299.153 C 25.309 299.347,25.653 300.157,26.194 300.953 C 26.734 301.749,27.046 302.405,26.888 302.412 C 26.730 302.419,26.919 302.610,27.308 302.837 C 27.698 303.064,27.924 303.399,27.811 303.583 C 27.697 303.766,27.885 304.024,28.228 304.155 C 28.570 304.287,28.739 304.576,28.602 304.797 C 28.465 305.019,28.543 305.200,28.776 305.200 C 29.009 305.200,29.200 305.460,29.200 305.777 C 29.200 306.095,29.600 306.635,30.089 306.977 C 30.609 307.342,30.750 307.600,30.428 307.600 C 30.042 307.600,30.106 307.810,30.642 308.300 C 31.062 308.685,31.660 309.495,31.970 310.100 C 32.281 310.705,32.685 311.200,32.868 311.200 C 33.050 311.200,33.200 311.425,33.200 311.700 C 33.201 311.975,33.647 312.718,34.192 313.352 C 34.737 313.986,35.069 314.689,34.930 314.914 C 34.790 315.139,34.869 315.205,35.104 315.060 C 35.342 314.912,35.760 315.314,36.050 315.969 C 36.336 316.614,36.712 317.055,36.885 316.948 C 37.058 316.840,37.200 316.999,37.200 317.301 C 37.200 317.602,37.560 318.236,38.000 318.708 C 38.440 319.180,38.800 319.855,38.800 320.207 C 38.800 320.559,38.953 320.753,39.140 320.637 C 39.327 320.522,39.717 320.871,40.007 321.414 C 40.298 321.956,40.685 322.400,40.868 322.400 C 41.050 322.400,41.200 322.593,41.200 322.829 C 41.200 323.064,41.425 323.495,41.700 323.785 C 43.045 325.206,44.799 327.422,44.719 327.600 C 44.670 327.710,45.349 328.520,46.229 329.400 C 47.108 330.280,48.268 331.630,48.806 332.400 C 50.015 334.130,55.894 340.000,56.417 340.000 C 56.628 340.000,56.800 340.281,56.800 340.624 C 56.800 340.967,56.935 341.170,57.100 341.076 C 57.265 340.982,57.811 341.332,58.314 341.853 C 58.817 342.374,59.150 342.800,59.055 342.800 C 58.960 342.800,60.578 344.510,62.651 346.600 C 64.724 348.690,66.589 350.400,66.795 350.400 C 67.001 350.400,67.896 351.134,68.785 352.032 C 69.673 352.929,70.401 353.514,70.403 353.332 C 70.404 353.149,70.719 353.450,71.103 354.000 C 71.486 354.550,72.052 355.054,72.360 355.120 C 72.668 355.186,73.541 355.861,74.300 356.620 C 75.059 357.379,75.815 358.000,75.981 358.000 C 76.146 358.000,76.846 358.540,77.537 359.200 C 78.228 359.860,78.985 360.400,79.220 360.400 C 79.455 360.400,79.536 360.580,79.400 360.800 C 79.264 361.020,79.457 361.200,79.829 361.200 C 80.202 361.200,80.797 361.516,81.153 361.903 C 81.509 362.289,82.295 362.860,82.900 363.170 C 83.505 363.481,84.000 363.885,84.000 364.068 C 84.000 364.250,84.281 364.400,84.624 364.400 C 84.993 364.400,85.131 364.588,84.962 364.862 C 84.798 365.127,84.851 365.216,85.086 365.070 C 85.311 364.931,86.014 365.263,86.648 365.808 C 87.282 366.353,88.025 366.799,88.300 366.800 C 88.575 366.800,88.800 366.950,88.800 367.132 C 88.800 367.315,89.295 367.719,89.900 368.030 C 90.505 368.340,91.270 368.878,91.600 369.225 C 92.173 369.828,93.326 370.404,93.859 370.355 C 93.998 370.342,94.259 370.572,94.441 370.866 C 94.622 371.160,94.943 371.400,95.153 371.400 C 95.364 371.400,95.960 371.760,96.479 372.200 C 97.869 373.379,100.642 374.824,100.941 374.526 C 101.083 374.383,101.200 374.477,101.200 374.733 C 101.200 374.990,101.478 375.200,101.817 375.200 C 102.156 375.200,102.820 375.560,103.292 376.000 C 103.764 376.440,104.567 376.800,105.075 376.800 C 105.584 376.800,106.000 376.958,106.000 377.151 C 106.000 377.345,106.540 377.727,107.200 378.000 C 107.860 378.273,108.400 378.655,108.400 378.849 C 108.400 379.042,108.760 379.200,109.200 379.200 C 109.640 379.200,110.000 379.380,110.000 379.600 C 110.000 379.820,110.480 380.000,111.067 380.000 C 111.653 380.000,112.016 380.117,111.873 380.261 C 111.536 380.597,113.463 381.600,114.446 381.600 C 114.861 381.600,115.200 381.780,115.200 382.000 C 115.200 382.220,115.560 382.400,116.000 382.400 C 116.440 382.400,116.800 382.580,116.800 382.800 C 116.800 383.020,117.072 383.200,117.405 383.200 C 117.995 383.200,119.598 383.963,120.000 384.435 C 120.110 384.564,121.055 384.918,122.100 385.222 C 123.145 385.526,124.000 385.915,124.000 386.087 C 124.000 386.259,124.360 386.400,124.800 386.400 C 125.240 386.400,125.600 386.550,125.600 386.733 C 125.600 386.917,125.846 387.067,126.146 387.067 C 126.713 387.067,132.838 389.360,134.142 390.061 C 134.622 390.318,134.798 390.320,134.640 390.065 C 134.506 389.848,135.123 390.022,136.011 390.451 C 136.899 390.880,137.788 391.131,137.985 391.009 C 138.183 390.887,138.458 390.970,138.596 391.193 C 138.734 391.417,139.377 391.600,140.024 391.600 C 140.671 391.600,141.200 391.780,141.200 392.000 C 141.200 392.220,141.819 392.400,142.576 392.400 C 143.333 392.400,144.064 392.580,144.200 392.800 C 144.336 393.020,144.876 393.200,145.400 393.200 C 145.924 393.200,146.464 393.380,146.600 393.600 C 146.736 393.820,147.467 394.000,148.224 394.000 C 148.981 394.000,149.600 394.180,149.600 394.400 C 149.600 394.620,150.320 394.800,151.200 394.800 C 152.080 394.800,152.800 394.980,152.800 395.200 C 152.800 395.420,153.509 395.600,154.376 395.600 C 155.243 395.600,156.064 395.780,156.200 396.000 C 156.336 396.220,157.347 396.400,158.447 396.400 C 159.679 396.400,160.352 396.554,160.200 396.800 C 160.047 397.048,160.796 397.200,162.176 397.200 C 163.399 397.200,164.400 397.380,164.400 397.600 C 164.400 397.820,165.379 398.000,166.576 398.000 C 167.773 398.000,168.864 398.180,169.000 398.400 C 169.136 398.620,170.461 398.800,171.944 398.800 C 173.538 398.800,174.840 399.000,175.130 399.290 C 175.823 399.983,212.605 400.236,219.800 399.598 C 222.660 399.344,226.260 399.047,227.800 398.937 C 229.340 398.827,230.771 398.572,230.980 398.369 C 231.189 398.166,232.314 398.000,233.480 398.000 C 234.646 398.000,235.600 397.820,235.600 397.600 C 235.600 397.380,236.590 397.200,237.800 397.200 C 239.010 397.200,240.000 397.020,240.000 396.800 C 240.000 396.580,240.709 396.400,241.576 396.400 C 242.443 396.400,243.264 396.220,243.400 396.000 C 243.536 395.780,244.367 395.600,245.247 395.600 C 246.212 395.600,246.749 395.441,246.600 395.200 C 246.448 394.953,247.129 394.800,248.376 394.800 C 249.489 394.800,250.400 394.620,250.400 394.400 C 250.400 394.180,251.019 394.000,251.776 394.000 C 252.533 394.000,253.264 393.820,253.400 393.600 C 253.536 393.380,253.999 393.200,254.429 393.200 C 254.859 393.200,255.523 393.038,255.905 392.839 C 256.556 392.501,258.177 392.028,261.000 391.352 C 261.660 391.194,262.290 391.036,262.400 391.000 C 262.510 390.964,263.140 390.798,263.800 390.631 C 264.460 390.464,265.533 390.087,266.184 389.792 C 266.835 389.497,267.510 389.344,267.684 389.452 C 267.858 389.559,268.000 389.473,268.000 389.261 C 268.000 389.048,268.900 388.643,270.000 388.361 C 271.100 388.079,272.000 387.703,272.000 387.524 C 272.000 387.346,272.540 387.200,273.200 387.200 C 273.860 387.200,274.400 387.020,274.400 386.800 C 274.400 386.580,274.760 386.400,275.200 386.400 C 275.640 386.400,276.000 386.220,276.000 386.000 C 276.000 385.780,276.540 385.600,277.200 385.600 C 277.860 385.600,278.400 385.420,278.400 385.200 C 278.400 384.980,278.760 384.800,279.200 384.800 C 279.640 384.800,280.000 384.620,280.000 384.400 C 280.000 384.180,280.360 384.000,280.800 384.000 C 281.240 384.000,281.600 383.820,281.600 383.600 C 281.600 383.380,281.832 383.200,282.115 383.200 C 282.399 383.200,283.337 382.840,284.200 382.400 C 285.063 381.960,286.091 381.600,286.485 381.600 C 286.878 381.600,287.201 381.465,287.201 381.300 C 287.202 381.135,288.192 380.550,289.400 380.000 C 290.608 379.450,291.598 378.865,291.599 378.700 C 291.599 378.535,291.945 378.400,292.367 378.400 C 292.788 378.400,293.193 378.265,293.267 378.100 C 293.340 377.935,294.255 377.367,295.300 376.837 C 296.345 376.308,297.200 375.723,297.200 375.537 C 297.200 375.352,297.560 375.200,298.000 375.200 C 298.440 375.200,298.800 375.009,298.800 374.776 C 298.800 374.543,298.980 374.464,299.200 374.600 C 299.420 374.736,299.600 374.657,299.600 374.424 C 299.600 374.191,299.938 374.000,300.351 374.000 C 300.764 374.000,301.324 373.732,301.596 373.404 C 301.868 373.077,302.231 372.896,302.403 373.002 C 302.575 373.108,302.824 372.915,302.955 372.572 C 303.087 372.230,303.376 372.061,303.597 372.198 C 303.819 372.335,304.000 372.257,304.000 372.024 C 304.000 371.791,304.261 371.600,304.580 371.600 C 304.899 371.600,305.337 371.285,305.552 370.900 C 305.767 370.515,306.044 370.240,306.168 370.289 C 306.596 370.459,307.804 369.851,308.425 369.153 C 308.769 368.766,309.309 368.394,309.625 368.325 C 309.941 368.256,310.470 367.929,310.800 367.597 C 311.130 367.266,311.895 366.740,312.500 366.430 C 313.105 366.119,313.600 365.715,313.600 365.532 C 313.600 365.350,313.917 365.200,314.304 365.200 C 314.691 365.200,315.232 364.840,315.507 364.400 C 315.782 363.960,316.286 363.600,316.627 363.600 C 316.968 363.600,317.136 363.420,317.000 363.200 C 316.864 362.980,316.999 362.800,317.301 362.800 C 317.602 362.800,318.236 362.440,318.708 362.000 C 319.180 361.560,319.855 361.200,320.207 361.200 C 320.559 361.200,320.753 361.047,320.637 360.860 C 320.522 360.673,320.871 360.283,321.414 359.993 C 321.956 359.702,322.400 359.315,322.400 359.132 C 322.400 358.950,322.588 358.800,322.817 358.800 C 323.279 358.800,323.784 358.407,325.755 356.513 C 326.491 355.806,327.207 355.341,327.347 355.480 C 327.486 355.619,327.600 355.493,327.600 355.200 C 327.600 354.907,327.698 354.765,327.819 354.886 C 327.939 355.006,329.123 354.046,330.449 352.752 C 331.775 351.458,333.034 350.400,333.247 350.400 C 333.644 350.400,341.186 342.936,341.007 342.720 C 340.952 342.654,341.333 342.189,341.854 341.686 C 342.374 341.183,342.800 340.853,342.800 340.951 C 342.800 341.050,343.790 340.164,345.000 338.983 C 346.210 337.801,347.200 336.617,347.200 336.351 C 347.200 336.085,347.308 335.975,347.440 336.107 C 347.705 336.372,350.400 333.819,350.400 333.303 C 350.400 333.125,351.453 331.862,352.740 330.496 C 354.027 329.131,354.987 327.921,354.874 327.807 C 354.760 327.693,354.907 327.600,355.200 327.600 C 355.493 327.600,355.619 327.486,355.480 327.347 C 355.341 327.207,355.806 326.491,356.513 325.755 C 358.336 323.858,358.800 323.280,358.800 322.905 C 358.800 322.724,359.160 322.317,359.600 322.000 C 360.040 321.683,360.400 321.183,360.400 320.888 C 360.400 320.594,360.580 320.464,360.800 320.600 C 361.020 320.736,361.200 320.559,361.200 320.207 C 361.200 319.855,361.560 319.180,362.000 318.708 C 362.440 318.236,362.800 317.602,362.800 317.301 C 362.800 316.999,362.942 316.840,363.115 316.948 C 363.288 317.055,363.664 316.614,363.950 315.969 C 364.240 315.314,364.658 314.912,364.896 315.060 C 365.131 315.205,365.210 315.139,365.070 314.914 C 364.931 314.689,365.263 313.986,365.808 313.352 C 366.353 312.718,366.799 311.975,366.800 311.700 C 366.800 311.425,366.950 311.200,367.132 311.200 C 367.315 311.200,367.719 310.705,368.030 310.100 C 368.340 309.495,368.866 308.728,369.197 308.396 C 369.809 307.782,370.300 306.993,371.744 304.300 C 372.186 303.475,372.706 302.800,372.898 302.800 C 373.090 302.800,373.145 302.635,373.020 302.432 C 372.895 302.230,373.077 301.780,373.425 301.432 C 373.773 301.085,373.941 300.800,373.800 300.800 C 373.659 300.800,373.827 300.515,374.175 300.168 C 374.523 299.820,374.705 299.370,374.580 299.168 C 374.455 298.965,374.543 298.800,374.776 298.800 C 375.009 298.800,375.200 298.440,375.200 298.000 C 375.200 297.560,375.347 297.200,375.526 297.200 C 375.935 297.200,377.600 294.119,377.600 293.362 C 377.600 293.053,377.780 292.800,378.000 292.800 C 378.220 292.800,378.400 292.530,378.400 292.200 C 378.400 291.870,378.559 291.600,378.753 291.600 C 378.948 291.600,379.238 291.195,379.400 290.700 C 379.561 290.205,379.739 289.665,379.796 289.500 C 379.853 289.335,379.923 288.919,379.950 288.576 C 379.978 288.233,380.180 288.064,380.400 288.200 C 380.620 288.336,380.800 288.066,380.800 287.600 C 380.800 287.134,380.950 286.845,381.133 286.959 C 381.317 287.072,381.497 286.903,381.533 286.582 C 381.570 286.262,381.630 285.730,381.667 285.400 C 381.703 285.070,381.883 284.800,382.067 284.800 C 382.250 284.800,382.400 284.440,382.400 284.000 C 382.400 283.560,382.580 283.200,382.800 283.200 C 383.020 283.200,383.200 282.928,383.200 282.595 C 383.200 282.005,383.963 280.402,384.435 280.000 C 384.564 279.890,384.918 278.945,385.222 277.900 C 385.526 276.855,385.915 276.000,386.087 276.000 C 386.259 276.000,386.400 275.640,386.400 275.200 C 386.400 274.760,386.580 274.400,386.800 274.400 C 387.020 274.400,387.200 273.871,387.200 273.224 C 387.200 272.577,387.355 271.951,387.545 271.834 C 387.735 271.717,388.118 270.806,388.397 269.810 C 388.676 268.815,389.071 268.000,389.276 268.000 C 389.480 268.000,389.531 267.812,389.389 267.582 C 389.247 267.353,389.435 266.701,389.807 266.133 C 390.179 265.566,390.300 265.214,390.077 265.352 C 389.854 265.490,390.018 264.885,390.442 264.007 C 390.867 263.128,391.326 261.593,391.463 260.594 C 391.600 259.595,391.867 258.682,392.056 258.565 C 392.245 258.448,392.400 257.859,392.400 257.256 C 392.400 256.653,392.574 255.986,392.787 255.773 C 392.999 255.561,393.217 254.805,393.272 254.093 C 393.326 253.382,393.512 252.800,393.685 252.800 C 393.858 252.800,394.000 252.260,394.000 251.600 C 394.000 250.940,394.180 250.400,394.400 250.400 C 394.620 250.400,394.800 249.489,394.800 248.376 C 394.800 247.129,394.953 246.448,395.200 246.600 C 395.438 246.747,395.600 246.279,395.600 245.447 C 395.600 244.677,395.780 243.936,396.000 243.800 C 396.220 243.664,396.400 242.764,396.400 241.800 C 396.400 240.836,396.580 239.936,396.800 239.800 C 397.020 239.664,397.200 238.573,397.200 237.376 C 397.200 236.179,397.380 235.200,397.600 235.200 C 397.820 235.200,398.000 234.311,398.000 233.224 C 398.000 232.137,398.180 231.136,398.400 231.000 C 398.620 230.864,398.800 229.539,398.800 228.056 C 398.800 226.433,398.999 225.161,399.300 224.860 C 399.689 224.471,399.800 218.955,399.800 200.000 C 399.800 181.045,399.689 175.529,399.300 175.140 C 398.999 174.839,398.800 173.567,398.800 171.944 C 398.800 170.461,398.620 169.136,398.400 169.000 C 398.180 168.864,398.000 167.863,398.000 166.776 C 398.000 165.689,397.820 164.800,397.600 164.800 C 397.378 164.800,397.200 163.733,397.200 162.400 C 397.200 161.067,397.022 160.000,396.800 160.000 C 396.580 160.000,396.400 159.201,396.400 158.224 C 396.400 157.247,396.220 156.336,396.000 156.200 C 395.780 156.064,395.600 155.243,395.600 154.376 C 395.600 153.509,395.420 152.800,395.200 152.800 C 394.980 152.800,394.800 152.080,394.800 151.200 C 394.800 150.320,394.620 149.600,394.400 149.600 C 394.180 149.600,394.000 149.060,394.000 148.400 C 394.000 147.740,393.858 147.200,393.685 147.200 C 393.512 147.200,393.326 146.618,393.272 145.907 C 393.217 145.195,392.999 144.439,392.787 144.227 C 392.574 144.014,392.400 143.246,392.400 142.520 C 392.400 141.794,392.244 141.200,392.054 141.200 C 391.864 141.200,391.597 140.388,391.461 139.395 C 391.325 138.402,390.867 136.872,390.442 135.993 C 390.018 135.115,389.827 134.493,390.019 134.611 C 390.210 134.730,390.113 134.338,389.804 133.742 C 389.494 133.145,389.332 132.509,389.444 132.329 C 389.556 132.148,389.496 132.000,389.311 132.000 C 389.126 132.000,388.726 131.145,388.422 130.100 C 388.118 129.055,387.719 128.100,387.536 127.978 C 387.354 127.855,387.164 127.270,387.115 126.678 C 387.066 126.085,386.885 125.600,386.713 125.600 C 386.541 125.600,386.400 125.240,386.400 124.800 C 386.400 124.360,386.220 124.000,386.000 124.000 C 385.780 124.000,385.600 123.640,385.600 123.200 C 385.600 122.760,385.420 122.400,385.200 122.400 C 384.980 122.400,384.800 121.860,384.800 121.200 C 384.800 120.540,384.620 120.000,384.400 120.000 C 384.180 120.000,384.000 119.640,384.000 119.200 C 384.000 118.760,383.820 118.400,383.600 118.400 C 383.380 118.400,383.200 118.040,383.200 117.600 C 383.200 117.160,383.020 116.800,382.800 116.800 C 382.580 116.800,382.396 116.395,382.391 115.900 C 382.386 115.405,382.030 114.550,381.600 114.000 C 381.170 113.450,380.814 112.584,380.809 112.076 C 380.804 111.564,380.622 111.263,380.400 111.400 C 380.180 111.536,380.000 111.402,380.000 111.103 C 380.000 110.349,379.065 108.407,378.700 108.403 C 378.535 108.401,378.400 108.130,378.400 107.800 C 378.400 107.470,378.220 107.200,378.000 107.200 C 377.780 107.200,377.600 106.947,377.600 106.638 C 377.600 105.881,375.935 102.800,375.526 102.800 C 375.347 102.800,375.200 102.440,375.200 102.000 C 375.200 101.560,375.020 101.200,374.800 101.200 C 374.580 101.200,374.436 101.065,374.479 100.900 C 374.628 100.337,373.947 98.800,373.549 98.800 C 373.331 98.800,373.257 98.631,373.385 98.424 C 373.513 98.217,373.220 97.677,372.733 97.224 C 372.247 96.771,372.018 96.395,372.225 96.388 C 372.431 96.381,372.281 96.190,371.892 95.963 C 371.502 95.736,371.275 95.402,371.387 95.221 C 371.499 95.039,371.320 94.665,370.988 94.390 C 370.657 94.115,370.098 93.285,369.747 92.545 C 369.396 91.805,368.949 91.200,368.754 91.200 C 368.559 91.200,368.400 90.964,368.400 90.675 C 368.400 90.387,368.085 89.802,367.700 89.375 C 367.315 88.949,366.745 88.105,366.432 87.500 C 366.120 86.895,365.715 86.400,365.532 86.400 C 365.350 86.400,365.200 86.080,365.200 85.688 C 365.200 85.297,364.840 84.717,364.400 84.400 C 363.960 84.083,363.599 83.638,363.598 83.412 C 363.597 83.185,363.057 82.425,362.398 81.722 C 361.739 81.019,361.200 80.134,361.200 79.755 C 361.200 79.376,361.089 79.178,360.952 79.314 C 360.649 79.618,359.600 78.621,359.600 78.029 C 359.600 77.793,359.420 77.600,359.200 77.600 C 358.980 77.600,358.800 77.407,358.800 77.171 C 358.800 76.936,358.575 76.505,358.300 76.215 C 357.066 74.912,355.195 72.582,355.237 72.400 C 355.262 72.290,354.184 71.035,352.841 69.611 C 351.498 68.186,350.400 66.897,350.400 66.745 C 350.400 66.262,347.683 63.650,347.436 63.897 C 347.306 64.027,347.200 63.915,347.200 63.649 C 347.200 63.383,346.210 62.199,345.000 61.017 C 343.790 59.836,342.800 58.950,342.800 59.049 C 342.800 59.147,342.374 58.817,341.854 58.314 C 341.333 57.811,340.951 57.347,341.004 57.283 C 341.191 57.056,338.408 54.400,337.983 54.400 C 337.747 54.400,337.664 54.220,337.800 54.000 C 337.936 53.780,337.737 53.600,337.357 53.600 C 336.977 53.600,336.780 53.486,336.919 53.347 C 337.194 53.073,335.639 51.525,332.800 49.245 C 331.810 48.450,330.336 47.144,329.525 46.341 C 328.714 45.539,327.954 44.980,327.835 45.099 C 327.716 45.217,327.505 45.019,327.367 44.657 C 327.228 44.296,326.874 44.000,326.580 44.000 C 326.286 44.000,325.810 43.682,325.523 43.293 C 325.235 42.904,324.465 42.244,323.810 41.825 C 323.156 41.406,322.267 40.735,321.835 40.332 C 321.403 39.929,320.892 39.600,320.701 39.600 C 320.509 39.600,320.464 39.420,320.600 39.200 C 320.736 38.980,320.557 38.800,320.202 38.800 C 319.847 38.800,318.981 38.261,318.278 37.602 C 317.575 36.943,316.815 36.403,316.588 36.402 C 316.362 36.401,315.917 36.040,315.600 35.600 C 315.283 35.160,314.731 34.800,314.374 34.800 C 314.016 34.800,313.398 34.440,313.000 34.000 C 312.602 33.560,312.074 33.200,311.826 33.200 C 311.579 33.200,311.117 32.840,310.800 32.400 C 310.483 31.960,309.943 31.600,309.600 31.600 C 309.257 31.600,308.724 31.250,308.415 30.821 C 308.107 30.393,307.727 30.121,307.572 30.217 C 307.417 30.313,307.068 30.123,306.796 29.796 C 306.524 29.468,306.054 29.200,305.751 29.200 C 305.448 29.200,305.200 29.020,305.200 28.800 C 305.200 28.580,304.930 28.400,304.600 28.400 C 304.270 28.400,304.000 28.220,304.000 28.000 C 304.000 27.780,303.730 27.600,303.400 27.600 C 303.070 27.600,302.800 27.409,302.800 27.176 C 302.800 26.943,302.640 26.851,302.445 26.972 C 302.250 27.093,301.861 26.915,301.581 26.577 C 301.301 26.240,300.821 26.060,300.515 26.177 C 300.209 26.295,300.068 26.213,300.203 25.995 C 300.423 25.640,299.894 25.427,299.100 25.553 C 298.935 25.579,298.800 25.420,298.800 25.200 C 298.800 24.980,298.440 24.800,298.000 24.800 C 297.560 24.800,297.200 24.648,297.200 24.463 C 297.200 24.277,296.345 23.692,295.300 23.163 C 294.255 22.633,293.340 22.065,293.267 21.900 C 293.193 21.735,292.788 21.600,292.367 21.600 C 291.945 21.600,291.599 21.465,291.597 21.300 C 291.593 20.935,289.651 20.000,288.897 20.000 C 288.598 20.000,288.464 19.820,288.600 19.600 C 288.736 19.380,288.477 19.200,288.024 19.200 C 287.571 19.200,287.200 19.020,287.200 18.800 C 287.200 18.580,286.870 18.400,286.467 18.400 C 286.063 18.400,285.609 18.275,285.456 18.123 C 285.304 17.971,284.779 17.785,284.290 17.711 C 283.800 17.637,283.340 17.402,283.267 17.188 C 283.193 16.975,282.788 16.800,282.367 16.800 C 281.945 16.800,281.600 16.620,281.600 16.400 C 281.600 16.180,281.240 16.000,280.800 16.000 C 280.360 16.000,280.000 15.820,280.000 15.600 C 280.000 15.380,279.640 15.200,279.200 15.200 C 278.760 15.200,278.400 15.020,278.400 14.800 C 278.400 14.580,277.860 14.400,277.200 14.400 C 276.540 14.400,276.000 14.220,276.000 14.000 C 276.000 13.780,275.640 13.600,275.200 13.600 C 274.760 13.600,274.400 13.465,274.400 13.300 C 274.400 13.135,273.910 12.972,273.312 12.937 C 272.714 12.902,272.159 12.677,272.079 12.437 C 271.999 12.197,271.700 12.000,271.416 12.000 C 271.131 12.000,270.201 11.696,269.349 11.324 C 268.497 10.953,267.513 10.638,267.161 10.624 C 266.810 10.611,266.225 10.353,265.861 10.051 C 265.498 9.749,265.200 9.610,265.200 9.741 C 265.200 9.873,264.705 9.789,264.100 9.555 C 262.706 9.015,261.734 8.762,260.100 8.512 C 259.385 8.402,258.800 8.152,258.800 7.956 C 258.800 7.760,258.170 7.600,257.400 7.600 C 256.630 7.600,256.000 7.420,256.000 7.200 C 256.000 6.980,255.460 6.800,254.800 6.800 C 254.140 6.800,253.600 6.655,253.600 6.478 C 253.600 6.301,252.835 6.112,251.900 6.058 C 250.965 6.004,250.140 5.789,250.067 5.580 C 249.993 5.371,249.318 5.200,248.567 5.200 C 247.815 5.200,247.200 5.020,247.200 4.800 C 247.200 4.580,246.491 4.400,245.624 4.400 C 244.757 4.400,243.936 4.220,243.800 4.000 C 243.664 3.780,242.764 3.600,241.800 3.600 C 240.836 3.600,239.936 3.420,239.800 3.200 C 239.664 2.980,238.753 2.800,237.776 2.800 C 236.799 2.800,236.000 2.620,236.000 2.400 C 236.000 2.174,234.867 2.000,233.400 2.000 C 231.970 2.000,230.800 1.848,230.800 1.663 C 230.800 1.478,229.589 1.287,228.109 1.239 C 226.574 1.189,225.293 0.950,225.128 0.683 C 224.842 0.221,186.931 -0.109,178.286 0.275 M206.723 50.022 C 210.532 50.878,212.092 51.344,214.400 52.313 C 214.950 52.544,215.985 52.972,216.700 53.264 C 217.415 53.556,218.000 53.931,218.000 54.098 C 218.000 54.264,218.193 54.400,218.428 54.400 C 218.817 54.400,221.362 56.032,223.391 57.582 C 237.405 68.290,241.921 88.406,233.942 104.577 C 233.013 106.460,232.106 108.000,231.927 108.000 C 231.747 108.000,231.600 108.200,231.600 108.444 C 231.600 110.758,222.083 119.103,216.600 121.598 C 215.060 122.299,213.487 123.036,213.105 123.236 C 212.723 123.436,211.958 123.600,211.405 123.600 C 210.852 123.600,210.400 123.780,210.400 124.000 C 210.400 124.220,209.691 124.400,208.824 124.400 C 207.957 124.400,207.136 124.580,207.000 124.800 C 206.851 125.041,204.070 125.200,200.000 125.200 C 195.930 125.200,193.149 125.041,193.000 124.800 C 192.864 124.580,192.144 124.400,191.400 124.400 C 190.656 124.400,189.936 124.220,189.800 124.000 C 189.664 123.780,189.111 123.600,188.571 123.600 C 188.031 123.600,187.277 123.440,186.895 123.244 C 186.513 123.048,185.300 122.467,184.200 121.953 C 177.927 119.022,168.400 110.875,168.400 108.442 C 168.400 108.199,168.253 108.000,168.073 108.000 C 167.538 108.000,164.535 101.616,163.643 98.581 C 159.557 84.677,163.531 69.547,173.740 60.144 C 176.944 57.194,180.753 54.400,181.572 54.400 C 181.807 54.400,182.000 54.220,182.000 54.000 C 182.000 53.780,182.253 53.600,182.562 53.600 C 182.871 53.600,183.906 53.214,184.862 52.743 C 187.408 51.488,188.622 51.087,193.000 50.059 C 195.225 49.536,204.451 49.511,206.723 50.022 M229.105 137.553 C 229.487 137.748,230.313 138.148,230.940 138.442 C 232.811 139.321,235.431 142.053,236.654 144.400 L 237.800 146.600 237.906 210.700 L 238.012 274.800 245.811 274.800 C 250.101 274.800,253.923 274.959,254.305 275.153 C 254.687 275.348,255.525 275.753,256.166 276.053 C 257.945 276.887,260.601 279.744,261.760 282.070 L 262.800 284.157 262.800 306.284 C 262.800 318.454,262.641 328.723,262.447 329.105 C 262.252 329.487,261.847 330.327,261.547 330.971 C 260.684 332.820,257.395 335.955,255.307 336.919 L 253.400 337.800 200.000 337.800 L 146.600 337.800 144.632 336.800 C 142.376 335.653,139.255 332.715,138.453 330.981 C 138.153 330.332,137.748 329.487,137.553 329.105 C 137.092 328.198,137.092 284.202,137.553 283.295 C 137.748 282.913,138.153 282.068,138.453 281.419 C 139.148 279.917,142.305 276.768,143.832 276.053 C 144.474 275.753,145.313 275.348,145.695 275.153 C 146.077 274.959,149.902 274.800,154.195 274.800 L 162.000 274.800 162.000 237.600 L 162.000 200.400 154.395 200.400 C 150.212 200.400,146.477 200.241,146.095 200.047 C 145.713 199.852,144.875 199.447,144.234 199.147 C 142.666 198.411,139.118 194.888,138.447 193.400 C 138.150 192.740,137.748 191.887,137.553 191.505 C 137.359 191.123,137.200 180.906,137.200 168.800 C 137.200 156.694,137.359 146.477,137.553 146.095 C 137.748 145.713,138.153 144.863,138.453 144.206 C 139.572 141.762,141.763 139.571,144.206 138.454 C 144.863 138.153,145.670 137.759,146.000 137.577 C 146.815 137.129,228.225 137.106,229.105 137.553 " stroke="none" fill="#6ccc04" fill-rule="evenodd"></path><path id="path2" d="M153.119 200.298 C 154.944 200.372,157.824 200.372,159.519 200.297 C 161.214 200.222,159.720 200.161,156.200 200.162 C 152.680 200.162,151.294 200.224,153.119 200.298 " stroke="none" fill="#98dc4e" fill-rule="evenodd"></path><path id="path3" d="M193.600 50.421 C 192.969 50.637,193.632 50.678,195.400 50.532 C 196.940 50.405,198.275 50.234,198.367 50.151 C 198.696 49.853,194.579 50.087,193.600 50.421 M201.633 50.151 C 201.725 50.234,203.060 50.405,204.600 50.532 C 206.368 50.678,207.031 50.637,206.400 50.421 C 205.421 50.087,201.304 49.853,201.633 50.151 M190.200 51.200 L 189.400 51.544 190.200 51.566 C 190.640 51.578,191.270 51.413,191.600 51.200 C 192.395 50.686,191.396 50.686,190.200 51.200 M208.800 51.200 C 209.130 51.413,209.670 51.588,210.000 51.588 C 210.533 51.588,210.533 51.545,210.000 51.200 C 209.670 50.987,209.130 50.812,208.800 50.812 C 208.267 50.812,208.267 50.855,208.800 51.200 M182.800 54.040 C 176.032 57.716,166.401 67.408,166.400 70.544 C 166.400 70.733,167.449 69.293,168.731 67.344 C 172.612 61.442,178.210 56.565,184.467 53.633 C 185.860 52.981,186.730 52.439,186.400 52.429 C 186.070 52.419,184.450 53.144,182.800 54.040 M216.418 54.105 C 222.417 57.128,227.524 61.572,230.828 66.643 C 232.577 69.328,233.226 69.985,232.234 68.066 C 229.329 62.447,217.368 52.400,213.585 52.400 C 213.283 52.400,214.558 53.167,216.418 54.105 M164.200 75.600 C 164.050 76.073,164.017 76.550,164.127 76.660 C 164.237 76.770,164.450 76.473,164.600 76.000 C 164.750 75.527,164.783 75.050,164.673 74.940 C 164.563 74.830,164.350 75.127,164.200 75.600 M235.212 75.200 C 235.212 75.530,235.387 76.070,235.600 76.400 C 235.945 76.933,235.988 76.933,235.988 76.400 C 235.988 76.070,235.813 75.530,235.600 75.200 C 235.255 74.667,235.212 74.667,235.212 75.200 M163.473 78.153 C 163.323 78.545,163.211 79.166,163.225 79.533 C 163.242 79.975,163.381 79.874,163.637 79.234 C 163.849 78.703,163.961 78.082,163.885 77.854 C 163.809 77.627,163.624 77.761,163.473 78.153 M236.034 78.000 C 236.046 78.330,236.211 78.960,236.400 79.400 L 236.744 80.200 236.766 79.400 C 236.778 78.960,236.613 78.330,236.400 78.000 C 236.055 77.467,236.015 77.467,236.034 78.000 M162.650 82.050 C 162.330 83.648,162.397 91.908,162.740 93.124 C 162.883 93.632,163.000 91.067,163.000 87.424 C 163.000 80.157,163.007 80.265,162.650 82.050 M237.000 87.400 C 237.000 91.056,237.117 93.632,237.260 93.124 C 237.403 92.616,237.520 90.040,237.520 87.400 C 237.520 84.760,237.403 82.184,237.260 81.676 C 237.117 81.168,237.000 83.744,237.000 87.400 M163.246 95.600 C 163.227 96.150,163.387 96.870,163.600 97.200 C 164.094 97.964,164.094 97.142,163.600 95.600 L 163.280 94.600 163.246 95.600 M236.250 96.050 C 235.917 97.717,236.240 98.040,236.600 96.400 C 236.752 95.709,236.793 95.059,236.691 94.958 C 236.589 94.856,236.391 95.347,236.250 96.050 M164.028 98.676 C 164.013 99.158,164.180 99.664,164.400 99.800 C 164.873 100.092,164.873 99.701,164.400 98.600 C 164.069 97.829,164.055 97.831,164.028 98.676 M164.827 100.710 C 164.797 101.284,167.499 106.800,167.811 106.800 C 167.921 106.800,167.503 105.765,166.882 104.500 C 166.260 103.235,165.550 101.750,165.303 101.200 C 165.056 100.650,164.842 100.429,164.827 100.710 M233.530 103.622 C 232.722 105.370,232.135 106.800,232.225 106.800 C 232.521 106.800,235.248 101.142,235.122 100.789 C 235.055 100.600,234.339 101.875,233.530 103.622 M168.643 108.359 C 169.743 110.334,175.442 116.264,177.573 117.650 C 179.395 118.836,179.396 118.836,178.031 117.720 C 174.915 115.170,172.195 112.460,170.486 110.200 C 168.161 107.127,167.701 106.666,168.643 108.359 M229.918 109.700 C 228.148 112.111,224.919 115.382,222.000 117.722 C 220.618 118.831,220.623 118.830,222.427 117.653 C 224.482 116.314,230.218 110.385,231.323 108.459 C 232.442 106.508,231.930 106.960,229.918 109.700 M179.600 118.983 C 179.600 119.257,183.212 121.321,183.386 121.147 C 183.468 121.065,182.650 120.503,181.568 119.899 C 180.486 119.295,179.600 118.883,179.600 118.983 M217.400 120.424 C 214.320 122.144,214.120 122.568,217.113 121.032 C 218.860 120.136,220.863 118.802,220.400 118.843 C 220.290 118.853,218.940 119.565,217.400 120.424 M185.820 122.318 C 186.420 122.821,190.450 123.981,194.331 124.768 C 197.104 125.330,202.711 125.320,205.776 124.747 C 209.025 124.139,213.705 122.767,214.200 122.278 C 214.464 122.016,214.329 121.979,213.800 122.168 C 204.329 125.545,196.001 125.667,187.492 122.552 C 185.783 121.927,185.266 121.854,185.820 122.318 M168.100 137.500 C 178.825 137.559,196.375 137.559,207.100 137.500 C 217.825 137.441,209.050 137.392,187.600 137.392 C 166.150 137.392,157.375 137.441,168.100 137.500 M144.512 138.619 C 141.174 140.283,137.569 144.889,137.640 147.400 C 137.656 147.961,137.782 147.841,138.062 147.000 C 139.661 142.184,142.143 139.704,147.000 138.067 C 147.896 137.766,147.992 137.655,147.379 137.632 C 146.927 137.614,145.637 138.059,144.512 138.619 M227.600 138.000 C 227.930 138.213,228.560 138.378,229.000 138.366 L 229.800 138.344 229.000 138.000 C 227.804 137.486,226.805 137.486,227.600 138.000 M230.000 138.553 C 230.000 138.648,230.810 139.238,231.799 139.863 C 232.789 140.488,233.599 141.135,233.599 141.300 C 233.600 141.465,233.825 141.594,234.100 141.586 C 234.375 141.578,234.060 141.118,233.400 140.565 C 232.161 139.525,230.000 138.247,230.000 138.553 M235.006 142.912 C 235.392 143.524,235.809 143.924,235.932 143.801 C 236.055 143.678,235.739 143.178,235.230 142.689 L 234.304 141.800 235.006 142.912 M236.475 145.400 C 236.898 146.368,237.039 159.018,237.200 210.800 L 237.400 275.000 245.200 275.201 C 251.507 275.364,253.302 275.538,254.578 276.114 C 258.058 277.681,260.458 280.269,261.635 283.720 C 262.025 284.864,262.357 285.430,262.372 284.979 C 262.412 283.815,260.638 280.439,259.168 278.881 C 255.925 275.443,253.637 274.800,244.654 274.800 L 237.600 274.800 237.600 211.260 C 237.600 147.989,237.561 145.939,236.320 144.600 C 236.116 144.380,236.186 144.740,236.475 145.400 M137.386 168.800 C 137.386 179.910,137.437 184.455,137.500 178.900 C 137.562 173.345,137.562 164.255,137.500 158.700 C 137.437 153.145,137.386 157.690,137.386 168.800 M137.656 190.000 C 137.656 190.330,137.811 190.960,138.000 191.400 C 138.217 191.904,138.344 191.978,138.344 191.600 C 138.344 191.270,138.189 190.640,138.000 190.200 C 137.783 189.696,137.656 189.622,137.656 190.000 M138.681 193.187 C 138.794 193.620,139.132 194.178,139.433 194.427 C 139.845 194.770,139.828 194.578,139.360 193.640 C 138.653 192.222,138.381 192.041,138.681 193.187 M140.638 196.061 C 141.538 197.077,144.774 199.208,145.378 199.182 C 145.610 199.173,145.157 198.825,144.371 198.409 C 143.585 197.994,142.351 197.102,141.629 196.427 C 140.117 195.015,139.515 194.792,140.638 196.061 M146.400 199.600 C 146.730 199.813,147.450 199.973,148.000 199.954 L 149.000 199.920 148.000 199.600 C 146.458 199.106,145.636 199.106,146.400 199.600 M162.498 237.500 L 162.400 274.800 155.346 274.800 C 146.383 274.800,144.099 275.442,140.740 278.907 C 139.351 280.340,137.437 284.133,137.714 284.905 C 137.812 285.177,138.095 284.663,138.345 283.762 C 140.078 277.494,144.599 275.200,155.217 275.200 C 160.615 275.200,162.473 275.074,162.616 274.700 C 162.721 274.425,162.759 257.550,162.701 237.200 L 162.596 200.200 162.498 237.500 M137.386 306.200 C 137.386 317.420,137.437 322.068,137.500 316.528 C 137.562 310.988,137.562 301.808,137.500 296.128 C 137.437 290.448,137.386 294.980,137.386 306.200 M262.586 306.400 C 262.586 317.510,262.637 322.055,262.700 316.500 C 262.762 310.945,262.762 301.855,262.700 296.300 C 262.637 290.745,262.586 295.290,262.586 306.400 M137.631 327.600 C 137.554 329.582,142.276 336.032,143.772 335.987 C 144.007 335.980,143.840 335.705,143.400 335.375 C 140.803 333.428,139.568 331.723,138.059 328.000 C 137.836 327.450,137.644 327.270,137.631 327.600 M261.663 328.600 C 261.418 329.480,260.728 330.920,260.130 331.800 C 259.154 333.235,258.592 333.795,256.424 335.487 C 256.081 335.755,255.993 335.980,256.228 335.987 C 257.794 336.034,262.821 328.987,262.286 327.495 C 262.188 327.223,261.908 327.720,261.663 328.600 M144.604 336.329 C 145.941 337.550,148.119 337.600,200.000 337.600 C 251.881 337.600,254.059 337.550,255.396 336.329 C 255.614 336.130,255.006 336.245,254.046 336.584 C 251.397 337.518,148.603 337.518,145.954 336.584 C 144.994 336.245,144.386 336.130,144.604 336.329 " stroke="none" fill="#a4dc5c" fill-rule="evenodd"></path><path id="path4" d="M197.100 49.897 C 198.695 49.973,201.305 49.973,202.900 49.897 C 204.495 49.821,203.190 49.759,200.000 49.759 C 196.810 49.759,195.505 49.821,197.100 49.897 M190.000 50.818 C 189.562 51.115,189.724 51.152,190.600 50.956 C 192.071 50.627,192.390 50.398,191.367 50.406 C 190.945 50.409,190.330 50.595,190.000 50.818 M172.977 60.910 L 170.600 63.400 172.991 61.200 C 174.306 59.990,175.461 58.955,175.557 58.900 C 175.654 58.845,175.648 58.715,175.544 58.610 C 175.440 58.506,174.285 59.541,172.977 60.910 M226.600 60.800 C 227.906 62.120,229.065 63.200,229.175 63.200 C 229.285 63.200,228.306 62.120,227.000 60.800 C 225.694 59.480,224.535 58.400,224.425 58.400 C 224.315 58.400,225.294 59.480,226.600 60.800 M165.472 71.419 C 164.532 73.389,164.664 73.724,165.647 71.862 C 166.093 71.016,166.387 70.254,166.301 70.167 C 166.214 70.081,165.841 70.644,165.472 71.419 M233.628 70.200 C 233.628 70.420,233.886 71.050,234.200 71.600 C 234.514 72.150,234.772 72.420,234.772 72.200 C 234.772 71.980,234.514 71.350,234.200 70.800 C 233.886 70.250,233.628 69.980,233.628 70.200 M163.646 76.067 C 163.621 76.434,163.496 77.064,163.370 77.467 C 163.152 78.162,163.163 78.163,163.597 77.487 C 163.848 77.096,163.973 76.466,163.873 76.087 C 163.711 75.468,163.688 75.466,163.646 76.067 M236.006 76.233 C 236.009 76.655,236.195 77.270,236.418 77.600 C 236.715 78.038,236.752 77.876,236.556 77.000 C 236.227 75.529,235.998 75.210,236.006 76.233 M162.650 80.050 C 162.317 81.717,162.640 82.040,163.000 80.400 C 163.152 79.709,163.193 79.059,163.091 78.958 C 162.989 78.856,162.791 79.347,162.650 80.050 M236.868 79.400 C 236.862 79.840,237.011 80.560,237.200 81.000 C 237.638 82.019,237.638 80.968,237.200 79.600 C 236.943 78.796,236.877 78.757,236.868 79.400 M162.144 87.600 C 162.144 89.690,162.212 90.545,162.294 89.500 C 162.376 88.455,162.376 86.745,162.294 85.700 C 162.212 84.655,162.144 85.510,162.144 87.600 M237.742 87.400 C 237.741 89.380,237.808 90.240,237.892 89.312 C 237.976 88.384,237.977 86.764,237.895 85.712 C 237.812 84.660,237.743 85.420,237.742 87.400 M237.000 94.400 C 236.848 95.091,236.807 95.741,236.909 95.842 C 237.011 95.944,237.209 95.453,237.350 94.750 C 237.683 93.083,237.360 92.760,237.000 94.400 M168.400 108.738 C 168.400 108.924,168.788 109.419,169.262 109.838 L 170.124 110.600 169.416 109.500 C 168.686 108.366,168.400 108.151,168.400 108.738 M173.288 114.613 C 173.886 115.243,174.447 115.677,174.535 115.579 C 174.623 115.480,174.133 114.965,173.447 114.434 L 172.200 113.469 173.288 114.613 M226.278 114.613 C 225.660 115.156,225.314 115.600,225.508 115.600 C 225.702 115.600,226.283 115.150,226.800 114.600 C 227.995 113.328,227.731 113.334,226.278 114.613 M175.200 116.133 C 175.200 116.243,175.920 116.903,176.800 117.600 C 177.680 118.297,178.400 118.777,178.400 118.667 C 178.400 118.557,177.680 117.897,176.800 117.200 C 175.920 116.503,175.200 116.023,175.200 116.133 M218.700 120.229 C 217.205 121.040,217.296 121.378,218.800 120.600 C 219.460 120.259,220.000 119.894,220.000 119.790 C 220.000 119.532,219.957 119.547,218.700 120.229 M193.000 124.800 C 193.136 125.020,193.642 125.187,194.124 125.172 C 194.969 125.145,194.971 125.131,194.200 124.800 C 193.099 124.327,192.708 124.327,193.000 124.800 M205.800 124.800 C 205.029 125.131,205.031 125.145,205.876 125.172 C 206.358 125.187,206.864 125.020,207.000 124.800 C 207.292 124.327,206.901 124.327,205.800 124.800 M237.795 211.400 C 237.795 246.380,237.842 260.631,237.900 243.068 C 237.958 225.506,237.958 196.886,237.900 179.468 C 237.842 162.051,237.795 176.420,237.795 211.400 M146.365 200.126 C 146.544 200.305,147.481 200.391,148.446 200.318 L 150.200 200.185 148.119 199.993 C 146.975 199.887,146.185 199.947,146.365 200.126 M162.192 237.600 C 162.192 258.170,162.240 266.585,162.300 256.300 C 162.359 246.015,162.359 229.185,162.300 218.900 C 162.240 208.615,162.192 217.030,162.192 237.600 M256.400 336.036 C 255.736 336.579,255.669 336.715,256.200 336.440 C 257.505 335.766,258.228 335.212,257.800 335.215 C 257.580 335.217,256.950 335.586,256.400 336.036 M173.900 337.900 C 188.255 337.958,211.745 337.958,226.100 337.900 C 240.455 337.842,228.710 337.794,200.000 337.794 C 171.290 337.794,159.545 337.842,173.900 337.900 " stroke="none" fill="#88d52d" fill-rule="evenodd"></path></g></svg>