<svg xmlns="http://www.w3.org/2000/svg" viewBox="0 0 1475.34 1164.55">
    <defs>
        <style>
            .color-not-image-upload {
                fill: var(--text, #495057);
            }
        </style>
    </defs>
    <g id="Capa_2" data-name="Capa 2">
        <g id="Ñëîé_1" data-name="Ñëîé 1">
            <circle class="color-not-image-upload" cx="628.17" cy="542.74" r="197.84"
                transform="translate(-199.79 603.15) rotate(-45)" />
            <path class="color-not-image-upload"
                d="M975.17,664.38a321.95,321.95,0,0,1,228.21-94.53q6.34,0,12.66.25a38.89,38.89,0,0,0,40.3-38.91V334.89a134.5,134.5,0,0,0-134.51-134.52c-34.8,0-76.91-6.13-112-24.77l0,0c-26-13.79-48.12-34.42-60.67-64.47a329.74,329.74,0,0,1-18.4-35.33C905.29,19.39,830,0,763.29,0H493.05c-66.71,0-142,19.39-167.4,75.77a329.75,329.75,0,0,1-18.39,35.33c-18.45,30.49-38.86,51-60.67,64.47,0,0,0,0-.05,0-31.87,19.76-66.76,24.76-103,24.77C64.3,200.39,0,264.55,0,343.83V769.94A162.41,162.41,0,0,0,162.41,932.35H841.69A39.08,39.08,0,0,0,880.64,893v-.4a321.89,321.89,0,0,1,94.53-228.22ZM866.89,643.6a259.77,259.77,0,1,1,20.38-100.86A258.38,258.38,0,0,1,866.89,643.6Z" />
            <path class="color-not-image-upload"
                d="M1203.38,620.64c-150.2,0-272,121.76-272,272s121.76,271.95,272,271.95,272-121.75,272-271.95S1353.58,620.64,1203.38,620.64Zm105,272h0a26.33,26.33,0,0,1-37.23,0l-41.46-41.47V997.61a26.32,26.32,0,1,1-52.64,0V851.12l-41.46,41.47a26.33,26.33,0,0,1-37.23,0h0a26.33,26.33,0,0,1,0-37.22l86.4-86.4c.31-.31.62-.6.94-.9l.47-.4.51-.44.61-.48.39-.3.69-.49.36-.25c.23-.16.48-.31.72-.46l.36-.23.72-.41.41-.23c.22-.12.45-.24.69-.35l.47-.24.64-.28.56-.25.57-.22.65-.25.14,0,.36-.12.74-.24.45-.12.79-.22.43-.1.83-.18.43-.07.83-.14.5-.07c.25,0,.51-.07.77-.09h.06l.6,0,.62-.05c.43,0,.87,0,1.3,0s.87,0,1.3,0l.62.05.6,0h.06c.26,0,.52.06.77.09l.5.07.83.14.43.07.84.18.42.1.8.22.44.12.74.24.36.12.14,0,.65.25c.19.07.39.14.57.22l.56.25.64.28.48.24.68.35.41.23.72.41.36.23c.25.15.49.3.72.46l.36.25.69.49.39.3.61.48.52.44.46.4c.32.3.63.59.94.9l86.4,86.4A26.31,26.31,0,0,1,1308.39,892.59Z" />
        </g>
    </g>
</svg>