<svg xmlns="http://www.w3.org/2000/svg" xmlns:xlink="http://www.w3.org/1999/xlink" viewBox="0 0 2339.02 1773.2">
    <defs>
        <style>
            .cls-1 {
                fill: none;
            }

            .cls-2 {
                isolation: isolate;
            }

            .cls-3 {
                clip-path: url(#clip-path);
            }

            .cls-4 {
                fill: #f0f2f5;
            }

            .cls-5 {
                fill: #e1e6eb;
            }

            .cls-6 {
                fill: #fff;
            }

            .cls-7 {
                fill: #d2d9e1;
            }

            .cls-12,
            .cls-8 {
                opacity: 0.25;
            }

            .cls-9 {
                fill: #ef592b;
            }

            .cls-10 {
                fill: #ff5f23;
            }

            .cls-11 {
                fill: #260e07;
            }

            .cls-12 {
                mix-blend-mode: multiply;
            }

            .cls-13 {
                fill: #1f4168;
            }

            .cls-14 {
                fill: #1b1a2e;
            }

            .cls-15 {
                fill: #d35437;
            }
        </style>
        <clipPath id="clip-path" transform="translate(-13.03 -10.77)">
            <rect class="cls-1" width="2356.09" height="1798.47" />
        </clipPath>
    </defs>
    <g class="cls-2">
        <g id="Capa_2" data-name="Capa 2">
            <g id="BACK">
                <g class="cls-3">
                    <path class="cls-4"
                        d="M632.23,199.51,631.29,500a40.1,40.1,0,0,1-40.21,40L148.4,538.6a40.08,40.08,0,0,1-40-40.21l.94-300.52a40.1,40.1,0,0,1,40.21-40l442.68,1.39A40.1,40.1,0,0,1,632.23,199.51Z"
                        transform="translate(-13.03 -10.77)" />
                    <path class="cls-5"
                        d="M632.4,199.51a70.45,70.45,0,0,1-.63,10.46,68.37,68.37,0,0,1-2.35,10.24,62.08,62.08,0,0,1-4.1,9.71,48.72,48.72,0,0,1-6,8.71,39,39,0,0,1-8,7.08c-2.92,1.95-5.84,3.79-8.76,5.69L585,262.68,549.79,285.1c-11.73,7.49-23.58,14.78-35.36,22.18l-35.55,21.86-17.79,10.92-17.72,11c-11.83,7.32-23.56,14.8-35.3,22.26l-17.63,11.22a38.88,38.88,0,0,1-40.65.23c-6-3.63-11.83-7.35-17.74-11.05l-35.31-22.26c-23.52-14.88-47-29.75-70.43-44.82s-46.78-30.14-70.11-45.31l-17.47-11.42c-2.9-1.93-5.81-3.79-8.72-5.76a39.21,39.21,0,0,1-7.91-7.13,49,49,0,0,1-6-8.75,61.62,61.62,0,0,1-4-9.73,66.81,66.81,0,0,1-2.28-10.25,74.58,74.58,0,0,1-.61-10.45h.34a73,73,0,0,0,1,10.34,67.33,67.33,0,0,0,2.6,10,61,61,0,0,0,4.28,9.37,50.46,50.46,0,0,0,6,8.3,36.81,36.81,0,0,0,7.7,6.62c2.9,1.86,5.89,3.68,8.83,5.53l17.71,11.05c23.56,14.8,47.13,29.59,70.57,44.59s46.88,30,70.26,45.08l35,22.68L351,382.79a36.79,36.79,0,0,0,38.7.5c5.94-3.53,11.84-7.28,17.73-11,11.8-7.37,23.61-14.73,35.32-22.24l17.6-11.23,17.52-11.33,35.06-22.65c11.76-7.44,23.45-15,35.26-22.33l35.42-22.09,17.75-11c2.95-1.83,5.95-3.64,8.86-5.48a36.78,36.78,0,0,0,7.73-6.58,49.58,49.58,0,0,0,6-8.26,60.51,60.51,0,0,0,4.34-9.34,67.3,67.3,0,0,0,3.74-20.32Z"
                        transform="translate(-13.03 -10.77)" />
                    <path class="cls-5"
                        d="M443.86,350.08Q465.1,362,486,374.55c14,8.3,27.81,16.77,41.64,25.28S555.2,417,568.87,425.75s27.27,17.63,40.73,26.73Q588.36,440.54,567.46,428c-14-8.3-27.81-16.77-41.63-25.28s-27.57-17.16-41.24-25.92S457.32,359.18,443.86,350.08Z"
                        transform="translate(-13.03 -10.77)" />
                    <path class="cls-5"
                        d="M130.43,451q20.28-13.51,40.9-26.48c13.72-8.68,27.55-17.19,41.4-25.66s27.79-16.81,41.79-25,28.08-16.32,42.3-24.2q-20.28,13.53-40.91,26.48c-13.72,8.68-27.55,17.19-41.4,25.66s-27.79,16.81-41.79,25S144.64,443.1,130.43,451Z"
                        transform="translate(-13.03 -10.77)" />
                    <rect class="cls-4" x="1858.18" y="1410.66" width="314.44" height="228.95" rx="24.11" />
                    <path class="cls-5"
                        d="M2185.75,1445.54a41.4,41.4,0,0,1-.36,6.29A39.47,39.47,0,0,1,2184,1458a36.92,36.92,0,0,1-2.45,5.85,29.31,29.31,0,0,1-3.61,5.25,23.17,23.17,0,0,1-4.78,4.27c-1.75,1.18-3.5,2.29-5.26,3.44l-10.53,6.82-21.14,13.55c-7,4.52-14.15,8.93-21.22,13.4l-21.34,13.22-10.68,6.6-10.63,6.67c-7.1,4.42-14.15,8.94-21.19,13.45l-10.58,6.78a23.44,23.44,0,0,1-24.45.22c-3.63-2.18-7.13-4.4-10.69-6.62l-21.28-13.32c-14.17-8.9-28.34-17.8-42.43-26.82s-28.2-18-42.25-27.12L1889,1476.8c-1.75-1.15-3.51-2.27-5.26-3.45a23.67,23.67,0,0,1-4.77-4.27,29.79,29.79,0,0,1-3.6-5.25,36.92,36.92,0,0,1-2.45-5.85,41.89,41.89,0,0,1-1.39-6.16,43.94,43.94,0,0,1-.38-6.28h.2a44.55,44.55,0,0,0,.6,6.22,40.42,40.42,0,0,0,1.59,6,36.72,36.72,0,0,0,2.59,5.63,31.13,31.13,0,0,0,3.62,5,22.24,22.24,0,0,0,4.65,4c1.75,1.12,3.55,2.2,5.32,3.31l10.67,6.61c14.2,8.86,28.4,17.71,42.53,26.68s28.24,18,42.33,27l21.12,13.58,10.53,6.79a22.18,22.18,0,0,0,23.28.22c3.56-2.13,7.1-4.4,10.64-6.62,7.08-4.46,14.17-8.91,21.2-13.45l10.56-6.78,10.51-6.85,21-13.69c7.05-4.49,14.07-9.05,21.16-13.49l21.26-13.36,10.65-6.63c1.77-1.1,3.58-2.19,5.32-3.31a22.23,22.23,0,0,0,4.64-4,30.77,30.77,0,0,0,3.62-5,36.69,36.69,0,0,0,2.59-5.62,40.58,40.58,0,0,0,2.21-12.23Z"
                        transform="translate(-13.03 -10.77)" />
                    <path class="cls-5"
                        d="M2072.65,1536.45q12.79,7.14,25.38,14.63c8.41,5,16.76,10,25.09,15.13s16.61,10.26,24.85,15.51,16.43,10.55,24.55,16q-12.8-7.14-25.39-14.63c-8.41-5-16.75-10-25.09-15.13s-16.61-10.26-24.84-15.51S2080.76,1541.89,2072.65,1536.45Z"
                        transform="translate(-13.03 -10.77)" />
                    <path class="cls-5"
                        d="M1884.34,1597.72q12.18-8.17,24.55-16c8.24-5.25,16.54-10.39,24.85-15.51s16.68-10.16,25.09-15.13,16.85-9.87,25.39-14.63q-12.18,8.17-24.55,16c-8.24,5.25-16.54,10.39-24.85,15.51s-16.68,10.16-25.09,15.13S1892.87,1593,1884.34,1597.72Z"
                        transform="translate(-13.03 -10.77)" />
                    <rect class="cls-4" x="187.36" y="1345.07" width="314.44" height="228.95" rx="24.11" />
                    <path class="cls-5"
                        d="M514.94,1380a44.23,44.23,0,0,1-.36,6.29,41,41,0,0,1-1.4,6.16,36.92,36.92,0,0,1-2.45,5.85,29.31,29.31,0,0,1-3.61,5.25,23.67,23.67,0,0,1-4.77,4.27c-1.76,1.18-3.51,2.29-5.26,3.44L486.55,1418l-21.13,13.54c-7,4.53-14.15,8.94-21.23,13.41l-21.34,13.22-10.68,6.59-10.63,6.67c-7.1,4.43-14.14,9-21.19,13.46l-10.58,6.77a23.38,23.38,0,0,1-24.45.22c-3.62-2.17-7.13-4.4-10.69-6.61L313.36,1472c-14.17-8.91-28.35-17.8-42.44-26.82s-28.19-18-42.25-27.12l-10.53-6.84c-1.75-1.15-3.5-2.26-5.26-3.44a23.37,23.37,0,0,1-4.76-4.28,28.89,28.89,0,0,1-3.61-5.24,36.88,36.88,0,0,1-2.44-5.85,39.47,39.47,0,0,1-1.39-6.16,42.63,42.63,0,0,1-.39-6.28h.2a44.57,44.57,0,0,0,.61,6.21,39.76,39.76,0,0,0,1.58,6,36.8,36.8,0,0,0,2.59,5.63,30.23,30.23,0,0,0,3.63,5,22.53,22.53,0,0,0,4.64,4c1.75,1.11,3.55,2.2,5.32,3.3l10.67,6.62c14.2,8.85,28.41,17.7,42.53,26.68s28.25,18,42.34,27l21.11,13.58L346,1490.7a22.15,22.15,0,0,0,23.28.23c3.56-2.14,7.1-4.4,10.64-6.62,7.09-4.46,14.17-8.91,21.2-13.45l10.56-6.78,10.52-6.85,21-13.69c7.06-4.5,14.07-9,21.17-13.49l21.25-13.36,10.66-6.63c1.77-1.11,3.57-2.2,5.32-3.31a22.47,22.47,0,0,0,4.63-4,30.18,30.18,0,0,0,3.62-5,37.13,37.13,0,0,0,2.59-5.62,40.63,40.63,0,0,0,2.21-12.23Z"
                        transform="translate(-13.03 -10.77)" />
                    <path class="cls-5"
                        d="M401.83,1470.86q12.8,7.14,25.39,14.63t25.08,15.12q12.48,7.68,24.85,15.51t24.55,16q-12.79-7.16-25.39-14.64c-8.41-5-16.75-10-25.08-15.12s-16.61-10.27-24.85-15.51S410,1476.3,401.83,1470.86Z"
                        transform="translate(-13.03 -10.77)" />
                    <path class="cls-5"
                        d="M213.52,1532.13q12.18-8.18,24.55-16c8.24-5.25,16.54-10.39,24.85-15.52s16.68-10.16,25.09-15.12,16.86-9.87,25.39-14.63q-12.16,8.16-24.55,16T264,1502.37c-8.33,5.09-16.68,10.16-25.09,15.12S222.06,1527.36,213.52,1532.13Z"
                        transform="translate(-13.03 -10.77)" />
                    <rect class="cls-4" x="1653.01" y="177.13" width="471.54" height="343.33" rx="36.15" />
                    <path class="cls-5"
                        d="M2137.73,224.05a63.31,63.31,0,0,1-.54,9.43,59.93,59.93,0,0,1-2.09,9.24,55.22,55.22,0,0,1-3.67,8.78,43.88,43.88,0,0,1-5.42,7.87,35,35,0,0,1-7.16,6.4c-2.63,1.77-5.26,3.44-7.89,5.16l-15.8,10.23-31.69,20.31c-10.55,6.79-21.22,13.4-31.82,20.11l-32,19.81-16,9.9-16,10c-10.65,6.64-21.21,13.41-31.78,20.18L1920,391.63a35.11,35.11,0,0,1-36.66.33c-5.44-3.26-10.69-6.6-16-9.92l-31.9-20c-21.25-13.35-42.5-26.69-63.64-40.22s-42.28-27-63.36-40.67l-15.78-10.25c-2.63-1.72-5.26-3.4-7.89-5.16a35.24,35.24,0,0,1-7.15-6.41,44.88,44.88,0,0,1-5.41-7.87,55.45,55.45,0,0,1-3.66-8.77,59.93,59.93,0,0,1-2.09-9.24,65.92,65.92,0,0,1-.58-9.42h.31a64.51,64.51,0,0,0,.91,9.32,59.37,59.37,0,0,0,2.37,9,55.08,55.08,0,0,0,3.88,8.44,46.2,46.2,0,0,0,5.44,7.47,33.54,33.54,0,0,0,7,5.95c2.62,1.67,5.32,3.3,8,4.95l16,9.92c21.29,13.28,42.59,26.55,63.77,40s42.36,26.91,63.49,40.45L1868.66,380l15.79,10.17a33.19,33.19,0,0,0,34.91.34c5.35-3.2,10.66-6.6,16-9.93,10.62-6.68,21.25-13.36,31.79-20.17L1983,350.21l15.77-10.27,31.55-20.53c10.59-6.73,21.11-13.57,31.74-20.23l31.88-20,16-9.94c2.65-1.66,5.36-3.29,8-5a33.19,33.19,0,0,0,7-5.95,45.55,45.55,0,0,0,5.43-7.47,54.54,54.54,0,0,0,3.88-8.43,60.68,60.68,0,0,0,3.31-18.34Z"
                        transform="translate(-13.03 -10.77)" />
                    <path class="cls-5"
                        d="M1968.12,360.38q19.19,10.72,38.07,21.94c12.61,7.45,25.12,15.05,37.62,22.68s24.91,15.4,37.26,23.26,24.65,15.83,36.81,24q-19.18-10.71-38.07-21.94c-12.61-7.45-25.12-15.05-37.62-22.68s-24.91-15.4-37.26-23.27S1980.29,368.54,1968.12,360.38Z"
                        transform="translate(-13.03 -10.77)" />
                    <path class="cls-5"
                        d="M1685.73,452.26q18.26-12.24,36.81-24c12.36-7.87,24.8-15.58,37.27-23.27s25-15.23,37.62-22.68,25.28-14.8,38.08-21.94q-18.26,12.25-36.82,24t-37.26,23.26c-12.5,7.63-25,15.23-37.63,22.68S1698.52,445.11,1685.73,452.26Z"
                        transform="translate(-13.03 -10.77)" />
                    <rect class="cls-4" x="589.04" y="1693.13" width="244.96" height="51.12" />
                    <rect class="cls-6" x="609.63" y="1693.13" width="5.01" height="51.12" />
                    <rect class="cls-5" x="571.63" y="1744.25" width="246.19" height="27.68" />
                    <rect class="cls-6" x="748.45" y="1744.25" width="15.38" height="27.68" />
                    <rect class="cls-6" x="731.68" y="1744.25" width="7.69" height="27.68" />
                    <rect class="cls-4" x="557.01" y="1633.13" width="260.81" height="18.64" />
                    <rect class="cls-4" x="579.5" y="1651.77" width="220.9" height="41.36" />
                    <rect class="cls-5" x="571.63" y="1687.56" width="101.15" height="5.57" />
                    <rect class="cls-5" x="571.63" y="1651.77" width="101.15" height="5.57" />
                    <rect class="cls-5" x="731.72" y="1616.63" width="41.36" height="133.19"
                        transform="translate(-943.85 2424.85) rotate(-90)" />
                    <rect class="cls-6" x="689.95" y="1657.34" width="11.82" height="30.22" />
                    <rect class="cls-4" x="688.36" y="1604.5" width="126.31" height="28.62" />
                    <rect class="cls-5" x="589.04" y="1604.5" width="124.89" height="28.62" />
                    <rect class="cls-5" x="713.93" y="1604.5" width="103.89" height="3.45" />
                    <rect class="cls-5" x="713.93" y="1629.67" width="103.89" height="3.45" />
                    <rect class="cls-6" x="619.22" y="1604.5" width="1.61" height="28.62" />
                    <rect class="cls-6" x="608.46" y="1604.5" width="1.61" height="28.62" />
                    <polygon class="cls-7" points="817.82 1633.13 817.82 1641.66 589.04 1633.13 817.82 1633.13" />
                    <polygon class="cls-7" points="589.04 1693.13 589.04 1711.77 805.97 1693.13 589.04 1693.13" />
                    <rect class="cls-4" x="1399.63" y="1703.9" width="244.96" height="51.12"
                        transform="translate(3031.19 3448.15) rotate(180)" />
                    <rect class="cls-6" x="1618.99" y="1703.9" width="5.01" height="51.12"
                        transform="translate(3229.96 3448.15) rotate(180)" />
                    <rect class="cls-5" x="1415.81" y="1755.02" width="246.19" height="27.68"
                        transform="translate(3064.78 3526.95) rotate(180)" />
                    <rect class="cls-6" x="1469.79" y="1755.02" width="15.38" height="27.68"
                        transform="translate(2941.94 3526.95) rotate(180)" />
                    <rect class="cls-6" x="1494.25" y="1755.02" width="7.69" height="27.68"
                        transform="translate(2983.17 3526.95) rotate(180)" />
                    <rect class="cls-4" x="1415.81" y="1643.9" width="260.81" height="18.64"
                        transform="translate(3079.4 3295.67) rotate(180)" />
                    <rect class="cls-4" x="1433.23" y="1662.54" width="220.9" height="41.36"
                        transform="translate(3074.33 3355.67) rotate(180)" />
                    <rect class="cls-5" x="1560.85" y="1698.33" width="101.15" height="5.57"
                        transform="translate(3209.82 3391.46) rotate(180)" />
                    <rect class="cls-5" x="1560.85" y="1662.54" width="101.15" height="5.57"
                        transform="translate(3209.82 3319.88) rotate(180)" />
                    <rect class="cls-5" x="1473.57" y="1616.63" width="41.36" height="133.19"
                        transform="translate(-201.99 3166.7) rotate(-90)" />
                    <rect class="cls-6" x="1531.85" y="1668.11" width="11.82" height="30.22"
                        transform="translate(3062.51 3355.67) rotate(180)" />
                    <rect class="cls-4" x="1418.96" y="1615.28" width="126.31" height="28.62"
                        transform="translate(2951.21 3248.4) rotate(180)" />
                    <rect class="cls-5" x="1519.7" y="1615.28" width="124.89" height="28.62"
                        transform="translate(3151.26 3248.4) rotate(180)" />
                    <rect class="cls-5" x="1415.81" y="1615.28" width="103.89" height="3.45"
                        transform="translate(2922.48 3223.23) rotate(180)" />
                    <rect class="cls-5" x="1415.81" y="1640.45" width="103.89" height="3.45"
                        transform="translate(2922.48 3273.57) rotate(180)" />
                    <rect class="cls-6" x="1612.79" y="1615.28" width="1.61" height="28.62"
                        transform="translate(3214.17 3248.4) rotate(180)" />
                    <rect class="cls-6" x="1623.56" y="1615.28" width="1.61" height="28.62"
                        transform="translate(3235.7 3248.4) rotate(180)" />
                    <polygon class="cls-7" points="1402.78 1633.13 1402.78 1641.66 1631.56 1633.13 1402.78 1633.13" />
                    <polygon class="cls-7" points="1631.56 1693.13 1631.56 1711.77 1414.63 1693.13 1631.56 1693.13" />
                    <path class="cls-4"
                        d="M2328.23,681.93a104.63,104.63,0,0,1-154.18,141l-50.16,41.25c-.2,4.55-.12,7.24-3.9,10.34l-6.42,5.28-59.24,48.7a16.58,16.58,0,1,1-21.06-25.62L2096,851.37l2.95-2.42c3.78-3.12,6-2.21,10.49-1.52L2160,805.9a104.63,104.63,0,0,1,168.22-124Zm-72.8-15.69A82.55,82.55,0,1,0,2311.14,696,82,82,0,0,0,2255.43,666.24Z"
                        transform="translate(-13.03 -10.77)" />
                    <g class="cls-8">
                        <path class="cls-6" d="M2255.42,666.24A82.5,82.5,0,1,0,2311.15,696,82,82,0,0,0,2255.42,666.24Z"
                            transform="translate(-13.03 -10.77)" />
                    </g>
                    <path class="cls-5"
                        d="M2116.43,850.82a12.46,12.46,0,0,0-17.39-2,.52.52,0,0,0-.11.1l-2.95,2.42-62.71,51.55a16.58,16.58,0,1,0,21.06,25.62l59.24-48.7,6.42-5.28.12-.1a12.47,12.47,0,0,0,1.42-17.44Z"
                        transform="translate(-13.03 -10.77)" />
                    <path class="cls-4"
                        d="M66.57,1164.62a76.59,76.59,0,0,0,144.19,51.05l45.59,13.49c1.44,3,2.15,4.84,5.59,5.86l5.83,1.72,53.83,15.92a12.14,12.14,0,1,0,6.89-23.28l-57-16.85-2.68-.79c-3.44-1-4.68.23-7.51,2l-45.95-13.55a76.59,76.59,0,0,0-148.79-35.54Zm44.6-31.36A60.43,60.43,0,1,1,82.1,1169.2,60,60,0,0,1,111.17,1133.26Z"
                        transform="translate(-13.03 -10.77)" />
                    <g class="cls-8">
                        <path class="cls-6"
                            d="M111.17,1133.26a60.39,60.39,0,1,1-29.08,35.94A60,60,0,0,1,111.17,1133.26Z"
                            transform="translate(-13.03 -10.77)" />
                    </g>
                    <path class="cls-5"
                        d="M257.55,1218a9.13,9.13,0,0,1,11.17-6.29l.1,0,2.68.79,57,16.85a12.14,12.14,0,0,1-6.89,23.28l-53.83-15.92-5.83-1.72-.11,0a9.12,9.12,0,0,1-5.94-11.35Z"
                        transform="translate(-13.03 -10.77)" />
                    <path class="cls-4"
                        d="M2276.85,1096.21v220.44a4.71,4.71,0,0,1-4.71,4.71h-221a4.71,4.71,0,0,1-4.71-4.71V1049.26a4.7,4.7,0,0,1,4.71-4.7h174Z"
                        transform="translate(-13.03 -10.77)" />
                    <path class="cls-5" d="M2276.85,1096.21h-46.94a4.71,4.71,0,0,1-4.71-4.71v-46.94Z"
                        transform="translate(-13.03 -10.77)" />
                    <rect class="cls-5" x="2175.49" y="1201.18" width="122.68" height="77.25" rx="5.34" />
                    <rect class="cls-6" x="2063.01" y="1116.82" width="169.33" height="4.65" />
                    <rect class="cls-6" x="2063.01" y="1148.21" width="169.33" height="4.65" />
                    <rect class="cls-6" x="2063.01" y="1179.6" width="169.33" height="4.65" />
                    <rect class="cls-6" x="2063.01" y="1210.99" width="84.67" height="4.65" />
                    <rect class="cls-6" x="2063.01" y="1242.38" width="84.67" height="4.65" />
                    <rect class="cls-6" x="2063.01" y="1273.77" width="84.67" height="4.65" />
                    <path class="cls-6"
                        d="M2130.54,1116.8H2124a.5.5,0,0,1-.5-.5.5.5,0,0,1,.5-.5h5.5v-5.5a.5.5,0,0,1,1,0Z"
                        transform="translate(-13.03 -10.77)" />
                    <path class="cls-6"
                        d="M2110,1116.8h-14a.5.5,0,0,1-.5-.5.5.5,0,0,1,.5-.5h14a.5.5,0,0,1,.5.5A.5.5,0,0,1,2110,1116.8Z"
                        transform="translate(-13.03 -10.77)" />
                    <path class="cls-6"
                        d="M2082,1116.8h-6.5v-6.5a.5.5,0,0,1,1,0v5.5h5.5a.5.5,0,0,1,.5.5A.5.5,0,0,1,2082,1116.8Z"
                        transform="translate(-13.03 -10.77)" />
                    <path class="cls-6"
                        d="M2076,1100.82a.5.5,0,0,1-.5-.5v-10a.5.5,0,0,1,1,0v10A.5.5,0,0,1,2076,1100.82Z"
                        transform="translate(-13.03 -10.77)" />
                    <path class="cls-6"
                        d="M2076,1080.88a.5.5,0,0,1-.5-.5v-6.5h6.5a.5.5,0,0,1,.5.5.5.5,0,0,1-.5.5h-5.5v5.5A.5.5,0,0,1,2076,1080.88Z"
                        transform="translate(-13.03 -10.77)" />
                    <path class="cls-6"
                        d="M2110,1074.88h-14a.5.5,0,0,1-.5-.5.5.5,0,0,1,.5-.5h14a.5.5,0,0,1,.5.5A.5.5,0,0,1,2110,1074.88Z"
                        transform="translate(-13.03 -10.77)" />
                    <path class="cls-6"
                        d="M2130,1080.88a.5.5,0,0,1-.5-.5v-5.5H2124a.5.5,0,0,1-.5-.5.5.5,0,0,1,.5-.5h6.5v6.5A.5.5,0,0,1,2130,1080.88Z"
                        transform="translate(-13.03 -10.77)" />
                    <path class="cls-6"
                        d="M2130,1100.82a.5.5,0,0,1-.5-.5v-10a.5.5,0,0,1,1,0v10A.5.5,0,0,1,2130,1100.82Z"
                        transform="translate(-13.03 -10.77)" />
                    <path class="cls-6"
                        d="M2211.45,1238.6H2223c8.34,0,14.06,5,14.06,12.76s-5.72,12.75-14.06,12.75h-11.59Zm11.29,20.66c5.07,0,8.38-3,8.38-7.9s-3.31-7.91-8.38-7.91h-5.39v15.81Z"
                        transform="translate(-13.03 -10.77)" />
                    <path class="cls-6"
                        d="M2239.94,1251.36c0-7.58,5.91-13.19,14-13.19s14,5.57,14,13.19-5.94,13.19-14,13.19S2239.94,1258.94,2239.94,1251.36Zm21.94,0a8,8,0,1,0-8,8.16A7.79,7.79,0,0,0,2261.88,1251.36Z"
                        transform="translate(-13.03 -10.77)" />
                    <path class="cls-6"
                        d="M2270.7,1251.36c0-7.69,5.9-13.19,13.84-13.19a13.2,13.2,0,0,1,10.5,4.51l-3.79,3.5a8.2,8.2,0,0,0-6.42-3,8.17,8.17,0,0,0,0,16.33,8.11,8.11,0,0,0,6.42-3l3.79,3.5c-2.41,3-6.09,4.56-10.53,4.56C2276.6,1264.55,2270.7,1259.05,2270.7,1251.36Z"
                        transform="translate(-13.03 -10.77)" />
                    <path class="cls-4"
                        d="M950.92,91.62V244.54a3.27,3.27,0,0,1-3.27,3.27H794.35a3.26,3.26,0,0,1-3.27-3.27V59.05a3.27,3.27,0,0,1,3.27-3.27H915.08Z"
                        transform="translate(-13.03 -10.77)" />
                    <path class="cls-5" d="M950.92,91.62H918.35a3.28,3.28,0,0,1-3.27-3.27V55.78Z"
                        transform="translate(-13.03 -10.77)" />
                    <rect class="cls-5" x="876.61" y="161.14" width="85.11" height="53.59" rx="3.7" />
                    <rect class="cls-6" x="798.58" y="102.62" width="117.47" height="3.23" />
                    <rect class="cls-6" x="798.58" y="124.39" width="117.47" height="3.23" />
                    <rect class="cls-6" x="798.58" y="146.17" width="117.47" height="3.23" />
                    <rect class="cls-6" x="798.58" y="167.94" width="58.74" height="3.23" />
                    <rect class="cls-6" x="798.58" y="189.72" width="58.74" height="3.23" />
                    <rect class="cls-6" x="798.58" y="211.5" width="58.74" height="3.23" />
                    <path class="cls-6" d="M849.57,106.05h-6.5a.5.5,0,0,1,0-1h5.5v-5.5a.5.5,0,0,1,.5-.5.5.5,0,0,1,.5.5Z"
                        transform="translate(-13.03 -10.77)" />
                    <path class="cls-6" d="M834.58,106.05h-8.49a.5.5,0,0,1,0-1h8.49a.5.5,0,0,1,0,1Z"
                        transform="translate(-13.03 -10.77)" />
                    <path class="cls-6"
                        d="M817.61,106.05h-6.5v-6.5a.5.5,0,0,1,.5-.5.5.5,0,0,1,.5.5v5.5h5.5a.5.5,0,0,1,0,1Z"
                        transform="translate(-13.03 -10.77)" />
                    <path class="cls-6"
                        d="M811.61,83a.5.5,0,0,1-.5-.5V76h6.5a.5.5,0,0,1,0,1h-5.5v5.5A.5.5,0,0,1,811.61,83Z"
                        transform="translate(-13.03 -10.77)" />
                    <path class="cls-6" d="M834.58,77h-8.49a.5.5,0,0,1,0-1h8.49a.5.5,0,0,1,0,1Z"
                        transform="translate(-13.03 -10.77)" />
                    <path class="cls-6"
                        d="M849.07,83a.5.5,0,0,1-.5-.5V77h-5.5a.5.5,0,0,1,0-1h6.5v6.5A.5.5,0,0,1,849.07,83Z"
                        transform="translate(-13.03 -10.77)" />
                    <path class="cls-6"
                        d="M905.54,190.4h8c5.79,0,9.76,3.49,9.76,8.85s-4,8.85-9.76,8.85h-8Zm7.84,14.33c3.51,0,5.81-2.1,5.81-5.48s-2.3-5.49-5.81-5.49h-3.74v11Z"
                        transform="translate(-13.03 -10.77)" />
                    <path class="cls-6"
                        d="M925.31,199.25c0-5.26,4.1-9.15,9.68-9.15s9.69,3.86,9.69,9.15-4.12,9.15-9.69,9.15S925.31,204.51,925.31,199.25Zm15.22,0a5.54,5.54,0,1,0-5.54,5.66A5.41,5.41,0,0,0,940.53,199.25Z"
                        transform="translate(-13.03 -10.77)" />
                    <path class="cls-6"
                        d="M946.65,199.25c0-5.34,4.09-9.15,9.6-9.15a9.12,9.12,0,0,1,7.28,3.13l-2.63,2.43a5.65,5.65,0,0,0-4.44-2.08,5.67,5.67,0,1,0,0,11.33,5.61,5.61,0,0,0,4.44-2.1l2.63,2.43a9.07,9.07,0,0,1-7.3,3.16C950.74,208.4,946.65,204.58,946.65,199.25Z"
                        transform="translate(-13.03 -10.77)" />
                    <path class="cls-4"
                        d="M300.5,739.24v273a8,8,0,0,1-8,8H21a8,8,0,0,1-8-8V682.77a8,8,0,0,1,8-8H236.06Z"
                        transform="translate(-13.03 -10.77)" />
                    <path class="cls-5" d="M300.5,739.24H244a8,8,0,0,1-8-8V674.8Z"
                        transform="translate(-13.03 -10.77)" />
                    <rect class="cls-5" x="177.26" y="872.88" width="153.08" height="96.38" rx="9.04" />
                    <path class="cls-6"
                        d="M246.67,927.36c0,7.29-5.47,11.82-14.2,11.82h-6.59v9h-7.56V915.5h14.15C241.2,915.5,246.67,920,246.67,927.36Zm-7.66,0c0-3.59-2.34-5.69-7-5.69h-6.17V933h6.17C236.67,933,239,930.91,239,927.36Z"
                        transform="translate(-13.03 -10.77)" />
                    <path class="cls-6"
                        d="M252,915.5h14.85c10.7,0,18,6.45,18,16.35s-7.33,16.34-18,16.34H252ZM266.52,942c6.49,0,10.74-3.87,10.74-10.13s-4.25-10.14-10.74-10.14h-6.91V942Z"
                        transform="translate(-13.03 -10.77)" />
                    <path class="cls-6" d="M298.19,921.57v8.64h15.13v6.07H298.19v11.91h-7.57V915.5h24.71v6.07Z"
                        transform="translate(-13.03 -10.77)" />
                    <rect class="cls-6" x="36.92" y="767.63" width="211.28" height="5.81" />
                    <rect class="cls-6" x="36.92" y="806.8" width="211.28" height="5.81" />
                    <rect class="cls-6" x="36.92" y="845.96" width="211.28" height="5.81" />
                    <rect class="cls-6" x="36.92" y="885.13" width="105.64" height="5.81" />
                    <rect class="cls-6" x="36.92" y="924.29" width="105.64" height="5.81" />
                    <rect class="cls-6" x="36.92" y="963.46" width="105.64" height="5.81" />
                    <path class="cls-6"
                        d="M117.82,764.81h-6.5a.51.51,0,0,1-.5-.5.5.5,0,0,1,.5-.5h5.5v-5.5a.5.5,0,0,1,.5-.5.5.5,0,0,1,.5.5Z"
                        transform="translate(-13.03 -10.77)" />
                    <path class="cls-6"
                        d="M100.25,764.81H89.17a.51.51,0,0,1-.5-.5.5.5,0,0,1,.5-.5h11.08a.5.5,0,0,1,.5.5A.51.51,0,0,1,100.25,764.81Zm-22.15,0H67a.5.5,0,0,1-.5-.5.5.5,0,0,1,.5-.5H78.1a.5.5,0,0,1,.5.5A.51.51,0,0,1,78.1,764.81Z"
                        transform="translate(-13.03 -10.77)" />
                    <path class="cls-6"
                        d="M56,764.81h-6.5v-6.5a.5.5,0,0,1,.5-.5.5.5,0,0,1,.5.5v5.5H56a.5.5,0,0,1,.5.5A.51.51,0,0,1,56,764.81Z"
                        transform="translate(-13.03 -10.77)" />
                    <path class="cls-6"
                        d="M50,745.37a.5.5,0,0,1-.5-.5V731.44a.5.5,0,0,1,.5-.5.5.5,0,0,1,.5.5v13.43A.5.5,0,0,1,50,745.37Z"
                        transform="translate(-13.03 -10.77)" />
                    <path class="cls-6"
                        d="M50,718.5a.5.5,0,0,1-.5-.5v-6.5H56a.51.51,0,0,1,.5.5.5.5,0,0,1-.5.5h-5.5V718A.5.5,0,0,1,50,718.5Z"
                        transform="translate(-13.03 -10.77)" />
                    <path class="cls-6"
                        d="M100.25,712.5H89.17a.5.5,0,0,1-.5-.5.51.51,0,0,1,.5-.5h11.08a.51.51,0,0,1,.5.5A.5.5,0,0,1,100.25,712.5Zm-22.15,0H67a.5.5,0,0,1-.5-.5.5.5,0,0,1,.5-.5H78.1a.51.51,0,0,1,.5.5A.5.5,0,0,1,78.1,712.5Z"
                        transform="translate(-13.03 -10.77)" />
                    <path class="cls-6"
                        d="M117.32,718.5a.5.5,0,0,1-.5-.5v-5.5h-5.5a.5.5,0,0,1-.5-.5.51.51,0,0,1,.5-.5h6.5V718A.5.5,0,0,1,117.32,718.5Z"
                        transform="translate(-13.03 -10.77)" />
                    <path class="cls-6"
                        d="M117.32,745.37a.5.5,0,0,1-.5-.5V731.44a.5.5,0,0,1,.5-.5.5.5,0,0,1,.5.5v13.43A.5.5,0,0,1,117.32,745.37Z"
                        transform="translate(-13.03 -10.77)" />
                    <path class="cls-4"
                        d="M1514.4,55.78V246.42a5.57,5.57,0,0,1-5.57,5.57H1319.19a5.58,5.58,0,0,1-5.57-5.57V16.34a5.58,5.58,0,0,1,5.57-5.57h150.2Z"
                        transform="translate(-13.03 -10.77)" />
                    <path class="cls-5" d="M1514.4,55.78H1475a5.56,5.56,0,0,1-5.57-5.56V10.77Z"
                        transform="translate(-13.03 -10.77)" />
                    <rect class="cls-5" x="1424.39" y="145.87" width="106.91" height="67.31" rx="6.32" />
                    <path class="cls-6"
                        d="M1476.8,187.17c0,5.09-3.82,8.25-9.91,8.25h-4.6v6.3H1457V178.88h9.89C1473,178.88,1476.8,182.05,1476.8,187.17Zm-5.35,0c0-2.51-1.63-4-4.86-4h-4.3v7.93h4.3C1469.82,191.12,1471.45,189.65,1471.45,187.17Z"
                        transform="translate(-13.03 -10.77)" />
                    <path class="cls-6"
                        d="M1480.55,178.88h10.38c7.47,0,12.59,4.51,12.59,11.42s-5.12,11.42-12.59,11.42h-10.38Zm10.12,18.5c4.53,0,7.5-2.71,7.5-7.08s-3-7.08-7.5-7.08h-4.83v14.16Z"
                        transform="translate(-13.03 -10.77)" />
                    <path class="cls-6" d="M1512.78,183.12v6h10.57v4.24h-10.57v8.32h-5.28V178.88h17.25v4.24Z"
                        transform="translate(-13.03 -10.77)" />
                    <rect class="cls-6" x="1326.38" y="72.36" width="147.56" height="4.05" />
                    <rect class="cls-6" x="1326.38" y="99.72" width="147.56" height="4.05" />
                    <rect class="cls-6" x="1326.38" y="127.07" width="147.56" height="4.05" />
                    <rect class="cls-6" x="1326.38" y="154.42" width="73.78" height="4.05" />
                    <rect class="cls-6" x="1326.38" y="181.78" width="73.78" height="4.05" />
                    <rect class="cls-6" x="1326.38" y="209.13" width="73.78" height="4.05" />
                    <path class="cls-6"
                        d="M1387,73.79h-6.5a.5.5,0,0,1-.5-.5.5.5,0,0,1,.5-.5h5.5v-5.5a.5.5,0,0,1,.5-.5.5.5,0,0,1,.5.5Z"
                        transform="translate(-13.03 -10.77)" />
                    <path class="cls-6"
                        d="M1368.78,73.79h-11.69a.51.51,0,0,1-.5-.5.5.5,0,0,1,.5-.5h11.69a.5.5,0,0,1,.5.5A.5.5,0,0,1,1368.78,73.79Z"
                        transform="translate(-13.03 -10.77)" />
                    <path class="cls-6"
                        d="M1345.41,73.79h-6.5v-6.5a.5.5,0,1,1,1,0v5.5h5.5a.5.5,0,0,1,.5.5A.5.5,0,0,1,1345.41,73.79Z"
                        transform="translate(-13.03 -10.77)" />
                    <path class="cls-6"
                        d="M1339.41,59.61a.5.5,0,0,1-.5-.5V50.94a.5.5,0,0,1,1,0v8.17A.5.5,0,0,1,1339.41,59.61Z"
                        transform="translate(-13.03 -10.77)" />
                    <path class="cls-6"
                        d="M1339.41,43.26a.5.5,0,0,1-.5-.5v-6.5h6.5a.5.5,0,0,1,0,1h-5.5v5.5A.5.5,0,0,1,1339.41,43.26Z"
                        transform="translate(-13.03 -10.77)" />
                    <path class="cls-6" d="M1368.78,37.26h-11.69a.5.5,0,0,1,0-1h11.69a.5.5,0,0,1,0,1Z"
                        transform="translate(-13.03 -10.77)" />
                    <path class="cls-6"
                        d="M1386.47,43.26a.5.5,0,0,1-.5-.5v-5.5h-5.5a.5.5,0,0,1,0-1h6.5v6.5A.5.5,0,0,1,1386.47,43.26Z"
                        transform="translate(-13.03 -10.77)" />
                    <path class="cls-6"
                        d="M1386.47,59.61a.5.5,0,0,1-.5-.5V50.94a.5.5,0,0,1,.5-.5.5.5,0,0,1,.5.5v8.17A.5.5,0,0,1,1386.47,59.61Z"
                        transform="translate(-13.03 -10.77)" />
                </g>
            </g>
            <g id="DEKSTOP">
                <path class="cls-9"
                    d="M1318.76,1769.09l-19.12-5.52a52.61,52.61,0,0,1-37.76-45.21L1251.6,1617.6H982.36l-10.27,100.76a52.61,52.61,0,0,1-37.76,45.21l-19.13,5.52a7,7,0,0,0-5.07,5.78,6.8,6.8,0,0,0,6.75,7.6h400.21a6.8,6.8,0,0,0,6.75-7.6A7,7,0,0,0,1318.76,1769.09Z"
                    transform="translate(-13.03 -10.77)" />
                <path class="cls-6"
                    d="M1780,743.71v828.81a41.8,41.8,0,0,1-41.79,41.79H495.81A41.8,41.8,0,0,1,454,1572.52V743.71a41.79,41.79,0,0,1,41.79-41.79H1738.16A41.79,41.79,0,0,1,1780,743.71Z"
                    transform="translate(-13.03 -10.77)" />
                <path class="cls-10"
                    d="M1754.85,713.57a19,19,0,0,1,19,19v851.08a19,19,0,0,1-19,19H479.12a19,19,0,0,1-19-19V732.57a19,19,0,0,1,19-19H1754.85m0-23.91H479.12a42.91,42.91,0,0,0-42.91,42.91v851.08a42.9,42.9,0,0,0,42.91,42.91H1754.85a42.91,42.91,0,0,0,42.91-42.91V732.57a42.91,42.91,0,0,0-42.91-42.91Z"
                    transform="translate(-13.03 -10.77)" />
                <path class="cls-10"
                    d="M1797.76,1502.27v81.38a42.91,42.91,0,0,1-42.91,42.91H479.12a42.91,42.91,0,0,1-42.91-42.91v-81.38Z"
                    transform="translate(-13.03 -10.77)" />
                <circle class="cls-6" cx="1116.98" cy="1564.42" r="24.13"
                    transform="translate(-659.43 2318.84) rotate(-77.93)" />
                <circle class="cls-4" cx="1103.96" cy="691.14" r="5.55" />
                <path class="cls-11"
                    d="M1754.85,716.43A16.16,16.16,0,0,1,1771,732.57V1499.4H463V732.57a16.16,16.16,0,0,1,16.14-16.14H1754.85m0-2.86H479.12a19,19,0,0,0-19,19v769.7H1773.85V732.57a19,19,0,0,0-19-19Z"
                    transform="translate(-13.03 -10.77)" />
                <path class="cls-11"
                    d="M1317.73,1782.47H917.39a6.73,6.73,0,0,1-6.73-6.73h0a6.73,6.73,0,0,1,6.73-6.73h400.34a6.73,6.73,0,0,1,6.73,6.73h0A6.73,6.73,0,0,1,1317.73,1782.47Z"
                    transform="translate(-13.03 -10.77)" />
                <g class="cls-12">
                    <polygon class="cls-13" points="968.42 1615.79 1239.49 1615.79 1244.75 1667.38 968.42 1615.79" />
                </g>
            </g>
            <g id="EMAIL">
                <path class="cls-4"
                    d="M615.19,705.66H1626.67a0,0,0,0,1,0,0v661.22a36.81,36.81,0,0,1-36.81,36.81H652a36.81,36.81,0,0,1-36.81-36.81V705.66A0,0,0,0,1,615.19,705.66Z" />
                <path class="cls-5" d="M600.68,640.52,972.25,326.66a187,187,0,0,1,241.24,0l370.18,312.54Z"
                    transform="translate(-13.03 -10.77)" />
                <path class="cls-4"
                    d="M1598.59,673.83v652.29a47.71,47.71,0,0,1-47.69,47.71H634.82a47.73,47.73,0,0,1-47.71-47.71V673.83a47.71,47.71,0,0,1,47.71-47.7H1550.9a47.71,47.71,0,0,1,47.69,47.7Z"
                    transform="translate(-13.03 -10.77)" />
                <path class="cls-5"
                    d="M1582.45,638.07,1176.74,938l-31-32A73.63,73.63,0,0,0,1040,906l-31,32L603.26,638.06a47.53,47.53,0,0,1,31.56-11.93H1550.9A47.46,47.46,0,0,1,1582.45,638.07Z"
                    transform="translate(-13.03 -10.77)" />
                <path class="cls-5" d="M1598.59,1295.29v30.83a47.52,47.52,0,0,1-13.74,33.5L1176.74,938Z"
                    transform="translate(-13.03 -10.77)" />
                <path class="cls-5" d="M1009,938,600.86,1359.62a47.53,47.53,0,0,1-13.75-33.5v-30.83Z"
                    transform="translate(-13.03 -10.77)" />
                <path class="cls-10"
                    d="M1583.67,639.17a47.81,47.81,0,0,1,10.94,15.52,47.28,47.28,0,0,1,4,18.56l0,38.22.07,76.45.12,152.88.08,305.77,0,76.44c0,1.6,0,3.19-.09,4.79a34.9,34.9,0,0,1-.4,4.79,37.84,37.84,0,0,1-.87,4.73,36.43,36.43,0,0,1-1.36,4.61,48,48,0,0,1-43.75,32.19c-1.61.12-3.19.07-4.79.08H1476l-76.45,0-305.77.08-305.76-.08-152.89,0a48.8,48.8,0,0,1-18.78-3.68,47.76,47.76,0,0,1-15.84-10.72,48.36,48.36,0,0,1-10.4-16,47,47,0,0,1-2.6-9.24,56,56,0,0,1-.78-9.58l0-76.44.09-305.77L587,789.84l.06-76.44,0-38.23a48.78,48.78,0,0,1,3.29-18.7,47.82,47.82,0,0,1,10.3-16,47.88,47.88,0,0,0-10.27,16,48.69,48.69,0,0,0-3.25,18.69l0,38.23.06,76.44.12,152.88.09,305.77,0,76.44a55.19,55.19,0,0,0,.77,9.45,46.58,46.58,0,0,0,2.57,9.11,47.57,47.57,0,0,0,10.25,15.8,46.9,46.9,0,0,0,15.61,10.55,48,48,0,0,0,18.49,3.61l152.89,0,305.76-.08,305.77.08,76.45,0h71.66c1.59,0,3.19,0,4.76-.08a47,47,0,0,0,18.32-4.33,47.46,47.46,0,0,0,24.79-27.34,35.44,35.44,0,0,0,1.33-4.55,34.64,34.64,0,0,0,.87-4.65,35.64,35.64,0,0,0,.4-4.72c.11-1.58.08-3.17.08-4.77l0-76.44.09-305.77.12-152.88.06-76.45,0-38.22a47.24,47.24,0,0,0-4-18.55A47.88,47.88,0,0,0,1583.67,639.17Z"
                    transform="translate(-13.03 -10.77)" />
                <polygon class="cls-10"
                    points="1571.82 1348.85 1520.63 1296.31 1469.55 1243.67 1367.41 1138.37 1265.5 1032.84 1214.55 980.07 1163.72 927.2 1214.91 979.73 1265.98 1032.38 1368.13 1137.68 1470.03 1243.2 1520.98 1295.97 1571.82 1348.85" />
                <polygon class="cls-10"
                    points="587.83 1348.85 638.67 1295.97 689.62 1243.2 791.53 1137.67 893.67 1032.38 944.75 979.73 995.94 927.2 945.1 980.07 894.15 1032.84 792.24 1138.37 690.1 1243.66 639.02 1296.31 587.83 1348.85" />
                <path class="cls-10"
                    d="M1158.8,1080.58a75.18,75.18,0,0,1,31.47,29.35q11,18.87,11,43.59a111.26,111.26,0,0,1-6.5,37.85q-6.49,18.12-18.86,29.35a41.51,41.51,0,0,1-28.85,11.24q-12.49,0-19.24-6.24t-7.74-17a55.92,55.92,0,0,1-19.61,17,53.18,53.18,0,0,1-25.1,6.24q-19,0-29.86-11.61T1034.65,1189a79.13,79.13,0,0,1,7.87-35,67,67,0,0,1,21.86-26.1,53.65,53.65,0,0,1,31.72-9.87q23.73,0,32,18l2.75-15.49h19.74l-12.49,72.19a56.41,56.41,0,0,0-.75,8.75q0,15,13.24,15,10,0,17.36-9.49t11.11-23.85a112,112,0,0,0,3.75-28.36q0-32.71-19.61-50.71t-55.33-18q-29.73,0-53.58,14.36a101.17,101.17,0,0,0-37.35,39.35q-13.49,25-13.49,55.2-.24,33,19.74,50.84t55.45,17.86q23.49,0,41.47-8.5l3,15.49q-22.24,9.24-49,9.24T1027,1269.81a73.71,73.71,0,0,1-31.48-29Q984.44,1222,984.44,1197q0-35.22,16.24-64.32a119.23,119.23,0,0,1,45.08-45.84q28.86-16.74,64.83-16.74Q1138.31,1070.09,1158.8,1080.58Zm-56,127a45.54,45.54,0,0,0,15-18,56.36,56.36,0,0,0,5.5-24.85q0-13-7.12-21.11t-20.11-8.12a33.32,33.32,0,0,0-21.11,7.12,46.53,46.53,0,0,0-14.11,18.73,60.28,60.28,0,0,0-5,24.11q0,13.24,6.75,21t19.48,7.75A35.49,35.49,0,0,0,1102.84,1207.61Z"
                    transform="translate(-13.03 -10.77)" />
                <path class="cls-10"
                    d="M600.68,640.52,836,441.35l117.69-99.53,14.71-12.44,3.68-3.11,3.76-3c2.47-2.07,5.09-3.95,7.68-5.86l1.94-1.43,2-1.34,4-2.68c2.7-1.75,5.49-3.37,8.23-5l4.24-2.32c1.42-.76,2.81-1.58,4.27-2.26,2.9-1.39,5.75-2.9,8.72-4.13a188.43,188.43,0,0,1,36.66-12,193,193,0,0,1,38.34-4.17,188.1,188.1,0,0,1,38.38,3.79l2.37.47c.78.16,1.56.37,2.35.55l4.69,1.13c1.57.35,3.1.87,4.65,1.29s3.1.88,4.64,1.35c6.12,2,12.19,4.16,18.08,6.76a188.44,188.44,0,0,1,33.65,18.83l3.89,2.86c1.29,1,2.61,1.89,3.84,2.92,2.49,2,5,4,7.47,6.11l14.71,12.44,117.72,99.5,235.33,199.12L1347.91,440.56l-117.83-99.37-14.73-12.42c-2.43-2.1-5-4.06-7.45-6.09-1.22-1-2.54-1.95-3.82-2.9l-3.88-2.84a186.94,186.94,0,0,0-33.5-18.71c-5.86-2.58-11.91-4.71-18-6.7-1.53-.47-3.08-.89-4.62-1.34s-3.06-.93-4.63-1.28l-4.67-1.12c-.78-.18-1.55-.39-2.34-.55l-2.35-.46a187.58,187.58,0,0,0-38.18-3.73,191.87,191.87,0,0,0-38.15,4.11A187.42,187.42,0,0,0,1017.27,299c-3,1.22-5.79,2.73-8.68,4.11-1.46.67-2.84,1.48-4.25,2.24l-4.22,2.3c-2.74,1.66-5.51,3.27-8.2,5l-4,2.67-2,1.33L984,318.09c-2.58,1.9-5.19,3.76-7.65,5.82l-3.74,3L968.91,330l-14.72,12.42-117.8,99.4Z"
                    transform="translate(-13.03 -10.77)" />
                <polygon class="cls-4"
                    points="1426.85 733.14 743.79 719.58 743.79 314.35 1486.3 314.35 1486.3 688.76 1426.85 733.14" />
                <polygon class="cls-10"
                    points="744.29 719.58 743.29 719.58 743.29 313.85 1486.8 313.85 1486.8 688.76 1485.8 688.76 1485.8 314.85 744.29 314.85 744.29 719.58" />
                <path class="cls-6"
                    d="M1464.1,498.38V725.57L1176.74,938l-27.22-28.12a78.87,78.87,0,0,0-113.34,0L1009,938,721.6,725.57v-366h603.71Z"
                    transform="translate(-13.03 -10.77)" />
                <polygon class="cls-5" points="1451.08 487.6 1312.28 487.6 1312.28 348.81 1451.08 487.6" />
                <polygon class="cls-10"
                    points="1451.58 714.79 1450.58 714.79 1450.58 487.81 1312.08 349.31 709.07 349.31 709.07 714.79 708.07 714.79 708.07 348.31 1312.49 348.31 1451.58 487.4 1451.58 714.79" />
                <path class="cls-10"
                    d="M874.91,515.71h-87.3a13.5,13.5,0,0,1-13.48-13.49V414.93a13.5,13.5,0,0,1,13.48-13.49h87.3a13.5,13.5,0,0,1,13.48,13.49v87.29A13.5,13.5,0,0,1,874.91,515.71Z"
                    transform="translate(-13.03 -10.77)" />
                <polygon class="cls-6"
                    points="805.87 478.32 778.05 450.5 786.56 442 805.87 461.31 849.91 417.28 858.41 425.79 805.87 478.32" />
                <rect class="cls-5" x="903.41" y="413.61" width="332.37" height="24.51" />
                <rect class="cls-4" x="903.41" y="457.49" width="234.59" height="24.51" />
                <path class="cls-10"
                    d="M874.91,656.32h-87.3a13.5,13.5,0,0,1-13.48-13.49V555.54a13.5,13.5,0,0,1,13.48-13.49h87.3a13.5,13.5,0,0,1,13.48,13.49v87.29A13.5,13.5,0,0,1,874.91,656.32Z"
                    transform="translate(-13.03 -10.77)" />
                <polygon class="cls-6"
                    points="805.87 618.93 778.05 591.11 786.56 582.61 805.87 601.92 849.91 557.89 858.41 566.39 805.87 618.93" />
                <rect class="cls-5" x="903.41" y="554.21" width="332.37" height="24.51" />
                <rect class="cls-4" x="903.41" y="598.1" width="234.59" height="24.51" />
                <polygon class="cls-10"
                    points="995.94 927.19 945.09 889.89 894.32 852.48 792.8 777.63 691.45 702.55 640.79 664.98 590.23 627.29 641.1 664.57 691.86 701.99 793.38 776.85 894.71 851.96 945.37 889.52 995.94 927.19" />
                <polygon class="cls-10"
                    points="1569.42 627.3 1518.86 664.99 1468.2 702.55 1366.86 777.64 1265.33 852.48 1214.57 889.9 1163.71 927.19 1214.29 889.52 1264.94 851.96 1366.28 776.85 1467.79 701.99 1518.55 664.58 1569.42 627.3" />
                <path class="cls-10"
                    d="M1176.74,938l-18-18.22c-6-6-11.66-12.51-18.48-17.58a86.58,86.58,0,0,0-10.75-6.81,77.13,77.13,0,0,0-11.69-5,79.19,79.19,0,0,0-50,0,76.6,76.6,0,0,0-11.69,5,85.24,85.24,0,0,0-10.74,6.8c-6.82,5.07-12.44,11.57-18.48,17.58L1009,938l17.62-18.56,8.84-9.24a88.29,88.29,0,0,1,9.52-8.61,78.84,78.84,0,0,1,95.8,0,88.29,88.29,0,0,1,9.52,8.61l8.85,9.24Z"
                    transform="translate(-13.03 -10.77)" />
            </g>
            <g id="FRONT">
                <rect class="cls-14" x="126.5" y="1770.2" width="1906.93" height="3" />
                <polygon class="cls-10"
                    points="188.53 551.78 169.17 477.53 101.81 439.3 426.66 349.72 282.78 544.87 228.09 514.5 188.53 551.78" />
                <polygon class="cls-9" points="426.66 349.72 169.17 477.53 188.53 551.78 201.84 499.68 426.66 349.72" />
                <polygon class="cls-15" points="228.09 514.5 201.84 499.68 188.53 551.78 228.09 514.5" />
                <path class="cls-6"
                    d="M1645.22,708a30.84,30.84,0,0,1,56,22.84l11.49,7.95-16.07,3.26a30.84,30.84,0,1,1-51.42-34Z"
                    transform="translate(-13.03 -10.77)" />
                <path class="cls-10"
                    d="M1712.71,738.8c-.93-.71-1.87-1.4-2.81-2.08s-1.9-1.35-2.86-2-1.91-1.32-2.88-2-2-1.28-2.94-1.9c.93.71,1.87,1.4,2.81,2.08s1.9,1.35,2.86,2,1.91,1.32,2.88,2S1711.72,738.18,1712.71,738.8Z"
                    transform="translate(-13.03 -10.77)" />
                <path class="cls-10"
                    d="M1696.64,742.06c1.35-.21,2.7-.45,4-.7s2.68-.52,4-.79,2.68-.55,4-.85,2.67-.59,4-.92c-1.35.22-2.7.46-4,.71s-2.68.52-4,.79-2.68.55-4,.84S1698,741.74,1696.64,742.06Z"
                    transform="translate(-13.03 -10.77)" />
                <path class="cls-10"
                    d="M1701.22,730.85a31.46,31.46,0,0,0,.58-5.64,32.4,32.4,0,0,0-.47-5.65,31.06,31.06,0,0,0-4-10.6,30.74,30.74,0,0,0-7.54-8.45,31.16,31.16,0,0,0-10.08-5.19,30.25,30.25,0,0,0-5.59-1.12,30.91,30.91,0,0,0-5.69-.07,31.3,31.3,0,0,0-11,2.94,31.35,31.35,0,0,0-15.32,16.24,30.93,30.93,0,0,0,54.46,28.75,30.84,30.84,0,0,1-29.33,13.47,30.66,30.66,0,0,1-10.71-3.37,31.43,31.43,0,0,1-8.78-7,30.47,30.47,0,0,1-5.69-9.67,30.79,30.79,0,0,1,.44-22,29.57,29.57,0,0,1,2.6-5,31.67,31.67,0,0,1,3.46-4.44,30.31,30.31,0,0,1,9-6.63,30.71,30.71,0,0,1,32,3.31,30.45,30.45,0,0,1,7.52,8.35,30.75,30.75,0,0,1,4,10.5,30.56,30.56,0,0,1,0,11.28Z"
                    transform="translate(-13.03 -10.77)" />
                <polygon class="cls-10"
                    points="1654.81 722.81 1647.45 715.45 1649.7 713.2 1654.81 718.31 1666.46 706.65 1668.71 708.9 1654.81 722.81" />
                <path class="cls-13"
                    d="M77.3,944.57a.5.5,0,0,1-.48-.37c-1-3.85-1.92-7.8-2.69-11.73a.51.51,0,0,1,.4-.59.51.51,0,0,1,.59.4c.76,3.91,1.65,7.83,2.66,11.66a.48.48,0,0,1-.35.61ZM72.73,921a.51.51,0,0,1-.5-.44c-.5-4-.88-8-1.13-12a.52.52,0,0,1,.47-.53.5.5,0,0,1,.53.47c.25,4,.63,8,1.12,11.91a.49.49,0,0,1-.43.56Zm-1.48-23.94h0a.5.5,0,0,1-.5-.5c0-4,.14-8,.4-12a.5.5,0,0,1,.54-.46.49.49,0,0,1,.46.53c-.26,4-.39,8-.4,12A.51.51,0,0,1,71.25,897.09Zm1.57-23.94h-.07a.51.51,0,0,1-.43-.56c.51-4,1.16-8,1.92-11.88a.5.5,0,1,1,1,.2c-.76,3.89-1.4,7.87-1.91,11.81A.5.5,0,0,1,72.82,873.15Zm4.57-23.54h-.12a.51.51,0,0,1-.36-.62c1-3.86,2.16-7.74,3.42-11.53a.5.5,0,0,1,.63-.32.5.5,0,0,1,.31.63c-1.24,3.77-2.39,7.63-3.39,11.48A.5.5,0,0,1,77.39,849.61Zm7.55-22.76a.39.39,0,0,1-.18,0,.5.5,0,0,1-.28-.65c.7-1.73,1.44-3.46,2.2-5.18a53.06,53.06,0,0,1-7.62-4.31.5.5,0,0,1-.13-.7.49.49,0,0,1,.69-.13,53.52,53.52,0,0,0,7.46,4.23c.74-1.65,1.51-3.29,2.29-4.9a.5.5,0,0,1,.9.43Q89.1,818,88,820.48c.7.31,1.41.61,2.13.89a.5.5,0,0,1,.28.65.51.51,0,0,1-.65.28c-.73-.29-1.45-.59-2.16-.91q-1.14,2.57-2.18,5.15A.51.51,0,0,1,84.94,826.85Zm24.48-.77a51.63,51.63,0,0,1-8-.63.5.5,0,1,1,.15-1,50.87,50.87,0,0,0,11.85.44.5.5,0,0,1,.54.46.5.5,0,0,1-.46.54C112.16,826,110.79,826.08,109.42,826.08Zm15.73-2.72a.51.51,0,0,1-.47-.33.5.5,0,0,1,.3-.64,38.12,38.12,0,0,0,10.31-5.72.5.5,0,0,1,.7.09.5.5,0,0,1-.08.7,39.48,39.48,0,0,1-10.59,5.87A.51.51,0,0,1,125.15,823.36ZM70.33,808.87a.49.49,0,0,1-.37-.16A60.53,60.53,0,0,1,62.81,799a.5.5,0,1,1,.86-.51,59.13,59.13,0,0,0,7,9.57.49.49,0,0,1,0,.7A.46.46,0,0,1,70.33,808.87Zm73.16-.25a.57.57,0,0,1-.25-.06.51.51,0,0,1-.18-.69,23,23,0,0,0,3.35-11.12.5.5,0,0,1,.5-.49h0a.5.5,0,0,1,.49.5,24.07,24.07,0,0,1-3.48,11.62A.52.52,0,0,1,143.49,808.62Zm-48.07-3.34a.59.59,0,0,1-.25-.07.49.49,0,0,1-.18-.68l.2-.36a93.92,93.92,0,0,1,6.35-9.76.5.5,0,0,1,.7-.1.51.51,0,0,1,.1.7,93.09,93.09,0,0,0-6.28,9.66l-.21.35A.49.49,0,0,1,95.42,805.28ZM58.1,788.4a.5.5,0,0,1-.47-.33,76.11,76.11,0,0,1-3.27-11.61.5.5,0,0,1,1-.2,74.29,74.29,0,0,0,3.23,11.47.51.51,0,0,1-.3.64Zm52.06-1.89a.5.5,0,0,1-.31-.89A33.79,33.79,0,0,1,117.3,781a24.68,24.68,0,0,1,3.23-1.14.51.51,0,0,1,.62.35.5.5,0,0,1-.35.61,24.19,24.19,0,0,0-3.1,1.1,32.33,32.33,0,0,0-7.22,4.44A.5.5,0,0,1,110.16,786.51Zm32.73-.26a.51.51,0,0,1-.38-.16,18.62,18.62,0,0,0-10.07-5.55.49.49,0,0,1-.38-.59.5.5,0,0,1,.59-.39,19.67,19.67,0,0,1,10.61,5.86.5.5,0,0,1-.37.83ZM53.36,765a.5.5,0,0,1-.5-.47c-.09-1.63-.14-3.3-.14-5,0-2.35.09-4.74.28-7.1a.49.49,0,0,1,.53-.46.5.5,0,0,1,.46.54c-.18,2.33-.27,4.7-.27,7,0,1.64.05,3.29.13,4.9a.5.5,0,0,1-.47.53Zm1.82-23.86h-.1a.5.5,0,0,1-.39-.59,119.39,119.39,0,0,1,3-11.66.5.5,0,0,1,.63-.32.49.49,0,0,1,.33.62,117.41,117.41,0,0,0-3,11.56A.51.51,0,0,1,55.18,741.1Zm7.16-22.87a.48.48,0,0,1-.2,0,.51.51,0,0,1-.27-.65c1.48-3.55,3.17-7.23,5-10.94a.5.5,0,0,1,.67-.22.5.5,0,0,1,.22.67c-1.85,3.69-3.53,7.34-5,10.87A.51.51,0,0,1,62.34,718.23ZM73,696.76a.5.5,0,0,1-.24-.06.51.51,0,0,1-.19-.69c1.9-3.31,3.93-6.68,6.2-10.29a.5.5,0,0,1,.85.53c-2.27,3.61-4.29,7-6.18,10.26A.5.5,0,0,1,73,696.76Zm12.74-20.34a.48.48,0,0,1-.28-.08.5.5,0,0,1-.14-.69c2.21-3.31,4.49-6.65,6.78-9.92a.5.5,0,0,1,.69-.13.51.51,0,0,1,.13.7c-2.29,3.27-4.56,6.6-6.77,9.9A.47.47,0,0,1,85.77,676.42Zm13.74-19.67a.5.5,0,0,1-.4-.8c2.34-3.21,4.76-6.45,7.18-9.62a.5.5,0,1,1,.79.6c-2.41,3.17-4.82,6.4-7.17,9.61A.48.48,0,0,1,99.51,656.75Zm14.55-19.09a.45.45,0,0,1-.31-.11.49.49,0,0,1-.08-.7c2.47-3.11,5-6.25,7.57-9.32a.51.51,0,0,1,.71-.06.49.49,0,0,1,.06.7c-2.54,3.07-5.09,6.2-7.56,9.3A.49.49,0,0,1,114.06,637.66Zm15.33-18.46a.52.52,0,0,1-.33-.12.51.51,0,0,1-.05-.71c2.6-3,5.28-6,8-9a.5.5,0,1,1,.74.67c-2.68,3-5.35,6-7.94,9A.52.52,0,0,1,129.39,619.2Zm16.08-17.81a.47.47,0,0,1-.34-.14.49.49,0,0,1,0-.7c2.73-2.9,5.53-5.82,8.33-8.66a.49.49,0,0,1,.7,0,.5.5,0,0,1,0,.71c-2.79,2.84-5.58,5.75-8.31,8.64A.49.49,0,0,1,145.47,601.39Z"
                    transform="translate(-13.03 -10.77)" />
                <polygon class="cls-10"
                    points="1852.09 263.12 1862.49 212.54 1906.41 184.46 1684.92 135.71 1788.5 261.8 1824.19 239.46 1852.09 263.12" />
                <polygon class="cls-9"
                    points="1684.92 135.71 1862.49 212.54 1852.09 263.12 1841.31 228.57 1684.92 135.71" />
                <polygon class="cls-15" points="1824.19 239.46 1841.31 228.57 1852.09 263.12 1824.19 239.46" />
                <path class="cls-13"
                    d="M2013.79,482.65a.49.49,0,0,1-.5-.45c-.33-3.95-.86-7.93-1.58-11.85a.5.5,0,1,1,1-.18c.73,3.95,1.26,8,1.6,11.94a.5.5,0,0,1-.46.54Zm-4.31-23.57a.51.51,0,0,1-.49-.36c-1.08-3.82-2.36-7.63-3.79-11.33a.49.49,0,0,1,.28-.65.51.51,0,0,1,.65.29c1.45,3.73,2.74,7.57,3.83,11.42a.5.5,0,0,1-.35.61A.3.3,0,0,1,2009.48,459.08Zm-8.68-22.34a.51.51,0,0,1-.45-.27c-1.78-3.55-3.75-7.06-5.85-10.42a.49.49,0,0,1,.16-.69.51.51,0,0,1,.69.16c2.12,3.39,4.1,6.92,5.9,10.5a.5.5,0,0,1-.23.67A.44.44,0,0,1,2000.8,436.74Zm-34.12-16.19a.5.5,0,0,1-.49-.43.5.5,0,0,1,.43-.56,33.27,33.27,0,0,0,11.19-3.62.5.5,0,0,1,.68.21.5.5,0,0,1-.21.67,34.31,34.31,0,0,1-11.53,3.73Zm-11.87-.93a.36.36,0,0,1-.14,0,25.5,25.5,0,0,1-3.22-1.24,21.21,21.21,0,0,1-7-5.26.51.51,0,0,1,0-.71.5.5,0,0,1,.71.05,20.14,20.14,0,0,0,6.67,5,24.09,24.09,0,0,0,3.09,1.2.49.49,0,0,1,.33.62A.48.48,0,0,1,1954.81,419.62Zm33.27-3.18a.51.51,0,0,1-.4-.2c-2.43-3.16-5-6.22-7.74-9.1a.49.49,0,0,1,0-.7.5.5,0,0,1,.71,0c2.72,2.9,5.35,6,7.8,9.17a.5.5,0,0,1-.09.7A.5.5,0,0,1,1988.08,416.44Zm-.51-6.77a.49.49,0,0,1-.36-.84,33.26,33.26,0,0,0,5.13-7c.48-.9.94-1.83,1.35-2.78a.52.52,0,0,1,.66-.26.5.5,0,0,1,.26.66c-.43,1-.9,1.93-1.39,2.85a34.32,34.32,0,0,1-5.28,7.26A.51.51,0,0,1,1987.57,409.67Zm-46-7.48h-.11a.5.5,0,0,1-.37-.61c.9-3.81,3.87-7,8.16-8.81a.51.51,0,0,1,.65.27.52.52,0,0,1-.27.66c-4,1.65-6.74,4.61-7.57,8.11A.51.51,0,0,1,1941.56,402.19Zm30-3.13a.45.45,0,0,1-.31-.11,30.91,30.91,0,0,0-10.25-5.71.5.5,0,1,1,.28-1,31.73,31.73,0,0,1,10.59,5.89.5.5,0,0,1-.31.89Zm25.73-10.88h-.07a.51.51,0,0,1-.43-.56,48.36,48.36,0,0,0,.4-6.18,52.19,52.19,0,0,0-.32-5.68.5.5,0,0,1,.45-.55.51.51,0,0,1,.55.45,53.74,53.74,0,0,1,.32,5.78,48.7,48.7,0,0,1-.41,6.31A.49.49,0,0,1,1997.32,388.18Zm-2.44-23.68a.51.51,0,0,1-.48-.35,60.88,60.88,0,0,0-3.52-8.62c-.38-.77-.78-1.54-1.19-2.29a.5.5,0,0,1,.2-.68.51.51,0,0,1,.68.2c.41.77.82,1.54,1.21,2.32a63.33,63.33,0,0,1,3.57,8.76.49.49,0,0,1-.32.63Zm-11.26-21.07a.51.51,0,0,1-.4-.2,105.93,105.93,0,0,0-7.69-9.13.5.5,0,0,1,.73-.69,109.49,109.49,0,0,1,7.76,9.22.5.5,0,0,1-.1.7A.54.54,0,0,1,1983.62,343.43Zm-16.27-17.6a.46.46,0,0,1-.33-.13c-2.24-2.06-4.69-4.22-7.47-6.59L1958,317.8a.5.5,0,1,1,.64-.76l1.54,1.3c2.8,2.39,5.26,4.55,7.5,6.62a.5.5,0,0,1,0,.71A.52.52,0,0,1,1967.35,325.83ZM1949,310.33a.56.56,0,0,1-.32-.11c-3.1-2.46-6.3-4.91-9.51-7.29a.5.5,0,0,1-.1-.7.51.51,0,0,1,.7-.1c3.21,2.38,6.42,4.84,9.54,7.31a.5.5,0,0,1,.08.7A.52.52,0,0,1,1949,310.33ZM1929.76,296a.51.51,0,0,1-.28-.09c-3.27-2.27-6.61-4.52-9.94-6.69a.49.49,0,0,1-.15-.69.5.5,0,0,1,.69-.14c3.34,2.17,6.69,4.42,10,6.7a.5.5,0,0,1,.12.7A.48.48,0,0,1,1929.76,296ZM1909.65,283a.48.48,0,0,1-.26-.07c-3.4-2.07-6.88-4.1-10.34-6.06a.5.5,0,1,1,.49-.87c3.47,2,7,4,10.37,6.07a.51.51,0,0,1,.17.69A.52.52,0,0,1,1909.65,283Z"
                    transform="translate(-13.03 -10.77)" />
            </g>
        </g>
    </g>
</svg>