<svg xmlns="http://www.w3.org/2000/svg" viewBox="0 0 1578.19 2085.47"><defs><style>.cls-1{fill:#fff;}.cls-2{fill:#eb612e;}.cls-3{fill:#495058;}.cls-4{fill:#aab5bf;}.cls-5{fill:#94cba7;}.cls-6{fill:#e4e5e4;}.cls-7{fill:#8d9093;}.cls-8{fill:none;stroke:#e4e5e3;stroke-miterlimit:10;stroke-width:1.22px;}</style></defs><g id="Capa_2" data-name="Capa 2"><g id="Capa_1-2" data-name="Capa 1"><rect class="cls-1" width="1578.19" height="2085.47"/><rect class="cls-2" x="60.81" y="679.45" width="1454.02" height="70.22"/><rect class="cls-2" x="60.47" y="419.48" width="727.18" height="31.21" rx="8.17"/><rect class="cls-3" x="1348.8" y="428.22" width="166.03" height="23.09"/><rect class="cls-3" x="60.47" y="335.53" width="285.25" height="39.68"/><rect class="cls-4" x="60.47" y="61.2" width="406.35" height="238.44" rx="58.6"/><rect class="cls-3" x="60.47" y="511.04" width="120.78" height="13.89"/><rect class="cls-3" x="60.81" y="541.43" width="201.3" height="18.8"/><rect class="cls-3" x="60.81" y="576.74" width="699.38" height="18.8"/><rect class="cls-5" x="60.47" y="611.01" width="215.18" height="18.8"/><rect class="cls-6" x="1259.85" y="504.37" width="24.34" height="121.72" rx="4.81"/><rect class="cls-6" x="1307.71" y="504.37" width="24.34" height="121.72" rx="4.81"/><rect class="cls-6" x="1354.73" y="506.24" width="24.34" height="121.72" rx="4.81"/><rect class="cls-6" x="1403" y="506.24" width="24.34" height="121.72" rx="4.81"/><rect class="cls-3" x="60.81" y="1226.56" width="936.57" height="24.97"/><rect class="cls-5" x="60.47" y="1266.5" width="307.1" height="22.47"/><rect class="cls-3" x="60.81" y="1303.96" width="471.91" height="24.97"/><rect class="cls-3" x="1251.42" y="1274.62" width="237.83" height="24.97"/><rect class="cls-7" x="1317.59" y="1316.13" width="101.12" height="16.85"/><rect class="cls-3" x="1403" y="1097.66" width="110.38" height="20.91"/><line class="cls-8" x1="60.81" y1="824.58" x2="1514.83" y2="824.58"/><line class="cls-8" x1="60.64" y1="893.4" x2="1514.66" y2="893.4"/><line class="cls-8" x1="62.09" y1="966.88" x2="1516.11" y2="966.88"/><line class="cls-8" x1="60.64" y1="1040.37" x2="1514.66" y2="1040.37"/><rect class="cls-7" x="120.71" y="778.7" width="42.13" height="16.85"/><rect class="cls-7" x="492.1" y="778.7" width="247.49" height="16.85"/><rect class="cls-7" x="518.63" y="853.6" width="194.43" height="16.85"/><rect class="cls-7" x="518.63" y="924.05" width="194.43" height="16.85"/><rect class="cls-7" x="550.62" y="995.2" width="130.46" height="16.85"/><rect class="cls-7" x="120.71" y="850.56" width="42.13" height="16.85"/><rect class="cls-7" x="120.71" y="924.05" width="42.13" height="16.85"/><rect class="cls-7" x="120.71" y="995.2" width="42.13" height="16.85"/><rect class="cls-7" x="1088.82" y="778.7" width="102.05" height="16.85"/><rect class="cls-7" x="1088.82" y="853.6" width="102.05" height="16.85"/><rect class="cls-7" x="1088.82" y="924.05" width="102.05" height="16.85"/><rect class="cls-7" x="1088.82" y="995.2" width="102.05" height="16.85"/><rect class="cls-7" x="1332.05" y="995.2" width="102.05" height="16.85"/><rect class="cls-7" x="1332.05" y="924.05" width="102.05" height="16.85"/><rect class="cls-7" x="1332.05" y="853.6" width="102.05" height="16.85"/><rect class="cls-7" x="1332.05" y="778.7" width="102.05" height="16.85"/></g></g></svg>