<svg xmlns="http://www.w3.org/2000/svg" xmlns:xlink="http://www.w3.org/1999/xlink" viewBox="0 0 1967.1 1894.56"><defs><style>.cls-1{fill:none;clip-rule:evenodd;}.cls-2{clip-path:url(#clip-path);}.cls-3{fill:#7cb928;}.cls-4{fill:#ec612f;}.cls-5{fill:#fbba10;}.cls-6{fill:#3a9cd7;}</style><clipPath id="clip-path" transform="translate(26.34 -1.75)"><path class="cls-1" d="M1187,1042.17c-115,91.5-203.89,213.15-291.65,331.21,203.36,95.25,145.88,603.7,392.82,541.2,463.45-167.25,1015.26-2081,257.64-1902.89C1253.19,99.45,1054,471.1,574.93,410.56c-46.89-10.33-55.5-14.27,1.62-22.64,147.58-18.21,300.72-57.61,392.55-120-220.71-32.44-555-330.44-810.73-201.5-310,156.32-103.83,969.29,100.26,1412,94.53,205.06,141.29,262.49,213.05,262.91,143.57.84,369.27-589.17,678.77-713.67,66.66-26.87,69.89-10.16,36.52,14.52"/></clipPath></defs><title>isotipo-dental</title><g id="Capa_2" data-name="Capa 2"><g id="Capa_1-2" data-name="Capa 1"><g class="cls-2"><path class="cls-3" d="M544.46,502.48H18c-24.49,0-44.32,23.2-44.32,51.75v941.06c0,28.59,19.83,51.8,44.32,51.8H544.46c24.45,0,44.28-23,44.28-51.8V554.23C588.74,525.68,568.91,502.48,544.46,502.48Z" transform="translate(26.34 -1.75)"/><path class="cls-4" d="M544.46,1.75H18c-24.49,0-44.32,23-44.32,51.84V379.28c0,28.63,19.83,51.84,44.32,51.84H544.46c24.45,0,44.28-23,44.28-51.84V53.59C588.74,24.77,568.91,1.75,544.46,1.75Z" transform="translate(26.34 -1.75)"/><path class="cls-5" d="M544.46,1618.36H18c-24.49,0-44.32,23-44.32,51.79v174.36c0,28.59,19.83,51.79,44.32,51.79H544.46c24.45,0,44.28-23,44.28-51.79V1670.15C588.74,1641.56,568.91,1618.36,544.46,1618.36Z" transform="translate(26.34 -1.75)"/><path class="cls-6" d="M1220.48,1.75H694c-24.5,0-44.32,23-44.32,51.84V1226.42c0,28.64,19.82,51.84,44.32,51.84h526.48c24.45,0,44.27-23,44.27-51.84V53.59C1264.75,24.77,1244.93,1.75,1220.48,1.75Z" transform="translate(26.34 -1.75)"/><path class="cls-3" d="M1896.49,1.75H1370c-24.45,0-44.27,23-44.27,51.84V854.41c0,28.64,19.82,51.84,44.27,51.84h526.53c24.45,0,44.28-23,44.28-51.84V53.59C1940.77,24.77,1920.94,1.75,1896.49,1.75Z" transform="translate(26.34 -1.75)"/><path class="cls-5" d="M1896.49,977.52H1370c-24.45,0-44.27,23-44.27,51.8v815.19c0,28.59,19.82,51.79,44.27,51.79h526.53c24.45,0,44.28-23,44.28-51.79V1029.32C1940.77,1000.82,1920.94,977.52,1896.49,977.52Z" transform="translate(26.34 -1.75)"/><path class="cls-4" d="M1220.48,1349.39H694c-24.5,0-44.32,23-44.32,51.84v443.28c0,28.59,19.82,51.79,44.32,51.79h526.48c24.45,0,44.27-23,44.27-51.79V1401.37C1264.75,1372.6,1244.93,1349.39,1220.48,1349.39Z" transform="translate(26.34 -1.75)"/></g></g></g></svg>