<svg xmlns="http://www.w3.org/2000/svg" viewBox="0 0 1781.13 430.88">
    <defs>
        <style>
            .cls-1 {
                fill: #111827;
            }
        </style>
    </defs>
    <g id="Capa_2" data-name="Capa 2">
        <g id="Capa_4" data-name="Capa 4">
            <g id="keoplanner">
                <path class="cls-1"
                    d="M126.62,113.88H9.83C4.4,113.88,0,119.16,0,125.67v214c0,6.51,4.4,11.79,9.83,11.79H126.62c5.43,0,9.83-5.28,9.83-11.79v-214C136.45,119.16,132.05,113.88,126.62,113.88Z" />
                <path class="cls-1"
                    d="M126.62,0H9.83C4.4,0,0,5.28,0,11.79v74.1C0,92.4,4.4,97.68,9.83,97.68H126.62c5.43,0,9.83-5.28,9.83-11.79V11.79C136.45,5.28,132.05,0,126.62,0Z" />
                <path class="cls-1"
                    d="M126.62,367.66H9.83C4.4,367.66,0,372.94,0,379.45v39.64c0,6.51,4.4,11.79,9.83,11.79H126.62c5.43,0,9.83-5.28,9.83-11.79V379.45C136.45,372.94,132.05,367.66,126.62,367.66Z" />
                <path class="cls-1"
                    d="M276.59,0H159.79C154.36,0,150,5.28,150,11.79V278.51c0,6.51,4.4,11.78,9.83,11.78h116.8c5.42,0,9.82-5.27,9.82-11.78V11.79C286.41,5.28,282,0,276.59,0Z" />
                <path class="cls-1"
                    d="M426.55,0H309.75c-5.42,0-9.83,5.28-9.83,11.79V193.92c0,6.51,4.41,11.79,9.83,11.79h116.8c5.43,0,9.83-5.28,9.83-11.79V11.79C436.38,5.28,432,0,426.55,0Z" />
                <path class="cls-1"
                    d="M426.55,221.91H309.75c-5.42,0-9.83,5.28-9.83,11.79V419.09c0,6.51,4.41,11.79,9.83,11.79h116.8c5.43,0,9.83-5.28,9.83-11.79V233.7C436.38,227.19,432,221.91,426.55,221.91Z" />
                <path class="cls-1"
                    d="M276.59,306.5H159.79c-5.43,0-9.83,5.27-9.83,11.78V419.09c0,6.51,4.4,11.79,9.83,11.79h116.8c5.42,0,9.82-5.28,9.82-11.79V318.28C286.41,311.77,282,306.5,276.59,306.5Z" />
                <path class="cls-1"
                    d="M616.47,145.8H520.7c-16.19,0-29,14.11-29,30.27v18.65h0v81.69h0V427.77h57.61V327.43h71.32c56.4,0,86.67-35.26,86.67-90.82C707.28,177.72,676.17,145.8,616.47,145.8ZM606.09,276.41h-56.8V194.72H609c26.93,0,40.6,13.67,40.6,41.05S635.12,276.82,606.09,276.41Z" />
                <path class="cls-1" d="M761.6,145.8H733v282h55.16v-255C788.13,158.22,776.11,145.8,761.6,145.8Z" />
                <path class="cls-1"
                    d="M906.28,200.5c-50.61,0-79.19,19.9-85.83,60.54h55.16c2.89-10.37,13.67-15.35,33.17-15.35,22.79,0,34.41,6.23,35.66,18.65,0,12.06-12,19.1-35.66,22-55.56,5.39-93.71,19.5-95,72.16,0,48.53,36.46,73,89.13,68.83,59.3-4.14,95.8-31.12,95.8-91.66V261C997.5,220.4,966.83,200.5,906.28,200.5Zm39,132.7c0,31.08-18.65,49.33-49.33,49.33-17.41,0-26.53-8.28-27.78-25.72,0-16.17,11.18-26.54,33.17-30.68a237.89,237.89,0,0,0,43.94-13.26Z" />
                <path class="cls-1"
                    d="M1118.55,205.09c-62.59,0-94.11,31.12-94.11,93.71v129h56V287.63c.44-22.84,12.86-34,37.34-34s36.87,11.17,38.12,34V400.39c0,17.41,9.12,26.13,27.38,27.38h28.21v-129C1211.86,236.21,1181.18,205.09,1118.55,205.09Z" />
                <path class="cls-1"
                    d="M1331.26,205.09c-62.59,0-94.11,31.12-94.11,93.71v129h56V287.63c.4-22.84,12.83-34,37.31-34s36.9,11.17,38.15,34V400.39c0,17.41,9.12,26.13,27.34,27.38h28.22v-129C1424.57,236.21,1393.89,205.09,1331.26,205.09Z" />
                <path class="cls-1"
                    d="M1773.28,208.39c-73.4,0-111.15,35.26-112.8,106.17V427.77h56v-114c0-31.92,15.36-48.08,46-48.08h18.66V208.39Z" />
                <path class="cls-1"
                    d="M1539.83,382.58c-22.79,0-34.41-6.23-35.66-18.69,0-12,12-19.05,35.66-21.95,55.6-5.39,93.71-19.5,95-72.16,0-48.52-36.47-73-89.13-68.83-59.3,4.14-95.8,31.08-95.8,91.62v74.66c1.25,40.64,31.92,60.54,92.46,60.54,50.62,0,79.2-19.9,85.84-60.54H1573C1570.1,377.6,1559.33,382.58,1539.83,382.58Zm-36.46-87.51c0-31.08,18.65-49.33,49.33-49.33,17.4,0,26.53,8.28,27.78,25.69,0,16.2-11.18,26.53-33.17,30.71a233.88,233.88,0,0,0-43.94,13.27Z" />
                <path class="cls-1"
                    d="M504.37,3.19h9.12v37l35-37h23.27L536,39.67l39,53.4H552.49L529.75,61.35c-4-5.29-7.66-7.4-11.1-6.21s-5.16,3.43-5.16,6.47V93.07H495.12V12.84A9.54,9.54,0,0,1,504.37,3.19Z" />
                <path class="cls-1"
                    d="M603.64,80.11c-7.24,0-10.93-2-11.32-5.94,0-3.81,3.81-6,11.32-7,17.65-1.71,29.75-6.19,30.15-22.91,0-15.41-11.58-23.17-28.3-21.85-18.83,1.31-30.42,9.87-30.42,29.09v23.7c.4,12.91,10.14,19.22,29.36,19.22,16.07,0,25.15-6.31,27.25-19.22h-17.5C613.25,78.52,609.83,80.11,603.64,80.11ZM592.06,52.32c0-9.87,5.92-15.66,15.66-15.66,5.53,0,8.43,2.63,8.82,8.15,0,5.15-3.55,8.43-10.53,9.75a74.72,74.72,0,0,0-14,4.22Z" />
                <path class="cls-1"
                    d="M707.28,58.44c0,24.06-10.71,36.22-31.86,36.22S643.7,82.5,643.7,58.44c0-24.32,10.57-36.35,31.72-36.35S707.28,34.12,707.28,58.44Zm-45.73,0c.13,13.62,4.75,20.49,13.74,20.49s13.49-7.14,13.62-21c0-13.61-4.5-20.36-13.49-20.36C666.17,37.55,661.55,44.56,661.55,58.44Z" />
            </g>
        </g>
    </g>
</svg>