<svg xmlns="http://www.w3.org/2000/svg" xmlns:xlink="http://www.w3.org/1999/xlink" viewBox="0 0 1927.08 527.85"><defs><style>.cls-1{fill:none;clip-rule:evenodd;}.cls-2{clip-path:url(#clip-path);}.cls-3{fill:#7cb928;}.cls-4{fill:#ec612f;}.cls-5{fill:#fbba10;}.cls-6{fill:#3a9cd7;}</style><clipPath id="clip-path" transform="translate(7.08 -0.48)"><path class="cls-1" d="M319,287.14c-30.9,25.21-54.79,58.73-78.38,91.25,54.65,26.25,39.2,166.33,105.57,149.11C470.73,481.42,619-45.85,415.42,3.22,336.79,27.4,283.26,129.8,154.51,113.12c-12.6-2.85-14.92-3.93.43-6.24,39.67-5,80.82-15.87,105.5-33-59.32-8.94-149.16-91-217.88-55.52-83.31,43.07-27.9,267.06,26.94,389,25.41,56.5,38,72.32,57.26,72.44C165.34,480,226,317.44,309.18,283.14c17.91-7.41,18.78-2.8,9.81,4"/></clipPath></defs><title>logo-dental_1</title><g id="Capa_2" data-name="Capa 2"><g id="Capa_1-2" data-name="Capa 1"><g class="cls-2"><path class="cls-3" d="M146.32,138.44H4.83c-6.58,0-11.91,6.4-11.91,14.26V412c0,7.88,5.33,14.27,11.91,14.27H146.32c6.57,0,11.9-6.34,11.9-14.27V152.7C158.22,144.84,152.89,138.44,146.32,138.44Z" transform="translate(7.08 -0.48)"/><path class="cls-4" d="M146.32.48H4.83C-1.75.48-7.08,6.82-7.08,14.76V104.5c0,7.89,5.33,14.28,11.91,14.28H146.32c6.57,0,11.9-6.34,11.9-14.28V14.76C158.22,6.82,152.89.48,146.32.48Z" transform="translate(7.08 -0.48)"/><path class="cls-5" d="M146.32,445.89H4.83c-6.58,0-11.91,6.34-11.91,14.27v48c0,7.87,5.33,14.27,11.91,14.27H146.32c6.57,0,11.9-6.34,11.9-14.27v-48C158.22,452.28,152.89,445.89,146.32,445.89Z" transform="translate(7.08 -0.48)"/><path class="cls-6" d="M328,.48H186.51c-6.59,0-11.91,6.34-11.91,14.28V337.9c0,7.89,5.32,14.28,11.91,14.28H328c6.57,0,11.89-6.34,11.89-14.28V14.76C339.89,6.82,334.57.48,328,.48Z" transform="translate(7.08 -0.48)"/><path class="cls-3" d="M509.67.48H368.17c-6.57,0-11.9,6.34-11.9,14.28V235.41c0,7.89,5.33,14.28,11.9,14.28h141.5c6.57,0,11.9-6.34,11.9-14.28V14.76C521.57,6.82,516.24.48,509.67.48Z" transform="translate(7.08 -0.48)"/><path class="cls-5" d="M509.67,269.33H368.17c-6.57,0-11.9,6.34-11.9,14.27V508.2c0,7.87,5.33,14.27,11.9,14.27h141.5c6.57,0,11.9-6.34,11.9-14.27V283.6C521.57,275.74,516.24,269.33,509.67,269.33Z" transform="translate(7.08 -0.48)"/><path class="cls-4" d="M328,371.78H186.51c-6.59,0-11.91,6.35-11.91,14.29V508.2c0,7.87,5.32,14.27,11.91,14.27H328c6.57,0,11.89-6.34,11.89-14.27V386.1C339.89,378.18,334.57,371.78,328,371.78Z" transform="translate(7.08 -0.48)"/></g><path class="cls-6" d="M603.94,4.29h11V49.18L657.44,4.29h28.18L642.21,48.54l47.26,64.7H662.23L634.69,74.8c-4.8-6.4-9.28-9-13.44-7.52S615,71.44,615,75.12v38.12H592.73V16A11.56,11.56,0,0,1,603.94,4.29Z" transform="translate(7.08 -0.48)"/><path class="cls-6" d="M724.2,97.52c-8.77,0-13.23-2.4-13.71-7.18,0-4.63,4.63-7.33,13.71-8.45,21.38-2.06,36-7.49,36.53-27.75,0-18.66-14-28.07-34.25-26.48-22.83,1.59-36.79,12-36.79,35.24V91.62c.49,15.63,12.28,23.29,35.52,23.29,19.47,0,30.45-7.61,33-23.29H737C735.84,95.62,731.71,97.52,724.2,97.52Zm-14-33.61c0-12,7.17-19,19-19,6.69,0,10.21,3.18,10.69,9.88,0,6.23-4.3,10.15-12.76,11.81a91.1,91.1,0,0,0-16.9,5.07Z" transform="translate(7.08 -0.48)"/><path class="cls-6" d="M849.77,71.28c0,29.17-13,43.87-38.6,43.87s-38.44-14.72-38.44-43.87c0-29.47,12.81-44,38.44-44S849.77,41.81,849.77,71.28Zm-55.41,0c.15,16.49,5.76,24.82,16.65,24.82s16.33-8.65,16.49-25.46c0-16.49-5.44-24.66-16.33-24.66C800,46,794.36,54.47,794.36,71.28Z" transform="translate(7.08 -0.48)"/><path class="cls-6" d="M882,349c0,85.31-36.78,148.65-103.7,166.53-17.37,4.6-41.89,7.15-73.56,7.15h-117V212.59c0-24,11.75-36.78,35.76-37.29H723.68C834,175.3,882,238.14,882,349ZM723.68,236.09H657.79V459.84h56.7c70.49,0,95-37.8,95-110.85C809.5,279.51,788.05,236.09,723.68,236.09Z" transform="translate(7.08 -0.48)"/><path class="cls-6" d="M1384.68,522.67C1362.21,521.14,1351,510.41,1351,489V350c-1.54-28.1-16.86-41.89-47-41.89s-45.46,13.79-46,41.89V522.67h-69V363.8c0-77.13,38.83-115.45,116-115.45s114.94,38.32,114.43,115.45V522.67Z" transform="translate(7.08 -0.48)"/><path class="cls-6" d="M1525.15,301H1518V450.64c0,11.24,6.64,17.37,19.92,17.37h20.94v51.6a373,373,0,0,1-71.51-.52c-25.55-2.55-37.8-18.39-37.29-48.53V175.3h35.24c17.88,0,32.7,16.35,32.7,34.23v42.91h40.86v14.81C1558.86,286.67,1544.05,301,1525.15,301Z" transform="translate(7.08 -0.48)"/><path class="cls-6" d="M1657.45,322.93h-67.94c8.17-50.06,43.42-74.58,105.74-74.58,74.58,0,112.39,24.52,113.92,74.58v91.95c0,74.59-45,107.79-118,112.9-64.87,5.11-109.82-25-109.82-84.8,1.53-64.88,48.53-82.24,117-88.89,29.12-3.57,43.93-12.26,43.93-27.07-1.53-15.32-15.84-23-43.93-23C1674.31,304,1661,310.16,1657.45,322.93Zm85.82,88.89v-25a294.5,294.5,0,0,1-54.15,16.35c-27.07,5.1-40.87,17.87-40.87,37.8,1.54,21.45,12.78,31.67,34.23,31.67C1720.28,472.61,1743.27,450.13,1743.27,411.82Z" transform="translate(7.08 -0.48)"/><path class="cls-6" d="M1920,208.51V522.67h-67.94V175.3h35.25C1905.18,175.3,1920,190.63,1920,208.51Z" transform="translate(7.08 -0.48)"/><path class="cls-6" d="M1072.8,453.37h67.94C1132.56,503.43,1097.32,528,1035,528c-74.58,0-112.38-24.53-113.91-74.59V361.42c0-74.58,44.95-107.78,118-112.89,64.88-5.11,109.83,25,109.83,84.8-1.53,64.87-48.53,82.24-117,88.88-29.12,3.58-43.93,12.26-43.93,27.08,1.53,15.32,15.83,23,43.93,23C1055.94,472.27,1069.22,466.14,1072.8,453.37ZM987,364.49v25a294.39,294.39,0,0,1,54.14-16.35c27.08-5.11,40.87-17.88,40.87-37.8-1.53-21.45-12.77-31.67-34.23-31.67C1010,303.7,987,326.17,987,364.49Z" transform="translate(7.08 -0.48)"/></g></g></svg>