<svg xmlns="http://www.w3.org/2000/svg" viewBox="0 0 1701.03 411.5">
    <defs>
        <style>
            .cls-1 {
                fill: #7cbb00;
            }

            .cls-2 {
                fill: #ff5f23;
            }

            .cls-3 {
                fill: #fb0;
            }

            .cls-4 {
                fill: #00a1f1;
            }
        </style>
    </defs>
    <g id="Capa_2" data-name="Capa 2">
        <g id="Capa_4" data-name="Capa 4">
            <g id="keoplanner">
                <path class="cls-1"
                    d="M120.93,108.76H9.39C4.2,108.76,0,113.8,0,120V324.4c0,6.21,4.2,11.25,9.39,11.25H120.93c5.18,0,9.38-5,9.38-11.25V120C130.31,113.8,126.11,108.76,120.93,108.76Z" />
                <path class="cls-2"
                    d="M120.93,0H9.39C4.2,0,0,5,0,11.26V82c0,6.22,4.2,11.26,9.39,11.26H120.93c5.18,0,9.38-5,9.38-11.26V11.26C130.31,5,126.11,0,120.93,0Z" />
                <path class="cls-3"
                    d="M120.93,351.13H9.39c-5.19,0-9.39,5-9.39,11.25v37.87c0,6.21,4.2,11.25,9.39,11.25H120.93c5.18,0,9.38-5,9.38-11.25V362.38C130.31,356.17,126.11,351.13,120.93,351.13Z" />
                <path class="cls-4"
                    d="M264.15,0H152.61c-5.19,0-9.39,5-9.39,11.26V266c0,6.22,4.2,11.26,9.39,11.26H264.15c5.18,0,9.38-5,9.38-11.26V11.26C273.53,5,269.33,0,264.15,0Z" />
                <path class="cls-1"
                    d="M407.37,0H295.82c-5.18,0-9.38,5-9.38,11.26V185.2c0,6.22,4.2,11.26,9.38,11.26H407.37c5.18,0,9.38-5,9.38-11.26V11.26C416.75,5,412.55,0,407.37,0Z" />
                <path class="cls-3"
                    d="M407.37,211.94H295.82c-5.18,0-9.38,5-9.38,11.25V400.25c0,6.21,4.2,11.25,9.38,11.25H407.37c5.18,0,9.38-5,9.38-11.25V223.19C416.75,217,412.55,211.94,407.37,211.94Z" />
                <path class="cls-2"
                    d="M264.15,292.71H152.61c-5.19,0-9.39,5-9.39,11.26v96.28c0,6.21,4.2,11.25,9.39,11.25H264.15c5.18,0,9.38-5,9.38-11.25V304C273.53,297.75,269.33,292.71,264.15,292.71Z" />
                <path class="cls-2"
                    d="M588.75,139.24H497.29c-15.47,0-27.72,13.48-27.72,28.91V186h0v78h0V408.53h55V312.7H592.7c53.87,0,82.78-33.67,82.78-86.73C675.48,169.73,645.76,139.24,588.75,139.24ZM578.84,264H524.59V186h57c25.73,0,38.78,13.05,38.78,39.2S606.56,264.37,578.84,264Z" />
                <path class="cls-2"
                    d="M727.35,139.24H700V408.53h52.68V165C752.69,151.11,741.21,139.24,727.35,139.24Z" />
                <path class="cls-2"
                    d="M865.53,191.49c-48.34,0-75.64,19-82,57.82h52.67c2.77-9.91,13.06-14.67,31.68-14.67,21.77,0,32.87,6,34.06,17.82,0,11.51-11.48,18.23-34.06,21-53.06,5.14-89.5,18.62-90.69,68.91,0,46.34,34.83,69.69,85.13,65.73,56.63-4,91.49-29.71,91.49-87.53V249.31C952.65,210.49,923.35,191.49,865.53,191.49Zm37.21,126.73c0,29.68-17.82,47.11-47.11,47.11-16.63,0-25.35-7.91-26.54-24.57,0-15.43,10.68-25.34,31.68-29.29a226.75,226.75,0,0,0,42-12.67Z" />
                <path class="cls-2"
                    d="M1068.25,195.87c-59.78,0-89.88,29.72-89.88,89.5V408.53h53.45V274.69c.42-21.8,12.28-32.48,35.66-32.48s35.21,10.68,36.4,32.48v107.7c0,16.62,8.72,24.95,26.15,26.14h27V285.37C1157.36,225.59,1128.07,195.87,1068.25,195.87Z" />
                <path class="cls-2"
                    d="M1271.4,195.87c-59.78,0-89.88,29.72-89.88,89.5V408.53H1235V274.69c.38-21.8,12.25-32.48,35.63-32.48s35.24,10.68,36.43,32.48v107.7c0,16.62,8.72,24.95,26.11,26.14h26.95V285.37C1360.51,225.59,1331.21,195.87,1271.4,195.87Z" />
                <path class="cls-2"
                    d="M1693.54,199c-70.1,0-106.15,33.67-107.73,101.4V408.53h53.45V299.61c0-30.48,14.66-45.92,44-45.92H1701V199Z" />
                <path class="cls-2"
                    d="M1470.59,365.38c-21.77,0-32.87-5.95-34.06-17.85,0-11.48,11.48-18.2,34.06-21,53.1-5.14,89.5-18.62,90.69-68.91,0-46.34-34.83-69.69-85.13-65.73-56.63,4-91.49,29.68-91.49,87.5v71.29c1.19,38.82,30.49,57.82,88.31,57.82,48.33,0,75.64-19,82-57.82H1502.3C1499.5,360.62,1489.21,365.38,1470.59,365.38Zm-34.83-83.58c0-29.68,17.82-47.11,47.11-47.11,16.63,0,25.35,7.91,26.53,24.53,0,15.47-10.67,25.34-31.67,29.33a223.74,223.74,0,0,0-42,12.67Z" />
                <path class="cls-2"
                    d="M481.69,3h8.71V38.39L523.86,3h22.22L511.86,37.89l37.25,51H527.64l-21.71-30.3c-3.79-5.05-7.32-7.07-10.6-5.93s-4.93,3.28-4.93,6.18V88.89H472.85V12.26A9.12,9.12,0,0,1,481.69,3Z" />
                <path class="cls-2"
                    d="M576.49,76.5c-6.91,0-10.43-1.89-10.81-5.66,0-3.65,3.65-5.78,10.81-6.66,16.86-1.63,28.42-5.91,28.8-21.88,0-14.71-11.06-22.13-27-20.87-18,1.25-29,9.42-29,27.78V71.85c.38,12.32,9.68,18.36,28,18.36,15.35,0,24-6,26-18.36H586.56C585.67,75,582.41,76.5,576.49,76.5ZM565.44,50c0-9.43,5.65-15,14.95-15,5.28,0,8.05,2.51,8.43,7.79,0,4.91-3.39,8-10.06,9.31a71.38,71.38,0,0,0-13.32,4Z" />
                <path class="cls-2"
                    d="M675.48,55.81c0,23-10.23,34.59-30.43,34.59s-30.3-11.61-30.3-34.59c0-23.23,10.1-34.71,30.3-34.71S675.48,32.58,675.48,55.81Zm-43.68,0c.12,13,4.54,19.57,13.13,19.57s12.87-6.82,13-20.07c0-13-4.29-19.44-12.88-19.44C636.22,35.87,631.8,42.56,631.8,55.81Z" />
            </g>
        </g>
    </g>
</svg>