<svg viewBox="0 0 511.92533 511.92533" xmlns="http://www.w3.org/2000/svg">
    <defs>
        <style>
            .color-no-asistio {
                fill: var(--no-asiste-rechazado-color, #495057);
            }
        </style>
    </defs>
    <path
        class="color-no-asistio"
        d="m426.667969 101.332031c0-32.363281-26.304688-58.664062-58.667969-58.664062h-309.332031c-32.363281 0-58.667969 26.300781-58.667969 58.664062v69.335938h426.667969zm0 0" />
    <path
        class="color-no-asistio"
        d="m106.667969 106.667969c-11.796875 0-21.335938-9.558594-21.335938-21.335938v-64c0-11.773437 9.539063-21.332031 21.335938-21.332031s21.332031 9.558594 21.332031 21.332031v64c0 11.777344-9.535156 21.335938-21.332031 21.335938zm0 0" />
    <path
        class="color-no-asistio"
        d="m320 106.667969c-11.796875 0-21.332031-9.558594-21.332031-21.335938v-64c0-11.773437 9.535156-21.332031 21.332031-21.332031s21.332031 9.558594 21.332031 21.332031v64c0 11.777344-9.535156 21.335938-21.332031 21.335938zm0 0" />
    <path
        class="color-no-asistio"
        d="m170.667969 405.332031h-106.667969c-35.285156 0-64-28.714843-64-64v-213.332031c0-11.777344 9.535156-21.332031 21.332031-21.332031s21.335938 9.554687 21.335938 21.332031v213.332031c0 11.757813 9.554687 21.335938 21.332031 21.335938h106.667969c11.796875 0 21.332031 9.554687 21.332031 21.332031s-9.535156 21.332031-21.332031 21.332031zm0 0" />
    <path
        class="color-no-asistio"
        d="m405.332031 192c-11.796875 0-21.332031-9.558594-21.332031-21.332031v-42.667969c0-11.777344 9.535156-21.332031 21.332031-21.332031s21.335938 9.554687 21.335938 21.332031v42.667969c0 11.773437-9.539063 21.332031-21.335938 21.332031zm0 0" />
    <path
        class="color-no-asistio"
        d="m471.382812 275.285156c-54.058593-54.058594-142.039062-54.058594-196.097656 0s-54.058594 142.039063 0 196.097656c54.058594 54.058594 142.039063 54.058594 196.097656 0 54.058594-54.058593 54.058594-142.039062 0-196.097656zm-71.660156 154.625-26.390625-26.410156-26.386719 26.386719c-8.320312 8.320312-21.847656 8.320312-30.167968 0-8.320313-8.320313-8.320313-21.84375 0-30.164063l26.390625-26.390625-26.390625-26.386719c-8.320313-8.320312-8.320313-21.847656 0-30.167968 8.320312-8.320313 21.847656-8.320313 30.167968 0l26.386719 26.390625 26.390625-26.390625c8.320313-8.320313 21.84375-8.320313 30.164063 0 8.320312 8.320312 8.320312 21.847656 0 30.167968l-26.386719 26.386719 26.386719 26.390625c8.320312 8.320313 8.320312 21.84375 0 30.164063-8.320313 8.34375-21.824219 8.34375-30.164063.023437zm0 0" />
</svg>