<svg xmlns="http://www.w3.org/2000/svg" viewBox="0 0 2005.95 2180.15"><defs><style>.cls-1{isolation:isolate;}.cls-2{fill:#5cb85c;}.cls-3{fill:#e0e0e0;mix-blend-mode:multiply;}.cls-4{fill:#fff;}.cls-5{fill:#ccc;}</style></defs><g class="cls-1"><g id="Capa_2" data-name="Capa 2"><g id="Layer_1" data-name="Layer 1"><path class="cls-2" d="M2006,1177.17c0,247-89.29,473.17-237.38,647.95q-5.94,7-12,13.94-21.48,24.45-44.51,47.46a999.12,999.12,0,0,1-667,292.76q-20.91.85-42,.87a999.16,999.16,0,0,1-558.8-170q-25.65-17.23-50.15-36-2.82-2.16-5.63-4.33C152.08,1786.36,0,1499.53,0,1177.17,0,946.86,77.62,734.69,208.14,565.38q2.16-2.8,4.35-5.59,19-24.3,39.45-47.38A1006.23,1006.23,0,0,1,550.49,281.84q4-2.05,8.06-4,18.42-9.12,37.26-17.51a995.74,995.74,0,0,1,140.88-50.35q8.58-2.37,17.21-4.57c3.38-.86,6.76-1.71,10.14-2.52q31.44-7.69,63.62-13.37,33.62-5.92,68-9.59l1.34-.14a1011.16,1011.16,0,0,1,103.95-5.54H1003q8.6,0,17.17.15,7,.12,14.08.33,48.38,1.48,95.53,7.46,44.16,5.56,87.08,14.92A996.36,996.36,0,0,1,1509.9,311.55q28.13,16.5,55.06,34.77,7.62,5.18,15.15,10.49C1837.69,538.33,2006,838.1,2006,1177.17Z"/><path class="cls-3" d="M1768.57,1825.12q-5.94,7-12,13.94-21.48,24.45-44.51,47.46a1000.74,1000.74,0,0,1-494.39,270.6L1045,2179.28q-20.91.85-42,.87a999.16,999.16,0,0,1-558.8-170q-25.65-17.23-50.15-36L212.49,559.79l-2.35-18.34L163.23,176,316.85,287.09,437.44,140.78l138.69,100.3,14.94,10.81,24-29.09,96.6-117.21,79.11,57.21,36.9,26.68,37.63,27.21,30.33-36.8,34-41.22,56.28-68.28,87.1,63,66.53,48.11,33.24-40.32,87.35-106,153.63,111.1L1534.32,0l14,109,21.49,167.38,10.32,80.47Z"/><path class="cls-4" d="M1756.55,1839.06q-21.48,24.45-44.51,47.46a1005.26,1005.26,0,0,1-265.88,190.64c-133.64,65.94-284.09,103-443.18,103a999.16,999.16,0,0,1-558.8-170L251.94,512.41,220.4,266.67,367.48,373.05,482.94,233l67.55,48.86L630,339.35,736.69,209.94l8.79-10.66,8.42,6.09L892.57,305.66l108.34-131.45,7.11-8.62,12.13,8.76,135,97.61,61.73-74.9,53.72-65.17,147.09,106.37,71.68-86.95,43.78-53.12L1565,346.32Z"/><rect class="cls-5" x="409.85" y="678.99" width="639.82" height="49.43" transform="translate(-83.65 98.63) rotate(-7.31)"/><rect class="cls-5" x="556.9" y="370.25" width="694.27" height="49.43" transform="translate(-42.93 118.3) rotate(-7.31)"/><rect class="cls-5" x="1228.43" y="599.56" width="240.49" height="49.43" transform="translate(-68.5 176.77) rotate(-7.31)"/><rect class="cls-5" x="431.44" y="855.17" width="390.45" height="49.43" transform="matrix(0.99, -0.13, 0.13, 0.99, -106.91, 86.94)"/><rect class="cls-5" x="1249.01" y="759.86" width="240.49" height="49.43" transform="translate(-88.74 180.69) rotate(-7.31)"/><rect class="cls-5" x="451.43" y="1006.47" width="532.08" height="49.43" transform="translate(-125.44 99.73) rotate(-7.31)"/><rect class="cls-5" x="1269.58" y="920.17" width="240.49" height="49.43" transform="translate(-108.98 184.62) rotate(-7.31)"/><rect class="cls-5" x="472.43" y="1173.35" width="428.77" height="49.43" transform="matrix(0.99, -0.13, 0.13, 0.99, -146.93, 97.18)"/><rect class="cls-5" x="1290.16" y="1080.48" width="240.49" height="49.43" transform="translate(-129.22 188.54) rotate(-7.31)"/><rect class="cls-5" x="492.41" y="1324.33" width="575.23" height="49.43" transform="matrix(0.99, -0.13, 0.13, 0.99, -165.39, 110.28)"/><rect class="cls-5" x="1310.73" y="1240.79" width="240.49" height="49.43" transform="translate(-149.46 192.47) rotate(-7.31)"/><rect class="cls-5" x="512.72" y="1480.53" width="639.82" height="49.43" transform="translate(-184.85 118.24) rotate(-7.31)"/><rect class="cls-5" x="1331.31" y="1401.09" width="240.49" height="49.43" transform="translate(-169.7 196.39) rotate(-7.31)"/><polygon class="cls-2" points="914.63 1403.9 573.92 1140.7 684.88 997.07 881.96 1149.31 1281.1 632.63 1424.73 743.58 914.63 1403.9"/></g></g></g></svg>