<svg xmlns="http://www.w3.org/2000/svg" xmlns:xlink="http://www.w3.org/1999/xlink" viewBox="0 0 1185.54 1029.11"><defs><style>.cls-1{fill:#efc056;fill-opacity:0.2;}.cls-2{fill:url(#linear-gradient);}.cls-3{fill:#ad3d1e;fill-opacity:0.18;}.cls-4{fill:#f53803;}.cls-5{fill:url(#linear-gradient-2);}.cls-6{fill:url(#linear-gradient-3);}.cls-7{fill:url(#linear-gradient-4);}.cls-18,.cls-19,.cls-20,.cls-21,.cls-22,.cls-23,.cls-27,.cls-8{fill-opacity:0.48;}.cls-8{fill:url(#linear-gradient-5);}.cls-9{fill:url(#linear-gradient-6);}.cls-10{fill:#16219d;}.cls-11{fill:#d7dce8;}.cls-12{fill:#96c4d9;}.cls-13{fill:#7c8ca1;}.cls-14{fill:#f4d9ae;opacity:0.6;}.cls-15,.cls-16{fill-opacity:0.62;}.cls-15{fill:url(#radial-gradient);}.cls-16{fill:url(#linear-gradient-7);}.cls-17{fill:url(#linear-gradient-8);}.cls-18{fill:url(#linear-gradient-9);}.cls-19{fill:url(#linear-gradient-10);}.cls-20{fill:url(#linear-gradient-11);}.cls-21{fill:url(#linear-gradient-12);}.cls-22{fill:url(#linear-gradient-13);}.cls-23{fill:url(#linear-gradient-14);}.cls-24,.cls-25,.cls-26{isolation:isolate;opacity:0.62;}.cls-24{fill:url(#linear-gradient-15);}.cls-25{fill:url(#linear-gradient-16);}.cls-26{fill:url(#linear-gradient-17);}.cls-27{fill:url(#linear-gradient-18);}.cls-28{fill:url(#linear-gradient-19);}.cls-29{fill:url(#linear-gradient-20);}.cls-30{fill:url(#linear-gradient-21);}.cls-31{fill:url(#linear-gradient-22);}.cls-32{fill:url(#linear-gradient-23);}.cls-33{fill:url(#linear-gradient-24);}.cls-34{fill:#6d3c18;}.cls-35{fill:#373168;}.cls-36{fill:#dc6e09;fill-opacity:0.23;}.cls-37{fill:#2439a8;}.cls-38{fill:#2c1da4;}.cls-39{fill:#eeae7f;}.cls-40,.cls-44{fill:#e98d4b;}.cls-40{fill-opacity:0.26;}.cls-41{fill:#8a2424;}.cls-42{fill:#5c1111;fill-opacity:0.22;}.cls-43{fill:url(#linear-gradient-25);}.cls-45{fill:#00bd6b;}.cls-46{fill:none;stroke:#4722f2;stroke-width:1.33px;}.cls-47{fill:#6d473b;}.cls-48{fill:#fbccff;stroke:#6e2e93;stroke-linejoin:round;stroke-width:2.67px;}.cls-49{fill:url(#linear-gradient-26);}.cls-50{fill:#6b1097;fill-opacity:0.21;}.cls-51{fill:url(#linear-gradient-27);}.cls-52{fill:url(#linear-gradient-28);}.cls-53{fill:#9269d2;}.cls-54{fill:#f3edef;}.cls-55{fill:#ffc23f;}</style><linearGradient id="linear-gradient" x1="914.1" y1="165.48" x2="974.45" y2="454.4" gradientTransform="matrix(1, 0, 0, -1, 0, 1033.55)" gradientUnits="userSpaceOnUse"><stop offset="0" stop-color="#f53803"/><stop offset="0.4" stop-color="#f58e13"/><stop offset="1" stop-color="#f5d020"/></linearGradient><linearGradient id="linear-gradient-2" x1="932.55" y1="176.12" x2="968.83" y2="415.92" xlink:href="#linear-gradient"/><linearGradient id="linear-gradient-3" x1="1030.89" y1="364.54" x2="1009.23" y2="217.1" gradientTransform="matrix(1, 0, 0, -1, 0, 1033.55)" gradientUnits="userSpaceOnUse"><stop offset="0" stop-color="#00bd6b"/><stop offset="1" stop-color="#00ffae"/></linearGradient><linearGradient id="linear-gradient-4" x1="978.14" y1="378.95" x2="989.05" y2="162.31" xlink:href="#linear-gradient-3"/><linearGradient id="linear-gradient-5" x1="842.05" y1="528.24" x2="842.05" y2="530.87" xlink:href="#linear-gradient"/><linearGradient id="linear-gradient-6" x1="898.89" y1="396.43" x2="898.89" y2="158.8" gradientTransform="matrix(1, 0, 0, -1, 0, 1033.55)" gradientUnits="userSpaceOnUse"><stop offset="0.26" stop-color="#8202e7"/><stop offset="1" stop-color="#3929f4"/></linearGradient><radialGradient id="radial-gradient" cx="470.39" cy="809.9" r="1" gradientTransform="matrix(34.46, 54.78, 117.8, -74.1, -111311, 34724.51)" gradientUnits="userSpaceOnUse"><stop offset="0" stop-color="#ff00e5"/><stop offset="0.48" stop-color="#bb004e"/><stop offset="1" stop-color="#b00035"/></radialGradient><linearGradient id="linear-gradient-7" x1="318.26" y1="518.31" x2="318.26" y2="368.25" gradientTransform="matrix(1, 0, 0, -1, 0, 1033.55)" gradientUnits="userSpaceOnUse"><stop offset="0" stop-color="#b00035"/><stop offset="1" stop-color="#ff00e5"/></linearGradient><linearGradient id="linear-gradient-8" x1="318.25" y1="369.01" x2="318.25" y2="368.01" xlink:href="#linear-gradient-7"/><linearGradient id="linear-gradient-9" x1="735.01" y1="352.29" x2="621.72" y2="565.25" xlink:href="#linear-gradient"/><linearGradient id="linear-gradient-10" x1="716.06" y1="433.23" x2="716.06" y2="435.87" xlink:href="#linear-gradient"/><linearGradient id="linear-gradient-11" x1="663.8" y1="510.1" x2="640.76" y2="561.37" xlink:href="#linear-gradient"/><linearGradient id="linear-gradient-12" x1="676.01" y1="515.59" x2="652.97" y2="566.85" xlink:href="#linear-gradient"/><linearGradient id="linear-gradient-13" x1="716.25" y1="489.19" x2="712.64" y2="571.53" xlink:href="#linear-gradient"/><linearGradient id="linear-gradient-14" x1="727.65" y1="489.69" x2="724.04" y2="572.03" xlink:href="#linear-gradient"/><linearGradient id="linear-gradient-15" x1="952.16" y1="468.44" x2="887.38" y2="379.95" gradientTransform="matrix(1, 0, 0, -1, 0, 1033.55)" gradientUnits="userSpaceOnUse"><stop offset="0.01" stop-color="#29e8f4"/><stop offset="1" stop-color="#8202e7"/></linearGradient><linearGradient id="linear-gradient-16" x1="864.31" y1="496.23" x2="944.58" y2="423.49" xlink:href="#linear-gradient-15"/><linearGradient id="linear-gradient-17" x1="905.12" y1="369.38" x2="905.12" y2="368.16" xlink:href="#linear-gradient-15"/><linearGradient id="linear-gradient-18" x1="513.87" y1="562.13" x2="513.87" y2="324.64" xlink:href="#linear-gradient-6"/><linearGradient id="linear-gradient-19" x1="513.88" y1="369.01" x2="513.88" y2="367.78" xlink:href="#linear-gradient-6"/><linearGradient id="linear-gradient-20" x1="187.5" y1="364.54" x2="165.83" y2="217.1" xlink:href="#linear-gradient-3"/><linearGradient id="linear-gradient-21" x1="134.75" y1="378.95" x2="145.65" y2="162.31" xlink:href="#linear-gradient-3"/><linearGradient id="linear-gradient-22" x1="153.15" y1="183.88" x2="153.15" y2="39.9" xlink:href="#linear-gradient-6"/><linearGradient id="linear-gradient-23" x1="183.28" y1="263.87" x2="242.44" y2="181.61" gradientTransform="matrix(1, 0, 0, -1, 0, 1033.55)" gradientUnits="userSpaceOnUse"><stop offset="0" stop-color="#d601bd"/><stop offset="1" stop-color="#8202e7"/></linearGradient><linearGradient id="linear-gradient-24" x1="262.44" y1="714.5" x2="224.1" y2="1046.54" gradientTransform="matrix(1, 0, 0, 1, 0, 0)" xlink:href="#linear-gradient"/><linearGradient id="linear-gradient-25" x1="473.33" y1="846.84" x2="606.17" y2="846.84" gradientTransform="matrix(1, 0, 0, 1, 0, 0)" xlink:href="#linear-gradient-3"/><linearGradient id="linear-gradient-26" x1="344.03" y1="721.61" x2="344.03" y2="507.4" gradientUnits="userSpaceOnUse"><stop offset="0" stop-color="#125aff"/><stop offset="1" stop-color="#2bc6ff"/><stop offset="1" stop-color="#2bc6ff"/></linearGradient><linearGradient id="linear-gradient-27" x1="493.27" y1="599.96" x2="486.88" y2="642.66" gradientTransform="matrix(1, 0, 0, 1, 0, 0)" xlink:href="#linear-gradient"/><linearGradient id="linear-gradient-28" x1="393.74" y1="636.96" x2="611.65" y2="636.96" gradientUnits="userSpaceOnUse"><stop offset="0.4" stop-color="#f58e13"/><stop offset="1" stop-color="#f5d020"/></linearGradient></defs><g id="Capa_2" data-name="Capa 2"><g id="Travel_Apps_Reservation" data-name="Travel Apps Reservation"><path class="cls-1" d="M1151.14,494.88c82.75,112-3.05,248.45-56.28,302.71H232.39c-39-66.93-115.3-221.17-108-302.71C133.52,393,256.73,367.11,261.29,285s70-138.42,287.49-135.38,289-123.21,465.46-51.71S1047.7,354.94,1151.14,494.88Z"/><path class="cls-2" d="M957.89,796.83c10.2-33.67,20.79-81.22,12.59-104.48-12.88-36.56-18-69.53-14.08-86.61-8.29,8.49-24,34.29-20.38,69.53,4.5,44.05-24,109.09-35.06,116.58a5.48,5.48,0,0,0-2.62,5Z"/><path class="cls-3" d="M964.23,721.13c-4.74-3.39-9.27-6.63-10.3-10.72-1.21-4.78-4.21-7.17-6.95-9.36-2.22-1.78-4.27-3.42-5.09-6.08-1.34-4.38-1.3-8.24-1.23-14.75,0-2.35.05-5,0-8.23,0-2,0-3.86,0-5.53.11-8,.16-11.73-5-7.7a100.1,100.1,0,0,0,.33,16.51,111,111,0,0,1,0,20.23,150.17,150.17,0,0,0,29,37.61q3.33,3.15,6.21,6.19.84-5.74,1.37-11.26A54.83,54.83,0,0,0,964.23,721.13Z"/><path class="cls-4" d="M932.73,794.54l-1.2-.58c.75-1.57,1.55-3.22,2.38-4.93,10-20.56,25-51.62,20.33-81.89-3-19.13-7-53.66-6.9-68.74h1.34c-.11,15,3.93,49.44,6.88,68.53,4.75,30.68-10.42,62-20.45,82.67C934.28,791.32,933.48,793,932.73,794.54Z"/><path class="cls-5" d="M989.42,796.83c6.49-7.91,10.28-31-24.33-63.72-44.05-41.66-45-89.91-45-89.91-8.09,13-19.42,48.07,0,84.52,19.09,35.83,8.46,60.69.41,69.11Z"/><path class="cls-4" d="M944.74,742c-19.74-22.38-26.86-55.61-28-69.44l.73-.06c1.09,13.75,8.19,46.81,27.78,69,9.89,11.22,14,25.07,15.14,37.79a91.91,91.91,0,0,1-.16,17.48h-.74a90.33,90.33,0,0,0,.17-17.41C958.58,766.79,954.5,753.12,944.74,742Z"/><path class="cls-6" d="M1166.7,796.83c15.75-17.4,29.61-40.32,6.84-45.58-18-4.16-19.82-15.31-21.66-26.72-1.8-11.2-3.65-22.65-20.94-28-12.86-4-21.06-9.06-27.6-13.14-11.21-7-17.57-10.95-34.23-.88-11.94,7.22-17.35,5.65-21.58,4.42-5.12-1.49-8.51-2.47-19.64,13.17-10.11,14.2-15.33,13.61-21.9,12.86s-14.69-1.68-30.59,12.42c-13.48,12-15.78,11.41-37.67,6.21-2.92-.7-6.18-1.47-9.86-2.31-11.06-2.52-19.23,5.13-24.71,17.78-1.61,3.72-4.69,4.65-9.18,6a53.33,53.33,0,0,0-13.47,5.69c-3.33,2-4.28,6.58-5.29,11.35-1,4.55-2,9.3-5.1,12.21a75.2,75.2,0,0,1-12.47,5.26c-6.61,2.31-12.13,4.25-14.25,9.23Z"/><path class="cls-7" d="M860.7,796.83h249.2c-2.57-4.57-3.43-9.91-4.3-15.31-1.8-11.2-3.64-22.65-20.94-28-12.86-3.95-21.06-9.06-27.6-13.13-11.21-7-17.57-10.95-34.23-.89-11.94,7.22-17.35,5.65-21.58,4.42-5.12-1.49-8.51-2.47-19.64,13.17-10.11,14.21-15.33,13.61-21.9,12.86s-14.69-1.67-30.59,12.43c-13.48,12-15.78,11.41-37.67,6.2-2.91-.69-6.18-1.47-9.86-2.31C872.86,784.32,865.92,788.68,860.7,796.83Z"/><path class="cls-8" d="M838.58,503v1.87h6.95V503Z"/><path class="cls-3" d="M889.49,769a253.87,253.87,0,0,0,17.38-29.74,18.41,18.41,0,0,1,5,4.58c2.63,3.06,5.44,6.34,11.22,7,6.83.77,7.64,7.91,8.36,14.23.64,5.64,1.21,10.62,5.9,9.85,4-.66,5.33,1.08,6.92,3.1,2.38,3,5.27,6.74,18.37,3.89,17.43-3.78,22.33,2.68,22.6,6.38l-3.15,8.52H917.9l-26.3-10A146.25,146.25,0,0,1,889.49,769Z"/><path class="cls-9" d="M951.9,796.83c-6.06-10.92-15.57-23.25-29.9-36.8-60.23-56.95-61.45-122.92-61.45-122.92-11.07,17.76-26.55,65.72,0,115.55,8.87,16.65,13.05,31.57,14.26,44.46l.44-.29Z"/><path class="cls-10" d="M894.18,772.24c-27-30.59-36.72-76-38.23-94.93l1-.08c1.49,18.79,11.2,64,38,94.35a79.81,79.81,0,0,1,14.91,25.25h-1.07A78.85,78.85,0,0,0,894.18,772.24Z"/><rect class="cls-11" x="338.87" width="405.89" height="802.02" rx="33.71"/><rect class="cls-12" x="352.12" y="75.32" width="379.39" height="647.19"/><rect class="cls-13" x="472.07" y="39.05" width="139.48" height="13.95" rx="2.5"/><ellipse class="cls-13" cx="541.81" cy="764.14" rx="31" ry="31.12"/><rect class="cls-14" x="235.14" y="451.01" width="166" height="244.01" rx="8.11"/><rect class="cls-14" x="822.16" y="451.01" width="166" height="244.01" rx="8.11"/><rect class="cls-14" x="627.15" y="451.01" width="166" height="244.01" rx="8.11"/><rect class="cls-14" x="431.15" y="451.01" width="166" height="244.01" rx="8.11"/><circle class="cls-15" cx="318.25" cy="493.48" r="22.07"/><path class="cls-16" d="M314.52,515.23v5.37a5,5,0,0,0-1.7,3.76v9.25a5,5,0,0,0,1.7,3.77V665.3H322V537.38a5,5,0,0,0,1.71-3.77v-9.25A5,5,0,0,0,322,520.6v-5.36a22.9,22.9,0,0,1-3.73.31A21.92,21.92,0,0,1,314.52,515.23Z"/><path class="cls-17" d="M374.18,665.54H262.33v-1H374.18Z"/><path class="cls-18" d="M688.23,471.42H661.52V665h7.37v-92.6h12V665h7.37Zm-19.34,15h12v28h-12Zm0,43h12v28h-12Z"/><path class="cls-19" d="M763.23,599.84V598H668.89v1.87Z"/><path class="cls-20" d="M654.57,515.12q3.57-4.07,6.95-8.29v-.65q-3.37,4.23-6.95,8.32Z"/><path class="cls-21" d="M654.57,484.77c2.6-4.31,5-8.7,7.13-13.14l-.36-.18c-2,4.23-4.31,8.41-6.77,12.52Z"/><path class="cls-22" d="M763.23,529.89v-.41c-50.24-5.35-85.46-40-97.47-58.06l-.34.23C677.47,489.76,712.81,524.54,763.23,529.89Z"/><path class="cls-23" d="M763.23,525.36v-.43c-38.14-11.33-64.72-38.31-74.83-53.51l-.34.23C698.22,486.91,724.91,514,763.23,525.36Z"/><path class="cls-24" d="M934.86,567.49v97H906V552.38C913.57,565.71,922,567.49,934.86,567.49Z"/><path class="cls-25" d="M875.38,664.54V512c20.4,0,41.68-17.16,45.4-40.73v94.55c-5.7-1.86-10.39-5.7-14.8-13.46V664.54Z"/><path class="cls-26" d="M961,665.54H849.2v-1H961Z"/><path class="cls-27" d="M516.32,472.17a.75.75,0,1,0-1.5,0V480h-1.14a2.54,2.54,0,0,0-2.51,2.44q-.14,3.38-.3,6.67h-1.22a2,2,0,0,0-2,2v9.19a2,2,0,0,0,2,2h.49c-2,31.65-5.36,58-9.41,79.67h-6a2,2,0,0,0-2,2v9.19a2,2,0,0,0,2,2h3.32c-8.28,37.74-19.62,61.61-27,69.9h85.57c-10.41-19.07-18.08-44-23.62-69.9h3.37a2,2,0,0,0,2-2v-9.19a2,2,0,0,0-2-2h-6a651.46,651.46,0,0,1-9.4-79.67h.49a2,2,0,0,0,2-2v-9.19a2,2,0,0,0-2-2h-1.08q-.12-3.49-.18-6.69a2.47,2.47,0,0,0-2.51-2.42h-1.41Zm7.15,133.5H507.61c-6.65,23.08-10.9,43.49-10.9,43.49H532S528.09,626.82,523.47,605.67Z"/><path class="cls-28" d="M569.8,665.54H458v-1H569.8Z"/><path class="cls-29" d="M323.31,796.83c15.75-17.4,29.61-40.32,6.83-45.58-18-4.16-19.81-15.31-21.65-26.72-1.8-11.2-3.64-22.65-20.94-28-12.86-4-21.06-9.06-27.6-13.14-11.21-7-17.57-10.95-34.23-.88-11.94,7.22-17.35,5.65-21.58,4.42-5.12-1.49-8.51-2.47-19.64,13.17-10.11,14.2-15.33,13.61-21.9,12.86s-14.7-1.68-30.59,12.42c-13.48,12-15.79,11.41-37.67,6.21-2.92-.7-6.18-1.47-9.86-2.31-11.06-2.52-19.23,5.13-24.71,17.78-1.61,3.72-4.69,4.65-9.18,6a53.22,53.22,0,0,0-13.48,5.69c-3.32,2-4.28,6.58-5.28,11.35-1,4.55-2,9.3-5.1,12.21a75.28,75.28,0,0,1-12.48,5.26c-6.6,2.31-12.13,4.25-14.25,9.23Z"/><path class="cls-30" d="M17.3,796.83H266.51c-2.57-4.57-3.43-9.91-4.3-15.31-1.8-11.2-3.64-22.65-20.94-28-12.86-3.95-21.06-9.06-27.6-13.13-11.21-7-17.57-10.95-34.23-.89-11.94,7.22-17.35,5.65-21.58,4.42-5.12-1.49-8.51-2.47-19.64,13.17-10.11,14.21-15.33,13.61-21.9,12.86s-14.7-1.67-30.59,12.43c-13.48,12-15.79,11.41-37.67,6.2-2.92-.69-6.18-1.47-9.86-2.31C29.46,784.32,22.53,788.68,17.3,796.83Z"/><path class="cls-31" d="M129.64,849.67l47,15.47v128.5l-47-15.47Z"/><path class="cls-32" d="M129.64,849.67l47,15.47L307.5,787.81l-47-15.47Z"/><polygon class="cls-33" points="307.5 787.81 307.5 916.31 176.67 993.64 176.67 865.14 177.04 864.92 307.5 787.81"/><path class="cls-34" d="M214.79,842.65l-7.19,4.22V975.21l7.19-4.21Z"/><path class="cls-34" d="M207.6,846.87l7.19-4.22-47.33-15.34-7.16,4.23Z"/><path class="cls-34" d="M284.6,801.34l-7.19,4.21V933.89l7.19-4.21Z"/><path class="cls-35" d="M238,772.85a4.62,4.62,0,0,1,2.34,4v25.3a4.64,4.64,0,0,1-9.28,0V785l-24.35,14.4v22.66a4.64,4.64,0,0,1-9.28,0V796.76a4.61,4.61,0,0,1,2.28-4l33.63-19.89A4.65,4.65,0,0,1,238,772.85Z"/><polygon class="cls-36" points="307.5 902.27 307.5 916.31 176.67 993.64 176.67 865.14 177.04 864.92 177.14 865.02 307.5 902.27"/><polygon class="cls-37" points="141.26 982 177.14 865.02 177.14 994.02 141.26 982"/><path class="cls-38" d="M294.5,986c1.41-4.24,6.32-6.95,8.6-7.78,1.06.36,7,0,22.13-4.35,19-5.42,37.57,7.77,32.63,13.54s-39,25-46.52,26.14-16.84-3.65-17.67-6S292.73,991.32,294.5,986Z"/><path class="cls-39" d="M331.05,909.39c-1.12,13-2.8,50.76-3.5,68-1.17,2.48-4.94,7.87-10.71,9.54a15,15,0,0,1-7.71,0,24.51,24.51,0,0,1-7.43-3.2c-5.28-23.13-11.48-120-10.94-131.79,6.91-6.21,22.77-17.55,31-13.27,3.73,1.95,6.16,9.69,7.68,19.54C332.06,875.37,331.93,899,331.05,909.39Z"/><path class="cls-40" d="M307.14,865l2,121.85a24.51,24.51,0,0,1-7.43-3.2c-5.28-23.13-11.48-120-10.94-131.79,6.91-6.21,22.77-17.55,31-13.27,3.73,1.95,6.16,9.69,7.68,19.54C324.09,861,314.14,865.72,307.14,865Z"/><path class="cls-38" d="M357.68,1000.17c1.48-4.43,6.6-7.25,9-8.11,1.11.37,7.28,0,23.11-4.55,19.78-5.65,39.19,8.11,34,14.13s-40.67,26.05-48.53,27.28-17.58-3.81-18.44-6.27S355.84,1005.7,357.68,1000.17Z"/><path class="cls-39" d="M395.82,920.2c-1.17,13.61-2.92,53-3.65,70.95-1.21,2.59-5.15,8.21-11.17,10a17,17,0,0,1-9.89-.59,24.63,24.63,0,0,1-5.91-2.81c-5.5-24.14-12-125.21-11.42-137.52a79.18,79.18,0,0,1,18-12.17c5.34-2.47,10.61-3.63,14.34-1.68a6.53,6.53,0,0,1,2,1.68c2.62,3.14,4.49,9.43,5.78,17.12C396.9,883.21,396.78,909.06,395.82,920.2Z"/><path class="cls-40" d="M362.15,878l9,122.5a24.63,24.63,0,0,1-5.91-2.81c-5.5-24.14-12-125.21-11.42-137.52a79.18,79.18,0,0,1,18-12.17h16.32c2.62,3.14,4.49,9.43,5.78,17.12C393.86,865.14,377.15,877,362.15,878Z"/><path class="cls-41" d="M407.13,854.94A85.36,85.36,0,0,1,398,859c-25.11,9.61-55.09,8.82-68.16,7l-3.12-13.42,0-.14c-17.41,8.33-45.51,5.15-57.39,2.53-.27-2.71-.59-6-.93-9.78-1.88-20.7-4.43-55.42-4.43-81.67,0-22.1,3.21-39.68,6.35-50.51a59.3,59.3,0,0,1,3.55-9.67,415.85,415.85,0,0,1,55.32-8.61,191.78,191.78,0,0,1,30.77-.28C373.53,695.6,384.29,699,388.7,706,401.82,726.65,406.39,814.37,407.13,854.94Z"/><path class="cls-42" d="M408.13,853.94A85.36,85.36,0,0,1,399,858h-1.89l-16-120c-67,15-109.83-26-109.83-26a59.3,59.3,0,0,1,3.55-9.67,415.85,415.85,0,0,1,55.32-8.61l30.76-.28C374.53,694.6,385.29,698,389.7,705,402.82,725.65,407.39,813.37,408.13,853.94Z"/><path class="cls-42" d="M327.14,852l-.38.53,0-.14c-17.41,8.33-45.51,5.15-57.39,2.53-.27-2.71-.59-6-.93-9.78,7.83.82,49.55,4.64,47.74-7.14-2-13-36-69-14-92,0,0-3.89,40.06,14.06,59.53C316.2,805.55,323.14,814,327.14,852Z"/><path class="cls-38" d="M572.61,976.18c-1.85-3.72-6.71-5.58-8.91-6-17-3.58-18.86,1.84-22.24,1.37-18.14-2.53-24.17,1.52-21.72,10.8,1.8,6.83,33.86,21.29,40.94,21.4s15-5.54,15.48-7.81S574.92,980.82,572.61,976.18Z"/><path class="cls-39" d="M548.28,977.68,536.6,803.85c15.63-13.16,37.69-30,45.51,0,16.82,37.14-9.76,116.09-13,176.67C564.73,986.57,551.91,982.82,548.28,977.68Z"/><path class="cls-40" d="M570.33,796.06c-5.77,8.26-15.27,30.21-7.13,51.94,5.87,15.63,4.19,25.3,2.62,34.38-1.15,6.7-2.26,13.08-.24,21.3,2.48,10.11.19,18.36-2,26.22-2,7.17-3.91,14-2,21.66,4,16,3.07,26-2.91,24.26a20.21,20.21,0,0,1-11.14-9.34l.75,11.2c3.63,5.14,16.45,8.89,20.82,2.84,1.16-21.68,5.31-45.71,9.39-69.33,7.32-42.4,14.42-83.49,3.62-107.34-1.55-5.94-3.66-10-6.16-12.69Z"/><path class="cls-38" d="M518.33,998.91c-1.71-3.78-6.51-5.81-8.69-6.35-16.86-4.17-18.92,1.18-22.27.59-18.05-3.16-24.21.68-22.09,10,1.57,6.89,33.09,22.46,40.17,22.81s15.21-5,15.74-7.26S520.48,1003.63,518.33,998.91Z"/><path class="cls-39" d="M493.64,999.54,482,825.71c15.62-13.16,37.68-30,45.51,0,16.81,37.14-9.77,116.09-13,176.66C510.09,1008.43,497.27,1004.68,493.64,999.54Z"/><path class="cls-40" d="M515.7,817.92c-5.78,8.26-15.28,30.21-7.13,51.94,5.86,15.63,4.19,25.3,2.62,34.38-1.16,6.7-2.26,13.08-.25,21.3,2.49,10.11.19,18.36-2,26.22-2,7.17-3.91,14-2,21.66,4,16,3.07,26-2.91,24.25a20.15,20.15,0,0,1-11.14-9.33l.75,11.2c3.63,5.14,16.45,8.89,20.82,2.83,1.16-21.67,5.31-45.7,9.39-69.32,7.33-42.4,14.42-83.49,3.63-107.34-1.55-5.94-3.66-10-6.17-12.69Z"/><path class="cls-43" d="M605.25,739.54c-5.43,51.31-33.1,213-33.1,213L561,952.09l-14.51-.56-8.8-131-.12-1.75c0,1.1,0,2.26,0,3.46-.13,8.12-.92,18.55-2.13,30.15h0c-5.25,50.43-18.35,122.85-18.35,122.85H492L473.33,737.13S605.15,704,606.15,726A110.91,110.91,0,0,1,605.25,739.54Z"/><path class="cls-44" d="M535.47,852.35l2.13-30.15C537.47,830.32,536.68,840.75,535.47,852.35Z"/><polygon class="cls-45" points="561.03 952.09 546.52 951.53 537.72 820.49 540.15 786.02 561.03 952.09"/><path class="cls-45" d="M605.25,739.54l-.6.48c.5,2-23.5,39-104.5,23V975.21H492L473.33,737.13S605.15,704,606.15,726A110.91,110.91,0,0,1,605.25,739.54Z"/><path class="cls-35" d="M246.77,757.72c-1.77-3.08-1.14-36.77-.4-55.24L274.67,690,288.48,689l1,55.19-20.73,18.37C262.83,762.88,250.3,763.85,246.77,757.72Z"/><path class="cls-39" d="M251.07,614.83c.59-10.07,5.76-30.12,8.26-38.88l32.46-2.58-12.21,124C269.83,674.06,250.48,624.9,251.07,614.83Z"/><path class="cls-39" d="M436.85,561.26c2.29,20.07,1.77,36.27.32,43.92l-26.88-10.34c-1.48-9,.52-22.38,1.79-36.73s7.65-27,5.37-28.47l14.83-4.78C432.28,529.37,434.55,541.12,436.85,561.26Z"/><path class="cls-39" d="M437.2,604.33c0-3-7.64-16.64-11.9-21.86l-20.69,25.65c4.68,3.59,17.37,11,22.26,11.08C433,619.34,437.17,608.14,437.2,604.33Z"/><path class="cls-46" d="M255,761.75c-5.28-2.26-3.55-39.15-2-57.31l26.44-11.21v67.5C273.49,762,260.3,764,255,761.75Z"/><path class="cls-39" d="M348.38,390c23.59,3.1,35.18,69.33,29.18,79.26-2.54,4.2-9.94,8.11-17.92,11.24-.68,10.78,5.68,26.43,8.94,32.92l.29,4.32-35.82,9.06-21.52-15.73c4.55-3.24,13.66-10.89,13.66-15.52s-6.76-19.46-10.14-26.29l-1.24-63.95C317.46,399.18,329.49,387.52,348.38,390Z"/><path class="cls-47" d="M349.84,478.61c2.18,11.53-18.81,6.66-29,4.05-20.24-8.87-6.88-30.26-20.24-55.2s14.55-25.53,20.24-43.35,30.83-1.78,32.91-8.31,24.05-9.8,27.32,0-7.13,15.74-3.27,26.13-17.81,9.2-13.95,19.59-11,14.11-10.1,27.47S346.21,459.36,349.84,478.61Z"/><path class="cls-48" d="M403.31,520l-16.09-6.06a4,4,0,0,1-1.26-6.71l29-26.14a4,4,0,0,1,4-.8L435.37,486a4,4,0,0,1,1.35,6.75L407.4,519.22A4,4,0,0,1,403.31,520Z"/><path class="cls-39" d="M426.57,493.09c3.27,0,3.24,9.73,3.09,16.62,0,0,4.44,13.15,1.78,21-4.14-.26-13.13.18-18.38-2.57s-5.35-6.68-4.83-8.34l13.34-12.2C421.57,496.16,424.6,493.09,426.57,493.09Z"/><path class="cls-49" d="M431.87,589.64c-4.75,15.38-16.76,25.71-20,24.89-5.26-1.31-16.78-9.2-21.67-14.28l-.46-.49c-2.88,20.07-1.2,63.84,0,108.21-1.84,2.8-2.67,5.49-25.64,11.83s-73.28-5.29-91.25-14.16V594.14c-2.68.43-12.32-.15-16.72-6.54q.53-3,1.09-5.8c6.56-32.66,17.24-47.51,23.69-56.34,9.69-13.27,27.55-17.57,35.27-18.06,5,5.82,42.51,11.5,52.43,5.82,3.17,2.09,8.35,5.48,13.33,8.69a70.15,70.15,0,0,1,19.63,19C428.13,579.07,432.58,587.34,431.87,589.64Z"/><path class="cls-47" d="M303,510.22,246.16,702.47l6.78,2.13,57.54-196.39A53.86,53.86,0,0,0,303,510.22Z"/><path class="cls-39" d="M515.89,504.93c.37,8.47-4.29,29.9-6.67,39.55L544.4,539,529.68,497.8C524.93,496.65,515.52,496.47,515.89,504.93Z"/><path class="cls-50" d="M272.84,596.51v-2.37c-2.68.43-12.32-.15-16.72-6.54q.53-3,1.09-5.8c3,2.57,8.51,6.92,9.93,6.21,2-1,3-13,6-13Z"/><path class="cls-50" d="M389.73,599.76c-2.88,20.07-1.2,63.84,0,108.21-1.84,2.8-2.67,5.49-25.64,11.83s-73.28-5.29-91.25-14.16V693.9l.3.12s89,18,91-5,3-106,12-106l14,17,0,.24Z"/><path class="cls-39" d="M393.6,645.08c3.3,1.83,23.92-7.55,33.82-11.25l42.39,11.51-21.06,13.35c-16.2.56-50.27,6.22-55.15,5.67-6.1-.68-5.39,7.67-19.69,6.45S363,644,372.73,645.08c7.77.87,13.11-1.39,15.37-2.73l-.22-6C394.6,636.82,389.47,642.8,393.6,645.08Z"/><path class="cls-36" d="M498.86,693.85c-4.06-24.8-4.18-58.89-3.94-75.67l1.2-2.07c1.82,1.47,4.75,6.23,1.88,13.56-2.28,5.81-1.67,9.3-.92,13.62a47.72,47.72,0,0,1,.92,8.91c0,2.33.31,5.52.67,9.27C499.67,671.74,500.76,683.11,498.86,693.85Z"/><path class="cls-51" d="M495.15,608s-.14,3.86-.23,10.17l-8.46,14.62v-.18c-1,1.54-2.08,3-3.1,4.34Z"/><path class="cls-52" d="M611.65,729.15c-3.5,21.13-94.48,17.87-124.23,13.2h0c-15.75-2.48-19.48-9.74-19.5-16h0c.08-.27.15-.54.23-.81.38-1.36.76-2.73,1.15-4.11l.57-2c.48-1.73,1-3.47,1.43-5.2,1.22-4.44,2.41-8.87,3.56-13.22q.64-2.43,1.27-4.83.42-1.64.84-3.24c.22-.87.44-1.73.65-2.6q.9-3.53,1.72-6.93c.58-2.36,1.13-4.68,1.65-6.93l.09-.39c.41-1.79.81-3.53,1.17-5.23.28-1.27.55-2.52.8-3.74.09-.41.17-.81.25-1.21s.22-1.06.32-1.58c.33-1.65.63-3.24.9-4.76.16-.9.31-1.77.45-2.62.1-.59.19-1.17.27-1.73.14-.91.27-1.79.38-2.63.17-1.23.3-2.38.4-3.46.06-.62.1-1.22.14-1.79s.08-1.32.09-1.92c.11-4.61.18-8.78.22-12.54v-.18l-.37.54c-.92,1.34-1.83,2.6-2.73,3.8v0c-7.62,10.16-15.14,15.86-36.35,25.79C434.39,668.69,397,692.25,398,686c.79-5-7.73-25.07-2.5-47.16l33.95-9.31a41.5,41.5,0,0,0,28.34-26.74L462,590.14a82.38,82.38,0,0,1,36.28-44.9c4.8-2.8,9-4.59,11.63-4.37,7.9.66,20.84-8.22,26.32-12.75l59.23,81.44c3.82,25.12,9.1,62.23,13.81,100l.6,4.85C610.48,719.34,611.07,724.26,611.65,729.15Z"/><path class="cls-39" d="M504.64,520.43c7.56,5.72,23.41-.85,30.39-4.85-5.79-22.65-20-75.91-30.39-67.33C491.62,459,495.2,513.28,504.64,520.43Z"/><path class="cls-47" d="M493.6,466.49c.2,11.85,15.64,18.44,21.26,20.23,7.9,4.1,3.06,41.69,2.81,54.2s-19.42,49-10.74,67.41,73.8,13.21,91.93-4.15S577.67,515.83,571,494.64s-11.49-53.11-36.77-59.24S493.34,451.68,493.6,466.49Z"/><path class="cls-3" d="M611.65,729.15c-3.5,21.13-94.48,17.87-124.23,13.2h0c-15.75-2.48-19.48-9.74-19.5-16h0c.08-.27.15-.54.23-.81.38-1.36.76-2.73,1.15-4.11l.57-2c.48-1.73,1-3.47,1.43-5.2,1.22-4.44,2.41-8.87,3.56-13.22q.64-2.43,1.27-4.83.42-1.64.84-3.24c.22-.87.44-1.73.65-2.6q.9-3.53,1.72-6.93c.58-2.36,1.13-4.68,1.65-6.93l.09-.39c.41-1.79.81-3.53,1.17-5.23.28-1.27.55-2.52.8-3.74.09-.41.17-.81.25-1.21s.22-1.06.32-1.58c.33-1.65.63-3.24.9-4.76.16-.9.31-1.77.45-2.62.1-.59.19-1.17.27-1.73.14-.91.27-1.79.38-2.63.17-1.23.3-2.38.4-3.46.06-.62.1-1.22.14-1.79s.08-1.32.09-1.92c.11-4.61.18-8.78.22-12.54v-.18l-.37.54.06-.15,9-22.08s-4,109.09,12,111.09c13,1.63,74.3-2.7,102.12-12.44l.6,4.85C610.48,719.34,611.07,724.26,611.65,729.15Z"/><rect class="cls-53" x="408.1" y="125.31" width="87.98" height="78.17"/><rect class="cls-53" x="510.74" y="128.86" width="165.3" height="13.03"/><rect class="cls-53" x="510.74" y="154.92" width="126.64" height="14.21"/><rect class="cls-54" x="408.1" y="234.27" width="267.94" height="84.09"/><rect class="cls-55" x="430.76" y="257.96" width="158.63" height="14.21"/><rect class="cls-55" x="430.76" y="284.01" width="121.31" height="14.21"/><ellipse class="cls-55" cx="641.38" cy="276.91" rx="21.33" ry="18.95"/><rect class="cls-54" x="408.1" y="349.15" width="267.94" height="84.09"/><rect class="cls-55" x="430.76" y="372.84" width="158.63" height="14.21"/><rect class="cls-55" x="430.76" y="398.89" width="121.31" height="14.21"/><ellipse class="cls-55" cx="641.38" cy="391.79" rx="21.33" ry="18.95"/></g></g></svg>