<svg xmlns="http://www.w3.org/2000/svg" viewBox="0 0 798.18 753.73"><defs><style>.cls-1{isolation:isolate;}.cls-2{fill:#dddde8;}.cls-3{fill:#242f57;}.cls-4{fill:#515fa5;}.cls-5{fill:#fff;}.cls-15,.cls-6{fill:#d55015;}.cls-7{fill:#808bc5;stroke:#fff;stroke-width:1.49px;}.cls-11,.cls-12,.cls-16,.cls-7{stroke-miterlimit:10;}.cls-8,.cls-9{fill:#f4c0b8;}.cls-10,.cls-12,.cls-15,.cls-9{mix-blend-mode:multiply;}.cls-10,.cls-15,.cls-9{opacity:0.4;}.cls-10{fill:#e29e8e;}.cls-11,.cls-12,.cls-16{fill:none;}.cls-11{stroke:#242f57;stroke-width:0.64px;}.cls-11,.cls-12{stroke-linecap:round;}.cls-12{stroke:#f4af9f;stroke-width:0.52px;}.cls-13{fill:#ea572c;}.cls-14{fill:#eb602e;}.cls-16{stroke:#253061;stroke-width:0.74px;}.cls-17{fill:#445593;}</style></defs><g class="cls-1"><g id="Capa_2" data-name="Capa 2"><g id="Capa_1-2" data-name="Capa 1"><path class="cls-2" d="M762.41,621.27C711,690.07,630,686.1,559.13,656.35c-7.87-3.32-15.61-6.93-23.18-10.72-72.32-38.32-148.31,5.44-215.35,33.68-8,3.9-16.33,7.84-24.82,11.48C236.32,716.37,167.86,726.4,127.21,669c-24.84-35.08-15-78.5-12.21-118,3.14-44-9.67-83.68-30.5-122.11-27.7-51.11-66.29-100.53-72.89-160C2.14,183.54,40.29,95.79,130.54,76.9c57.27-12,112.94,12.52,167.83,25.08,44.82,10.26,91.75,4.3,135.29-8.54,8-2.34,15.91-4.85,23.86-7.43C510.3,68.8,562.94,47.72,617.62,43.32c48.81-3.94,91.68,12,106.4,62.55,12.91,44.32-2.08,91.47,1.86,136.54,2.18,24.85,9.84,48,19.31,70.56,16.43,39.13,38.24,76.58,46.3,118.47,2.31,12,4.11,24.36,5.28,36.89C801.67,521.67,794.65,578.17,762.41,621.27Z"/><rect class="cls-3" x="349.88" y="699.32" width="152.66" height="42.87"/><path class="cls-3" d="M797,228.41V683.6a18.91,18.91,0,0,1-18.9,18.9H74.36a18.89,18.89,0,0,1-18.88-18.9V228.41a18.86,18.86,0,0,1,18.85-18.9H778.09A18.86,18.86,0,0,1,797,228.41Z"/><path class="cls-3" d="M797,228.41V659.85H55.46V228.41a18.88,18.88,0,0,1,18.86-18.9H778.1A18.85,18.85,0,0,1,797,228.41Z"/><rect class="cls-4" x="65.18" y="221.34" width="722.07" height="423.54"/><path class="cls-3" d="M305.95,738.07H546.48a4.22,4.22,0,0,1,4.22,4.22v9.19a0,0,0,0,1,0,0h-249a0,0,0,0,1,0,0v-9.19A4.22,4.22,0,0,1,305.95,738.07Z"/><path class="cls-5" d="M21,592.31c-10.38,0-18.82-10.42-18.82-23.22V146.76c0-12.75,8.44-23.13,18.82-23.13H684.07c10.38,0,18.82,10.38,18.82,23.13V569.09c0,12.8-8.44,23.22-18.82,23.22Z"/><path class="cls-3" d="M684.07,125.8c9.18,0,16.65,9.4,16.65,21V569.09c0,11.61-7.47,21-16.65,21H21c-9.18,0-16.66-9.44-16.66-21V146.76c0-11.56,7.48-21,16.66-21H684.07m0-4.33H21c-11.54,0-21,11.34-21,25.29V569.09c0,14,9.45,25.39,21,25.39H684.07c11.58,0,21-11.34,21-25.39V146.76c0-13.95-9.41-25.29-21-25.29Z"/><path class="cls-4" d="M705.25,146.72v46.22H.16V146.72c0-14,9.41-25.33,21.05-25.33h663C695.85,121.39,705.25,132.73,705.25,146.72Z"/><circle class="cls-5" cx="40.7" cy="158.36" r="6.96"/><circle class="cls-5" cx="70.98" cy="158.36" r="6.96"/><circle class="cls-5" cx="101.27" cy="158.36" r="6.96"/><rect class="cls-6" x="38.95" y="224.36" width="53.08" height="41.54" rx="1.94"/><line class="cls-7" x1="49.11" y1="234.06" x2="81.88" y2="234.06"/><line class="cls-7" x1="49.11" y1="245.13" x2="81.88" y2="245.13"/><line class="cls-7" x1="49.11" y1="256.21" x2="81.88" y2="256.21"/><rect class="cls-3" x="40.78" y="292.19" width="281.35" height="178.66" rx="5.21" transform="translate(-2.98 1.43) rotate(-0.45)"/><path class="cls-5" d="M174.6,311.93a66.74,66.74,0,1,0,66.53,66.95A66.82,66.82,0,0,0,174.6,311.93Zm0,7.59A94.69,94.69,0,0,1,195.8,355a73.62,73.62,0,0,1-42.61-.33A94.88,94.88,0,0,1,174.57,319.52Zm22.48,76.85a79.86,79.86,0,0,0-45.39,0,73.58,73.58,0,0,1-.18-35.71,78.23,78.23,0,0,0,46,.35A73.43,73.43,0,0,1,197.05,396.37Zm-1.8,6c-3.78,11.08-10.45,22.83-21.05,35-10.46-12.18-17-23.91-20.76-35A73.8,73.8,0,0,1,195.25,402.41Zm7.91-43.21A99.22,99.22,0,0,0,226,347.38a59.85,59.85,0,0,1-.21,62.92,98.18,98.18,0,0,0-22.81-12A80,80,0,0,0,203.16,359.2Zm19.28-17a92.82,92.82,0,0,1-21,10.94,104.45,104.45,0,0,0-19.14-34.29A60.35,60.35,0,0,1,222.44,342.17Zm-55.58-23.4a104.58,104.58,0,0,0-19.27,33.92,97.2,97.2,0,0,1-20.76-11.17A60.33,60.33,0,0,1,166.86,318.77Zm-43.65,27.92a103.17,103.17,0,0,0,22.6,12.07,80,80,0,0,0-.07,39.63,104,104,0,0,0-22.72,12,59.91,59.91,0,0,1,.19-63.66Zm3.4,68.84a98.28,98.28,0,0,1,20.9-11.07c3.61,10.87,9.78,22.32,19.39,34.14A60.36,60.36,0,0,1,126.61,415.53Zm54.88,23.11c9.77-11.84,16-23.33,19.69-34.26a93.81,93.81,0,0,1,21,11.11A60.38,60.38,0,0,1,181.49,438.64Z"/><rect class="cls-2" x="359.99" y="330.48" width="291.35" height="23.06"/><rect class="cls-2" x="359.99" y="294.94" width="291.72" height="23.06"/><rect class="cls-2" x="359.99" y="404.23" width="289.07" height="9.2"/><rect class="cls-2" x="359.99" y="431.87" width="289.52" height="9.2"/><rect class="cls-2" x="359.99" y="459.52" width="289.52" height="9.2"/><rect class="cls-2" x="40.59" y="493.32" width="607.97" height="9.2"/><rect class="cls-2" x="40.59" y="520.97" width="608.92" height="9.2"/><rect class="cls-2" x="40.59" y="548.62" width="608.92" height="9.2"/><rect class="cls-2" x="124.54" y="223.88" width="527.59" height="39.74"/><path class="cls-8" d="M668.88,456c.68,42.51,8.46,76.86,17.39,76.71S701.88,498,701.2,455.45s-8.46-76.86-17.39-76.72S668.2,413.45,668.88,456Z"/><path class="cls-8" d="M680.18,518.38c31.37-16.36,13.35,128.23,2,164.3s-14.18-3.29-14.38-63S667.84,524.81,680.18,518.38Z"/><path class="cls-8" d="M663.21,489.9,668,680.07h18.64s16.57-123.22,12.54-151.52L707,497.83Z"/><path class="cls-8" d="M612.09,449.89c-6.78,42-5.12,77.15,3.69,78.57S637.23,497,644,455s5.12-77.15-3.69-78.57S618.86,407.92,612.09,449.89Z"/><path class="cls-8" d="M612.29,513.32C646,502.71,614,661.16,596.5,694.69s-13.39-5.73-3.13-64.57S599,517.49,612.29,513.32Z"/><path class="cls-8" d="M603.16,490.24,582.8,686.55l19.32,1.91S631.57,585.15,633,532l17.14-56.94Z"/><path class="cls-3" d="M622.83,359.9s-24,102-27.78,186.88l106.66,2.41s23-155.15-.48-189.47Z"/><path class="cls-8" d="M559.32,741.85c11.65,9,32.14-7.33,33.23-11.15s2.35-17.57,5.14-20.84,6.75-9.11,5.93-12.69a33.76,33.76,0,0,1-.67-5c-.31-3.5-.42-7.13-.42-7.13l-19.08-3.2S576,700,571,713.47a29.74,29.74,0,0,1-6,9.39C558.39,730.31,550.79,735.25,559.32,741.85Z"/><rect class="cls-3" x="597.81" y="700.7" width="4.31" height="20.36" transform="translate(1199.93 1421.77) rotate(180)"/><path class="cls-3" d="M559.32,741.85c11.65,9,32.14-7.33,33.23-11.15s2.35-17.57,5.14-20.84,6.75-9.11,5.93-12.69a33.76,33.76,0,0,1-.67-5c-2.53,4.1-8.79,14.35-10.3,18.32-1.93,5-2.22,19.65-14.28,19.74-9.13.08-12.85-3.05-13.37-7.36C558.39,730.31,550.79,735.25,559.32,741.85Z"/><path class="cls-8" d="M666.05,698.51c0,.33.15.73.2,1.25.75,6.75.17,29.65.07,32.32-.07,2.83,3.79,7.75,14.5,7.75s12.59-2.77,12.93-12.86c.2-5.23-1.47-11.61-3.1-17.58a92.66,92.66,0,0,1-3.11-14.25c-.77-7.74-.78-15.77-.78-15.77H668.1A76.14,76.14,0,0,0,666.05,698.51Z"/><path class="cls-3" d="M666.32,732.08c-.07,2.83,3.79,7.75,14.5,7.75s12.59-2.77,12.93-12.86c.2-5.23-1.47-11.61-3.1-17.58,0,0,.34,21.07-11.23,20.36s-13.1-30.19-13.1-30.19a1.57,1.57,0,0,1-.07.2C667,706.51,666.42,729.41,666.32,732.08Z"/><path class="cls-8" d="M638.51,253C628.39,271,590,341.16,576.29,334.46c-7.7-3.76-2.77-19.56,5.77-36.5,3.64-7.24,8-14.69,12.2-21.5,6.62-10.6,13.12-19.66,16.85-24,9.78-11.31,20.78-21.64,27.18-12.45A12.29,12.29,0,0,1,638.51,253Z"/><path class="cls-9" d="M583.88,320.4c0-.77-1-12-1.82-22.44,3.64-7.24,8-14.69,12.2-21.5l.69-.14S584.23,318.86,583.88,320.4Z"/><path class="cls-3" d="M698.26,266c.4-.79,12.52-16.62,9.59-34s-20-29.18-22.89-43.08-8-27.2-30.54-29-37,19.15-37,40.09,3.53,43.28,22.12,61.87S698.26,266,698.26,266Z"/><path class="cls-8" d="M644.63,235.55s13.08,12,13.37,12,29.51-14.93,19.93-13.68c-6.06.8-8.76-5.07-9.92-9.49-.23-.85-.4-1.62-.53-2.31-.11-.52-.17-1-.21-1.34-.07-.6-.1-1-.1-1s-18.73-.09-20.55,5.67a2.67,2.67,0,0,0-.13,1.33,19.58,19.58,0,0,1,.12,3.73,12.12,12.12,0,0,1-.32,2.3C645.71,235,644.63,235.55,644.63,235.55Z"/><path class="cls-10" d="M646.29,232.77a18.15,18.15,0,0,0,6.68.63c6.55-.6,11.52-4.06,15-9.05-.23-.85-.4-1.62-.53-2.31-.11-.52-.17-1-.21-1.34-3.83.08-16.75.63-20.65,4.71a2.67,2.67,0,0,0-.13,1.33,19.58,19.58,0,0,1,.12,3.73A12.12,12.12,0,0,1,646.29,232.77Z"/><path class="cls-8" d="M628.82,196.62c1.36,15.1,9.81,34,24.91,32.69s20.82-19.52,19.45-34.62-4.38-29.25-19.48-27.89A27.47,27.47,0,0,0,628.82,196.62Z"/><ellipse class="cls-3" cx="637.55" cy="202.2" rx="1.61" ry="2.88" transform="translate(-15.61 58.18) rotate(-5.16)"/><ellipse class="cls-3" cx="656.58" cy="200.48" rx="1.61" ry="2.88" transform="translate(-15.37 59.89) rotate(-5.16)"/><path class="cls-11" d="M640.08,192.78c-.29,0-3.89-.73-6.66,1.29"/><path class="cls-11" d="M659.12,191.06c-.29,0-3.89-.73-6.66,1.29"/><path class="cls-12" d="M647,205.64s-1,4.43-.83,5.52,1.93,1.82,1.93,1.82"/><path class="cls-5" d="M654,217.75s-5.75,7.14-10.38.49Z"/><path class="cls-8" d="M648.59,234.88a47.93,47.93,0,0,0-8.47.9q-2.45.42-5.55,1.15l-2.42.62c-8.31,2.21-11.28,12.43-14.11,24.26-.76,3.17-1.52,6.46-2.36,9.73-4,15.53,7.44,30.16,9.34,40.1s-.2,30.54,4.74,33,69.63,3.11,71.3,1.63c1.1-1,5.19-26.38,9.3-55.31,2.09-14.65,3.28-28.42,2.3-36.79-1.43-12.16-9.36-17.46-17.1-19.69a34.12,34.12,0,0,0-3.74-.88,45.13,45.13,0,0,0-12.28-.47Z"/><path class="cls-13" d="M637,236.05s-6.54-1.73-14.39,4.36-21.88,23.51-29,35.64l30.25,21.6Z"/><path class="cls-14" d="M709,291.11c-4.12,28.92-14.59,31.57-4.9,71.3,1.39,5.7-82,4.23-81.49-1.29a342.32,342.32,0,0,0,1.68-36.53c0-3.74-.06-7.14-.26-9.73-.1-1.12-.19-2.08-.33-2.89a.46.46,0,0,1-.05-.2,26.68,26.68,0,0,0-.89-3.36c-.32-.93-.65-1.86-1-2.85l-.26-.67h0c-3.79-9.28-10.24-21-7.09-33.23.18-.74.36-1.44.57-2.12A33.37,33.37,0,0,1,620,259.1c1.72-2.36,2.41-3.42,4.08-5.83a141.1,141.1,0,0,0,9.12-16.22c.55-1.11,5.53-1.15,5.53-1.15-1.62,3.75-6.25,15.3-3.47,17.87,3.3,3.06,39.68,1.29,43.87-2.94,3.58-3.69,9.19-14.57,11.23-17.46.34-.48,3.42.1,3.92.74,0,0,0,0-.09.49C693,240.28,684.41,271.59,709,291.11Z"/><path class="cls-15" d="M690,285.34l-1.1-18.88-4.69,69.21s12.18-6.51,12.15-6.87S690,285.34,690,285.34Z"/><path class="cls-15" d="M668.92,301.22c-9.21,3.38-30.87,10.83-45.2,10.75a.46.46,0,0,1-.05-.2,26.68,26.68,0,0,0-.89-3.36c-.32-.93-.65-1.86-1-2.85C627.47,305.93,651.35,307.11,668.92,301.22Z"/><path class="cls-8" d="M710.9,344c-2.51.49-4.79-.49-6.81-2.58-4.65-4.8-8-15.42-10.37-27.49-.7-3.62-1.3-7.36-1.83-11.12-1-6.94-1.61-13.94-2-20.23a164,164,0,0,1-.3-19.9c.62-8.74,1.88-17.46,5.26-22.07,2.06-2.82,4.94-4.07,9-2.86a11.41,11.41,0,0,1,7.25,6.91c.2.54.36,1.11.52,1.7a.32.32,0,0,1,0,.14c.06.27.1.53.15.8.22,1.63.51,3.63.82,5.95.23,1.53.48,3.2.72,5,.11.86.24,1.7.36,2.61v.1c.09.5.16,1,.23,1.53C717.76,291.26,723.18,341.68,710.9,344Z"/><path class="cls-8" d="M690,285.34l1.61,40.23-43,10.1s39,9.12,41.41,7.93,21.8-14.47,21.6-15.46-3-12.68-3.37-13.27S690,285.34,690,285.34Z"/><path class="cls-8" d="M696.85,265.43c.13.24,8.2-.59,13.19-1.13,2.22-.22,3.82-.41,3.82-.41s0-.53-.06-1.43v-.11c-.11-1.88-.35-5.23-.87-8.88-.32-2.11-.73-4.31-1.25-6.36a.29.29,0,0,0,0-.14c-.16-.63-.32-1.23-.52-1.8a16.52,16.52,0,0,0-2.39-5.09c-3.51-4.48-14.38-6-14.38-6s.21,2.79.52,6.69C695.53,249.91,696.72,265.17,696.85,265.43Z"/><path class="cls-14" d="M690.82,233.2s22.58.24,24.54,18.66,3.17,32.89,3.17,32.89l-29.16.36S686,242.92,690.82,233.2Z"/><path class="cls-8" d="M715.33,341.34a16.16,16.16,0,0,1-12.25,9.07c-24.17,4-100.36,14.28-106.05,5.46-5.25-8.15,100.71-34.53,113.18-28.51C716.32,330.31,718.33,334.52,715.33,341.34Z"/><path class="cls-3" d="M676.44,193.86c-16.25.39-25.25-16.54-25.25-17.13,0,0-24.17,9.32-28.86,26.35,0,0-3.53.78-3.33.2s.78-23.29,13.31-29,23.29-13.11,32.29-6.85S676.44,193.86,676.44,193.86Z"/><path class="cls-8" d="M671.54,196.21s4.5-3.82,5.29.78-5.29,13.5-5.29,13.5"/><path class="cls-12" d="M672.57,199.29s2.74-1.22,1.22,2.93"/><path class="cls-8" d="M577.19,335.07c-5-1.53-8.52-6-9.77-11.07-5.87-23.71-22.24-98.73-14.22-105.6,7.41-6.35,41.29,104.74,37,109.68C587,331.78,584,337.18,577.19,335.07Z"/><polygon class="cls-5" points="660.99 343.86 633.55 356.28 582.42 356.79 582.27 341.58 660.84 340.8 660.99 343.86"/><polygon class="cls-3" points="660.99 344.29 635 356.27 582.42 356.79 582.39 352.95 633.63 352.44 660.96 340.8 660.99 344.29"/><polygon class="cls-3" points="561.89 356.99 635 356.27 613.88 306.63 540.77 307.35 561.89 356.99"/><polygon class="cls-4" points="559.83 357.01 632.94 356.29 611.82 306.65 538.71 307.37 559.83 357.01"/><path class="cls-8" d="M610.35,358.85s-11.88-9.23-21.33-8.55S587.3,357,587.3,357s7.74,2.63,10.87,2.73C607.08,360,610.35,358.85,610.35,358.85Z"/><ellipse class="cls-5" cx="583.93" cy="332.74" rx="4.26" ry="6.42" transform="translate(-82.78 247.95) rotate(-22.43)"/><path class="cls-8" d="M539.58,211.26c-1.55,4-7.31,6.16-4,14.67s17.54,12.42,17.54,12.42l7.58-10.8s-1.9-2.91-2.07-5a20,20,0,0,0-8.81-13.88c-6.8-4.22-17.68-9.1-19.38-7.17S540.8,208.09,539.58,211.26Z"/><rect class="cls-3" y="748.83" width="796.96" height="4.9"/><path class="cls-14" d="M181,630.08c-1.38.51-6.18-9.88-6.63-10.9a54.17,54.17,0,0,1-3.44-30.39A76,76,0,0,1,181.4,561.1c4.25-6.61,10.06-13.34,17.13-15.3a9.82,9.82,0,0,1,10.91,3.84c2.51,3.39,3.72,8.12,4.13,12.48,1.31,14-2,27.46-6.35,40-3.31,9.54-7.84,19.64-16.12,24A82,82,0,0,1,181,630.08Z"/><path class="cls-16" d="M171.19,710.85c1.32-21,7.18-85.47,21-126.18"/><path class="cls-14" d="M160.09,634.82c.94.42,4.48-6.39,4.81-7.06a35.85,35.85,0,0,0,3-20.52,54.13,54.13,0,0,0-6.68-19.46c-2.81-4.74-6.69-9.66-11.54-11.39a6.6,6.6,0,0,0-7.62,2,16.39,16.39,0,0,0-3.11,8.27c-1.2,9.44.8,18.83,3.56,27.65,2.09,6.68,5,13.82,10.65,17.25A62.1,62.1,0,0,0,160.09,634.82Z"/><path class="cls-14" d="M143.27,662.66c1,0,2.13-7.88,2.22-8.65a35.56,35.56,0,0,0-3.74-20.35,46.46,46.46,0,0,0-12.38-15.15c-4.11-3.17-9.28-6-14.33-5.53a7.49,7.49,0,0,0-6.43,5.19,17.38,17.38,0,0,0-.26,9c1.89,9.29,6.73,17.13,12.09,24.11,4.07,5.29,9.05,10.64,15.38,11.36A56.13,56.13,0,0,0,143.27,662.66Z"/><path class="cls-16" d="M170.12,714.38S167,648.45,151.59,602"/><path class="cls-14" d="M186.75,679.23c-1-.29-.55-8.24-.48-9a33.55,33.55,0,0,1,7.58-18.83,41.71,41.71,0,0,1,15-11.45c4.62-2,10.2-3.42,15-1.58a8.27,8.27,0,0,1,5.26,6.77,17.25,17.25,0,0,1-1.5,8.87c-3.64,8.54-9.87,14.88-16.45,20.25-5,4.07-10.88,8-17.18,7A56.45,56.45,0,0,1,186.75,679.23Z"/><path class="cls-16" d="M173.49,711.26c.71-1.66,8.52-32,28-50.33"/><path class="cls-16" d="M168.52,712.51s-17.75-44.09-40.12-72"/><polygon class="cls-17" points="142.04 751.83 199.14 751.83 208.71 690.23 132.46 690.24 142.04 751.83"/><rect class="cls-4" x="129.61" y="686.27" width="81.96" height="17.1" rx="1.39" transform="matrix(-1, 0, 0, -1, 341.23, 1389.64)"/><circle class="cls-5" cx="326.5" cy="171.3" r="148.7"/><path class="cls-14" d="M447.66,50.1c-66.8-66.8-175.51-66.8-242.32,0a171.34,171.34,0,1,0,242.32,0ZM201.72,171.26a124.76,124.76,0,0,1,195-103.1l-173.3,173.3A123.84,123.84,0,0,1,201.72,171.26Zm213,88.23h0a124.75,124.75,0,0,1-158.43,14.9L429.63,101.05a124.74,124.74,0,0,1-14.89,158.44Z"/></g></g></g></svg>