<svg xmlns="http://www.w3.org/2000/svg" xmlns:xlink="http://www.w3.org/1999/xlink" viewBox="0 0 1970.73 1398.96"><defs><style>.cls-1,.cls-5{fill:none;}.cls-2{clip-path:url(#clip-path);}.cls-3{fill:#5590a9;}.cls-4{fill:#f5a790;}.cls-5{stroke:#341e14;stroke-linecap:round;stroke-linejoin:round;stroke-width:24px;}.cls-6{fill:#f7b4a5;}.cls-7{fill:#eb602e;}.cls-8{fill:#fff;}.cls-9{fill:#ae2317;}.cls-10{fill:#e6643d;}.cls-11{fill:#5e5e5e;}.cls-12{fill:#341e13;}.cls-13{fill:#eaa498;}.cls-14{fill:#dba59f;}.cls-15{fill:#c66040;}.cls-16{fill:#f1d7be;}.cls-17{fill:#ca6815;}.cls-18{fill:#3f4f57;}.cls-19{fill:#323e45;}.cls-20{fill:#e8613c;}.cls-21{fill:#e14f27;}.cls-22{fill:#dbc3ae;}.cls-23{fill:#303030;}</style><clipPath id="clip-path" transform="translate(-4.97 91.64)"><rect class="cls-1" width="1978.22" height="1307.32"/></clipPath></defs><g id="Capa_2" data-name="Capa 2"><g id="Capa_1-2" data-name="Capa 1"><g class="cls-2"><path class="cls-3" d="M972-85.18l-1.08-6.46" transform="translate(-4.97 91.64)"/><path class="cls-4" d="M159.47,1256.55C-94.29,1131.13-14.29,583.78,245.75,544.77c368-55.21,436.71,150.56,753.27,47.09C1218.57,520.11,1257.1,17.38,1623,46.33c316.57,25.06,426.16,323.69,304,534.8-92.54,159.89-251.4,223.76-246.14,302.55,9.73,145.58,350.13,80.33,244,370" transform="translate(-4.97 91.64)"/></g><path class="cls-4" d="M59.3,650.84c0-16.19,69.29-172.2,247.43-172.2S627,542,627,558.2s-140.28-44.92-318.43-44.92S59.3,667,59.3,650.84Z" transform="translate(-4.97 91.64)"/><path class="cls-4" d="M1328.72,105c113.22-119.11,335-110.74,334.39-84.24-.39,17.31-194.84-14.51-308.07,104.61s-143.86,213.23-161.36,214c-20.15.87,21.81-115.23,135-234.35Z" transform="translate(-4.97 91.64)"/><path class="cls-4" d="M1695.45,889c0-72.81,55.81-94.78,111.6-151,58.79-59.27,80.87-99.07,84.89-97.1,5.52,2.71-22.75,55.7-73.78,111-53,57.46-100.2,76.35-96.19,136.91,3.34,50.44,83,66.09,114.07,85.2,27.69,17,78.72,61.16,75.62,66.06s-64.35-43.67-82.49-52.25c-46.89-22.2-133.72-38.43-133.72-98.84Z" transform="translate(-4.97 91.64)"/><path class="cls-4" d="M48.79,1197.86c-31.18-43.16-38.87-91.26-31.32-96.59s13.82,43.78,45,87,80.47,62.16,72.92,67.49S80,1241,48.79,1197.86Z" transform="translate(-4.97 91.64)"/><path class="cls-5" d="M1326.48,390.36C1586.11,370,1645.53,566.6,1520.57,754c-127.29,190.94-532-145.1-603.34,91.64-57.73,191.61,164.69,295.52,384.68,209" transform="translate(-4.97 91.64)"/><path class="cls-6" d="M510.69,214.47H1376a1,1,0,0,1,1,1V722a1,1,0,0,1-1,1H510.69a1,1,0,0,1-1-1V215.44a1,1,0,0,1,1-1Z" transform="translate(-4.97 91.64)"/><path class="cls-7" d="M510.69,179.25H1376c.53,0,1,.07,1,.16v85.52c0,.09-.45.16-1,.16H510.69c-.54,0-1-.07-1-.16V179.41c0-.09.44-.16,1-.16Z" transform="translate(-4.97 91.64)"/><path class="cls-8" d="M750.75,420.63H717.11v18.19h31.77v24H717.11v18.77h33.64v24H688.81V396.66h61.94Z" transform="translate(-4.97 91.64)"/><path class="cls-8" d="M799.4,445.31h5.34q8.37,0,12.85-3.46t4.48-10q0-6.5-4.48-10t-12.85-3.47H799.4Zm62.23,60.21H826.4l-27-41.87v41.87H771.11V396.66h44A43.23,43.23,0,0,1,831,399.33a29.88,29.88,0,0,1,17.83,18,37.25,37.25,0,0,1,2.24,13q0,12.42-6,20.14t-17.68,10.47Z" transform="translate(-4.97 91.64)"/><path class="cls-8" d="M901.76,445.31h5.34q8.37,0,12.85-3.46t4.47-10q0-6.5-4.47-10t-12.85-3.47h-5.34ZM964,505.52H928.76l-27-41.87v41.87h-28.3V396.66h44a43.28,43.28,0,0,1,15.89,2.67,29.9,29.9,0,0,1,17.82,18,37,37,0,0,1,2.24,13q0,12.42-6,20.14t-17.69,10.47Z" transform="translate(-4.97 91.64)"/><path class="cls-8" d="M998.48,451.09a29,29,0,0,0,2.46,12,30,30,0,0,0,16.38,15.81,32,32,0,0,0,23.54,0,31,31,0,0,0,9.81-6.28,29.84,29.84,0,0,0,6.72-9.53,30.51,30.51,0,0,0,0-24,29.73,29.73,0,0,0-6.72-9.53,31,31,0,0,0-9.81-6.28,32,32,0,0,0-23.54,0,30,30,0,0,0-16.38,15.81,28.92,28.92,0,0,0-2.46,12Zm-29.59,0A56.1,56.1,0,0,1,1004.76,398a69.25,69.25,0,0,1,48.58,0,57.3,57.3,0,0,1,19.13,12.2A55.84,55.84,0,0,1,1085,428.5a59.34,59.34,0,0,1,0,45.19A55.91,55.91,0,0,1,1072.47,492a57.27,57.27,0,0,1-19.13,12.19,69.1,69.1,0,0,1-48.58,0,56.26,56.26,0,0,1-35.87-53.05Z" transform="translate(-4.97 91.64)"/><path class="cls-8" d="M1135.63,445.31H1141q8.38,0,12.85-3.46t4.48-10q0-6.5-4.48-10T1141,418.46h-5.34Zm62.22,60.21h-35.22l-27-41.87v41.87h-28.29V396.66h44a43.26,43.26,0,0,1,15.88,2.67,29.88,29.88,0,0,1,17.83,18,37.25,37.25,0,0,1,2.24,13q0,12.42-6,20.14t-17.68,10.47Z" transform="translate(-4.97 91.64)"/><path class="cls-9" d="M1214.57,510.05a5,5,0,0,1-.07,7.09l-26.27,25.75a5,5,0,0,1-7-7.17L1207.48,510a5,5,0,0,1,7.09.07Z" transform="translate(-4.97 91.64)"/><path class="cls-9" d="M1181.14,510.05a5,5,0,0,0,.07,7.09l26.27,25.75a5,5,0,0,0,7-7.17L1188.23,510a5,5,0,0,0-7.09.07Z" transform="translate(-4.97 91.64)"/><path class="cls-9" d="M705.53,359.37a5,5,0,0,1-.07,7.09L679.19,392.2a5,5,0,0,1-7-7.17l26.27-25.74a5,5,0,0,1,7.09.08Z" transform="translate(-4.97 91.64)"/><path class="cls-9" d="M672.1,359.37a5,5,0,0,0,.07,7.09l26.27,25.74a5,5,0,0,0,7-7.17l-26.27-25.74a5,5,0,0,0-7.09.08Z" transform="translate(-4.97 91.64)"/><path class="cls-9" d="M1196.42,290.37a5,5,0,0,1-.07,7.09l-26.27,25.75a5,5,0,0,1-7-7.17l26.27-25.74a5,5,0,0,1,7.09.07Z" transform="translate(-4.97 91.64)"/><path class="cls-9" d="M1163,290.37a5,5,0,0,0,.07,7.09l26.27,25.75a5,5,0,0,0,7-7.17l-26.27-25.74a5,5,0,0,0-7.09.07Z" transform="translate(-4.97 91.64)"/><path class="cls-9" d="M669.23,640.18a5,5,0,0,1-.07,7.09L642.89,673a5,5,0,0,1-7-7.17l26.27-25.74a5,5,0,0,1,7.09.08Z" transform="translate(-4.97 91.64)"/><path class="cls-9" d="M635.8,640.18a5,5,0,0,0,.07,7.09L662.14,673a5,5,0,0,0,7-7.17L642.89,640.1a5,5,0,0,0-7.09.08Z" transform="translate(-4.97 91.64)"/><path class="cls-10" d="M565.9,288.87H698a8.94,8.94,0,1,1,0,17.88H565.9a8.94,8.94,0,1,1,0-17.88Z" transform="translate(-4.97 91.64)"/><path class="cls-10" d="M752.57,288.87h89a8.94,8.94,0,1,1,0,17.88h-89a8.94,8.94,0,0,1,0-17.88Z" transform="translate(-4.97 91.64)"/><path class="cls-10" d="M761,535.52h364.61a8.8,8.8,0,0,1,0,17.6H761a8.8,8.8,0,1,1,0-17.6Z" transform="translate(-4.97 91.64)"/><path class="cls-10" d="M805.86,566.23h254.42a8.8,8.8,0,0,1,0,17.6H805.86a8.8,8.8,0,0,1,0-17.6Z" transform="translate(-4.97 91.64)"/><path class="cls-10" d="M873.68,597.05H1013a8.8,8.8,0,1,1,0,17.59H873.68a8.8,8.8,0,1,1,0-17.59Z" transform="translate(-4.97 91.64)"/><path class="cls-11" d="M1392.31,1032h70.29a8.69,8.69,0,0,1,0,17.38h-70.29a8.69,8.69,0,0,1,0-17.38Z" transform="translate(-4.97 91.64)"/><path class="cls-11" d="M1392.31,1121.55h70.29a8.69,8.69,0,0,1,0,17.38h-70.29a8.69,8.69,0,0,1,0-17.38Z" transform="translate(-4.97 91.64)"/><path class="cls-7" d="M1167.54,1085.48a90.6,90.6,0,0,0,90.6,90.58h125.48V994.89H1258.14a90.6,90.6,0,0,0-90.6,90.59Z" transform="translate(-4.97 91.64)"/><path class="cls-12" d="M1383.62,981.07a9.27,9.27,0,0,1,9.27,9.26v190.28a9.27,9.27,0,0,1-18.53,0V990.33a9.27,9.27,0,0,1,9.26-9.26Z" transform="translate(-4.97 91.64)"/><path class="cls-13" d="M160,1252c0-30.58,395.2-55.35,882.7-55.35s882.7,24.77,882.7,55.35-395.19,55.34-882.7,55.34S160,1282.54,160,1252Z" transform="translate(-4.97 91.64)"/><path class="cls-14" d="M321.23,1250.74c0-8.67,42.19-15.7,94.24-15.7s94.24,7,94.24,15.7-42.2,15.7-94.24,15.7-94.24-7-94.24-15.7Z" transform="translate(-4.97 91.64)"/><path class="cls-12" d="M1658.87,1085.48c0-62.28,16.71-164.83,16.71-164.83s42.5-1.68,55.34-1.68c39.79,0,72,74.55,72,166.51s-32.25,166.5-72,166.5h-45.1s-27-96-27-166.5Z" transform="translate(-4.97 91.64)"/><path class="cls-7" d="M1613.78,1085.48c0-92,32.25-166.51,72-166.51s72,74.55,72,166.51-32.26,166.5-72,166.5-72-74.55-72-166.5Z" transform="translate(-4.97 91.64)"/><path class="cls-15" d="M1666.57,1033.65c0-12,3-21.67,6.64-21.67s6.63,9.7,6.63,21.67-3,21.68-6.63,21.68-6.64-9.71-6.64-21.68Z" transform="translate(-4.97 91.64)"/><path class="cls-15" d="M1666.57,1133.82c0-12,3-21.68,6.64-21.68s6.63,9.7,6.63,21.68-3,21.67-6.63,21.67-6.64-9.7-6.64-21.67Z" transform="translate(-4.97 91.64)"/><path class="cls-12" d="M1674.77,1112.8c-2.91,2.3-5.07,10.81-5.07,21s2.16,18.71,5.07,21c2.9-2.29,5.06-10.79,5.06-21s-2.16-18.72-5.06-21Z" transform="translate(-4.97 91.64)"/><path class="cls-12" d="M1674.77,1012.65c-2.91,2.3-5.07,10.8-5.07,21s2.16,18.71,5.07,21c2.9-2.29,5.06-10.79,5.06-21s-2.16-18.7-5.06-21Z" transform="translate(-4.97 91.64)"/><path class="cls-8" d="M417.9,851.5s-2.15,28.6-.7,48.31,6.5,30.52,6.5,30.52l-88.61,14.38L332.78,866Z" transform="translate(-4.97 91.64)"/><path class="cls-16" d="M429.41,1209.37,430,1236s-4.18,2.77-8.12,3.23a15.61,15.61,0,0,1-7.69-1.38l-3.65-27Z" transform="translate(-4.97 91.64)"/><path class="cls-9" d="M451.86,1252c.21-4.06.52-9.63-8.2-9.82-9-.19-5.41-7.12-13.86-7.55-2.57-.14-5.91,3.07-9.14,2.72-4.21-.45-7.1-5.67-9.49-3.68-4.69,3.91-4.24,9.43-4.58,16" transform="translate(-4.97 91.64)"/><path class="cls-17" d="M406.73,1246.19l45.14,2.28a11.58,11.58,0,0,1,.11,1.59c0,.87-.12,1.92-.12,1.92l-45.27-2.33Z" transform="translate(-4.97 91.64)"/><path class="cls-16" d="M429.41,1209.37,430,1236s-4.18,2.77-8.12,3.23a15.61,15.61,0,0,1-7.69-1.38l-3.65-27Z" transform="translate(-4.97 91.64)"/><path class="cls-9" d="M451.86,1252c.21-4.06.52-9.63-8.2-9.82-9-.19-5.41-7.12-13.86-7.55-2.57-.14-5.91,3.07-9.14,2.72-4.21-.45-7.1-5.67-9.49-3.68-4.69,3.91-4.24,9.43-4.58,16" transform="translate(-4.97 91.64)"/><path class="cls-17" d="M406.73,1246.19l45.14,2.28a11.58,11.58,0,0,1,.11,1.59c0,.87-.12,1.92-.12,1.92l-45.27-2.33Z" transform="translate(-4.97 91.64)"/><path class="cls-16" d="M356.14,1209.37l.55,26.64s-4.17,2.77-8.12,3.23a15.55,15.55,0,0,1-7.68-1.38l-3.65-27Z" transform="translate(-4.97 91.64)"/><path class="cls-9" d="M378.59,1252c.21-4.06.52-9.63-8.2-9.82-9-.19-5.41-7.12-13.86-7.55-2.58-.14-5.91,3.07-9.14,2.72-4.21-.45-7.1-5.67-9.49-3.68-4.69,3.91-4.25,9.43-4.58,16" transform="translate(-4.97 91.64)"/><path class="cls-17" d="M333.46,1246.19l45.14,2.28a11.58,11.58,0,0,1,.11,1.59c0,.87-.12,1.92-.12,1.92l-45.27-2.33Z" transform="translate(-4.97 91.64)"/><path class="cls-18" d="M335.09,930.06l0,299.86,24.36-.68,28.48-290.57Z" transform="translate(-4.97 91.64)"/><path class="cls-16" d="M372.81,654.68l6.4,6.49s-26,55-20.25,65.32C367.12,741,397,765,397,765l-23.32,39.18s-33.36-56.4-37.74-74.93c-3.62-15.3,36.86-74.6,36.86-74.6Z" transform="translate(-4.97 91.64)"/><path class="cls-18" d="M423.7,930.33,435,1228.5l-25.93.75L372.59,938.67Z" transform="translate(-4.97 91.64)"/><path class="cls-19" d="M380,997.5l-7.25-14.63-7.18-27.27s.8,16,2.71,27.16,4.91,17.52,4.91,17.52l36.09,229,4.28-.12Z" transform="translate(-4.97 91.64)"/><path class="cls-20" d="M379.21,672.31s-22.39,34.61-20.7,50.38C360.58,742,443.42,789,415,814.06S331.1,745.35,326,733.93c-5.81-13.08,35.6-69.75,35.6-69.75" transform="translate(-4.97 91.64)"/><path class="cls-7" d="M423.4,780.93c-2.89-36.66-61.57-48.1-73.48-5.83-9.16,32.5-12.67,55-21,120.86-1.7,13.45-5.64,26.44-7.62,44.19-2.63,23.56,90.63,15.49,82.17,4.48-15.58-20.25,13.78-59.32,14.44-93.13.48-25.12,7-51.91,5.5-70.57Z" transform="translate(-4.97 91.64)"/><path class="cls-21" d="M409.57,755.31,385,750.22s-5.72.71-6.19,3.07a4.36,4.36,0,0,0,3.42,5.12A44.55,44.55,0,0,0,393.29,762a157.59,157.59,0,0,0,16.81,2c4.65,0,5-3.32,5-3.32-1.25-1.5-5.56-5.32-5.56-5.32Z" transform="translate(-4.97 91.64)"/><path class="cls-16" d="M388.88,740.67a17.16,17.16,0,0,1-2,6.79c-1.78,3-4.5,4,1.27,6.84S410,759,410,759s-3.48-3-3.14-7.32a39.29,39.29,0,0,1,1.65-7.91Z" transform="translate(-4.97 91.64)"/><path class="cls-22" d="M406.8,752.79l.2-2.69-17.46-16.17-.68,6.73s3.08,6.2,8.15,9.12a29.19,29.19,0,0,0,9.79,3Z" transform="translate(-4.97 91.64)"/><path class="cls-16" d="M424.64,731.68c-.49-10.67,6.43-24.67-2.93-28.81-6.13-2.71-4,12.48-9.83,17.81-3.06,2.82-17.75-13.67-16.93-2.15s8.64,13.51,8.35,16.77c-.35,4-15.77-1.43-16.87.43-1.49,2.53,11.67,11.71,15.66,13.48,9.37,4.15,23-6.86,22.55-17.53Z" transform="translate(-4.97 91.64)"/><path class="cls-23" d="M426.64,688.74c-5.1-17.16-38.33-16.94-46.31-6.94-12.9,16.18-11.85,24.52-8.15,42.54,1.86,9.08,23.28,24.78,30.33,14.78,5.65-8-6.94-10.71-4-20.21,2.83-9.2,10.92,15.08,19.8.7,1.17-1.91,2.17-3.75,3.18-5.76,1.43-2.82,10.52-6.38,9.94-9.81" transform="translate(-4.97 91.64)"/><path class="cls-16" d="M489.87,686.48l-11.15.54s3.32,55.32-14.55,64.38c-9.15,4.63-58,22.35-58,22.35l3.34,10.62,4.94,15.72S469,782.64,482,764c15.63-22.32,7.83-77.47,7.83-77.47Z" transform="translate(-4.97 91.64)"/><path class="cls-7" d="M476.07,698.41s-1.53,35-11.07,47.69c-11.67,15.48-106.89,13.35-95.34,49.46s107.24-15.95,117.46-23.15c11.68-8.25,5.59-73.61,5.59-73.61" transform="translate(-4.97 91.64)"/><path class="cls-16" d="M492.25,666.2c-4.38-9.48-9.74-16.33-18.51-12.28S476,666.07,475,674.15c-.83,7,.48,20.61,9.26,16.55s12.34-15,8-24.5Z" transform="translate(-4.97 91.64)"/><path class="cls-16" d="M378.45,641.63c6.72-4.25,13-6.42,16.91-.2s-6.47,6.84-9.19,12.4c-2.35,4.82-8.82,13-12.76,6.76s-1.68-14.71,5-19Z" transform="translate(-4.97 91.64)"/><path class="cls-9" d="M457.41,532.13l20.48,6.24L445.16,621.2l-8.52-2.59Z" transform="translate(-4.97 91.64)"/><path class="cls-9" d="M431.37,626.79a7.89,7.89,0,1,1,5.25,9.84,7.9,7.9,0,0,1-5.25-9.84Z" transform="translate(-4.97 91.64)"/><path class="cls-9" d="M395.33,559.84l14.35-2.06L413.41,618l-6,.86Z" transform="translate(-4.97 91.64)"/><path class="cls-9" d="M406.56,625.41a5.34,5.34,0,1,1,6.05,4.53,5.35,5.35,0,0,1-6.05-4.53Z" transform="translate(-4.97 91.64)"/><path class="cls-9" d="M498.92,584.56l10.79,9.68-43.82,41.5-4.49-4Z" transform="translate(-4.97 91.64)"/><path class="cls-9" d="M455.43,634.69a5.34,5.34,0,1,1,.4,7.55,5.35,5.35,0,0,1-.4-7.55Z" transform="translate(-4.97 91.64)"/><path class="cls-23" d="M383.09,674.65c6.25-7.32,27,1.89,43.89,2.62,12.27.54,23.88-6.32,23.88-6.32s2.21,25-16.15,33.61-46,10.81-61.47,7.52c0,0-1.31-24.33,9.85-37.43Z" transform="translate(-4.97 91.64)"/><path class="cls-8" d="M479,694v4.85h12.16l-.45-5.21Z" transform="translate(-4.97 91.64)"/><path class="cls-8" d="M367.86,662.16s-.73,1-1.34,2-1.09,1.81-1.09,1.81l9.57,4.52,1.91-4.29Z" transform="translate(-4.97 91.64)"/><path class="cls-21" d="M414.83,871.51S384,921.28,380.72,942.07c-2.1,13.3,13.64,10.46,18.7,8s5.63-3.3,4.81-5.36c-1.63-4.05-5.4-9.52-3.65-19.89,3.5-20.75,14.25-53.31,14.25-53.31Z" transform="translate(-4.97 91.64)"/></g></g></svg>