<?xml version="1.0" encoding="UTF-8"?><svg id="a" xmlns="http://www.w3.org/2000/svg" viewBox="0 0 18 18"><defs><style>.b{fill:#6a79ae;}</style></defs><path class="b" d="M18,3.93c0-.46-.37-.83-.83-.83H.83c-.46,0-.83,.37-.83,.83V14.07c0,.46,.37,.83,.83,.83H17.17c.46,0,.83-.37,.83-.83V3.93Zm-5.32,6.46h4.79v3.09l-4.79-3.09Zm-2.82-.26v4.25h-1.73v-4.25c0-.15-.12-.26-.26-.26H.53v-1.73H7.87c.15,0,.26-.12,.26-.26V3.63h1.73V7.87c0,.15,.12,.26,.26,.26h7.35v1.73h-7.35c-.15,0-.26,.12-.26,.26Zm-2.25,4.25H2.2l5.41-3.49v3.49h0Zm-2.29-6.76H.53v-3.09l4.79,3.09ZM.53,10.39H5.32L.53,13.48v-3.09ZM10.39,3.63h5.41l-5.41,3.49V3.63Zm7.08,3.98h-4.79l4.79-3.09v3.09Zm0-3.72l-5.76,3.72h-1.11l6.17-3.98h.4c.15,0,.28,.12,.3,.27h0ZM.83,3.63h.4l5.18,3.34s.09,.04,.14,.04c.09,0,.17-.04,.22-.12,.08-.12,.04-.29-.08-.36L2.2,3.63H7.61v3.98h-1.32L.53,3.89c.02-.15,.14-.26,.3-.26h0Zm-.3,10.48l5.76-3.72h1.11L1.23,14.37h-.4c-.15,0-.28-.12-.3-.26h0Zm16.64,.26h-.4l-5.18-3.34c-.12-.08-.29-.04-.36,.08-.08,.12-.04,.29,.08,.36l4.49,2.9h-5.41v-3.98h1.32l5.76,3.72c-.02,.15-.14,.26-.3,.26h0Z"/></svg>