<?xml version="1.0" encoding="UTF-8"?><svg id="a" xmlns="http://www.w3.org/2000/svg" viewBox="0 0 18 18"><defs><style>.b{fill:#6a79ae;}</style></defs><path class="b" d="M17.17,3.1H.83c-.46,0-.83,.37-.83,.83V14.07c0,.46,.37,.83,.83,.83H17.17c.46,0,.83-.37,.83-.83V3.93c0-.46-.37-.83-.83-.83Zm0,11.27H.83c-.17,0-.3-.13-.3-.3v-1.43h.58c.15,0,.26-.12,.26-.26s-.12-.26-.26-.26H.53V5.88H15.76c.15,0,.26-.12,.26-.26s-.12-.26-.26-.26H.53v-1.43c0-.17,.13-.3,.3-.3H17.17c.17,0,.3,.13,.3,.3v1.43h-.58c-.15,0-.26,.12-.26,.26s.12,.26,.26,.26h.58v6.24H2.24c-.15,0-.26,.12-.26,.26s.12,.26,.26,.26h15.24v1.43c0,.17-.13,.3-.3,.3h0Z"/><path class="b" d="M5.34,11.24c.92,0,1.67-.75,1.67-1.67v-1.69c0-.15-.12-.26-.26-.26h-.58v-.3c0-.46-.37-.83-.83-.83s-.83,.37-.83,.83v.3h-.58c-.15,0-.26,.12-.26,.26v1.69c0,.92,.75,1.67,1.67,1.67h0Zm-1.15-1.67v-.02h.88v1.13c-.5-.12-.88-.57-.88-1.11Zm1.41,1.11v-1.13h.88v.02c0,.54-.38,.99-.88,1.11Zm.88-1.66h-.88v-.88h.88v.88Zm-1.45-1.71c0-.17,.13-.3,.3-.3s.3,.13,.3,.3v.3h-.6v-.3Zm.04,.83v.88h-.88v-.88h.88Z"/><path class="b" d="M2.8,10.95c.15,0,.26-.12,.26-.26v-2.82c0-.15-.12-.26-.26-.26s-.26,.12-.26,.26v2.82c0,.15,.12,.26,.26,.26Z"/><path class="b" d="M7.87,10.95c.15,0,.26-.12,.26-.26v-2.82c0-.15-.12-.26-.26-.26s-.26,.12-.26,.26v2.82c0,.15,.12,.26,.26,.26Z"/></svg>