<svg class="icon" id="a" xmlns="http://www.w3.org/2000/svg" viewBox="0 0 18 18"><defs><style>.b{fill:var(--medium-blue);}</style></defs><path class="b" d="M8.99,0c-.32,0-.65,.02-.97,.05-.29,.03-.58,.08-.87,.14-.06,.01-.11,.02-.17,.04-1.69,.38-3.23,1.25-4.44,2.49-.11,.12-.22,.23-.33,.36C-1.05,6.82-.66,12.51,3.09,15.78c3.59,3.13,9,2.92,12.34-.48,.11-.12,.22-.23,.33-.36,1.44-1.64,2.24-3.75,2.24-5.94C18,4.03,13.97,0,8.99,0ZM2.95,3.16s.1-.1,.15-.14c.06-.05,.11-.11,.17-.16,.05-.05,.1-.09,.15-.14,.06-.05,.12-.1,.18-.15,.05-.04,.11-.09,.16-.13,.06-.05,.12-.1,.18-.14,.05-.04,.11-.08,.17-.12,.06-.04,.12-.09,.19-.13,.06-.04,.11-.08,.17-.11,.06-.04,.13-.08,.19-.12,.06-.04,.12-.07,.18-.1,.07-.04,.13-.07,.2-.11,.06-.03,.12-.06,.18-.09,.07-.03,.14-.07,.21-.1,.06-.03,.12-.06,.18-.08,.07-.03,.14-.06,.21-.09,.06-.03,.12-.05,.19-.07,.07-.03,.15-.05,.22-.08,.06-.02,.13-.04,.19-.06,.07-.02,.15-.05,.23-.07,.06-.02,.13-.04,.19-.05,.02,0,.05-.01,.07-.02-.89,.86-1.55,1.93-1.92,3.12-.71-.19-1.4-.45-2.06-.79l.03-.03Zm-.43,.48c.72,.39,1.49,.7,2.28,.91-.39,1.35-.59,2.75-.61,4.16H.59c.07-1.85,.74-3.63,1.93-5.06Zm0,10.73c-1.18-1.43-1.86-3.21-1.93-5.06h3.6c.01,1.41,.22,2.8,.61,4.16-.79,.21-1.56,.52-2.28,.91Zm4.31,2.76c-.06-.02-.12-.04-.19-.05-.08-.02-.15-.04-.23-.07-.06-.02-.13-.04-.19-.06-.07-.03-.15-.05-.22-.08-.06-.02-.12-.05-.19-.07-.07-.03-.14-.06-.21-.09-.06-.03-.12-.05-.18-.08-.07-.03-.14-.07-.21-.1-.06-.03-.12-.06-.18-.09-.07-.04-.14-.07-.2-.11-.06-.03-.12-.07-.18-.1-.07-.04-.13-.08-.2-.12-.06-.04-.11-.07-.17-.11-.06-.04-.13-.09-.19-.13-.05-.04-.11-.08-.16-.12-.06-.05-.12-.1-.18-.14-.05-.04-.11-.08-.16-.13-.06-.05-.12-.1-.18-.15-.05-.05-.1-.09-.15-.14-.06-.05-.11-.11-.17-.16-.05-.05-.1-.09-.15-.14l-.03-.03c.65-.34,1.35-.6,2.06-.79,.37,1.18,1.03,2.25,1.92,3.12-.02,0-.05-.01-.07-.02Zm1.87,.26c-1.29-.18-2.41-1.52-3.12-3.5,1.02-.23,2.07-.35,3.12-.37v3.87h0Zm0-4.47c-1.11,.01-2.22,.15-3.31,.39-.38-1.3-.58-2.65-.59-4.01h3.9v3.61h0Zm0-4.21h-3.9c.02-1.36,.21-2.7,.59-4.01,1.09,.25,2.2,.38,3.31,.39v3.61Zm0-4.21c-1.05-.01-2.1-.14-3.12-.37,.71-1.98,1.84-3.32,3.12-3.5v3.87h0Zm6.77-.85c1.18,1.43,1.86,3.21,1.93,5.06h-3.6c-.01-1.41-.22-2.8-.61-4.16,.79-.21,1.56-.52,2.28-.91ZM11.15,.89c.06,.02,.13,.04,.19,.05,.08,.02,.15,.04,.23,.07,.06,.02,.13,.04,.19,.06,.07,.03,.15,.05,.22,.08,.06,.02,.12,.05,.19,.07,.07,.03,.14,.06,.21,.09,.06,.03,.12,.05,.18,.08,.07,.03,.14,.07,.21,.1,.06,.03,.12,.06,.18,.09,.07,.04,.14,.07,.2,.11,.06,.03,.12,.07,.18,.1,.07,.04,.13,.08,.2,.12,.06,.04,.11,.07,.17,.11,.06,.04,.13,.09,.19,.13,.06,.04,.11,.08,.16,.12,.06,.05,.12,.09,.18,.14,.05,.04,.11,.08,.16,.13,.06,.05,.12,.1,.18,.15,.05,.05,.1,.09,.15,.14,.06,.05,.11,.11,.17,.16,.05,.05,.1,.09,.15,.14l.03,.03c-.65,.34-1.35,.6-2.06,.79-.37-1.18-1.03-2.25-1.92-3.12,.02,0,.05,.01,.07,.02Zm-1.86-.26c1.29,.18,2.41,1.52,3.12,3.5-1.02,.23-2.07,.35-3.12,.37V.62h0Zm0,4.47c1.11-.01,2.22-.15,3.31-.39,.38,1.3,.58,2.65,.59,4.01h-3.9v-3.61Zm0,4.21h3.9c-.02,1.36-.21,2.7-.59,4.01h0c-1.09-.25-2.2-.38-3.31-.39v-3.61Zm0,8.09v-3.87c1.05,.01,2.1,.14,3.12,.37-.71,1.98-1.84,3.32-3.12,3.5Zm5.74-2.54s-.1,.1-.14,.14c-.06,.05-.11,.11-.17,.16-.05,.05-.1,.09-.15,.14-.06,.05-.12,.1-.18,.15-.05,.04-.11,.09-.16,.13-.06,.05-.12,.1-.18,.14-.05,.04-.11,.08-.17,.12-.06,.04-.12,.09-.19,.13-.06,.04-.11,.08-.17,.11-.06,.04-.13,.08-.19,.12-.06,.04-.12,.07-.18,.1-.07,.04-.13,.07-.2,.11-.06,.03-.12,.06-.18,.09-.07,.03-.14,.07-.21,.1-.06,.03-.12,.06-.18,.08-.07,.03-.14,.06-.21,.09-.06,.03-.12,.05-.19,.07-.07,.03-.15,.05-.22,.08-.06,.02-.12,.04-.19,.06-.08,.02-.15,.05-.23,.07-.06,.02-.13,.04-.19,.05-.02,0-.05,.01-.07,.02,.89-.86,1.55-1.93,1.92-3.12,.71,.19,1.4,.45,2.06,.79,0,.01-.02,.02-.03,.03Zm.43-.48c-.72-.39-1.49-.7-2.28-.91,.39-1.35,.59-2.75,.61-4.16h3.6c-.07,1.85-.74,3.63-1.93,5.06Z"/></svg>